<?xml version="1.0" encoding="UTF-8"?>
<svg width="35px" height="40px" viewBox="0 0 35 40" version="1.1" xmlns="http://www.w3.org/2000/svg" xmlns:xlink="http://www.w3.org/1999/xlink">
    <!-- Generator: Sketch 52.2 (67145) - http://www.bohemiancoding.com/sketch -->
    <title>desktop_sell_icon_carWorth</title>
    <desc>Created with Sketch.</desc>
    <g id="Sell" stroke="none" stroke-width="1" fill="none" fill-rule="evenodd">
        <g id="Desktop_SellForm_step2_v1" transform="translate(-686.000000, -317.000000)" fill="#000000">
            <g id="icon_carWorth" transform="translate(686.000000, 317.000000)">
                <path d="M32.6666667,40 L32.6666667,35.3125 L35,35.3125 L35,23.59375 L32.4144965,23.59375 L30.0811632,14.0625 L27.399349,14.0625 C27.7879341,12.9623413 28,11.7791748 28,10.546875 C28,4.73144531 23.2895833,0 17.5,0 C11.7104167,0 7,4.73144531 7,10.546875 C7,11.7791748 7.21206593,12.9623413 7.60065102,14.0625 L4.91883684,14.0625 L2.58550351,23.59375 L-5.68434189e-14,23.59375 L-5.68434189e-14,35.3125 L2.33333333,35.3125 L2.33333333,40 L11.6666667,40 L11.6666667,35.3125 L23.3333333,35.3125 L23.3333333,40 L32.6666667,40 Z M30.3333333,37.65625 L25.6666667,37.65625 L25.6666667,35.3125 L30.3333333,35.3125 L30.3333333,37.65625 Z M25.6666667,10.546875 C25.6666667,14.6722413 22.6190538,18.095398 18.6666667,18.6660766 L18.6666667,16.204834 C20.0247396,15.7208252 21,14.418335 21,12.890625 C21,10.9521484 19.4298611,9.375 17.5,9.375 C16.8568143,9.375 16.3333333,8.84918211 16.3333333,8.203125 C16.3333333,7.55706789 16.8568143,7.03125 17.5,7.03125 C18.1431857,7.03125 18.6666667,7.55706789 18.6666667,8.203125 L21,8.203125 C21,6.675415 20.0247396,5.37292484 18.6666667,4.88891602 L18.6666667,2.42767336 C22.6190538,2.99835203 25.6666667,6.42150875 25.6666667,10.546875 Z M16.3333333,2.42767336 L16.3333333,4.88891602 C14.9752604,5.37292484 14,6.675415 14,8.203125 C14,10.1416016 15.5701389,11.71875 17.5,11.71875 C18.1431857,11.71875 18.6666667,12.2445679 18.6666667,12.890625 C18.6666667,13.5366821 18.1431857,14.0625 17.5,14.0625 C16.8568143,14.0625 16.3333333,13.5366821 16.3333333,12.890625 L14,12.890625 C14,14.418335 14.9752604,15.7208252 16.3333333,16.204834 L16.3333333,18.6660766 C12.3809462,18.095398 9.33333333,14.6722413 9.33333333,10.546875 C9.33333333,6.42150875 12.3809462,2.99835203 16.3333333,2.42767336 Z M8.77369796,16.40625 C10.6598091,19.2306519 13.8672309,21.09375 17.5,21.09375 C21.1327691,21.09375 24.3401909,19.2306519 26.226302,16.40625 L28.2521702,16.40625 L30.0115885,23.59375 L4.98841148,23.59375 L6.74782982,16.40625 L8.77369796,16.40625 Z M2.33333333,25.9375 L32.6666667,25.9375 L32.6666667,32.96875 L23.3333333,32.96875 L23.3333333,28.28125 L11.6666667,28.28125 L11.6666667,32.96875 L2.33333333,32.96875 L2.33333333,25.9375 Z M21,32.96875 L14,32.96875 L14,30.625 L21,30.625 L21,32.96875 Z M9.33333333,37.65625 L4.66666667,37.65625 L4.66666667,35.3125 L9.33333333,35.3125 L9.33333333,37.65625 Z" id="Shape" fill-rule="nonzero"></path>
                <path d="M7,27.109375 C5.71332463,27.109375 4.66666667,28.1607055 4.66666667,29.453125 C4.66666667,30.7455445 5.71332463,31.796875 7,31.796875 C8.28667537,31.796875 9.33333333,30.7455445 9.33333333,29.453125 C9.33333333,28.1607055 8.28667537,27.109375 7,27.109375 Z" id="Path"></path>
                <path d="M28,31.796875 C29.2866754,31.796875 30.3333333,30.7455445 30.3333333,29.453125 C30.3333333,28.1607055 29.2866754,27.109375 28,27.109375 C26.7133246,27.109375 25.6666667,28.1607055 25.6666667,29.453125 C25.6666667,30.7455445 26.7133246,31.796875 28,31.796875 Z" id="Path"></path>
            </g>
        </g>
    </g>
</svg>