<?xml version="1.0" encoding="UTF-8"?>
<svg width="87px" height="73px" viewBox="0 0 87 73" version="1.1" xmlns="http://www.w3.org/2000/svg" xmlns:xlink="http://www.w3.org/1999/xlink">
    <!-- Generator: Sketch 52.2 (67145) - http://www.bohemiancoding.com/sketch -->
    <title>Desktop_Sell_icon_dealer</title>
    <desc>Created with Sketch.</desc>
    <g id="Sell" stroke="none" stroke-width="1" fill="none" fill-rule="evenodd">
        <g id="Desktop_SellForm_step1_v1" transform="translate(-677.000000, -1450.000000)" fill="#009999">
            <g id="Group" transform="translate(0.000000, 1226.000000)">
                <g id="Group-3" transform="translate(535.000000, 224.000000)">
                    <g id="icon_dealer" transform="translate(142.000000, 0.000000)">
                        <path d="M82.4547509,43.8590474 L64.5102862,40.9021371 L59.3099869,33.1913938 C57.9611445,31.1932453 55.7062768,30 53.2777486,30 L26.4725205,30 C24.0439923,30 21.7889547,31.1932453 20.4402821,33.1913938 L15.193934,40.9721798 L4.12061352,43.708548 C1.6956537,44.3068504 0,46.4519709 0,48.9226136 L0,57.9246956 C0,60.0365585 0.831939125,62.0224452 2.34356708,63.5166894 C3.83395475,64.9880899 5.89426151,65.8333053 8.00061719,65.8333053 L12.8707576,65.8333053 C13.712892,69.9172816 17.3723367,73 21.7500425,73 C26.1277483,73 29.7871929,69.9172816 30.6293274,65.8333053 L54.5582823,65.8333053 C55.4004168,69.9172816 59.0598614,73 63.4375673,73 C67.8152731,73 71.4747177,69.9172816 72.3168522,65.8333053 L80.4403231,65.8333053 C81.8245094,65.8333053 83.0669806,65.0757692 83.686517,63.8526256 L86.617675,58.054199 C86.6813959,57.9282229 86.7310131,57.7951922 86.7627886,57.6588021 L86.9539511,56.8574263 C86.9858965,56.7243956 87,56.5880055 87,56.4514475 L87,49.1606244 C87.0001699,46.5203339 85.0885451,44.2912293 82.4547509,43.8590474 Z M21.7500425,69.4164007 C18.7515952,69.4164007 16.3125319,67.0053867 16.3125319,64.0414217 C16.3125319,61.0774567 18.7515952,58.6664427 21.7500425,58.6664427 C24.7484897,58.6664427 27.1875531,61.0774567 27.1875531,64.0414217 C27.1875531,67.0053867 24.7484897,69.4164007 21.7500425,69.4164007 Z M63.4375673,69.4164007 C60.43912,69.4164007 58.0000566,67.0053867 58.0000566,64.0414217 C58.0000566,61.0774567 60.43912,58.6664427 63.4375673,58.6664427 C66.4360145,58.6664427 68.8750779,61.0774567 68.8750779,64.0414217 C68.8750779,67.0053867 66.4360145,69.4164007 63.4375673,69.4164007 Z M83.3752195,56.243167 L80.440493,62.2497061 L72.3170221,62.2497061 C71.4748876,58.1657298 67.815443,55.0830114 63.4377372,55.0830114 C59.0600314,55.0830114 55.4005867,58.1657298 54.5584523,62.2497061 L30.6293274,62.2497061 C29.7871929,58.1657298 26.1277483,55.0830114 21.7500425,55.0830114 C17.3723367,55.0830114 13.712892,58.1657298 12.8707576,62.2497061 L8.00044727,62.2497061 C6.849904,62.2497061 5.72060102,61.7877938 4.90650372,60.9828907 C4.08170133,60.1657259 3.62495044,59.0793083 3.62495044,57.9245276 L3.62495044,48.9226136 C3.62495044,48.0985621 4.19130115,47.3846977 4.99843164,47.1834719 L16.7514409,44.2789677 C17.19035,44.1723079 17.5692765,43.9062465 17.8205914,43.5353729 L23.4564013,35.1789602 C24.1289534,34.179886 25.2582564,33.5832633 26.4725205,33.5832633 L53.2777486,33.5832633 C54.4920127,33.5832633 55.6213157,34.179886 56.2938678,35.1789602 L61.9296776,43.5353729 C62.2058012,43.9482385 62.6447102,44.2282413 63.1403733,44.308698 L81.8601931,47.3934321 C82.7381811,47.5368768 83.3753894,48.2804716 83.3753894,49.1606244 L83.3753894,56.243167 L83.3752195,56.243167 Z" id="Shape" fill-rule="nonzero"></path>
                        <path d="M54.5000821,16 C55.3961688,16 56.2924196,15.6580581 56.9763876,14.9756518 C58.3412041,13.6110033 58.3412041,11.3881349 56.9763876,10.0234864 C55.6082875,8.65883788 53.3918767,8.65883788 52.0236124,10.0234864 C50.6587959,11.3881349 50.6587959,13.6110033 52.0236124,14.9756518 C52.7077445,15.6580581 53.6038312,16 54.5000821,16 Z" id="Path"></path>
                        <path d="M25.3453452,17.513692 C25.6828444,17.8501553 26.1398184,18.0394159 26.6180549,18.0394159 L42.1394772,18.0394159 C42.7476509,19.2696939 43.5352054,20.370097 44.4915095,21.3199329 C46.8680106,23.6926719 50.0320662,25 53.4001401,25 C56.7680452,25 59.9321008,23.6926719 62.3087706,21.3199329 C64.6886466,18.9488761 66,15.7945329 66,12.4386481 C66,9.08444563 64.6886466,5.93010237 62.3086018,3.55736331 C57.5449685,-1.18811481 49.2375929,-1.18289963 44.4948845,3.55568099 C43.5350366,4.50719915 42.7476509,5.60777055 42.1394772,6.8378803 L26.6180549,6.8378803 C26.1399872,6.8378803 25.6828444,7.0271409 25.3453452,7.36360418 L21.5273848,11.1698451 C20.8242051,11.8708663 20.8242051,13.0064299 21.5273848,13.7072829 L25.3453452,17.513692 Z M27.363422,10.4269341 L43.3173496,10.4269341 C44.0662605,10.4269341 44.7341715,9.96597943 45.0013022,9.26865928 C45.4653637,8.04191416 46.1509934,6.97482086 47.036929,6.09496938 C50.4330153,2.70577475 56.3674336,2.70577475 59.7635199,6.09496938 C61.4650224,7.78956669 62.4002329,10.0431978 62.4002329,12.4386481 C62.4002329,14.8342666 61.4650224,17.0877295 59.7635199,18.7823268 C56.3674336,22.1715214 50.436559,22.1732037 47.0333852,18.7806445 C46.1509934,17.9026435 45.4653637,16.835382 45.0013022,15.6088051 C44.7341715,14.9113167 44.0660917,14.4505303 43.3173496,14.4505303 L27.363422,14.4505303 L25.3455139,12.4388163 L27.363422,10.4269341 Z" id="Shape" fill-rule="nonzero"></path>
                        <path d="M54.2077653,37.8665937 C53.877322,37.3277656 53.2912881,37 52.6624569,37 L27.7116011,37 C27.0401431,37 26.4256345,37.3724531 26.1095138,37.9685156 L22.2163189,45.3019062 C21.9143504,45.8694375 21.9285025,46.5552187 22.2589458,47.1083125 C22.5858084,47.6615781 23.1790036,48 23.8184062,48 L57.1810729,48 C57.841789,48 58.4493068,47.6400937 58.7690081,47.0582969 C59.0922901,46.4765 59.0745573,45.765625 58.7263813,45.1998125 L54.2077653,37.8665937 Z M26.8554836,44.3333906 L28.8021663,40.6667812 L51.6501547,40.6667812 L53.9093774,44.3333906 L26.8554836,44.3333906 Z" id="Shape" fill-rule="nonzero"></path>
                    </g>
                </g>
            </g>
        </g>
    </g>
</svg>