<?xml version="1.0" encoding="UTF-8"?>
<svg width="33px" height="33px" viewBox="0 0 33 33" version="1.1" xmlns="http://www.w3.org/2000/svg" xmlns:xlink="http://www.w3.org/1999/xlink">
    <!-- Generator: Sketch 52.2 (67145) - http://www.bohemiancoding.com/sketch -->
    <title>Desktop_Sell_icon_guarantee</title>
    <desc>Created with Sketch.</desc>
    <g id="Sell" stroke="none" stroke-width="1" fill="none" fill-rule="evenodd">
        <g id="Desktop_SellForm_step1_v1" transform="translate(-809.000000, -869.000000)" fill="#FF6900">
            <g id="what-is-bitarea" transform="translate(159.000000, 735.000000)">
                <g id="Group-2" transform="translate(646.000000, 0.000000)">
                    <g id="icon_guarantee" transform="translate(4.000000, 134.000000)">
                        <path d="M27.7396473,20.5789261 C29.1349859,18.4847031 29.9484451,15.9798432 29.9484451,13.290184 C29.9484451,5.96191406 23.9153954,0 16.5,0 C9.08460459,0 3.05180961,5.96191406 3.05180961,13.290184 C3.05180961,15.9798432 3.86526881,18.4847031 5.26035265,20.5789261 L0,28.1604767 L6.01929255,27.0514297 L7.14177962,33 L12.1025306,25.8499832 C13.4813096,26.3228073 14.9607201,26.5803681 16.5,26.5803681 C18.0395346,26.5803681 19.5189451,26.3228073 20.8974694,25.8499832 L25.8584751,33 L26.9807075,27.0514297 L33,28.1604767 L27.7396473,20.5789261 Z M8.20541642,28.0275421 L7.59322019,24.7827301 L4.31008557,25.3879853 L6.52550724,22.1947861 C7.58659638,23.3544388 8.85149616,24.3282852 10.2633944,25.0619431 L8.20541642,28.0275421 Z M5.0198561,13.290184 C5.0198561,7.03445435 10.1698963,1.94492338 16.5,1.94492338 C22.8303586,1.94492338 27.9803986,7.03445435 27.9803986,13.290184 C27.9803986,19.5461655 22.8303586,24.6356964 16.5,24.6356964 C10.1698963,24.6356964 5.0198561,19.5461655 5.0198561,13.290184 Z M25.4067798,24.7827301 L24.7945836,28.0275421 L22.7368604,25.0619431 C24.1487586,24.3282852 25.4136584,23.3544388 26.4747476,22.1947861 L28.6901692,25.3877334 L25.4067798,24.7827301 Z" id="Shape" fill-rule="nonzero"></path>
                        <polygon id="Path" points="13.5987059 16.1592521 10.3937483 12.8936271 9 14.3138711 13.5987059 19 23 9.42024398 21.6062517 8"></polygon>
                    </g>
                </g>
            </g>
        </g>
    </g>
</svg>