<?xml version="1.0" encoding="UTF-8"?>
<svg width="38px" height="30px" viewBox="0 0 38 30" version="1.1" xmlns="http://www.w3.org/2000/svg" xmlns:xlink="http://www.w3.org/1999/xlink">
    <!-- Generator: Sketch 52.2 (67145) - http://www.bohemiancoding.com/sketch -->
    <title>Desktop_Sell_003-handshake</title>
    <desc>Created with Sketch.</desc>
    <g id="Sell" stroke="none" stroke-width="1" fill="none" fill-rule="evenodd">
        <g id="Desktop_SellForm_step1_v1" transform="translate(-805.000000, -1008.000000)" fill="#FF6900" fill-rule="nonzero">
            <g id="what-is-bitarea" transform="translate(159.000000, 735.000000)">
                <g id="Group-2" transform="translate(646.000000, 0.000000)">
                    <g id="003-handshake" transform="translate(0.000000, 273.000000)">
                        <path d="M37.839316,11.3221752 L31.3036124,0.55632439 C31.0143819,0.0798899878 30.4151397,-0.108924949 29.9031045,0.114844769 L25.9086511,1.86214041 L19.7492366,0.0456742086 C19.4632717,-0.0387197866 19.1552639,-0.00524300914 18.8942365,0.138492823 L11.8017438,4.04426466 L7.7149623,1.43906193 C7.462099,1.27788566 7.15453648,1.22512094 6.8621888,1.29303519 C6.56976691,1.36080165 6.3172747,1.54333507 6.16193484,1.79917746 L0.160680514,11.6847294 C-0.152003102,12.1998136 0.00519222129,12.8692014 0.514778195,13.1928102 L3.03999712,14.7962961 L2.52959474,15.4744041 C1.49884467,16.8439221 1.77924313,18.7931869 3.1546651,19.8195125 C3.69980186,20.226259 4.34825112,20.4401261 5.01748164,20.4401261 C5.07730196,20.4401261 5.13734493,20.4371701 5.19746212,20.4336968 C5.35792307,21.1207467 5.75195044,21.7574705 6.36188017,22.2125478 C6.92134115,22.6300099 7.57691541,22.8314617 8.22736859,22.8314617 C8.2860014,22.8314617 8.34456,22.829762 8.40304438,22.8265104 C8.56840377,23.5379474 8.9753452,24.1626994 9.56909524,24.6057309 C10.114232,25.0124775 10.7626813,25.2263446 11.4319118,25.2263446 C11.4917321,25.2263446 11.5517751,25.2233886 11.6118923,25.2199152 C11.7723532,25.9069651 12.1663806,26.5436151 12.7763103,26.9987663 C13.3357713,27.4162283 13.9913456,27.6176802 14.6417987,27.6176802 C15.5906855,27.6176802 16.5285879,27.1888375 17.1400762,26.376379 L17.2406427,26.2426936 L21.6927289,29.3980831 C22.2662915,29.804534 22.9286938,30 23.585604,30 C24.6032174,29.9999261 25.6071003,29.5307339 26.2436003,28.6503612 C26.519323,28.2689624 26.7000457,27.8483226 26.7897762,27.4163022 C28.0025848,27.6470925 29.2983701,27.1829255 30.0634912,26.124675 C30.4736241,25.5573434 30.6713428,24.9001492 30.672085,24.2479802 C31.5494249,24.1428942 32.3816398,23.6881125 32.9355344,22.9219155 C33.273304,22.4547186 33.4670149,21.9261846 33.5252024,21.389965 C34.569015,21.4135391 35.6091908,20.944347 36.262019,20.0412869 C36.7704917,19.3379789 36.9722925,18.4803675 36.8302378,17.6265249 C36.6879604,16.7711304 36.2180073,16.0224478 35.5069174,15.5185225 L34.4266634,14.7529167 L37.4809878,12.8329903 C37.9936168,12.5106377 38.1530387,11.8388852 37.839316,11.3221752 Z M5.7367356,17.8674394 C5.59408715,18.0569934 5.38582932,18.1798894 5.15040743,18.2135139 C4.91461444,18.2469907 4.68038005,18.1873533 4.49000895,18.0453171 C4.09694642,17.7520813 4.01686438,17.1952435 4.3113644,16.8038682 L5.7711731,14.8642104 C6.06567312,14.472909 6.62498566,14.3930968 7.01797397,14.6863327 C7.41096228,14.9795686 7.49111853,15.5364802 7.19661851,15.9277816 L5.7367356,17.8674394 Z M8.94395067,20.2605487 C8.64937643,20.6517762 8.09006389,20.7316623 7.6971498,20.4384264 C7.30416149,20.1451166 7.22407945,19.5882049 7.51850525,19.1969774 L8.97838817,17.2573196 C8.97853661,17.2570979 8.97868504,17.2569501 8.97883348,17.2567284 L10.0057984,15.8922357 C10.1484468,15.7026817 10.3567047,15.5797857 10.5921266,15.5461612 C10.8278453,15.5126105 11.0621539,15.5723218 11.252525,15.714358 C11.6455134,16.0075938 11.7256696,16.5645055 11.4311696,16.9558069 L8.94395067,20.2605487 Z M12.1511657,22.653584 C12.0085173,22.8431379 11.8001852,22.9660339 11.5647634,22.9996585 C11.3294157,23.0332092 11.094736,22.9736456 10.9043649,22.8315356 C10.7139938,22.6894995 10.590568,22.4820617 10.5567984,22.2476504 C10.5230289,22.013239 10.5830719,21.7796406 10.7257203,21.5900866 L13.2129393,18.2853449 C13.2130135,18.285271 13.2130135,18.2851971 13.2130877,18.2851232 L13.6661932,17.6831324 C13.8088416,17.4935785 14.0171737,17.3706825 14.2525956,17.3370579 C14.2954198,17.3309242 14.338244,17.3278943 14.3807714,17.3278943 C14.5719589,17.3278943 14.7572089,17.3890097 14.9129941,17.5051808 C15.1033652,17.6472169 15.226791,17.8546547 15.2605605,18.089066 C15.29433,18.3234774 15.2342871,18.5570758 15.0916386,18.7466298 L12.1511657,22.653584 Z M16.8180411,23.1071833 L15.3582324,25.046841 C15.0637324,25.4380685 14.5044198,25.5178807 14.1114315,25.2246449 C13.7185174,24.931409 13.6383612,24.3744973 13.9328612,23.9831959 L15.3926699,22.0435381 C15.5353183,21.8540581 15.7435761,21.7311621 15.9790723,21.6975375 C16.2144199,21.6639868 16.4490996,21.7236982 16.6393965,21.8657343 C17.0323848,22.1589702 17.1125411,22.7158819 16.8180411,23.1071833 Z M34.6333626,17.9889313 C34.6779681,18.2562282 34.6145111,18.5252249 34.4547923,18.7460386 C34.1209564,19.2078407 33.4693157,19.3140353 33.0021828,18.9828886 L32.1960929,18.4115664 C32.1959445,18.4114925 32.1957961,18.4114186 32.1956476,18.4112708 L32.1955734,18.4111969 L27.7014051,15.2298684 C27.2002801,14.8751476 26.5052957,14.9920577 26.1489714,15.4910316 C25.7927214,15.9900056 25.9101355,16.6820807 26.4112605,17.0368015 L30.8968936,20.2121441 C31.3508898,20.5407042 31.454796,21.1751372 31.1282335,21.6267411 C30.7943975,22.0883955 30.1428311,22.1946639 29.675624,21.8635173 L29.3232334,21.6138086 C29.3231591,21.6137347 29.3230849,21.6137347 29.3230107,21.6136608 C29.3228623,21.6135869 29.322788,21.613513 29.3226396,21.6133652 L25.8521706,19.1567018 C25.3510456,18.801981 24.6560612,18.9188172 24.2997369,19.417865 C23.9434869,19.916839 24.060901,20.6089141 24.562026,20.9636349 L28.0243309,23.4145341 C28.4787724,23.7429464 28.5827528,24.3776011 28.2561161,24.8295006 C27.9222801,25.291155 27.2707137,25.3973496 26.8035066,25.0662768 L25.5688776,24.1912988 C25.5687292,24.191151 25.5685808,24.1910032 25.5683581,24.1909293 L23.6995298,22.8680423 C23.1984048,22.5133954 22.5033462,22.6302316 22.1470961,23.1292055 C21.7908461,23.6281795 21.9082602,24.3202546 22.4093852,24.6749754 L24.2457057,25.9748794 C24.6680846,26.314229 24.7526198,26.9176978 24.4362252,27.3553346 C24.1023892,27.8169151 23.4508228,27.9232574 22.9835415,27.5921846 L18.5759123,24.4682766 L18.5995139,24.4369429 C19.6302639,23.067425 19.3497912,21.1182341 17.9743693,20.0919085 C17.7146779,19.8981422 17.4342052,19.7510809 17.1431934,19.648877 C17.4440763,19.076594 17.5580021,18.4270115 17.4641896,17.7750642 C17.3461075,16.9544028 16.9140801,16.2286292 16.2478184,15.7314289 C15.5814824,15.2342285 14.7606972,15.0252389 13.9364237,15.1427401 C13.8175994,15.1596633 13.701076,15.1839025 13.5867049,15.2135365 C13.3793377,14.7241696 13.0441658,14.2812858 12.5874236,13.9405322 C11.9210876,13.4432579 11.1002282,13.2340465 10.2760289,13.3518434 C9.86359526,13.4106679 9.47506008,13.5477527 9.12719677,13.7531952 C8.9290327,13.4362374 8.67052877,13.1495047 8.3528725,12.9125069 C7.15720835,12.0203101 5.52194652,12.1151979 4.43775894,13.0547647 L2.62808303,11.9056909 L7.47612634,3.91974287 L9.58579446,5.26457818 L8.19018499,6.03313996 C7.85909512,6.21552558 7.64363807,6.55280596 7.61825526,6.92866223 C7.56489198,7.71710315 7.72631777,8.50768718 8.08509123,9.21498572 C9.19206397,11.3973317 11.8843493,12.2819167 14.0862713,11.1866423 L19.2543459,8.61676384 L21.8745649,8.65511802 L31.7875929,15.6042467 C31.7876671,15.6043206 31.7878156,15.6043945 31.7878898,15.6044684 L34.2152142,17.3248644 C34.4402454,17.4841192 34.588683,17.7200086 34.6333626,17.9889313 Z M32.4624641,13.3658844 L22.8757759,6.64525508 C22.6927524,6.51696438 22.4750688,6.44653752 22.251225,6.44328591 L19.0162522,6.3959159 C19.01076,6.395842 19.005342,6.395842 18.9998498,6.395842 C18.8272912,6.395842 18.6569592,6.43582199 18.5024357,6.51267817 L13.0918142,9.20323559 C11.9830603,9.75445697 10.6287164,9.31149934 10.0727437,8.21548591 C9.97989605,8.03236128 9.91347027,7.83822553 9.87487651,7.63899067 L19.5636897,2.30347223 L25.6669206,4.1033848 C25.9191902,4.17780227 26.189866,4.16080523 26.4308542,4.05542358 L29.903624,2.53640557 L35.3688705,11.5389244 L32.4624641,13.3658844 Z" id="Shape"></path>
                    </g>
                </g>
            </g>
        </g>
    </g>
</svg>