<?xml version="1.0" encoding="UTF-8"?>
<svg width="26px" height="40px" viewBox="0 0 26 40" version="1.1" xmlns="http://www.w3.org/2000/svg" xmlns:xlink="http://www.w3.org/1999/xlink">
    <!-- Generator: Sketch 52.2 (67145) - http://www.bohemiancoding.com/sketch -->
    <title>desktop_sell_icon_instantCash</title>
    <desc>Created with Sketch.</desc>
    <g id="Sell" stroke="none" stroke-width="1" fill="none" fill-rule="evenodd">
        <g id="Desktop_SellForm_step2_v1" transform="translate(-249.000000, -317.000000)" fill="#000000" fill-rule="nonzero">
            <g id="icon_instantCash" transform="translate(249.000000, 317.000000)">
                <path d="M9.58961039,39.7264957 C9.75844156,39.7948718 9.92727273,39.8290598 10.0961039,39.8290598 C10.5350649,39.8290598 10.974026,39.6239316 11.2441558,39.2136752 L25.7298701,18.017094 C26.0337662,17.6068376 26.0675325,17.025641 25.8311688,16.5811966 C25.5948052,16.1367521 25.1220779,15.8290598 24.6155844,15.8290598 L15.6337662,15.7606838 L18.2337662,1.81196581 C18.3688312,1.1965812 18.0311688,0.547008547 17.4571429,0.273504274 C16.8831169,-8.60422844e-16 16.2077922,0.170940171 15.8025974,0.683760684 L0.438961039,20.2735043 C0.101298701,20.6837607 0.0337662338,21.2649573 0.27012987,21.7435897 C0.506493506,22.2222222 0.979220779,22.5299145 1.51948052,22.5299145 L11.4467532,22.5982906 L8.77922078,38.1880342 C8.64415584,38.8376068 8.98181818,39.4871795 9.58961039,39.7264957 Z M4.35584416,19.7606838 L14.4857143,6.83760684 L12.5948052,16.9230769 C12.5272727,17.3333333 12.6285714,17.7435897 12.8987013,18.0854701 C13.1688312,18.3931624 13.5402597,18.5982906 13.9454545,18.5982906 L21.9480519,18.6324786 L12.5272727,32.4444444 L14.3844156,21.4358974 C14.4519481,21.025641 14.3506494,20.6153846 14.0805195,20.3076923 C13.8441558,20 13.4727273,19.8290598 13.0675325,19.8290598 L4.35584416,19.7606838 Z" id="Shape"></path>
            </g>
        </g>
    </g>
</svg>