<?xml version="1.0" encoding="UTF-8"?>
<svg width="22px" height="32px" viewBox="0 0 22 32" version="1.1" xmlns="http://www.w3.org/2000/svg" xmlns:xlink="http://www.w3.org/1999/xlink">
    <!-- Generator: Sketch 52.2 (67145) - http://www.bohemiancoding.com/sketch -->
    <title>Desktop_Sell_001-lightning</title>
    <desc>Created with Sketch.</desc>
    <g id="Sell" stroke="none" stroke-width="1" fill="none" fill-rule="evenodd">
        <g id="Desktop_SellForm_step1_v1" transform="translate(-814.000000, -743.000000)" fill="#FF6900" fill-rule="nonzero">
            <g id="what-is-bitarea" transform="translate(159.000000, 735.000000)">
                <g id="Group-2" transform="translate(646.000000, 0.000000)">
                    <g id="001-lightning" transform="translate(9.000000, 8.000000)">
                        <path d="M8.04866933,31.9172973 C8.19232162,31.9724324 8.33597391,32 8.4796262,32 C8.85312215,32 9.2266181,31.8345947 9.45646176,31.503784 L21.7818281,14.411898 C22.0404022,14.0810873 22.0691327,13.6124388 21.8680195,13.2540605 C21.6669063,12.8956823 21.2646798,12.6475742 20.833723,12.6475742 L13.1914213,12.5924391 L15.4036665,1.34487544 C15.5185883,0.848659396 15.2312837,0.324875793 14.742866,0.104335329 C14.2544482,-0.116205136 13.679839,0.0216326544 13.3350735,0.435146025 L0.262715313,16.2313568 C-0.0245892632,16.5621675 -0.0820501785,17.030816 0.119063025,17.4167618 C0.320176229,17.8027076 0.722402635,18.0508156 1.18208996,18.0508156 L9.6288445,18.1059507 L7.35913835,30.6767572 C7.24421652,31.2005408 7.5315211,31.7243244 8.04866933,31.9172973 Z M3.5954484,15.8178434 L12.2145857,5.39730648 L10.6056801,13.5297361 C10.5482191,13.8605468 10.6344105,14.1913575 10.8642542,14.4670331 C11.0940978,14.7151411 11.4101329,14.8805464 11.7548984,14.8805464 L18.5640168,14.908114 L10.5482191,26.0454075 L12.1283943,17.1686538 C12.1858552,16.8378431 12.0996639,16.5070324 11.8698202,16.2589243 C11.668707,16.0108163 11.352672,15.8729785 11.0079065,15.8729785 L3.5954484,15.8178434 Z" id="Shape"></path>
                    </g>
                </g>
            </g>
        </g>
    </g>
</svg>