<?xml version="1.0" encoding="UTF-8"?>
<svg width="33px" height="40px" viewBox="0 0 33 40" version="1.1" xmlns="http://www.w3.org/2000/svg" xmlns:xlink="http://www.w3.org/1999/xlink">
    <!-- Generator: Sketch 52.2 (67145) - http://www.bohemiancoding.com/sketch -->
    <title>desktop_sell_icon_maximisedValue</title>
    <desc>Created with Sketch.</desc>
    <g id="Sell" stroke="none" stroke-width="1" fill="none" fill-rule="evenodd">
        <g id="Desktop_SellForm_step2_v1" transform="translate(-466.000000, -317.000000)" fill="#000000">
            <g id="icon_maximisedValue" transform="translate(466.000000, 317.000000)">
                <path d="M32.2883762,8.83633423 L23.7664257,0.399892183 C23.4969802,0.133261456 23.2276436,0 22.823802,0 L2.62573267,0 C1.27915842,0 0.0673069307,1.19978437 0.0673069307,2.53272237 L0.0673069307,37.4574663 C0.0673069307,38.7905121 1.27926733,39.9901887 2.62573267,39.9901887 L30.3643564,39.9901887 C31.8455446,39.9901887 32.9227822,38.7904043 32.9227822,37.4574663 L32.9227822,9.99762803 C32.9227822,9.46652291 32.6843762,9.05423181 32.2883762,8.83633423 Z M24.1702673,4.53218329 L28.344495,8.66447439 L24.8435545,8.66447439 C24.439604,8.66447439 24.1702673,8.39795148 24.1702673,7.99795148 L24.1702673,4.53218329 Z M30.2297426,37.3242049 L2.76034653,37.3242049 L2.76034653,2.66598383 L21.4772277,2.66598383 L21.4772277,7.9980593 C21.4772277,9.7309973 23.0930297,11.330566 24.8435545,11.330566 L30.2297426,11.330566 L30.2297426,37.3242049 Z" id="Shape" fill-rule="nonzero"></path>
                <path d="M26.5939703,22.3946092 L14.0711782,22.3946092 C13.2632772,22.3946092 12.724604,22.9277628 12.724604,23.727655 C12.724604,24.5274394 13.2631683,25.0607008 14.0711782,25.0607008 L26.5939703,25.0607008 C27.2672574,25.0607008 27.9405446,24.5275472 27.9405446,23.727655 C27.9404356,22.9277628 27.4018713,22.3946092 26.5939703,22.3946092 Z" id="Path"></path>
                <path d="M26.5939703,16.1293801 L14.0711782,16.1293801 C13.2632772,16.1293801 12.724604,16.6625337 12.724604,17.4624259 C12.724604,18.2623181 13.2631683,18.7954717 14.0711782,18.7954717 L26.5939703,18.7954717 C27.2672574,18.7954717 27.9405446,18.2623181 27.9405446,17.4624259 C27.9404356,16.6625337 27.4018713,16.1293801 26.5939703,16.1293801 Z" id="Path"></path>
                <path d="M26.5939703,28.6596226 L14.0711782,28.6596226 C13.2632772,28.6596226 12.724604,29.1927763 12.724604,29.9926685 C12.724604,30.7924528 13.2631683,31.3257143 14.0711782,31.3257143 L26.5939703,31.3257143 C27.2672574,31.3257143 27.9405446,30.7925606 27.9405446,29.9926685 C27.9404356,29.1928841 27.4018713,28.6596226 26.5939703,28.6596226 Z" id="Path"></path>
                <path d="M11.3783564,13.996442 C10.8397921,13.4632884 10.0316733,13.4631806 9.49310891,13.996442 L7.74269307,15.7292722 L7.47335644,15.4626415 C6.93479208,14.9293801 6.12678218,14.9293801 5.58821782,15.4626415 C5.04965347,15.9957951 5.04965347,16.7956873 5.58821782,17.328841 L6.80017822,18.5286253 C7.06951485,18.7952561 7.33874257,18.9285175 7.74280198,18.9285175 C8.01213861,18.9285175 8.41608911,18.7952561 8.68542574,18.5286253 L11.3784653,15.8626415 C11.9169208,15.3294879 11.9169208,14.5297035 11.3783564,13.996442 Z" id="Path"></path>
                <path d="M11.3783564,20.1284097 C10.8397921,19.5952561 10.0316733,19.5952561 9.49310891,20.1284097 L7.74269307,21.8612399 L7.47335644,21.5946092 C6.93479208,21.0614555 6.12678218,21.0614555 5.58821782,21.5946092 C5.04965347,22.1277628 5.04965347,22.927655 5.58821782,23.4608086 L6.80017822,24.660593 C7.06951485,24.9272237 7.33874257,25.0604852 7.74280198,25.0604852 C8.01213861,25.0604852 8.41608911,24.9271159 8.68542574,24.660593 L11.3783564,21.9946092 C11.9169208,21.4613477 11.9169208,20.6615633 11.3783564,20.1284097 Z" id="Path"></path>
                <path d="M11.3783564,26.2601617 C10.8397921,25.7270081 10.0316733,25.7269003 9.49310891,26.2601617 L7.74269307,27.9929919 L7.47335644,27.7263612 C6.93479208,27.1932075 6.12678218,27.1932075 5.58821782,27.7263612 C5.04965347,28.2595148 5.04965347,29.059407 5.58821782,29.5925606 L6.80006931,30.7924528 C7.06940594,31.0590836 7.33863366,31.192345 7.74269307,31.192345 C8.0120297,31.192345 8.4159802,31.0590836 8.68531683,30.7924528 L11.3783564,28.126469 C11.9169208,27.5932075 11.9169208,26.7934232 11.3783564,26.2601617 Z" id="Path"></path>
            </g>
        </g>
    </g>
</svg>