<?xml version="1.0" encoding="UTF-8"?>
<svg width="54px" height="50px" viewBox="0 0 54 50" version="1.1" xmlns="http://www.w3.org/2000/svg" xmlns:xlink="http://www.w3.org/1999/xlink">
    <!-- Generator: Sketch 49 (51002) - http://www.bohemiancoding.com/sketch -->
    <title>ic_money</title>
    <desc>Created with Sketch.</desc>
    <defs></defs>
    <g id="Browse-&amp;-home" stroke="none" stroke-width="1" fill="none" fill-rule="evenodd">
        <g id="Group-57" transform="translate(-986.000000, -1111.000000)" fill="#009999" fill-rule="nonzero">
            <g id="Group-50">
                <g id="ic_money" transform="translate(986.000000, 1111.000000)">
                    <path d="M5.22577911,20.1434159 C5.03042288,19.9478488 4.83506665,19.6219035 4.83506665,19.2959583 C4.83506665,18.970013 4.96530414,18.6440678 5.22577911,18.4485007 C5.48625408,18.2529335 5.74672905,18.0573664 6.07232277,18.0573664 C6.39791648,18.0573664 6.7235102,18.1877445 6.91886642,18.4485007 C7.11422265,18.7092568 7.30957888,18.970013 7.30957888,19.2959583 C7.30957888,19.6219035 7.1793414,19.9478488 6.91886642,20.1434159 C6.65839145,20.3389831 6.39791648,20.5345502 6.07232277,20.5345502 C5.8118478,20.5345502 5.48625408,20.4041721 5.22577911,20.1434159 Z M10.7608723,11.2125163 C11.086466,11.2125163 11.4771784,11.0821382 11.7376534,10.756193 C12.1934846,10.2346806 12.0632471,9.45241199 11.5422972,8.99608866 C11.0213472,8.53976532 10.2399223,8.67014342 9.78409111,9.1916558 C9.32825991,9.71316819 9.45849739,10.4954368 9.97944734,10.9517601 C10.2399223,11.0821382 10.5003973,11.2125163 10.7608723,11.2125163 Z M23.9148583,3.06388527 C23.979977,3.06388527 24.1102145,3.06388527 24.1753333,3.06388527 C24.8265207,2.93350717 25.2823519,2.28161669 25.0869957,1.56453716 C24.9567582,0.912646675 24.3055708,0.456323338 23.5892646,0.651890482 C23.5892646,0.651890482 23.5892646,0.651890482 23.5892646,0.651890482 C22.9380772,0.782268579 22.482246,1.43415906 22.6776022,2.15123859 C22.8078397,2.67275098 23.3287896,3.06388527 23.9148583,3.06388527 Z M7.37469762,15.4498044 C7.57005385,15.5149935 7.76541008,15.5801825 7.89564757,15.5801825 C8.35147877,15.5801825 8.80730997,15.3194263 9.00266619,14.928292 C9.32825991,14.3415906 9.06778494,13.559322 8.48171625,13.2985658 C7.89564757,12.9726206 7.11422265,13.2333768 6.85374768,13.8200782 C6.52815397,14.4067797 6.7235102,15.1890482 7.37469762,15.4498044 Z M18.9658338,4.75880052 C19.1611901,4.75880052 19.2914276,4.69361147 19.4867838,4.62842243 C20.0728525,4.36766623 20.3333274,3.58539765 20.0728525,2.99869622 C19.8123775,2.41199478 19.0309526,2.15123859 18.4448839,2.41199478 C17.8588152,2.67275098 17.5983402,3.45501956 17.8588152,4.04172099 C18.0541714,4.49804433 18.5100026,4.75880052 18.9658338,4.75880052 Z M14.4726406,7.49674055 C14.7331156,7.49674055 14.9935905,7.4315515 15.2540655,7.23598435 C15.7750154,6.84485007 15.9052529,6.06258149 15.4494217,5.47588005 C15.0587093,4.95436767 14.2772844,4.82398957 13.6912157,5.28031291 C13.6912157,5.28031291 13.6912157,5.28031291 13.6912157,5.28031291 C13.1702657,5.6714472 13.0400282,6.45371578 13.4958594,7.04041721 C13.7563344,7.36636245 14.1470469,7.49674055 14.4726406,7.49674055 Z M29.1243577,0 C29.1243577,0 29.1243577,0 29.1243577,0 C29.059239,0 28.9290015,0 28.8638828,0 C28.798764,0 28.798764,0 28.7336453,0.0651890482 C28.6685265,0.0651890482 28.6685265,0.0651890482 28.6034078,0.130378096 C28.538289,0.130378096 28.538289,0.195567145 28.4731703,0.195567145 C28.4731703,0.195567145 28.4080516,0.195567145 28.4080516,0.260756193 C28.4080516,0.260756193 28.4080516,0.260756193 28.3429328,0.325945241 C28.2778141,0.391134289 28.2126953,0.391134289 28.2126953,0.456323338 C28.2126953,0.456323338 28.1475766,0.521512386 28.1475766,0.586701434 C28.1475766,0.586701434 28.0824578,0.651890482 28.0824578,0.651890482 C28.0824578,0.651890482 28.0824578,0.651890482 28.0824578,0.717079531 C27.9522204,0.912646675 27.8871016,1.10821382 27.8871016,1.36897001 C27.8871016,1.62972621 27.9522204,1.82529335 28.0824578,2.0208605 C28.0824578,2.0208605 28.0824578,2.0208605 28.0824578,2.0208605 C28.2778141,2.34680574 28.6685265,2.54237288 29.1243577,2.54237288 C41.4969189,2.54237288 51.590324,12.6466754 51.590324,25.0325945 C51.590324,37.4185137 41.4969189,47.5228162 29.1243577,47.5228162 C17.3378653,47.5228162 7.6351726,38.3963494 6.7235102,26.8578879 L8.74219122,28.8787484 C9.00266619,29.1395046 9.32825991,29.2698827 9.58873488,29.2698827 C9.84920985,29.2698827 10.2399223,29.1395046 10.4352785,28.8787484 C10.8911097,28.422425 10.8911097,27.6401565 10.4352785,27.1186441 L6.267679,22.946545 C5.8118478,22.4902216 5.03042288,22.4902216 4.50947294,22.946545 L0.3418734,27.1186441 C-0.1139578,27.5749674 -0.1139578,28.357236 0.3418734,28.8787484 C0.602348371,29.1395046 0.927942085,29.2698827 1.18841706,29.2698827 C1.44889203,29.2698827 1.83960448,29.1395046 2.03496071,28.8787484 L4.18387923,26.7275098 C5.03042288,39.7001304 15.8401342,50 29.059239,50 C42.7992937,50 53.9997175,38.7874837 53.9997175,25.0325945 C54.0648362,11.2125163 42.8644125,0 29.1243577,0 Z M21.0496336,21.0560626 C21.0496336,17.7966102 23.7195021,15.1238592 26.9754392,15.1238592 L27.8871016,15.1238592 L27.8871016,11.8644068 C27.8871016,11.2125163 28.4080516,10.6258149 29.1243577,10.6258149 C29.7755452,10.6258149 30.3616138,11.1473272 30.3616138,11.8644068 L30.3616138,15.1238592 L34.5292134,15.1238592 C35.1804008,15.1238592 35.7664695,15.6453716 35.7664695,16.3624511 C35.7664695,17.0795306 35.2455196,17.601043 34.5292134,17.601043 L30.3616138,17.601043 L30.3616138,18.3181226 L30.3616138,24.5762712 L31.2732762,24.5762712 C34.5292134,24.5762712 37.1990818,27.2490222 37.1990818,30.5084746 C37.1990818,33.767927 34.5292134,36.440678 31.2732762,36.440678 C31.2732762,36.440678 31.2081575,36.440678 31.2081575,36.440678 C31.2081575,36.440678 31.1430388,36.440678 31.1430388,36.440678 L30.3616138,36.440678 L30.3616138,39.7653194 C30.3616138,40.4172099 29.8406639,41.0039113 29.1243577,41.0039113 C28.4731703,41.0039113 27.8871016,40.482399 27.8871016,39.7653194 L27.8871016,36.440678 L23.5241458,36.440678 C22.8729584,36.440678 22.2868897,35.9191656 22.2868897,35.202086 C22.2868897,34.4850065 22.8078397,33.9634941 23.5241458,33.9634941 L27.8871016,33.9634941 L27.8871016,33.1812256 L27.8871016,26.988266 L26.9754392,26.988266 C23.7195021,27.053455 21.0496336,24.380704 21.0496336,21.0560626 Z M31.2732762,27.053455 L30.3616138,27.053455 L30.3616138,33.2464146 L30.3616138,34.0286832 L31.1430388,34.0286832 C31.1430388,34.0286832 31.2081575,34.0286832 31.2081575,34.0286832 C31.2081575,34.0286832 31.2732762,34.0286832 31.2732762,34.0286832 C33.1617198,34.0286832 34.7245696,32.464146 34.7245696,30.5736636 C34.7245696,28.6831812 33.2268385,27.053455 31.2732762,27.053455 Z M23.5241458,21.0560626 C23.5241458,22.946545 25.0869957,24.5110821 26.9754392,24.5110821 L27.8871016,24.5110821 L27.8871016,18.2529335 L27.8871016,17.535854 L26.9754392,17.535854 C25.0869957,17.601043 23.5241458,19.1655802 23.5241458,21.0560626 Z" id="Shape"></path>
                </g>
            </g>
        </g>
    </g>
</svg>