<?xml version="1.0" encoding="UTF-8"?>
<svg width="41px" height="40px" viewBox="0 0 41 40" version="1.1" xmlns="http://www.w3.org/2000/svg" xmlns:xlink="http://www.w3.org/1999/xlink">
    <!-- Generator: sketchtool 52.2 (67145) - http://www.bohemiancoding.com/sketch -->
    <title>01802A52-2BD3-4C3C-8A1B-B880AFAAFE25</title>
    <desc>Created with sketchtool.</desc>
    <g id="Sell" stroke="none" stroke-width="1" fill="none" fill-rule="evenodd">
        <g id="Desktop_SellForm_step2_v1" transform="translate(-241.000000, -317.000000)" fill="#000000">
            <g id="002-rabbit" transform="translate(241.000000, 317.000000)">
                <path d="M37.7876,27.92648 C37.08928,22.72688 32.6236,18.70472 27.23696,18.70472 L18.09056,18.70472 C18.24208,18.3568 18.38,18.00048 18.50024,17.63568 C18.65856,17.15832 18.73808,16.65976 18.73808,16.1536 C18.73808,15.77016 18.6924,15.38592 18.60264,15.00584 C19.6996,14.2796 20.82024,13.3536 21.87744,12.29728 C23.48984,10.684 24.78912,8.93272 25.5348,7.366 C26.6512,5.02056 26.19248,3.8356 25.61184,3.25408 C25.03032,2.67344 23.84448,2.21384 21.49912,3.33024 C21.25624,3.44536 21.00816,3.57568 20.75768,3.71792 C20.74496,1.76944 20.17112,0.51256 19.08344,0.11728 C16.76592,-0.72152 14.00488,3.11104 12.47456,7.33216 C12.05304,8.49432 11.728,9.67672 11.51976,10.79152 C6.78744,11.36288 2.91928,14.43368 1.42872,18.94168 C1.2704,19.41904 1.19088,19.9176 1.19088,20.42376 C1.19088,22.57704 2.59256,24.58304 4.57912,25.44216 C4.08736,26.68216 3.83848,27.99328 3.83848,29.35176 C3.83848,30.96672 4.19992,32.53936 4.89144,33.9724 L3.01328,33.9724 C1.35176,33.97248 0,35.32416 0,36.98568 C0,38.64632 1.35176,39.99808 3.01328,39.99808 L27.23704,39.99896 C30.08016,39.99896 32.7532,38.89184 34.76592,36.88072 C35.31696,36.32888 35.79944,35.72792 36.20992,35.08712 C36.55528,35.19208 36.91584,35.2488 37.28064,35.2488 C39.30952,35.2488 40.96,33.59832 40.96,31.57024 C40.96,29.71328 39.57696,28.17448 37.7876,27.92648 Z M14.06584,7.90944 C15.7172,3.35488 17.92552,1.49864 18.50528,1.70856 C18.77448,1.80592 19.22472,2.70816 19.00632,4.86824 C18.18616,5.48024 17.36088,6.19624 16.56864,6.98856 C15.36168,8.19472 14.33744,9.46944 13.57736,10.70432 C13.49608,10.69928 13.28792,10.69416 13.26416,10.69416 C13.45552,9.79104 13.7264,8.84472 14.06584,7.90944 Z M35.08416,33.67024 C34.68128,34.39984 34.17344,35.07784 33.56824,35.68384 C31.87624,37.37496 29.62816,38.30608 27.23704,38.30608 L17.93312,38.30608 L17.93312,38.3052 C17.2052,38.3052 16.61272,37.71352 16.61272,36.9856 C16.61272,36.2568 17.2052,35.6652 17.93312,35.6652 L21.764,35.6652 C22.2312,35.6652 22.6104,35.286 22.6104,34.8188 L22.6104,33.38496 C22.6104,31.02264 24.53176,29.1012 26.89416,29.1012 L28.01312,29.1012 C28.48032,29.1012 28.85952,28.722 28.85952,28.2548 C28.85952,27.78672 28.48032,27.4084 28.01312,27.4084 L26.89416,27.4084 C23.59816,27.4084 20.9176,30.08904 20.9176,33.38496 L20.9176,33.9724 L17.93312,33.9724 C16.2716,33.9724 14.91984,35.32416 14.91984,36.98568 C14.91984,37.4588 15.02984,37.90656 15.22544,38.30528 L3.01328,38.30528 C2.28536,38.30528 1.69288,37.7136 1.69288,36.98568 C1.69288,36.25688 2.28536,35.66528 3.01328,35.66528 L6.35072,35.66528 C6.5132,35.66528 6.67744,35.61872 6.82304,35.52056 C7.21072,35.25984 7.31312,34.73336 7.0524,34.34576 C6.05704,32.86872 5.53136,31.1412 5.53136,29.35184 C5.53136,27.93152 5.85384,26.57304 6.49032,25.31528 C6.70192,24.8988 6.53432,24.38928 6.11792,24.17768 C6.05272,24.14552 5.98584,24.12264 5.91816,24.10744 C5.06752,23.91872 4.30912,23.42016 3.7632,22.75736 C3.21728,22.09464 2.88376,21.26768 2.88376,20.42376 C2.88376,20.09872 2.93456,19.77792 3.03608,19.4724 C3.73688,17.35384 5.05224,15.56952 6.83992,14.31264 C8.63352,13.0532 10.8088,12.38704 13.13224,12.38704 C13.19232,12.38704 13.68752,12.40904 13.87624,12.44288 C14.24024,12.5072 14.59064,12.32864 14.7616,12.02392 L14.76248,12.0248 C15.45824,10.79072 16.52472,9.42712 17.7656,8.18544 C18.58832,7.36272 19.44232,6.63312 20.27864,6.03296 C20.2964,6.02112 20.31336,6.00928 20.32944,5.99656 C20.9812,5.53184 21.62192,5.14672 22.22712,4.85896 C23.51704,4.24528 24.24248,4.27832 24.41424,4.45096 C24.58688,4.6236 24.6208,5.34816 24.00624,6.63896 C23.34096,8.03552 22.16016,9.62008 20.68064,11.0996 C19.58032,12.19992 18.41304,13.14288 17.29664,13.83272 L17.30424,13.84544 C16.96648,13.97408 16.75912,14.29576 16.75912,14.63688 C16.75912,14.73672 16.77688,14.83832 16.81416,14.93736 C16.96736,15.34024 17.0452,15.74904 17.0452,16.15368 C17.0452,16.47872 16.9936,16.79952 16.89288,17.10504 C16.6576,17.81776 16.3512,18.49568 15.98216,19.12208 C15.74512,19.52496 15.87976,20.04384 16.28264,20.2808 C16.4172,20.3604 16.56536,20.3976 16.71096,20.3976 L27.23704,20.3976 C32.17424,20.3976 36.19048,24.41472 36.19048,29.35192 C36.1904,31.44672 35.09688,33.6432 35.08416,33.67024 Z M37.28064,33.556 C37.19688,33.556 37.11304,33.55008 37.03008,33.53992 C37.54808,32.32952 37.8376,31.02432 37.87816,29.67512 C38.68224,29.92992 39.26712,30.6824 39.26712,31.57024 C39.26712,32.6656 38.37584,33.556 37.28064,33.556 Z" id="Shape" fill-rule="nonzero"></path>
                <circle id="Oval" cx="8.18488" cy="17.39976" r="1.02584"></circle>
                <path d="M27.23656,21.66728 C26.7692,21.66728 26.39016,22.04632 26.39016,22.51368 C26.39016,22.98104 26.7692,23.36008 27.23656,23.36008 C30.54032,23.36008 33.22816,26.04792 33.22816,29.3516 C33.22816,29.81896 33.6072,30.198 34.07456,30.198 C34.54192,30.198 34.92096,29.81896 34.92096,29.3516 C34.92096,25.11448 31.47384,21.66728 27.23656,21.66728 Z" id="Path"></path>
            </g>
        </g>
    </g>
</svg>