<?xml version="1.0" encoding="UTF-8"?>
<svg width="49px" height="37px" viewBox="0 0 49 37" version="1.1" xmlns="http://www.w3.org/2000/svg" xmlns:xlink="http://www.w3.org/1999/xlink">
    <!-- Generator: sketchtool 52.2 (67145) - http://www.bohemiancoding.com/sketch -->
    <title>C183FA84-0102-4C0F-8470-678F269F9C43</title>
    <desc>Created with sketchtool.</desc>
    <g id="Sell" stroke="none" stroke-width="1" fill="none" fill-rule="evenodd">
        <g id="Desktop_SellForm_step2_v1" transform="translate(-458.000000, -320.000000)" fill="#000000" fill-rule="nonzero">
            <g id="001-turtle" transform="translate(458.000000, 320.000000)">
                <path d="M6.83596515,5.78081149 L6.83596515,3.74384015 L8.83119409,3.74384015 L8.83119409,5.78081149 L6.83596515,5.78081149 Z M22.1901629,29.2183168 C20.7913216,27.2112211 18.0408955,23.6233224 15.3386349,22.1456129 C12.9338864,20.8305215 11.4681361,21.7327867 10.8082474,22.3875598 L12.2515054,23.8305277 C12.5075545,23.5762457 12.8789052,23.3539895 13.6898787,23.6316966 C15.2859256,24.1779444 17.5509489,26.3287598 19.9043512,29.5328026 C21.586505,31.8229242 22.7250942,33.8491448 23.1926621,34.9024853 C21.9952294,35.0761937 20.2812682,34.8853974 18.4583668,34.3546532 C15.9191188,33.6152326 13.6051349,32.357516 12.109622,30.9040238 C10.4065662,29.2487582 9.89639916,27.5131455 10.5930935,25.7453939 L10.857208,25.0754566 L10.3113713,24.6037846 C8.43791907,22.9849582 7.48210853,21.131767 7.47063516,19.095701 L7.42406013,10.7292938 L6.40736126,10.7292938 C4.00193124,10.7290675 2.04475751,8.77934646 2.04475751,6.38296285 C2.04475751,3.98657923 4.00193124,2.03685817 6.40747486,2.03685817 L9.09985251,2.03685817 C10.1046236,2.03685817 10.7022608,2.91547181 10.7734865,3.78378742 C10.7860959,3.93837091 10.7873454,4.20114021 10.788595,4.4791868 C10.7945021,5.76836333 10.8025675,7.53385165 11.692037,8.5323071 L13.2214021,7.18021079 C12.8438035,6.75640759 12.8364197,5.15421647 12.8333525,4.47002043 C12.8318758,4.13754144 12.8306262,3.85055481 12.8114282,3.61788742 C12.6425085,1.55534078 11.0469161,0 9.09985251,0 L6.40747486,0 C2.87447467,-0.000113165074 0,2.86330271 0,6.38296285 C0,9.557809 2.3389754,12.1987423 5.39032159,12.6856917 L5.42599125,19.1069043 C5.43962297,21.5190178 6.48687961,23.7789244 8.46359213,25.6795318 C7.83164846,27.9935312 8.60377162,30.3422724 10.6816996,32.3618163 C12.4090653,34.0406201 15.0343068,35.4796272 17.8845852,36.3095799 C19.4604116,36.7684643 20.9445648,37 22.2248102,37 C23.2445762,37 24.1349545,36.8531117 24.8393735,36.5574114 L25.3269345,36.3526958 L25.4407594,35.838021 C25.5245944,35.4586917 25.5324327,34.8989772 24.5562881,33.0468045 C23.9520623,31.9001028 23.111667,30.5403112 22.1901629,29.2183168 Z M36.027605,25.3909609 C34.9338869,24.9414692 33.321482,24.7030304 32.0765655,25.3808892 C31.3105766,25.7980156 30.820062,26.4891147 30.6582989,27.3797239 L32.6702267,27.7427574 C32.7210049,27.4635792 32.840396,27.2864759 33.0571403,27.1683315 C33.5391351,26.9059017 34.4605255,26.9503756 35.2479844,27.2740277 C37.9574017,28.3873457 40.9244584,32.6703043 41.9178698,34.667781 C39.4346254,34.5996556 35.4777924,33.6263228 33.4751796,31.9469531 C32.7320238,31.323753 32.3479502,30.6761093 32.3334097,30.021902 L32.3162565,29.2504557 L31.5661713,29.0580751 C30.3469278,28.7452868 26.6460303,28.2759913 24.1967516,29.8383483 L25.2992167,31.5538176 C26.7056691,30.6567581 29.0361246,30.6984028 30.3987283,30.9024395 C30.6291043,31.8444255 31.2183353,32.7170414 32.1583558,33.5053493 C34.6926055,35.6304763 39.3805529,36.702489 42.2452582,36.7023759 C42.6864714,36.7023759 43.0848583,36.6769137 43.4249697,36.6259894 L44.1200736,36.5218776 L44.2713857,35.838021 C44.5625364,34.5222507 42.4330351,31.4803735 41.7734872,30.5793532 C40.6678413,29.0691653 38.451097,26.3868135 36.027605,25.3909609 Z M48.787119,18.9390805 C47.7181652,22.4664359 45.2597987,25.3003156 41.0518014,27.8560357 L39.9875051,26.1168016 C43.0194261,24.2753796 45.0211301,22.3108339 46.160628,20.0318024 C39.6410323,21.2642833 30.9209367,21.368282 28.2056123,21.368282 C21.9385441,21.368282 15.8184713,20.6795593 10.5067593,19.3763503 L9.80381708,19.2038868 L9.73361374,18.4861939 C9.69896646,18.1322135 9.68147242,17.7752909 9.68147242,17.4256108 C9.68147242,13.6043657 11.6472796,10.0311785 15.216631,7.36444353 C18.6979443,4.7633443 23.3109172,3.33090079 28.2056123,3.33090079 C37.0663418,3.33090079 44.6918105,8.10420362 46.3835066,14.6944849 C46.4900612,14.7767559 46.7400896,14.9039534 46.9124172,14.9915432 C47.7923445,15.4388847 49.6218345,16.3687622 48.787119,18.9390805 Z M14.0766787,18.0657856 C14.2924006,16.1863401 15.0639558,14.2310739 16.3087587,12.4470265 C17.5142569,10.719109 19.036806,9.31529625 20.5651487,8.50560014 L20.5651487,6.74395943 C15.3153474,8.76259803 11.7262299,12.7934248 11.7262299,17.425724 C11.7262299,17.4746113 11.7266843,17.5236117 11.7274795,17.5728385 C12.4946044,17.7500551 13.2787689,17.9144839 14.0766787,18.0657856 Z M27.1832335,19.3249734 L27.1830064,13.4545352 L21.6210387,10.2553585 C19.318869,11.4373677 16.4401912,14.8118371 16.093832,18.4152394 C19.6088837,18.9689561 23.3585146,19.2781231 27.1832335,19.3249734 Z M33.8010912,8.47199011 L33.8010912,6.08782833 C32.0195395,5.61536415 30.1267756,5.36787213 28.2056123,5.36787213 C26.2423043,5.36787213 24.3576059,5.62045658 22.6099062,6.08352806 L22.6099062,8.47210328 L28.2053851,11.690518 L33.8010912,8.47199011 Z M40.9425204,18.711166 C40.5069871,15.2236448 37.3203461,11.5080959 34.8690226,10.2098662 L29.2277639,13.4545352 L29.2279911,19.3271235 C32.8407368,19.2982664 37.0911061,19.1157312 40.9425204,18.711166 Z M45.9829613,16.8059188 C45.3804394,16.499581 44.630695,16.118441 44.4211074,15.2727584 C43.7503133,12.5668683 41.7942755,10.0806316 38.9134394,8.2718011 C37.9660351,7.67700547 36.9362725,7.16719681 35.8458487,6.7482597 L35.8458487,8.42253698 C38.7665577,9.99383403 42.4460988,14.1869395 42.973419,18.4713692 C44.4124739,18.2807993 45.7620139,18.0543559 46.9595602,17.7878522 C46.9861421,17.3384737 46.6932873,17.1670286 45.9829613,16.8059188 Z" id="XMLID_47_"></path>
            </g>
        </g>
    </g>
</svg>