<?xml version="1.0" encoding="UTF-8"?>
<svg width="60px" height="80px" viewBox="0 0 60 80" version="1.1" xmlns="http://www.w3.org/2000/svg" xmlns:xlink="http://www.w3.org/1999/xlink">
    <!-- Generator: Sketch 52.2 (67145) - http://www.bohemiancoding.com/sketch -->
    <title>Desktop_Sell_icon_valuation</title>
    <desc>Created with Sketch.</desc>
    <g id="Sell" stroke="none" stroke-width="1" fill="none" fill-rule="evenodd">
        <g id="Desktop_SellForm_step1_v1" transform="translate(-292.000000, -1441.000000)" fill="#009999">
            <g id="Group" transform="translate(0.000000, 1226.000000)">
                <g id="icon_valuation" transform="translate(292.000000, 215.000000)">
                    <path d="M53.15,11.214015 L45.3333333,11.214015 L45.3333333,10.3315064 C45.3166667,7.5008187 43.0166667,5.20296632 40.1833333,5.21961742 L37.6,5.21961742 C35.9333333,0.990236937 31.15,-1.0911511 26.9166667,0.573959331 C24.7833333,1.40651454 23.1,3.08827607 22.2666667,5.21961742 L19.7333333,5.21961742 C16.9333333,5.21961742 14.6666667,7.4841676 14.6666667,10.2815531 C14.6666667,10.2982042 14.6666667,10.3148553 14.6666667,10.3481575 L14.6666667,11.2306661 L6.85,11.2306661 C3.05,11.2306661 0,14.3777248 0,18.1741765 L0,73.189425 C0,76.9359235 3.03333333,79.9830756 6.8,79.9997267 C6.81666667,79.9997267 6.83333333,79.9997267 6.86666667,79.9997267 L53.15,79.9997267 C56.9,80.0330289 59.9833333,77.019179 60,73.2560294 C60,73.2393783 60,73.2227272 60,73.189425 L60,18.1575254 C60,14.3610737 56.9333333,11.214015 53.15,11.214015 Z M18,10.3315064 C17.9666667,9.38239348 18.7166667,8.58314048 19.6666667,8.54983827 C19.6833333,8.54983827 19.7166667,8.54983827 19.7333333,8.54983827 L23.4666667,8.54983827 C24.25,8.54983827 24.9166667,8.00035183 25.0833333,7.25105214 C25.6333333,4.90324644 27.5666667,3.32139153 29.9,3.32139153 C32.2166667,3.32139153 34.2166667,4.95319975 34.7,7.21774993 C34.8666667,8.00035183 35.5333333,8.54983827 36.3333333,8.54983827 L40.1666667,8.54983827 C41.1666667,8.53318717 41.9833333,9.33244017 41.9833333,10.3315064 L41.9833333,16.8753904 L18,16.8753904 L18,10.3315064 Z M56.6666667,73.1727739 C56.6666667,75.0876509 55.1166667,76.6362036 53.2166667,76.6528547 C53.2,76.6528547 53.1666667,76.6528547 53.15,76.6528547 L6.85,76.6528547 C4.93333333,76.6861569 3.35,75.1542553 3.33333333,73.2393783 C3.33333333,73.2227272 3.33333333,73.189425 3.33333333,73.1727739 L3.33333333,18.1575254 C3.33333333,16.1926951 4.9,14.5442358 6.85,14.5442358 L14.6666667,14.5442358 L14.6666667,18.5904541 C14.6333333,19.4396605 15.3,20.172309 16.1666667,20.2056113 C16.2,20.2056113 16.2333333,20.2056113 16.25,20.2056113 L43.6666667,20.2056113 C44.5666667,20.2389135 45.3166667,19.522916 45.3333333,18.6237563 C45.3333333,18.6071052 45.3333333,18.6071052 45.3333333,18.5904541 L45.3333333,14.5442358 L53.15,14.5442358 C55.1166667,14.5442358 56.6666667,16.2093462 56.6666667,18.1575254 L56.6666667,73.1727739 Z" id="Shape" fill-rule="nonzero"></path>
                    <path d="M25.3018868,56 L10.6981132,56 C9.76415094,56 9,56.7427184 9,57.6504854 L9,71.3495146 C9,72.2572816 9.76415094,73 10.6981132,73 L25.3018868,73 C26.2358491,73 27,72.2572816 27,71.3495146 L27,57.6504854 C27,56.7427184 26.2358491,56 25.3018868,56 Z M23.6037736,69.6990291 L12.3962264,69.6990291 L12.3962264,59.3009709 L23.6037736,59.3009709 L23.6037736,69.6990291 Z" id="Shape" fill-rule="nonzero"></path>
                    <path d="M21.4346189,61.403432 C20.7841771,60.8110458 19.8005822,60.8787471 19.2294626,61.5557599 L17.2464083,63.9591552 L16.5642377,63.3836944 C15.882067,62.7913082 14.8826076,62.9097854 14.3273525,63.6375742 C13.8038261,64.3822882 13.9148772,65.4485833 14.6129123,66.0409695 L16.4849155,67.6319495 C17.1512217,68.190485 18.1030877,68.1058584 18.6742074,67.4288457 L21.6249921,63.789902 C22.1961117,63.0790386 22.1009251,62.0127435 21.4346189,61.403432 Z" id="Path"></path>
                    <path d="M42.2947625,59 L31.7052375,59 C30.7673569,59 30,59.675 30,60.5 C30,61.325 30.7503045,62 31.7052375,62 L42.2947625,62 C43.2326431,62 44,61.325 44,60.5 C44,59.675 43.2326431,59 42.2947625,59 Z" id="Path"></path>
                    <path d="M49.2881356,66 L31.6949153,66 C30.7627119,66 30,66.675 30,67.5 C30,68.325 30.7627119,69 31.6949153,69 L49.3050847,69 C50.2372881,69 51,68.325 51,67.5 C51,66.675 50.2372881,66 49.2881356,66 Z" id="Path"></path>
                    <path d="M51.0202703,35.9037443 L47.2128378,34.195761 L43.8192568,28.8418903 C42.677027,27.0517925 40.6905405,25.96788 38.5550676,26.0007259 L25.3945946,26.0007259 C23.4577703,25.9843029 21.6368243,26.8711404 20.4614865,28.3820487 L16.0912162,34.0643777 L8.74121622,36.0515505 C6.53952703,36.6427755 5,38.6299484 5,40.8798879 L5,43.7374753 C5,46.5129481 7.28445946,48.8285793 10.0820946,48.8285793 L10.2476351,48.8285793 C11.0918919,51.1277876 13.4260135,53 16.1574324,53 C18.8888514,53 21.222973,51.1277876 22.0672297,48.8285793 L36.3533784,48.8285793 C37.1976351,51.1277876 39.5317568,53 42.2631757,53 C44.9945946,53 47.3287162,51.1277876 48.172973,48.8285793 L48.9179054,48.8285793 C51.7155405,48.8285793 54,46.5129481 54,43.7374753 L54,40.4857379 C54,38.514988 52.8246622,36.7248901 51.0202703,35.9037443 Z M16.1574324,49.6497251 C14.5351351,49.6497251 13.2108108,48.3358918 13.2108108,46.726446 C13.2108108,45.1170002 14.5351351,43.803167 16.1574324,43.803167 C17.7797297,43.803167 19.1040541,45.1170002 19.1040541,46.726446 C19.1040541,48.3523147 17.7797297,49.6497251 16.1574324,49.6497251 Z M42.2797297,49.6497251 C40.6574324,49.6497251 39.3331081,48.3358918 39.3331081,46.726446 C39.3331081,45.1170002 40.6574324,43.803167 42.2797297,43.803167 C43.902027,43.803167 45.2263514,45.1170002 45.2263514,46.726446 C45.2097973,48.3523147 43.902027,49.6497251 42.2797297,49.6497251 Z M48.9179054,45.5439961 L48.4047297,45.5439961 C47.8253378,42.5878712 45.2925676,40.5842754 42.2797297,40.5842754 C39.2668919,40.5842754 36.7175676,42.5878712 36.1381757,45.5439961 L22.2824324,45.5439961 C21.7361486,42.620717 19.1371622,40.5185837 16.1574324,40.5514296 C13.1942568,40.5514296 10.6283784,42.6042941 10.0158784,45.4947273 C9.0722973,45.4618815 8.31081081,44.6900044 8.31081081,43.7374753 L8.31081081,40.8798879 C8.31081081,40.0915879 8.84054054,39.4018254 9.60202703,39.2047504 L17.4983108,37.0697713 C17.8459459,36.9712338 18.160473,36.7741588 18.3756757,36.4785464 L23.0935811,30.3692215 C23.6398649,29.6630362 24.5006757,29.2688862 25.3945946,29.2853091 L38.5550676,29.2853091 C39.5483108,29.2688862 40.4753378,29.7615736 41.0050676,30.5991424 L44.6635135,36.3800089 C44.8290541,36.6427755 45.0939189,36.8562734 45.3753378,36.9876568 L49.6297297,38.892715 C50.2587838,39.1719046 50.6560811,39.7959754 50.6560811,40.469315 L50.6726351,43.7374753 C50.6726351,44.7064273 49.9111486,45.5111502 48.9179054,45.5439961 Z" id="Shape" fill-rule="nonzero"></path>
                </g>
            </g>
        </g>
    </g>
</svg>