<?xml version="1.0" encoding="UTF-8"?>
<svg width="12px" height="13px" viewBox="0 0 12 13" version="1.1" xmlns="http://www.w3.org/2000/svg" xmlns:xlink="http://www.w3.org/1999/xlink">
    <!-- Generator: sketchtool 52.2 (67145) - http://www.bohemiancoding.com/sketch -->
    <title>94CCFCAC-7203-4762-8AF5-3A938CA9E733</title>
    <desc>Created with sketchtool.</desc>
    <g id="Buy_Used-Cars" stroke="none" stroke-width="1" fill="none" fill-rule="evenodd">
        <g id="Desktop_Buy_UsedCars_ListingDetail_v5" transform="translate(-1097.000000, -483.000000)" fill="#FFFFFF">
            <g id="Group-18" transform="translate(988.000000, 478.000000)">
                <g id="urgent-sales" transform="translate(96.000000, 0.000000)">
                    <path d="M13.1150229,12.9957838 C13.4412707,11.6545916 14.6444333,10.5626147 14.7462963,9.22255352 C15.2023956,9.92826708 15.256327,10.4368761 15.3075994,11.1742853 C16.7571354,9.66376949 18.2605687,7.64177371 17.9350026,5.79310345 C17.9350026,5.79310345 20.6835641,6.52769976 21.7948182,10.1134531 C22.4520185,9.61618255 22.3900757,8.59217871 22.0651574,7.98726481 C23.0405941,8.59217871 28.6409097,13.9614711 21.1855836,17.5494864 C22.5871539,15.2279045 21.5471494,12.0958076 19.1135176,10.648683 C19.2759597,11.2705902 19.0728815,12.8949551 17.9962295,13.9144641 C18.2399438,12.8604176 17.6307092,12.1864287 17.6307092,12.1864287 C17.6307092,12.1864287 17.4309378,13.1407775 16.6552383,14.1047539 C15.9474816,14.984924 15.457428,15.9194377 16.3782515,17.5494864 C13.4459412,16.144294 12.6742303,14.8138604 13.1150229,12.9957838 L13.1150229,12.9957838 Z" id="Shape"></path>
                </g>
            </g>
        </g>
    </g>
</svg>