<?xml version="1.0" encoding="UTF-8"?>
<svg width="21px" height="32px" viewBox="0 0 21 32" version="1.1" xmlns="http://www.w3.org/2000/svg" xmlns:xlink="http://www.w3.org/1999/xlink">
    <!-- Generator: sketchtool 52.2 (67145) - http://www.bohemiancoding.com/sketch -->
    <title>1C50E5C9-CDE0-4074-BE3C-392A827578A8</title>
    <desc>Created with sketchtool.</desc>
    <g id="Home" stroke="none" stroke-width="1" fill="none" fill-rule="evenodd">
        <g id="Desktop_Homepage_Sell_v6" transform="translate(-814.000000, -3031.000000)" fill="#FF6900">
            <g id="Group-16" transform="translate(156.000000, 2907.000000)">
                <g id="what-is-bitarea" transform="translate(3.000000, 29.000000)">
                    <g id="Group-2" transform="translate(646.000000, 95.000000)">
                        <g id="icon-1hour-cash" transform="translate(9.000000, 0.000000)">
                            <path d="M19.346892,28.1493923 C20.0129501,27.3803315 20.514054,26.3646409 20.3624745,25.1014365 C20.1573964,23.3900552 17.6108611,21.1544751 14.3037534,18.4106077 C13.1570992,17.4576796 11.7527599,16.2925967 11.4050187,15.8046409 C11.7527599,15.3175691 13.1570992,14.1516022 14.3037534,13.199558 C17.6108611,10.4548066 20.1565048,8.21922652 20.3624745,6.5078453 C20.4944378,5.41082873 20.1324304,4.50121547 19.5992272,3.77723757 C20.4195397,3.48375691 21,2.78187845 21,1.96154696 C21,0.880441989 19.9924423,0 18.7530571,0 L2.24694293,0 C1.00755774,0 0,0.879558011 0,1.96154696 C0,2.78187845 0.579568614,3.48464088 1.39988111,3.77723757 C0.866677989,4.50121547 0.50556216,5.41082873 0.637525476,6.5078453 C0.842603601,8.21922652 3.38824728,10.4548066 6.69535496,13.200442 C7.84290082,14.1524862 9.24724015,15.318453 9.59498132,15.8055249 C9.24724015,16.2925967 7.84290082,17.4585635 6.69535496,18.4106077 C3.38824728,21.1553591 0.842603601,23.3918232 0.637525476,25.1023204 C0.485945992,26.3655249 0.987941576,27.3820994 1.65310802,28.1502762 C0.701723845,28.3774586 0,29.1367956 0,30.038453 C0,31.119558 1.00755774,32 2.24694293,32 L18.7530571,32 C19.9924423,32 21,31.120442 21,30.038453 C21,29.1359116 20.2982762,28.3765746 19.346892,28.1493923 Z M1.71730639,1.96066298 C1.71730639,1.70607735 1.9544837,1.49922652 2.24605129,1.49922652 L18.7521654,1.49922652 C19.043733,1.49922652 19.2809103,1.70607735 19.2809103,1.96066298 C19.2809103,2.21524862 19.043733,2.42209945 18.7521654,2.42209945 L2.24694293,2.42209945 C1.9544837,2.42209945 1.71730639,2.21524862 1.71730639,1.96066298 Z M7.87856658,12.1122652 C5.73772928,10.3345856 2.50106148,7.6481768 2.34591542,6.35049724 C2.22108526,5.31093923 2.82740319,4.48883978 3.4756284,3.92132597 L17.5252632,3.92132597 C18.1734885,4.48972376 18.7789147,5.31093923 18.6540846,6.35049724 C18.4980469,7.64906077 15.2622707,10.3345856 13.1205418,12.1122652 C11.930197,13.0996685 11.0688689,13.8227624 10.5,14.3929282 C9.93113111,13.8227624 9.06891135,13.0996685 7.87856658,12.1122652 Z M2.34591542,25.2570166 C2.50195313,23.959337 5.73772928,21.2729282 7.87856658,19.4961326 C9.06891135,18.5096133 9.93023947,17.7856354 10.5,17.2154696 C11.0688689,17.7856354 11.9310887,18.5087293 13.1205418,19.4961326 C15.2622707,21.2738122 18.4980469,23.960221 18.6540846,25.2570166 C18.8110139,26.5653039 17.8096977,27.5306077 17.0241593,28.0769061 L3.9678159,28.0769061 C3.18316916,27.5341436 2.18809443,26.5741436 2.34591542,25.2570166 Z M18.7530571,30.4990055 L2.24694293,30.4990055 C1.95537534,30.4990055 1.71819803,30.2921547 1.71819803,30.0375691 C1.71819803,29.7829834 1.95537534,29.5761326 2.24694293,29.5761326 L18.7530571,29.5761326 C19.0446247,29.5761326 19.281802,29.7829834 19.281802,30.0375691 C19.281802,30.2921547 19.0446247,30.4990055 18.7530571,30.4990055 Z" id="Shape" fill-rule="nonzero"></path>
                            <path d="M9,10.5181099 C9,9.85792891 10.2920143,10.0167628 11.0699245,10.0167628 C11.8470401,10.0167628 13,9.85792891 13,10.5181099 C13,11.1782909 11.6690505,13 10.8919348,13 C10.1148192,13 9,11.1782909 9,10.5181099 Z" id="Path"></path>
                            <path d="M10.7976961,19 C8.66001262,19 5,23.8579133 5,25.6185308 C5,27.3791484 8.17050655,26.955209 10.30819,26.955209 C12.4458734,26.955209 16,27.3791484 16,25.6185308 C16,23.8579133 12.9353795,19 10.7976961,19 Z M10.4652833,22.3492154 C10.5520751,22.4375752 10.7256588,22.5522551 10.9886382,22.6932549 C11.2967493,22.8577547 11.523276,23.0466944 11.6664826,23.2591341 C11.8088212,23.4715738 11.8817264,23.7300735 11.8817264,24.036513 C11.8817264,24.4679724 11.7350481,24.8204719 11.4416917,25.0921316 C11.1483352,25.3637912 10.7508285,25.515131 10.2474357,25.5470909 L10.1215875,26.22765 L9.56611961,26.22765 L9.70151491,25.532051 C9.21461259,25.493511 8.8318605,25.3816512 8.55325864,25.1974114 L8.55325864,24.065653 C8.83099258,24.2085328 9.08268897,24.3128726 9.30747988,24.3786726 C9.53227079,24.4444725 9.75532586,24.4773724 9.97924886,24.4773724 C10.3628689,24.4773724 10.5546789,24.3504726 10.5546789,24.0947929 C10.5546789,23.9979731 10.5190942,23.9096132 10.447057,23.8306533 C10.3758876,23.7516934 10.2213981,23.6501736 9.9861922,23.5270337 C9.67894903,23.3766339 9.4437431,23.1820542 9.27797065,22.9442345 C9.11306612,22.7064149 9.02974594,22.4309952 9.02974594,22.1179757 C9.02974594,21.6902763 9.17642418,21.3415368 9.47151649,21.0698771 C9.76660881,20.7982175 10.1597759,20.6440577 10.6536216,20.6073978 L10.7490926,20.1232984 L11.3045605,20.1232984 L11.2021461,20.6214978 C11.5571248,20.6581577 11.9034243,20.7671976 12.2401767,20.9495573 L11.7775761,21.9318559 C11.4286729,21.7598362 11.1040713,21.6733563 10.8020357,21.6733563 C10.6562253,21.6733563 10.5416601,21.7071963 10.4592078,21.7748762 C10.3767556,21.8425561 10.3350955,21.9252759 10.3350955,22.0220958 C10.3359634,22.1527556 10.3793593,22.2608555 10.4652833,22.3492154 Z" id="Shape" fill-rule="nonzero"></path>
                        </g>
                    </g>
                </g>
            </g>
        </g>
    </g>
</svg>