<?xml version="1.0" encoding="UTF-8"?>
<svg width="15px" height="15px" viewBox="0 0 15 15" version="1.1" xmlns="http://www.w3.org/2000/svg" xmlns:xlink="http://www.w3.org/1999/xlink">
    <!-- Generator: sketchtool 52.2 (67145) - http://www.bohemiancoding.com/sketch -->
    <title>3E938258-7A63-48D7-972B-C0A8147AAC63</title>
    <desc>Created with sketchtool.</desc>
    <g id="Buy_Used-Cars" stroke="none" stroke-width="1" fill="none" fill-rule="evenodd">
        <g id="Desktop_Buy_UsedCars_ListingDetail_popUpPhotos_v6" transform="translate(-988.000000, -554.000000)" fill="#81C23B" fill-rule="nonzero">
            <g id="Group-14" transform="translate(988.000000, 551.000000)">
                <g id="download" transform="translate(0.000000, 3.000000)">
                    <path d="M7.5,0 C3.34090909,0 0,3.34090909 0,7.5 C0,11.6590909 3.34090909,15 7.5,15 C11.6590909,15 15,11.6590909 15,7.5 C15,3.34090909 11.6590909,0 7.5,0 Z M10.8068182,8.76136364 L7.73863636,11.8295455 C7.67045455,11.8977273 7.56818182,11.9318182 7.5,11.9318182 C7.39772727,11.9318182 7.32954545,11.8977273 7.26136364,11.8295455 L4.19318182,8.76136364 C4.125,8.69318182 4.09090909,8.625 4.09090909,8.52272727 C4.09090909,8.42045455 4.125,8.35227273 4.19318182,8.28409091 L4.67045455,7.80681818 C4.80681818,7.67045455 5.01136364,7.67045455 5.14772727,7.80681818 L6.51136364,9.17045455 C6.61363636,9.27272727 6.81818182,9.20454545 6.81818182,9.03409091 L6.81818182,3.40909091 C6.81818182,3.20454545 6.95454545,3.06818182 7.15909091,3.06818182 L7.84090909,3.06818182 C8.04545455,3.06818182 8.18181818,3.20454545 8.18181818,3.40909091 L8.18181818,9.06818182 C8.18181818,9.20454545 8.35227273,9.30681818 8.48863636,9.20454545 L9.85227273,7.84090909 C9.98863636,7.70454545 10.1931818,7.70454545 10.3295455,7.84090909 L10.8068182,8.31818182 C10.875,8.38636364 10.9090909,8.45454545 10.9090909,8.55681818 C10.9090909,8.625 10.875,8.69318182 10.8068182,8.76136364 Z" id="Shape"></path>
                </g>
            </g>
        </g>
    </g>
</svg>