<?xml version="1.0" encoding="UTF-8"?>
<svg width="16px" height="11px" viewBox="0 0 16 11" version="1.1" xmlns="http://www.w3.org/2000/svg" xmlns:xlink="http://www.w3.org/1999/xlink">
    <!-- Generator: sketchtool 52.2 (67145) - http://www.bohemiancoding.com/sketch -->
    <title>98D1C572-B137-4E09-806A-AF91615E9097</title>
    <desc>Created with sketchtool.</desc>
    <g id="Buy_Used-Cars" stroke="none" stroke-width="1" fill="none" fill-rule="evenodd">
        <g id="Desktop_Buy_UsedCars_ListingDetail_v6" transform="translate(-712.000000, -517.000000)" fill="#767676" fill-rule="nonzero">
            <g id="Group-13" transform="translate(159.000000, 512.000000)">
                <g id="views" transform="translate(553.000000, 0.000000)">
                    <g id="002-view" transform="translate(0.000000, 5.000000)">
                        <path d="M15.8983278,4.72960905 C15.7553899,4.53644975 12.3496612,0 7.99992969,0 C3.65019819,0 0.244313216,4.53644975 0.101531547,4.72942383 C-0.0338438492,4.91267357 -0.0338438492,5.16121528 0.101531547,5.34446502 C0.244313216,5.53762432 3.65019819,10.0740741 7.99992969,10.0740741 C12.3496612,10.0740741 15.7553899,5.53759345 15.8983278,5.34461938 C16.0338907,5.16140051 16.0338907,4.91267357 15.8983278,4.72960905 Z M7.99992969,9.0319338 C4.79588905,9.0319338 2.02084967,6.02100107 1.19937851,5.03668202 C2.01978717,4.05149858 4.78901403,1.04214027 7.99992969,1.04214027 C11.2038141,1.04214027 13.978666,4.0525482 14.8004809,5.03739205 C13.9800722,6.02254462 11.2108453,9.0319338 7.99992969,9.0319338 Z" id="Shape"></path>
                        <path d="M8,1.77777778 C6.20287775,1.77777778 4.74074074,3.23991479 4.74074074,5.03703704 C4.74074074,6.83415928 6.20287775,8.2962963 8,8.2962963 C9.79712225,8.2962963 11.2592593,6.83415928 11.2592593,5.03703704 C11.2592593,3.23991479 9.79712225,1.77777778 8,1.77777778 Z M8,7.20985509 C6.80185414,7.20985509 5.82718195,6.23515072 5.82718195,5.03703704 C5.82718195,3.83892336 6.80188632,2.86421899 8,2.86421899 C9.19811368,2.86421899 10.1728181,3.83892336 10.1728181,5.03703704 C10.1728181,6.23515072 9.19814586,7.20985509 8,7.20985509 Z" id="Shape"></path>
                    </g>
                </g>
            </g>
        </g>
    </g>
</svg>