<?xml version="1.0" encoding="UTF-8"?>
<svg width="22px" height="30px" viewBox="0 0 22 30" version="1.1" xmlns="http://www.w3.org/2000/svg" xmlns:xlink="http://www.w3.org/1999/xlink">
    <!-- Generator: sketchtool 52.2 (67145) - http://www.bohemiancoding.com/sketch -->
    <title>B9A29A83-9028-4033-BD2C-D7F9CA06BEF8</title>
    <desc>Created with sketchtool.</desc>
    <g id="Home" stroke="none" stroke-width="1" fill="none" fill-rule="evenodd">
        <g id="Desktop_Homepage_Buy_v4" transform="translate(-709.000000, -644.000000)" fill="#FFFFFF">
            <g id="mouse" transform="translate(709.000000, 644.000000)">
                <path d="M10.7692308,0 C4.83096244,0 0,4.81289062 0,10.728457 L0,19.2718359 C0,25.1874023 4.83096244,30 10.7692308,30 C16.7071407,30 21.5384615,25.2019922 21.5384615,19.3046484 L21.5384615,10.728457 C21.5384615,4.81289062 16.7071407,0 10.7692308,0 Z M19.5128612,19.3046484 C19.5128612,24.1066406 15.5906948,28.0132617 10.7692308,28.0132617 C5.94806538,28.0132617 2.02560035,24.0917578 2.02560035,19.271543 L2.02560035,10.728457 C2.02560035,5.90824219 5.94806538,1.98673828 10.7692308,1.98673828 C15.5907546,1.98673828 19.5128612,5.90824219 19.5128612,10.728457 L19.5128612,19.3046484 Z" id="Shape" fill-rule="nonzero"></path>
                <path d="M11.1538462,8.46153846 C10.5165561,8.46153846 10,8.8998332 10,9.44056994 L10,12.8671224 C10,13.4078591 10.5165561,13.8461538 11.1538462,13.8461538 C11.7911362,13.8461538 12.3076923,13.4078591 12.3076923,12.8671224 L12.3076923,9.44056994 C12.3076923,8.8998332 11.7911362,8.46153846 11.1538462,8.46153846 Z" id="Path"></path>
            </g>
        </g>
    </g>
</svg>