<?xml version="1.0" encoding="UTF-8"?>
<svg width="12px" height="14px" viewBox="0 0 12 14" version="1.1" xmlns="http://www.w3.org/2000/svg" xmlns:xlink="http://www.w3.org/1999/xlink">
    <!-- Generator: sketchtool 52.2 (67145) - http://www.bohemiancoding.com/sketch -->
    <title>37FC0F3D-671C-45F0-8134-7310360D336B</title>
    <desc>Created with sketchtool.</desc>
    <g id="Buy_Used-Cars" stroke="none" stroke-width="1" fill="none" fill-rule="evenodd">
        <g id="Desktop_Buy_UsedCars_ListingDetail_v6" transform="translate(-1154.000000, -595.000000)" fill="#009999">
            <g id="Group-9" transform="translate(1154.000000, 593.000000)">
                <g id="calculator" transform="translate(0.000000, 2.000000)">
                    <path d="M0.00285714286,0.0142857143 L0.00285714286,13.9857143 L11.5657143,13.9857143 L11.5657143,0.0142857143 L0.00285714286,0.0142857143 Z M11.0028571,13.3914286 L0.597142857,13.3914286 L0.597142857,0.608571429 L11,0.608571429 L11,13.3914286 L11.0028571,13.3914286 Z" id="Shape" fill-rule="nonzero"></path>
                    <path d="M10.0514286,1.56 L1.52,1.56 L1.52,4.56285714 L10.0514286,4.56285714 L10.0514286,1.56 Z M9.48571429,3.99714286 L2.11428571,3.99714286 L2.11428571,2.12571429 L9.48571429,2.12571429 L9.48571429,3.99714286 Z" id="Shape" fill-rule="nonzero"></path>
                    <rect id="Rectangle" x="2.11428571" y="6.43428571" width="1.12857143" height="1"></rect>
                    <rect id="Rectangle" x="5.23428571" y="6.43428571" width="1.12857143" height="1"></rect>
                    <rect id="Rectangle" x="8.32571429" y="6.43428571" width="1.12857143" height="1"></rect>
                    <rect id="Rectangle" x="2.11428571" y="8.78285714" width="1.12857143" height="1"></rect>
                    <rect id="Rectangle" x="5.23428571" y="8.78285714" width="1.12857143" height="1"></rect>
                    <rect id="Rectangle" x="8.32571429" y="8.78285714" width="1.12857143" height="1"></rect>
                    <rect id="Rectangle" x="2.11428571" y="11.1028571" width="1.12857143" height="1"></rect>
                    <rect id="Rectangle" x="5.23428571" y="11.1028571" width="1.12857143" height="1"></rect>
                    <rect id="Rectangle" x="8.32571429" y="11.1028571" width="1.12857143" height="1"></rect>
                </g>
            </g>
        </g>
    </g>
</svg>