<?xml version="1.0" encoding="UTF-8"?>
<svg width="16px" height="16px" viewBox="0 0 16 16" version="1.1" xmlns="http://www.w3.org/2000/svg" xmlns:xlink="http://www.w3.org/1999/xlink">
    <!-- Generator: sketchtool 52.2 (67145) - http://www.bohemiancoding.com/sketch -->
    <title>6D0DCAB5-950E-4182-9462-CECB99CE9811</title>
    <desc>Created with sketchtool.</desc>
    <g id="Buy_Used-Cars" stroke="none" stroke-width="1" fill="none" fill-rule="evenodd">
        <g id="Desktop_Buy_UsedCars_ListingDetail_v6" transform="translate(-159.000000, -514.000000)" fill="#767676">
            <g id="Group-13" transform="translate(159.000000, 512.000000)">
                <g id="Date-of-registration">
                    <g id="Registered-Icon" transform="translate(0.000000, 2.000000)">
                        <path d="M7.85714286,1.42857143 C4.15466667,1.42857143 1.14285714,4.44038095 1.14285714,8.14285714 C1.14285714,11.8453333 4.15466667,14.8571429 7.85714286,14.8571429 C11.559619,14.8571429 14.5714286,11.8453333 14.5714286,8.14285714 C14.5714286,4.44038095 11.559619,1.42857143 7.85714286,1.42857143 M7.85714286,16 C3.52457143,16 0,12.4754286 0,8.14285714 C0,3.81028571 3.52457143,0.285714286 7.85714286,0.285714286 C12.1897143,0.285714286 15.7142857,3.81028571 15.7142857,8.14285714 C15.7142857,12.4754286 12.1897143,16 7.85714286,16" id="Fill-1"></path>
                        <path d="M10.877981,12.0904 C10.7316952,12.0904 10.5854095,12.034781 10.4737905,11.9231619 L7.45321905,8.90220952 C7.34198095,8.79097143 7.28179048,8.63897143 7.28598095,8.4816381 L7.46388571,2.26220952 C7.47264762,1.94678095 7.73969524,1.68468571 8.05131429,1.70754286 C8.36674286,1.71668571 8.61550476,1.97954286 8.60598095,2.29497143 L8.43531429,8.26830476 L11.2821714,11.114781 C11.5050286,11.338019 11.5050286,11.6999238 11.2821714,11.9231619 C11.1705524,12.034781 11.0242667,12.0904 10.877981,12.0904" id="Fill-3"></path>
                    </g>
                </g>
            </g>
        </g>
    </g>
</svg>