<?xml version="1.0" encoding="UTF-8"?>
<svg width="24px" height="24px" viewBox="0 0 24 24" version="1.1" xmlns="http://www.w3.org/2000/svg" xmlns:xlink="http://www.w3.org/1999/xlink">
    <!-- Generator: sketchtool 52.2 (67145) - http://www.bohemiancoding.com/sketch -->
    <title>43583DCC-BD40-4BE1-ABFF-1FD867E255AF</title>
    <desc>Created with sketchtool.</desc>
    <g id="Buy_used-cars" stroke="none" stroke-width="1" fill="none" fill-rule="evenodd">
        <g id="Mobile_Buy_UsedCars_ListingDetail_v6" transform="translate(-111.000000, -1319.000000)" fill="#363636">
            <g id="Group-26" transform="translate(53.000000, 1311.000000)">
                <g id="icon_drag" transform="translate(58.000000, 8.000000)">
                    <path d="M14.5964364,4.2 C14.5964364,2.98495833 13.546792,2 12.2519537,2 C10.9571155,2 9.90747108,2.98495833 9.90747108,4.2 L9.90747108,11.5333333 C7.7504982,11.5357625 6.0025887,13.1759542 6,15.2 L6,19.1240667 L9.12597687,22.7907333 L9.12597687,24 L10.6889653,24 L10.6889653,22.2759333 L7.56298843,18.6092667 L7.56298843,15.2 C7.56298843,13.9849583 8.61263285,13 9.90747108,13 L9.90747108,18.1333333 L11.4704595,18.1333333 L11.4704595,4.2 C11.4704595,3.79497083 11.8203247,3.46666667 12.2519537,3.46666667 C12.6835828,3.46666667 13.033448,3.79497083 13.033448,4.2 L13.033448,10.6269333 L15.588934,11.2810667 L16,9.86573333 L14.5933104,9.5064 L14.5964364,4.2 Z" id="Path"></path>
                    <polygon id="Rectangle" transform="translate(17.756497, 10.756608) rotate(-164.757445) translate(-17.756497, -10.756608) " points="16.9854556 10.0023042 18.5373919 9.992451 18.5275387 11.5109127 16.9756024 11.5207659"></polygon>
                    <polygon id="Path" points="19.8472 12.41718 21.4 12.8065555 21.4 19.3473298 19 22.286013 19 24 20.6 24 20.6 22.7753038 23 19.8366205 23 11.6839785 20.268 11"></polygon>
                    <polygon id="Path" points="3.99204864 1.14432155 2.88977237 0 0 3 2.88977237 6 3.99204864 4.85567845 2.98409729 3.80927974 5 3.80927974 5 2.19072026 2.98409729 2.19072026"></polygon>
                    <rect id="Rectangle" x="6" y="1" width="2" height="2"></rect>
                    <polygon id="Path" points="20.0079514 4.85567845 21.1102276 6 24 3 21.1102276 0 20.0079514 1.14432155 21.0159027 2.19072026 19 2.19072026 19 3.80927974 21.0159027 3.80927974"></polygon>
                    <rect id="Rectangle" x="16" y="1" width="2" height="2"></rect>
                </g>
            </g>
        </g>
    </g>
</svg>