<?xml version="1.0" encoding="UTF-8"?>
<svg width="14px" height="14px" viewBox="0 0 14 14" version="1.1" xmlns="http://www.w3.org/2000/svg" xmlns:xlink="http://www.w3.org/1999/xlink">
    <!-- Generator: sketchtool 52.2 (67145) - http://www.bohemiancoding.com/sketch -->
    <title>DED3D966-67E9-461C-BA6B-562B3E3B5389</title>
    <desc>Created with sketchtool.</desc>
    <g id="Buy_Used-Cars" stroke="none" stroke-width="1" fill="none" fill-rule="evenodd">
        <g id="Desktop_Buy_UsedCars_ListingDetail_v6" transform="translate(-1123.000000, -595.000000)" fill="#FF6900" fill-rule="nonzero">
            <g id="information" transform="translate(1123.000000, 595.000000)">
                <path d="M6.19179389,4.72368421 C6.21851145,4.77631579 6.24522901,4.82894737 6.27194656,4.86842105 C6.29866412,4.90789474 6.33874046,4.94736842 6.36545802,4.98684211 C6.40553435,5.02631579 6.44561069,5.06578947 6.4990458,5.10526316 C6.53912214,5.13157895 6.59255725,5.17105263 6.65935115,5.18421053 C6.71278626,5.21052632 6.76622137,5.22368421 6.83301527,5.23684211 C6.89980916,5.25 6.95324427,5.25 7.00667939,5.25 C7.0601145,5.25 7.1269084,5.25 7.18034351,5.23684211 C7.23377863,5.22368421 7.28721374,5.21052632 7.32729008,5.18421053 L7.34064885,5.18421053 C7.39408397,5.15789474 7.44751908,5.13157895 7.5009542,5.09210526 C7.54103053,5.06578947 7.58110687,5.02631579 7.62118321,4.98684211 L7.63454198,4.97368421 C7.67461832,4.93421053 7.70133588,4.89473684 7.72805344,4.85526316 C7.75477099,4.81578947 7.78148855,4.77631579 7.79484733,4.72368421 C7.79484733,4.71052632 7.79484733,4.71052632 7.80820611,4.69736842 C7.83492366,4.64473684 7.84828244,4.57894737 7.86164122,4.52631579 C7.875,4.47368421 7.875,4.40789474 7.875,4.35526316 C7.875,4.30263158 7.875,4.23684211 7.86164122,4.18421053 C7.84828244,4.13157895 7.83492366,4.07894737 7.80820611,4.01315789 C7.76812977,3.92105263 7.71469466,3.84210526 7.64790076,3.77631579 C7.63454198,3.76315789 7.63454198,3.76315789 7.62118321,3.75 C7.58110687,3.71052632 7.54103053,3.68421053 7.48759542,3.64473684 C7.43416031,3.61842105 7.39408397,3.59210526 7.34064885,3.56578947 C7.28721374,3.53947368 7.23377863,3.52631579 7.18034351,3.51315789 C7.11354962,3.5 7.0601145,3.5 7.00667939,3.5 C6.95324427,3.5 6.88645038,3.5 6.83301527,3.51315789 C6.77958015,3.52631579 6.72614504,3.53947368 6.67270992,3.56578947 L6.65935115,3.56578947 C6.60591603,3.59210526 6.55248092,3.61842105 6.51240458,3.64473684 C6.45896947,3.68421053 6.41889313,3.71052632 6.37881679,3.75 C6.33874046,3.78947368 6.29866412,3.82894737 6.27194656,3.86842105 C6.24522901,3.90789474 6.21851145,3.96052632 6.19179389,4.01315789 C6.16507634,4.06578947 6.15171756,4.11842105 6.13835878,4.17105263 C6.125,4.23684211 6.125,4.28947368 6.125,4.34210526 C6.125,4.39473684 6.125,4.46052632 6.13835878,4.51315789 C6.15171756,4.61842105 6.17843511,4.67105263 6.19179389,4.72368421 Z" id="Shape"></path>
                <path d="M8.41868932,9.88888889 L8.1256068,9.88888889 L8.1256068,6.48611111 C8.1256068,6.29166667 7.98543689,6.125 7.79429612,6.125 L6.45631068,6.125 C6.27791262,6.125 6.125,6.27777778 6.125,6.48611111 L6.125,7.23611111 C6.125,7.43055556 6.2651699,7.59722222 6.45631068,7.59722222 L6.72390777,7.59722222 L6.72390777,9.90277778 L6.45631068,9.90277778 C6.27791262,9.90277778 6.125,10.0555556 6.125,10.2638889 L6.125,11.0138889 C6.125,11.2083333 6.2651699,11.375 6.45631068,11.375 L8.41868932,11.375 C8.59708738,11.375 8.75,11.2222222 8.75,11.0138889 L8.75,10.2638889 C8.75,10.0555556 8.59708738,9.88888889 8.41868932,9.88888889 Z" id="Shape"></path>
                <path d="M7,0 C3.13528336,0 0,3.13528336 0,7 C0,10.8647166 3.13528336,14 7,14 C10.8647166,14 14,10.8647166 14,7 C14,3.13528336 10.8647166,0 7,0 Z M7,13.0786106 C3.64716636,13.0786106 0.921389397,10.3528336 0.921389397,7 C0.921389397,3.64716636 3.64716636,0.921389397 7,0.921389397 C10.3528336,0.921389397 13.0786106,3.64716636 13.0786106,7 C13.0786106,10.3528336 10.3528336,13.0786106 7,13.0786106 Z" id="Shape"></path>
            </g>
        </g>
    </g>
</svg>