<?xml version="1.0" encoding="UTF-8"?>
<svg width="16px" height="16px" viewBox="0 0 16 16" version="1.1" xmlns="http://www.w3.org/2000/svg" xmlns:xlink="http://www.w3.org/1999/xlink">
    <!-- Generator: sketchtool 52.2 (67145) - http://www.bohemiancoding.com/sketch -->
    <title>C8CC985B-3481-4006-8A99-431D5089031A</title>
    <desc>Created with sketchtool.</desc>
    <g id="Buy_Used-Cars" stroke="none" stroke-width="1" fill="none" fill-rule="evenodd">
        <g id="Desktop_Buy_UsedCars_ListingDetail_v6" transform="translate(-159.000000, -559.000000)" fill="#FFF">
            <g id="Group-15" transform="translate(159.000000, 556.000000)">
                <g id="ic_owner">
                    <g id="check" transform="translate(0.000000, 3.000000)">
                        <path d="M14.6533438,6.362625 C14.296375,6.362625 14.0070313,6.652 14.0070313,7.0089375 L14.0070313,7.65990625 C14.0060625,9.35796875 13.343875,10.9540313 12.1424688,12.1540313 C10.9419375,13.3531563 9.346625,14.0134063 7.6499375,14.0134063 C7.6486875,14.0134063 7.6474375,14.0134063 7.6461875,14.0134063 C4.1408125,14.0114063 1.290625,11.158 1.292625,7.65259375 C1.29359375,5.9545625 1.95578125,4.3585 3.15721875,3.1584375 C4.35775,1.9593125 5.95309375,1.2990625 7.64975,1.2990625 C7.651,1.2990625 7.65225,1.2990625 7.6535,1.2990625 C8.5495,1.2995625 9.4188125,1.48475 10.23725,1.84940625 C10.563375,1.99471875 10.9453438,1.848125 11.0906563,1.52209375 C11.2359063,1.1960625 11.0894063,0.814 10.7633438,0.6686875 C9.77846875,0.22984375 8.7324375,0.00703125 7.65421875,0.0064375 C7.65259375,0.0064375 7.65134375,0.0064375 7.64971875,0.0064375 C5.6081875,0.0064375 3.68825,0.8010625 2.2436875,2.2439375 C0.798,3.6879375 0.0011875,5.60853125 6.82075991e-13,7.65190625 C-0.00115625,9.69521875 0.79340625,11.6167188 2.23746875,13.0624063 C3.68153125,14.5080938 5.60209375,15.3049063 7.6454375,15.3060938 C7.64703125,15.3060938 7.6483125,15.3060938 7.6499375,15.3060938 C9.69146875,15.3060938 11.6114063,14.5115 13.0559688,13.0685938 C14.5016563,11.6245625 15.2984688,9.70396875 15.2996563,7.66028125 L15.2996563,7.00896875 C15.2996563,6.652 15.0103125,6.362625 14.6533438,6.362625 Z" id="Path"></path>
                        <path d="M15.8106875,0.90009375 C15.5582812,0.64771875 15.1490625,0.64771875 14.8966562,0.90009375 L7.6498125,8.14690625 L6.00578125,6.502875 C5.75340625,6.25046875 5.34415625,6.25046875 5.09178125,6.502875 C4.839375,6.75528125 4.839375,7.1645 5.09178125,7.41690625 L7.19284375,9.51796875 C7.31903125,9.6441875 7.48446875,9.70728125 7.649875,9.70728125 C7.81528125,9.70728125 7.9806875,9.6441875 8.10690625,9.51796875 L15.8106875,1.814125 C16.0630937,1.56171875 16.0630937,1.1525 15.8106875,0.90009375 Z" id="Path"></path>
                    </g>
                </g>
            </g>
        </g>
    </g>
</svg>