<?xml version="1.0" encoding="UTF-8"?>
<svg width="11px" height="10px" viewBox="0 0 11 10" version="1.1" xmlns="http://www.w3.org/2000/svg" xmlns:xlink="http://www.w3.org/1999/xlink">
    <!-- Generator: sketchtool 52.2 (67145) - http://www.bohemiancoding.com/sketch -->
    <title>2E321E97-533B-4127-A03F-20B9E3015CBE</title>
    <desc>Created with sketchtool.</desc>
    <g id="Buy_Used-Cars" stroke="none" stroke-width="1" fill="none" fill-rule="evenodd">
        <g id="Desktop_Buy_UsedCars_ListingDetail_v5" transform="translate(-999.000000, -516.000000)" fill="#FFFFFF">
            <g id="Group-18" transform="translate(988.000000, 478.000000)">
                <g id="good-deal-" transform="translate(0.000000, 31.000000)">
                    <g id="Group-20" transform="translate(11.000000, 7.448276)">
                        <path d="M0,4.79463764 L0,8.59808808 C0,8.96078672 0.29543257,9.25479468 0.659853515,9.25479468 L2.15150972,9.25479468 L2.15150972,4.13793103 L0.659853515,4.13793103 C0.29543257,4.13793103 0,4.431939 0,4.79463764 L0,4.79463764 Z" id="Shape"></path>
                        <path d="M10.1186727,4.32277568 C10.2870275,4.17700536 10.3910319,3.9772497 10.3910319,3.75666971 C10.3910319,3.31037767 9.96597072,2.94856726 9.44165907,2.94856726 L6.4215915,2.94856726 L6.61417922,2.29492016 C6.8336666,1.54968547 6.62565796,0.736747042 5.97809481,0.216336171 C5.94122371,0.182681684 5.90064231,0.15218539 5.85646656,0.125439449 C5.72335958,0.0456950945 5.56613565,0 5.39627352,0 C5.23070142,0 5.07707185,0.0431290633 4.94976221,0.116754421 C4.74059409,0.226501602 4.60076219,0.422704297 4.60076219,0.647133336 L4.60076219,0.676346615 L4.60076219,1.75713923 L3.23154586,3.54882118 C3.19374718,3.59826663 3.16035449,3.64978464 3.13159967,3.70288175 C3.10284485,3.75597886 3.07861196,3.81075375 3.05913289,3.86671297 C3.02017475,3.97863141 3,4.09528714 3,4.21322588 L3,6.74274051 L3,7.63641023 L3,7.96732956 L3,8.35894541 L3.88189173,8.35894541 L7.68344106,8.35894541 L8.45889358,8.35894541 C8.98320523,8.35894541 9.40826637,7.997135 9.40826637,7.55084296 C9.40826637,7.37812932 9.34403182,7.21844322 9.23562152,7.08708216 C9.70323516,7.03684716 10.0652212,6.69783496 10.0652212,6.28608564 C10.0652212,6.10508175 9.99449364,5.9385858 9.8763438,5.80386916 C10.2876073,5.71534108 10.5924315,5.39912708 10.5924315,5.02142702 C10.5924315,4.72278047 10.401699,4.46272307 10.1186727,4.32277568 Z" id="Shape"></path>
                    </g>
                </g>
            </g>
        </g>
    </g>
</svg>