<?xml version="1.0" encoding="UTF-8"?>
<svg width="16px" height="9px" viewBox="0 0 16 9" version="1.1" xmlns="http://www.w3.org/2000/svg" xmlns:xlink="http://www.w3.org/1999/xlink">
    <!-- Generator: sketchtool 52.2 (67145) - http://www.bohemiancoding.com/sketch -->
    <title>3F1660D1-AD85-44BB-97A1-6151D398D188</title>
    <desc>Created with sketchtool.</desc>
    <g id="Buy_Used-Cars" stroke="none" stroke-width="1" fill="none" fill-rule="evenodd">
        <g id="Desktop_Buy_UsedCars_ListingDetail_v6" transform="translate(-531.000000, -519.000000)" fill="#767676" fill-rule="nonzero">
            <g id="Group-13" transform="translate(159.000000, 512.000000)">
                <g id="views" transform="translate(372.000000, 0.000000)">
                    <g id="car" transform="translate(0.000000, 7.000000)">
                        <path d="M15.16719,3.26958137 L13.8819461,2.67662238 L12.7475216,0.848056103 C12.4196532,0.318036893 11.8426049,-0.00328725296 11.2229337,2.53671035e-05 L6.3901542,2.53671035e-05 C5.82949932,2.53671035e-05 5.29835259,0.261722352 4.9573695,0.71223868 L3.49179796,2.65012142 L1.04917873,3.32589591 C0.429507543,3.49815215 0,4.07123542 0,4.72050895 L0,5.66460567 C0,6.46294711 0.629507238,7.1221585 1.41966997,7.1221585 L1.62950572,7.1221585 C1.88196435,8.10600666 2.87540546,8.69565303 3.84917447,8.44058128 C4.48851775,8.27163766 4.99015634,7.76811941 5.15409051,7.1221585 L10.6622788,7.1221585 C10.9147375,8.10600666 11.9081786,8.69565303 12.8819476,8.44058128 C13.5212909,8.27163766 14.0229295,7.76811941 14.1868636,7.1221585 L14.5803057,7.1221585 C15.3704684,7.1221585 15.9999756,6.46294711 15.9999756,5.66460567 L15.9999756,4.58800415 C16.0032543,4.02154612 15.675386,3.50477739 15.16719,3.26958137 Z M3.39015877,7.83105919 C2.7475368,7.83105919 2.22622612,7.3043526 2.22622612,6.65507907 C2.22622612,6.00580554 2.7475368,5.47909895 3.39015877,5.47909895 C4.03278074,5.47909895 4.55409143,6.00580554 4.55409143,6.65507907 C4.55737011,7.30103998 4.03605943,7.82774657 3.39015877,7.83105919 Z M12.4229319,7.83105919 C11.7803099,7.83105919 11.2589992,7.3043526 11.2589992,6.65507907 C11.2589992,6.00580554 11.7803099,5.47909895 12.4229319,5.47909895 C13.0655539,5.47909895 13.5868646,6.00580554 13.5868646,6.65507907 C13.5901432,7.30103998 13.0688326,7.82774657 12.4229319,7.83105919 Z M14.5803057,6.45963449 L14.2327652,6.45963449 C14.1245687,5.44928537 13.2229307,4.72050895 12.2229322,4.83313804 C11.3737532,4.9258914 10.7049017,5.60497851 10.6130986,6.45963449 L5.19999208,6.45963449 C5.09179552,5.44928537 4.19015755,4.72050895 3.19015908,4.83313804 C2.34098004,4.9258914 1.6721286,5.60497851 1.58032546,6.45963449 L1.41639129,6.45963449 C0.986883743,6.45963449 0.652458023,6.0985589 0.652458023,5.66460567 L0.652458023,4.72050895 C0.649179339,4.36605861 0.88196587,4.05798494 1.21967027,3.96191896 L3.77376475,3.25633089 C3.8426171,3.23645517 3.90491209,3.19670373 3.94753497,3.13707656 L5.4754015,1.11306571 C5.69507329,0.828180382 6.0327777,0.662549379 6.3901542,0.662549379 L11.2229337,0.662549379 C11.6163758,0.659236759 11.986867,0.861306583 12.1934241,1.19919383 L13.3803075,3.11388822 C13.4130943,3.17020277 13.4655533,3.21326683 13.5212909,3.23976779 L14.8917806,3.87247822 C15.16719,4.0016704 15.3442389,4.27993049 15.3409602,4.58800415 L15.3409602,5.66460567 L15.3442389,5.66460567 C15.3442389,6.0985589 15.0098132,6.45963449 14.5803057,6.45963449 Z" id="Shape"></path>
                    </g>
                </g>
            </g>
        </g>
    </g>
</svg>