<?xml version="1.0" encoding="UTF-8"?>
<svg width="8px" height="10px" viewBox="0 0 8 10" version="1.1" xmlns="http://www.w3.org/2000/svg" xmlns:xlink="http://www.w3.org/1999/xlink">
    <!-- Generator: sketchtool 52.2 (67145) - http://www.bohemiancoding.com/sketch -->
    <title>630A811B-BF31-4AED-872D-5D1F65BAF14A</title>
    <desc>Created with sketchtool.</desc>
    <g id="Buy_Used-Cars" stroke="none" stroke-width="1" fill="none" fill-rule="evenodd">
        <g id="Desktop_Buy_UsedCars_ListingDetail_v6" transform="translate(-258.000000, -443.000000)" fill="#363636" fill-rule="nonzero">
            <g id="Group-23" transform="translate(258.000000, 441.000000)">
                <g id="noun_1463036_cc" transform="translate(0.000000, 2.000000)">
                    <path d="M1.49761743,2.3 C1.49761743,1.03333333 2.55275698,0 3.84615385,0 C5.13955071,0 6.19469027,1.03333333 6.19469027,2.3 C6.19469027,3.56666667 5.13955071,4.58333333 3.84615385,4.58333333 C2.55275698,4.58333333 1.49761743,3.55 1.49761743,2.3 Z M7.69230769,8.95 C7.65827093,6.98333333 6.04152485,5.36666667 4.03335602,5.26666667 C2.97821647,5.21666667 1.95711368,5.58333333 1.19128659,6.3 C0.425459496,7.01666667 0,7.98333333 0,9.03333333 C0,9.56666667 0.459496256,10 1.00408441,10 L6.68822328,10 C6.96051736,10 7.21579306,9.9 7.40299523,9.71666667 C7.59019741,9.53333333 7.69230769,9.28333333 7.69230769,9.03333333 L7.69230769,8.95 Z" id="Shape"></path>
                </g>
            </g>
        </g>
    </g>
</svg>