<?xml version="1.0" encoding="UTF-8"?>
<svg width="45px" height="45px" viewBox="0 0 45 45" version="1.1" xmlns="http://www.w3.org/2000/svg" xmlns:xlink="http://www.w3.org/1999/xlink">
    <!-- Generator: Sketch 43 (38999) - http://www.bohemiancoding.com/sketch -->
    <title>ic_calculator</title>
    <desc>Created with Sketch.</desc>
    <defs></defs>
    <g id="Page-1" stroke="none" stroke-width="1" fill="none" fill-rule="evenodd">
        <g transform="translate(6.000000, 0.000000)" fill="#232323">
            <g id="Group-3" transform="translate(0.000000, 0.877127)">
                <path d="M24.583688,40.3882086 L16.1732825,40.3882086 L16.1732825,27.2181406 L29.8517152,27.2181406 L29.8517152,35.1201814 C29.8517152,38.0254984 27.489005,40.3882086 24.583688,40.3882086 L24.583688,40.3882086 Z M1.75557007,35.1201814 L1.75557007,27.2181406 L14.4172735,27.2181406 L14.4172735,40.3882086 L7.02359728,40.3882086 C4.11915828,40.3882086 1.75557007,38.0254984 1.75557007,35.1201814 L1.75557007,35.1201814 Z M7.02359728,1.75688707 L24.583688,1.75688707 C27.489005,1.75688707 29.8517152,4.11959728 29.8517152,7.02491429 L29.8517152,11.0777832 L1.75557007,11.0777832 L1.75557007,7.02491429 C1.75557007,4.11959728 4.11915828,1.75688707 7.02359728,1.75688707 L7.02359728,1.75688707 Z M16.1732825,25.4621315 L29.8517152,25.4621315 L29.8517152,12.8337923 L16.1732825,12.8337923 L16.1732825,25.4621315 Z M1.75557007,25.4621315 L14.4163955,25.4621315 L14.4163955,12.8337923 L1.75557007,12.8337923 L1.75557007,25.4621315 Z M24.583688,0.000878004535 L7.02359728,0.000878004535 C3.15071927,0.000878004535 -0.000439002268,3.15203628 -0.000439002268,7.02491429 L-0.000439002268,35.1201814 C-0.000439002268,38.9930594 3.15071927,42.1442177 7.02359728,42.1442177 L24.583688,42.1442177 C28.456566,42.1442177 31.6077243,38.9930594 31.6077243,35.1201814 L31.6077243,7.02491429 C31.6077243,3.15203628 28.456566,0.000878004535 24.583688,0.000878004535 L24.583688,0.000878004535 Z" id="Fill-1"></path>
            </g>
            <polygon id="Fill-4" points="8.77960635 19.3152218 8.77960635 17.5592127 7.02359728 17.5592127 7.02359728 19.3152218 5.26758821 19.3152218 5.26758821 21.0712308 7.02359728 21.0712308 7.02359728 22.8272399 8.77960635 22.8272399 8.77960635 21.0712308 10.5356154 21.0712308 10.5356154 19.3152218"></polygon>
            <polygon id="Fill-6" points="20.1941043 21.0712308 25.4621315 21.0712308 25.4621315 19.3152218 20.1941043 19.3152218"></polygon>
            <polygon id="Fill-8" points="20.3951673 36.8753125 22.1511764 36.8753125 25.6631946 31.6072853 23.9071855 31.6072853"></polygon>
            <polygon id="Fill-9" points="10.7362395 31.6072853 8.98023039 31.6072853 8.10222585 32.9242921 7.22422132 31.6072853 5.46821224 31.6072853 7.22422132 34.2412989 5.46821224 36.8753125 7.22422132 36.8753125 8.10222585 35.5583057 8.98023039 36.8753125 10.7362395 36.8753125 8.98023039 34.2412989"></polygon>
        </g>
    </g>
</svg>