<?xml version="1.0" encoding="UTF-8"?>
<svg width="44px" height="24px" viewBox="0 0 44 24" version="1.1" xmlns="http://www.w3.org/2000/svg" xmlns:xlink="http://www.w3.org/1999/xlink">
    <!-- Generator: Sketch 46.2 (44496) - http://www.bohemiancoding.com/sketch -->
    <title>ic_milleage copy</title>
    <desc>Created with Sketch.</desc>
    <defs></defs>
    <g id="Page-1" stroke="none" stroke-width="1" fill="none" fill-rule="evenodd">
        <g id="Detail-Page-with-Sold-Mark" transform="translate(-175.000000, -2448.000000)" fill="#009999">
            <g id="ic_milleage-copy" transform="translate(175.000000, 2448.000000)">
                <g id="Group-3" transform="translate(0.000000, 0.157575)">
                    <path d="M42.0407167,22 C41.6108,10.4811667 33.11605,1.90483333 21.94555,1.90483333 C10.7741333,1.90483333 2.27938333,10.4811667 1.85038333,22 L42.0407167,22 Z M0.9163,23.8333333 C0.4103,23.8333333 -0.000366666667,23.4235833 -0.000366666667,22.9166667 C-0.000366666667,9.89266667 9.43396667,0.0715 21.94555,0.0715 C31.273449,0.0715 38.8911746,5.5312134 42.163423,13.7074319 C43.2799452,16.4972353 43.89055,19.6033048 43.89055,22.9166667 C43.89055,23.4235833 43.4808,23.8333333 42.9738833,23.8333333 L0.9163,23.8333333 Z" id="Fill-1"></path>
                </g>
                <path d="M6.39246667,21.616925 C5.88463333,21.616925 5.47488333,21.207175 5.47488333,20.7002583 C5.47488333,20.3757583 5.48405,20.0558417 5.49963333,19.735925 C5.5253,19.232675 5.94055,18.7670083 6.46121667,18.869675 C6.96721667,18.8925917 7.3568,19.3243417 7.33113333,19.8312583 C7.31738333,20.1163417 7.30913333,20.4087583 7.30913333,20.7002583 C7.30913333,21.207175 6.89938333,21.616925 6.39246667,21.616925" id="Fill-4"></path>
                <path d="M25.6084583,5.83751667 C25.5360417,5.83751667 25.4617917,5.82926667 25.3875417,5.81001667 C24.8292917,5.6716 24.259125,5.56985 23.678875,5.49926667 C23.1765417,5.43968333 22.8162917,4.98226667 22.8767917,4.48176667 C22.9354583,3.97668333 23.3892083,3.60268333 23.8952083,3.67968333 C24.5515417,3.75576667 25.196875,3.87401667 25.8275417,4.02985 C26.318875,4.15176667 26.6195417,4.64768333 26.497625,5.13993333 C26.3940417,5.55701667 26.0200417,5.83751667 25.6084583,5.83751667 M18.2705417,5.84026667 C17.8589583,5.84026667 17.4849583,5.56068333 17.3804583,5.1436 C17.2594583,4.65226667 17.560125,4.15635 18.0505417,4.03443333 C18.6802917,3.87768333 19.325625,3.75943333 19.980125,3.6806 C20.4907083,3.6091 20.939875,3.97668333 21.0012917,4.47993333 C21.0627083,4.98226667 20.703375,5.43968333 20.202875,5.5011 C19.6207917,5.57351667 19.0497083,5.67526667 18.4905417,5.81368333 C18.4172083,5.8311 18.3420417,5.84026667 18.2705417,5.84026667 M13.2407917,8.11726667 C12.9502083,8.11726667 12.6660417,7.97976667 12.4882083,7.72768333 C12.197625,7.30785 12.3002917,6.73768333 12.7164583,6.45076667 C13.2527083,6.07493333 13.8127917,5.73301667 14.3930417,5.42685 C14.840375,5.19401667 15.393125,5.36176667 15.6314583,5.81001667 C15.8679583,6.25735 15.6965417,6.81285 15.2482917,7.04843333 C14.7349583,7.31885 14.240875,7.62226667 13.7642083,7.95501667 C13.6047083,8.0641 13.421375,8.11726667 13.2407917,8.11726667 M34.5487083,12.0186 C34.2590417,12.0186 33.9739583,11.8820167 33.7970417,11.6281 C33.4615417,11.1496 33.1022083,10.6912667 32.7172083,10.2567667 C32.3807917,9.87818333 32.4165417,9.29793333 32.7960417,8.96243333 C33.1755417,8.62601667 33.7539583,8.66176667 34.090375,9.04218333 C34.5202917,9.52801667 34.9245417,10.0395167 35.2985417,10.5757667 C35.589125,10.9910167 35.487375,11.5611833 35.0730417,11.8526833 C34.9117083,11.9645167 34.7292917,12.0186 34.5487083,12.0186 M9.33395833,12.0305167 C9.153375,12.0305167 8.97095833,11.97735 8.81054167,11.8655167 C8.39529167,11.57585 8.29354167,11.0047667 8.58320833,10.5904333 C8.95720833,10.05235 9.36054167,9.53993333 9.791375,9.05135 C10.126875,8.67276667 10.7080417,8.63701667 11.0847917,8.96976667 C11.4642917,9.30526667 11.5009583,9.88551667 11.166375,10.2659333 C10.7822917,10.7004333 10.4220417,11.1587667 10.0865417,11.6381833 C9.90870833,11.8939333 9.62454167,12.0305167 9.33395833,12.0305167 M36.887125,17.0281833 C36.4837917,17.0281833 36.1152917,16.7605167 36.0034583,16.3526 C35.8485417,15.7861 35.6624583,15.2315167 35.4479583,14.6961833 C35.2600417,14.2250167 35.4892083,13.6924333 35.9594583,13.5036 C36.430625,13.31935 36.9632083,13.5466833 37.151125,14.0169333 C37.390375,14.6155167 37.5975417,15.23335 37.772625,15.8686 C37.9055417,16.3590167 37.618625,16.86135 37.129125,16.9951833 C37.0484583,17.0162667 36.9677917,17.0281833 36.887125,17.0281833 M7.000125,17.0419333 C6.91945833,17.0419333 6.837875,17.0327667 6.758125,17.00985 C6.26770833,16.8751 5.98170833,16.37185 6.11370833,15.88235 C6.28970833,15.2480167 6.49595833,14.6311 6.73520833,14.0306833 C6.923125,13.56135 7.45479167,13.33585 7.926875,13.5201 C8.397125,13.7061833 8.62629167,14.2406 8.438375,14.7117667 C8.223875,15.2471 8.03870833,15.7989333 7.88379167,16.36635 C7.77195833,16.7751833 7.40345833,17.0419333 7.000125,17.0419333" id="Fill-6"></path>
                <path d="M37.4982667,21.616925 C36.99135,21.616925 36.5816,21.207175 36.5816,20.7002583 C36.5816,20.4087583 36.57335,20.1163417 36.5596,19.8312583 C36.5339333,19.3243417 36.9235167,18.8925917 37.4295167,18.869675 C37.90985,18.7670083 38.3645167,19.232675 38.3911,19.735925 C38.4066833,20.0558417 38.4149333,20.3757583 38.4149333,20.7002583 C38.4149333,21.207175 38.0051833,21.616925 37.4982667,21.616925" id="Fill-8"></path>
                <path d="M27.40155,9.55340833 C24.1088833,12.1319917 20.7648833,14.7664917 20.4477167,15.0671583 C20.18555,15.3889083 20.0388833,15.865575 20.0847167,16.352325 C20.13055,16.8399917 20.3633833,17.2809083 20.7401333,17.592575 C21.1178,17.9051583 21.59355,18.0509083 22.0812167,18.0069083 C22.5688833,17.961075 23.0088833,17.727325 23.3214667,17.350575 C23.52405,17.0269917 25.4829667,13.264075 27.40155,9.55340833 M21.9033833,19.847575 C21.0518,19.847575 20.23505,19.5542417 19.5713833,19.0042417 C18.8169667,18.3799917 18.3513,17.499075 18.2596333,16.5237417 C18.16705,15.5484083 18.4613,14.5959917 19.0873833,13.841575 C19.1634667,13.7489917 19.3999667,13.462075 29.5722167,5.53015833 C29.9104667,5.26615833 30.3889667,5.27440833 30.7208,5.547575 C31.0517167,5.822575 31.14705,6.290075 30.9508833,6.67324167 C25.0484667,18.1407417 24.8101333,18.4276583 24.7322167,18.5211583 C24.1088833,19.2737417 23.22705,19.740325 22.2517167,19.8319917 C22.1353,19.8429917 22.0188833,19.847575 21.9033833,19.847575" id="Fill-10"></path>
            </g>
        </g>
    </g>
</svg>