<?xml version="1.0" encoding="UTF-8"?>
<svg width="44px" height="30px" viewBox="0 0 44 30" version="1.1" xmlns="http://www.w3.org/2000/svg" xmlns:xlink="http://www.w3.org/1999/xlink">
    <!-- Generator: Sketch 46.2 (44496) - http://www.bohemiancoding.com/sketch -->
    <title>ic_paper_value_orange</title>
    <desc>Created with Sketch.</desc>
    <defs></defs>
    <g id="Page-1" stroke="none" stroke-width="1" fill="none" fill-rule="evenodd">
        <g id="Detail-Page-with-Sold-Mark" transform="translate(-178.000000, -2779.000000)" fill="#009999">
            <g id="ic_paper_value_orange" transform="translate(178.000000, 2779.000000)">
                <path d="M1.83333333,27.5 L42.1666667,27.5 L42.1666667,1.83333333 L1.83333333,1.83333333 L1.83333333,27.5 Z M0.916666667,29.3333333 C0.40975,29.3333333 0,28.9226667 0,28.4166667 L0,0.916666667 C0,0.410666667 0.40975,0 0.916666667,0 L43.0833333,0 C43.59025,0 44,0.410666667 44,0.916666667 L44,14.6992188 L44,28.4166667 C44,28.9226667 43.59025,29.3333333 43.0833333,29.3333333 L0.916666667,29.3333333 Z" id="Fill-1"></path>
                <path d="M21.1728516,11 L16.5,11 C15.9930833,11 15.5833333,10.5893333 15.5833333,10.0833333 C15.5833333,9.57733333 15.9930833,9.16666667 16.5,9.16666667 L27.5,9.16666667 C28.0069167,9.16666667 28.4166667,9.57733333 28.4166667,10.0833333 C28.4166667,10.5893333 28.0069167,11 27.5,11 L21.1728516,11 Z" id="Fill-3"></path>
                <path d="M33,18.3333333 L11,18.3333333 C10.4930833,18.3333333 10.0833333,17.9226667 10.0833333,17.4166667 C10.0833333,16.9106667 10.4930833,16.5 11,16.5 L33,16.5 C33.5069167,16.5 33.9166667,16.9106667 33.9166667,17.4166667 C33.9166667,17.9226667 33.5069167,18.3333333 33,18.3333333" id="Fill-4"></path>
                <path d="M33,22 L11,22 C10.4930833,22 10.0833333,21.5893333 10.0833333,21.0833333 C10.0833333,20.5773333 10.4930833,20.1666667 11,20.1666667 L33,20.1666667 C33.5069167,20.1666667 33.9166667,20.5773333 33.9166667,21.0833333 C33.9166667,21.5893333 33.5069167,22 33,22" id="Fill-5"></path>
                <path d="M36.6666667,14.6666667 L7.33333333,14.6666667 C6.82641667,14.6666667 6.41666667,14.256 6.41666667,13.75 C6.41666667,13.244 6.82641667,12.8333333 7.33333333,12.8333333 L36.6666667,12.8333333 C37.1735833,12.8333333 37.5833333,13.244 37.5833333,13.75 C37.5833333,14.256 37.1735833,14.6666667 36.6666667,14.6666667" id="Fill-6"></path>
                <path d="M5.5,23.8333333 L38.5,23.8333333 L38.5,5.5 L5.5,5.5 L5.5,23.8333333 Z M39.4166667,25.6666667 L4.58333333,25.6666667 C4.07641667,25.6666667 3.66666667,25.256 3.66666667,24.75 L3.66666667,4.58333333 C3.66666667,4.07733333 4.07641667,3.66666667 4.58333333,3.66666667 L39.4166667,3.66666667 C39.9235833,3.66666667 40.3333333,4.07733333 40.3333333,4.58333333 L40.3333333,24.75 C40.3333333,25.256 39.9235833,25.6666667 39.4166667,25.6666667 L39.4166667,25.6666667 Z" id="Fill-7"></path>
            </g>
        </g>
    </g>
</svg>