<?xml version="1.0" encoding="UTF-8" standalone="no"?>
<svg width="40px" height="40px" viewBox="0 0 40 40" version="1.1" xmlns="http://www.w3.org/2000/svg" xmlns:xlink="http://www.w3.org/1999/xlink" xmlns:sketch="http://www.bohemiancoding.com/sketch/ns">
    <!-- Generator: Sketch 3.4.4 (17249) - http://www.bohemiancoding.com/sketch -->
    <title>Fill 72</title>
    <desc>Created with Sketch.</desc>
    <defs></defs>
    <g id="Page-1" stroke="none" stroke-width="1" fill="none" fill-rule="evenodd" sketch:type="MSPage">
        <g id="App-v2" sketch:type="MSArtboardGroup" transform="translate(-60.000000, -2392.000000)" fill="#5B5B58">
            <path d="M63.946,2416.218 L77.608,2416.218 C78.022,2416.218 78.357,2415.882 78.357,2415.468 C78.357,2415.054 78.022,2414.718 77.608,2414.718 L63.946,2414.718 C63.532,2414.718 63.195,2415.054 63.195,2415.468 C63.195,2415.882 63.532,2416.218 63.946,2416.218 L63.946,2416.218 Z M73.373,2393.5 L85.78,2393.5 C87.227,2393.5 88.395,2394.636 88.44,2396.088 C88.452,2396.494 88.785,2396.814 89.19,2396.814 L89.213,2396.814 C89.627,2396.801 89.951,2396.455 89.94,2396.041 C89.869,2393.775 88.041,2392 85.78,2392 L73.373,2392 C72.959,2392 72.623,2392.336 72.623,2392.75 C72.623,2393.164 72.959,2393.5 73.373,2393.5 L73.373,2393.5 Z M63.946,2421.476 L77.608,2421.476 C78.022,2421.476 78.357,2421.14 78.357,2420.726 C78.357,2420.312 78.022,2419.976 77.608,2419.976 L63.946,2419.976 C63.532,2419.976 63.195,2420.312 63.195,2420.726 C63.195,2421.14 63.532,2421.476 63.946,2421.476 L63.946,2421.476 Z M63.946,2426.738 L85.793,2426.738 C86.206,2426.738 86.543,2426.402 86.543,2425.988 C86.543,2425.574 86.206,2425.238 85.793,2425.238 L63.946,2425.238 C63.532,2425.238 63.195,2425.574 63.195,2425.988 C63.195,2426.402 63.532,2426.738 63.946,2426.738 L63.946,2426.738 Z M89.192,2417.959 C88.778,2417.959 88.441,2418.295 88.441,2418.709 L88.441,2427.556 C88.441,2429.026 87.247,2430.222 85.78,2430.222 L64.165,2430.222 C62.696,2430.222 61.5,2429.026 61.5,2427.556 L61.5,2405.537 C61.5,2405.123 61.165,2404.787 60.751,2404.787 C60.336,2404.787 60,2405.123 60,2405.537 L60,2427.556 C60,2429.853 61.87,2431.722 64.165,2431.722 L85.78,2431.722 C88.074,2431.722 89.942,2429.853 89.942,2427.556 L89.942,2418.709 C89.942,2418.295 89.606,2417.959 89.192,2417.959 L89.192,2417.959 Z M77.608,2409.459 L63.946,2409.459 C63.532,2409.459 63.195,2409.795 63.195,2410.209 C63.195,2410.623 63.532,2410.959 63.946,2410.959 L77.608,2410.959 C78.022,2410.959 78.357,2410.623 78.357,2410.209 C78.357,2409.795 78.022,2409.459 77.608,2409.459 L77.608,2409.459 Z M60.751,2404.429 L68.35,2404.429 C70.511,2404.429 72.272,2402.67 72.272,2400.507 L72.272,2392.75 C72.272,2392.445 72.088,2392.172 71.806,2392.055 C71.524,2391.942 71.2,2392.007 70.987,2392.223 L60.217,2403.153 C60.005,2403.368 59.942,2403.69 60.059,2403.968 C60.176,2404.248 60.449,2404.429 60.751,2404.429 L60.751,2404.429 Z M70.772,2394.58 L70.772,2400.507 C70.772,2401.842 69.684,2402.929 68.35,2402.929 L62.543,2402.929 L70.772,2394.58 L70.772,2394.58 Z M96.182,2397.248 C94.37,2396.008 93.084,2395.457 92.016,2395.457 C91.098,2395.457 90.35,2395.868 89.798,2396.678 C89.776,2396.711 89.721,2396.78 89.644,2396.879 C89.46,2397.114 89.165,2397.494 88.842,2397.934 L79.871,2411.029 C79.741,2411.214 79.662,2411.335 79.662,2411.335 C79.59,2411.445 79.547,2411.573 79.54,2411.705 L79.069,2420.343 C79.056,2420.592 79.166,2420.833 79.366,2420.983 C79.498,2421.083 79.657,2421.134 79.819,2421.134 C79.901,2421.134 79.982,2421.121 80.063,2421.093 L88.636,2418.142 C88.787,2418.09 88.918,2417.992 89.008,2417.86 L97.858,2405.093 L99.227,2403.14 C100.861,2400.753 98.619,2398.921 96.182,2397.248 L96.182,2397.248 Z M80.627,2419.312 L80.662,2418.68 L81.248,2419.098 L80.627,2419.312 L80.627,2419.312 Z M82.99,2418.5 L80.759,2416.906 L80.995,2412.584 C81.569,2412.85 82.233,2413.321 82.453,2413.93 C82.543,2414.179 82.758,2414.363 83.019,2414.413 C83.034,2414.415 84.424,2414.708 84.872,2415.851 C84.973,2416.11 85.209,2416.292 85.486,2416.323 C85.494,2416.324 86.276,2416.443 87.043,2417.105 L82.99,2418.5 L82.99,2418.5 Z M88.311,2416.235 C87.501,2415.418 86.61,2415.066 86.092,2414.924 C85.463,2413.755 84.31,2413.244 83.698,2413.046 C83.182,2412.059 82.21,2411.49 81.569,2411.202 L89.596,2399.454 L89.811,2399.157 C90.877,2399.304 92.367,2399.959 93.746,2400.905 C95.151,2401.869 96.309,2403.029 96.826,2403.967 L88.311,2416.235 L88.311,2416.235 Z M97.987,2402.295 L97.75,2402.634 C97.044,2401.64 95.939,2400.59 94.596,2399.669 C93.301,2398.78 91.964,2398.144 90.799,2397.836 C90.807,2397.826 90.821,2397.809 90.828,2397.8 C90.942,2397.653 91.018,2397.553 91.035,2397.526 C91.307,2397.127 91.602,2396.957 92.016,2396.957 C92.742,2396.957 93.83,2397.457 95.335,2398.485 C98.651,2400.76 98.512,2401.527 97.987,2402.295 L97.987,2402.295 Z" id="Fill-72" sketch:type="MSShapeGroup"></path>
        </g>
    </g>
</svg>