<?xml version="1.0" encoding="UTF-8"?>
<svg width="45px" height="45px" viewBox="0 0 45 45" version="1.1" xmlns="http://www.w3.org/2000/svg" xmlns:xlink="http://www.w3.org/1999/xlink">
    <!-- Generator: Sketch 40.2 (33826) - http://www.bohemiancoding.com/sketch -->
    <title>ic_transmission</title>
    <desc>Created with Sketch.</desc>
    <defs></defs>
    <g id="Page-1" stroke="none" stroke-width="1" fill="none" fill-rule="evenodd">
        <g id="ic_transmission" transform="translate(3.000000, 3.000000)" fill="#969696">
            <path d="M36.0729091,36.6086364 C35.1647273,36.6086364 34.4256364,35.8704545 34.4256364,34.9613636 C34.4256364,34.0531818 35.1647273,33.315 36.0729091,33.315 C36.9810909,33.315 37.7192727,34.0531818 37.7192727,34.9613636 C37.7192727,35.8704545 36.9810909,36.6086364 36.0729091,36.6086364 M34.4256364,4.37409091 C34.4256364,3.46590909 35.1647273,2.72681818 36.0729091,2.72681818 C36.9810909,2.72681818 37.7192727,3.46590909 37.7192727,4.37409091 C37.7192727,5.28227273 36.9810909,6.02136364 36.0729091,6.02136364 C35.1647273,6.02136364 34.4256364,5.28227273 34.4256364,4.37409091 M21.7610909,34.9613636 C21.7610909,35.8704545 21.022,36.6086364 20.1147273,36.6086364 C19.2065455,36.6086364 18.4674545,35.8704545 18.4674545,34.9613636 C18.4674545,34.0531818 19.2065455,33.315 20.1147273,33.315 C21.022,33.315 21.7610909,34.0531818 21.7610909,34.9613636 M1.81836364,4.37409091 C1.81836364,3.46590909 2.55654545,2.72681818 3.46472727,2.72681818 C4.372,2.72681818 5.11109091,3.46590909 5.11109091,4.37409091 C5.11109091,5.28227273 4.372,6.02136364 3.46472727,6.02136364 C2.55654545,6.02136364 1.81836364,5.28227273 1.81836364,4.37409091 M18.4674545,4.37409091 C18.4674545,3.46590909 19.2065455,2.72681818 20.1147273,2.72681818 C21.022,2.72681818 21.7610909,3.46590909 21.7610909,4.37409091 C21.7610909,5.28227273 21.022,6.02136364 20.1147273,6.02136364 C19.2065455,6.02136364 18.4674545,5.28227273 18.4674545,4.37409091 M36.982,31.6331818 L36.982,7.75136364 C36.982,7.735 36.9738182,7.72227273 36.9729091,7.705 C38.4456364,7.30681818 39.5374545,5.97136364 39.5374545,4.37409091 C39.5374545,2.46318182 37.9838182,0.908636364 36.0729091,0.908636364 C34.162,0.908636364 32.6074545,2.46318182 32.6074545,4.37409091 C32.6074545,5.97136364 33.7001818,7.30681818 35.1729091,7.705 C35.172,7.72227273 35.1638182,7.735 35.1638182,7.75136364 L35.1638182,18.7277273 L21.0238182,18.7277273 L21.0238182,7.75136364 C21.0238182,7.735 21.0156364,7.72227273 21.0147273,7.705 C22.4874545,7.30681818 23.5792727,5.97136364 23.5792727,4.37409091 C23.5792727,2.46318182 22.0247273,0.908636364 20.1147273,0.908636364 C18.2038182,0.908636364 16.6492727,2.46318182 16.6492727,4.37409091 C16.6492727,5.97136364 17.742,7.30681818 19.2147273,7.705 C19.2138182,7.72227273 19.2056364,7.735 19.2056364,7.75136364 L19.2056364,18.7277273 L4.37381818,18.7277273 L4.37381818,7.70227273 C5.842,7.30045455 6.92927273,5.96772727 6.92927273,4.37409091 C6.92927273,2.46318182 5.37472727,0.908636364 3.46472727,0.908636364 C1.55381818,0.908636364 0.000181818182,2.46318182 0.000181818182,4.37409091 C0.000181818182,5.96772727 1.08745455,7.30045455 2.55563636,7.70227273 L2.55563636,19.6368182 C2.55563636,20.1386364 2.96290909,20.5459091 3.46472727,20.5459091 L19.2056364,20.5459091 L19.2056364,31.6331818 C17.7374545,32.0359091 16.6492727,33.3686364 16.6492727,34.9613636 C16.6492727,36.8722727 18.2038182,38.4268182 20.1147273,38.4268182 C22.0247273,38.4268182 23.5792727,36.8722727 23.5792727,34.9613636 C23.5792727,33.3686364 22.492,32.0359091 21.0238182,31.6331818 L21.0238182,20.5459091 L35.1638182,20.5459091 L35.1638182,31.6331818 C33.6956364,32.0359091 32.6074545,33.3686364 32.6074545,34.9613636 C32.6074545,36.8722727 34.162,38.4268182 36.0729091,38.4268182 C37.9838182,38.4268182 39.5374545,36.8722727 39.5374545,34.9613636 C39.5374545,33.3686364 38.4501818,32.0359091 36.982,31.6331818" id="Fill-1"></path>
        </g>
    </g>
</svg>