<?xml version="1.0" encoding="UTF-8"?>
<svg width="45px" height="45px" viewBox="0 0 45 45" version="1.1" xmlns="http://www.w3.org/2000/svg" xmlns:xlink="http://www.w3.org/1999/xlink">
    <!-- Generator: Sketch 40.2 (33826) - http://www.bohemiancoding.com/sketch -->
    <title>ic_owner</title>
    <desc>Created with Sketch.</desc>
    <defs></defs>
    <g id="Page-1" stroke="none" stroke-width="1" fill="none" fill-rule="evenodd">
        <g id="ic_owner" transform="translate(2.000000, 0.000000)" fill="#969696">
            <path d="M11.3989257,19.05266 C11.3989257,18.5386452 10.9815192,18.1231577 10.4672147,18.1231577 C9.7265044,18.1231577 8.81994954,17.5003911 8.81994954,17.1936553 L8.81994954,13.4840115 C8.85628627,13.2748735 9.47121557,12.7627177 10.1327304,12.4643474 C10.4681464,12.3146976 10.6833717,11.9828652 10.6833717,11.6157118 L10.6833717,7.89770248 C10.6833717,5.33506455 12.7741313,3.25019081 15.3419269,3.25019081 C15.4677079,3.25019081 15.5925572,3.22509425 15.7080894,3.17490112 C15.7528115,3.15631107 18.8703167,1.84943079 21.871358,1.84943079 C23.1254411,1.84943079 24.3590265,2.07715887 25.3391866,2.72409249 C26.7432751,3.64894731 27.4541707,5.38897568 27.4541707,7.89770248 L27.4541707,11.6157118 C27.4541707,12.1297266 27.8715772,12.5452141 28.3858817,12.5452141 C29.3175928,12.5452141 29.3175928,12.5452141 29.3175928,13.475646 L29.3175928,17.1936553 C29.3175928,18.1231577 29.0809382,18.1231577 28.923479,18.1231577 C28.4082428,18.1231577 27.9917679,18.5386452 27.9917679,19.05266 C27.9917679,23.8795656 24.6338813,29.2781152 20.1411706,29.2781152 C15.4332346,29.2781152 11.3989257,23.6555555 11.3989257,19.05266 M29.8318973,19.8092749 C30.4943438,19.5369307 31.1810149,18.8537465 31.1810149,17.1936553 L31.1810149,13.475646 C31.1810149,12.6242218 31.1810149,11.1323706 29.3175928,10.7680057 L29.3175928,7.89770248 C29.3175928,4.72345201 28.3234571,2.45918432 26.363137,1.16996459 C22.5105118,-1.36107027 16.2997259,0.933870995 15.1509262,1.39397465 C11.643034,1.4943609 8.81994954,4.37395913 8.81994954,7.89770248 L8.81994954,11.0505744 C8.08482952,11.475357 6.95652743,12.3137681 6.95652743,13.475646 L6.95652743,17.1936553 C6.95652743,18.5358567 8.3112353,19.5164817 9.56811352,19.853891 C9.8448317,23.2763186 11.8498739,26.9775969 14.7391099,29.1758699 L12.5384084,32.5490339 L10.2491943,32.5490339 C4.21450179,32.5490339 0.000372684422,36.2716907 0.000372684422,41.6033161 C0.000372684422,42.1164014 0.416847526,42.5328184 0.93208374,42.5328184 C1.44638824,42.5328184 1.8637948,42.1164014 1.8637948,41.6033161 C1.8637948,36.6323376 6.07512877,34.4080385 10.2491943,34.4080385 L13.0443275,34.4080385 C13.3592458,34.4080385 13.6527348,34.2490936 13.8251013,33.985115 L16.3109064,30.1741554 C17.498838,30.7801909 18.7883261,31.1371198 20.1411706,31.1371198 C25.6140413,31.1371198 29.5011398,25.3156467 29.8318973,19.8092749" id="Fill-1"></path>
            <g id="Group-5" transform="translate(25.156199, 27.928292)">
                <path d="M8.3853995,12.9286339 L8.3853995,9.74787687 C9.18201246,9.41883305 9.75501476,8.67801969 9.86309324,7.79406297 L12.8930176,6.56154287 C12.9461251,6.86734914 12.9796667,7.17966193 12.9796667,7.50126973 C12.9796667,10.2228526 10.9886002,12.4843317 8.3853995,12.9286339 M1.92864189,7.50126973 C1.92864189,7.11180826 1.97056888,6.73350081 2.0479009,6.36634738 L5.0228543,7.57655942 C5.05266906,8.55625488 5.66107638,9.39094798 6.52197739,9.74787687 L6.52197739,12.9286339 C3.9187767,12.4843317 1.92864189,10.2228526 1.92864189,7.50126973 M7.45368845,8.07477267 C7.13597498,8.07477267 6.87789101,7.81730053 6.87789101,7.50126973 C6.87789101,7.18430944 7.13597498,6.92683729 7.45368845,6.92683729 C7.77140192,6.92683729 8.02948588,7.18430944 8.02948588,7.50126973 C8.02948588,7.81730053 7.77140192,8.07477267 7.45368845,8.07477267 M7.45368845,1.98839139 C9.51929186,1.98839139 11.3221528,3.12796125 12.2697029,4.80850147 L9.354379,5.99454645 C8.90622598,5.43405654 8.22607691,5.06783262 7.45368845,5.06783262 C6.75490516,5.06783262 6.12786361,5.36620287 5.68250573,5.83839006 L2.7392305,4.64119105 C3.71007342,3.05360107 5.45703165,1.98839139 7.45368845,1.98839139 M14.4536336,5.15799435 C14.4424531,5.08549317 14.4415214,5.01113298 14.4117066,4.9395613 C14.391209,4.89029768 14.3530088,4.85404709 14.3250575,4.80943098 C13.2442727,2.07390561 10.5749205,0.129386725 7.45368845,0.129386725 C4.35574919,0.129386725 1.70130439,2.04416153 0.604680475,4.74808382 C0.600953631,4.75644934 0.593499943,4.76202636 0.590704809,4.77039188 C0.585114543,4.78154591 0.587909676,4.79455894 0.583251121,4.80664247 C0.252493696,5.64226507 0.0652197739,6.54945934 0.0652197739,7.50126973 C0.0652197739,11.5650539 3.379316,14.8722232 7.45368845,14.8722232 C11.5280609,14.8722232 14.8430888,11.5650539 14.8430888,7.50126973 C14.8430888,6.68144868 14.7024005,5.8960192 14.4536336,5.15799435" id="Fill-3"></path>
            </g>
        </g>
    </g>
</svg>