<?xml version="1.0" encoding="UTF-8"?>
<svg width="45px" height="45px" viewBox="0 0 45 45" version="1.1" xmlns="http://www.w3.org/2000/svg" xmlns:xlink="http://www.w3.org/1999/xlink">
    <!-- Generator: Sketch 40.2 (33826) - http://www.bohemiancoding.com/sketch -->
    <title>ic_coe</title>
    <desc>Created with Sketch.</desc>
    <defs>
        <polygon id="path-1" points="14.8946461 14.6467357 14.8946461 0.0568071429 0.253408462 0.0568071429 0.253408462 14.6467357 14.8946461 14.6467357"></polygon>
    </defs>
    <g id="Page-1" stroke="none" stroke-width="1" fill="none" fill-rule="evenodd">
        <g id="ic_coe" transform="translate(6.000000, 0.000000)">
            <path d="M14.1921354,37.7142857 L0.788451966,37.7142857 C0.353226481,37.7142857 0,37.3622857 0,36.9285714 L0,9.14492857 C0,8.93907143 0.0804221005,8.74264286 0.223920358,8.59571429 L8.41120557,0.237285714 C8.55943454,0.0856428571 8.76285515,0 8.97573718,0 L27.5958188,0 C28.0310443,0 28.3842708,0.352 28.3842708,0.785714286 L28.3842708,19.6428571 C28.3842708,20.0765714 28.0310443,20.4285714 27.5958188,20.4285714 C27.1605933,20.4285714 26.8073668,20.0765714 26.8073668,19.6428571 L26.8073668,1.57142857 L9.30767546,1.57142857 L1.57690393,9.46471429 L1.57690393,36.1428571 L14.1921354,36.1428571 C14.6273609,36.1428571 14.9805874,36.4948571 14.9805874,36.9285714 C14.9805874,37.3622857 14.6273609,37.7142857 14.1921354,37.7142857" id="Fill-1" fill="#969696"></path>
            <path d="M9.46142359,11 L1.57690393,11 C1.14167845,11 0.788451966,10.648 0.788451966,10.2142857 C0.788451966,9.78057143 1.14167845,9.42857143 1.57690393,9.42857143 L8.67297163,9.42857143 L8.67297163,0.785714286 C8.67297163,0.352 9.02619811,0 9.46142359,0 C9.89664908,0 10.2498756,0.352 10.2498756,0.785714286 L10.2498756,10.2142857 C10.2498756,10.648 9.89664908,11 9.46142359,11" id="Fill-3" fill="#969696"></path>
            <g id="Group-7" transform="translate(17.345943, 21.443321)">
                <mask id="mask-2" fill="white">
                    <use xlink:href="#path-1"></use>
                </mask>
                <g id="Clip-6"></g>
                <path d="M7.57418497,1.62823571 C4.40697342,1.62823571 1.83031239,4.19595 1.83031239,7.35216429 C1.83031239,10.5075929 4.40697342,13.0753071 7.57418497,13.0753071 C10.7413965,13.0753071 13.3180575,10.5075929 13.3180575,7.35216429 C13.3180575,4.19595 10.7413965,1.62823571 7.57418497,1.62823571 M7.57418497,14.6467357 C3.5373109,14.6467357 0.253408462,11.3742357 0.253408462,7.35216429 C0.253408462,3.32930714 3.5373109,0.0568071429 7.57418497,0.0568071429 C11.611059,0.0568071429 14.8949615,3.32930714 14.8949615,7.35216429 C14.8949615,11.3742357 11.611059,14.6467357 7.57418497,14.6467357" id="Fill-5" fill="#969696" mask="url(#mask-2)"></path>
            </g>
            <path d="M23.486486,41.5688429 C23.2389121,41.5688429 23.0007996,41.4525571 22.8502053,41.2467 L21.7723914,39.7774143 L19.4504004,40.9607 C19.1886343,41.0950571 18.8732536,41.0714857 18.6327757,40.9009857 C18.3930863,40.7304857 18.2685109,40.4405571 18.3110873,40.1498429 L19.2509221,33.6103429 C19.3124213,33.1797714 19.7161087,32.8812 20.1426612,32.9432714 C20.5739444,33.0053429 20.8735562,33.4029143 20.8112685,33.8327 L20.0874696,38.8707 L21.6525467,38.0732 C21.9963118,37.8979857 22.4197105,37.9969857 22.6483616,38.3089143 L22.9834537,38.7654143 L23.4935821,35.2524857 C23.5566582,34.8242714 23.9564034,34.5296286 24.3876866,34.5877714 C24.8181814,34.6498429 25.1170047,35.0489857 25.054717,35.4787714 L24.2670535,40.8962714 C24.2213232,41.2113429 23.9879415,41.4690571 23.6765029,41.5452714 C23.6134268,41.5609857 23.5495622,41.5688429 23.486486,41.5688429" id="Fill-8" fill="#969696"></path>
            <path d="M26.2980269,43.4433214 C25.984223,43.4433214 25.6988034,43.2571071 25.574228,42.96875 L23.3957352,37.9441071 C23.2230642,37.54575 23.407562,37.0829643 23.8073071,36.9116786 C24.2062638,36.7396071 24.670662,36.9226786 24.843333,37.3210357 L26.2554505,40.5786071 L26.4596595,40.0513929 C26.5992155,39.69075 26.9831916,39.4825357 27.3592832,39.5650357 L29.0781085,39.9288214 L27.0612484,35.2530357 C26.8893659,34.8538929 27.0738636,34.3918929 27.4743972,34.2206071 C27.8749308,34.0469643 28.3377521,34.2331786 28.5096346,34.6323214 L31.1280836,40.7019643 C31.2447745,40.9714643 31.2006212,41.2833929 31.0137581,41.5104643 C30.8276834,41.7375357 30.5296486,41.8420357 30.2402867,41.78075 L27.6896446,41.2409643 L27.0336526,42.9396786 C26.919327,43.2374643 26.6339074,43.4370357 26.3137959,43.4433214 L26.2980269,43.4433214 Z" id="Fill-10" fill="#969696"></path>
            <path d="M24.9201282,30.1671071 C25.0462805,30.1671071 25.1724329,30.1969643 25.2867584,30.2574643 L26.3180536,30.79725 L26.1209406,29.65325 C26.0775757,29.3986786 26.1619401,29.1386071 26.3480147,28.9578929 L27.1814085,28.1478214 L26.0294801,27.98125 C25.7724448,27.9443214 25.5501013,27.78325 25.4349874,27.5514643 L24.9201282,26.5111786 L24.4052691,27.5514643 C24.2901551,27.78325 24.0678116,27.9443214 23.8107763,27.98125 L22.658848,28.1478214 L23.4922417,28.9578929 C23.6783164,29.1386071 23.7626807,29.3986786 23.7193159,29.65325 L23.5222029,30.79725 L24.5534981,30.2574643 C24.6678236,30.1969643 24.7939759,30.1671071 24.9201282,30.1671071 M27.3651178,33.01925 C27.2389655,33.01925 27.1136016,32.9893929 26.9976992,32.9288929 L24.9201282,31.8406786 L22.8425573,32.9288929 C22.576849,33.0679643 22.2551606,33.0451786 22.0123174,32.8691786 C21.7694742,32.6931786 21.6480526,32.3953929 21.6985135,32.10075 L22.0951048,29.7946786 L20.4141252,28.1619643 C20.1988778,27.9529643 20.1216096,27.6410357 20.2146469,27.3566071 C20.3068958,27.0721786 20.5536812,26.86475 20.8509276,26.8215357 L23.1744956,26.48525 L24.2128868,24.3881786 C24.4785951,23.8515357 25.3616613,23.8515357 25.6273696,24.3881786 L26.6657609,26.48525 L28.9893288,26.8215357 C29.2865752,26.86475 29.5333607,27.0721786 29.6256096,27.3566071 C29.7186469,27.6410357 29.6413786,27.9529643 29.4261312,28.1619643 L27.7451516,29.7946786 L28.141743,32.10075 C28.1922039,32.3953929 28.0707823,32.6931786 27.8279391,32.8691786 C27.6907484,32.9681786 27.5283273,33.01925 27.3651178,33.01925" id="Fill-12" fill="#969696"></path>
        </g>
    </g>
</svg>