<?xml version="1.0" encoding="UTF-8"?>
<svg width="45px" height="45px" viewBox="0 0 45 45" version="1.1" xmlns="http://www.w3.org/2000/svg" xmlns:xlink="http://www.w3.org/1999/xlink">
    <!-- Generator: Sketch 40.2 (33826) - http://www.bohemiancoding.com/sketch -->
    <title>ic_scrap</title>
    <desc>Created with Sketch.</desc>
    <defs></defs>
    <g id="Page-1" stroke="none" stroke-width="1" fill="none" fill-rule="evenodd">
        <g id="ic_scrap" transform="translate(5.000000, 2.000000)" fill="#969696">
            <path d="M4.55659574,10.1366809 L29.1310638,10.1366809 L29.1310638,5.02604255 L4.55659574,5.02604255 L4.55659574,10.1366809 Z M26.8987234,37.6396596 L6.78808511,37.6396596 C5.55744681,37.6396596 4.55659574,36.7409362 4.55659574,35.6362553 L4.55659574,11.8388085 L29.1310638,11.8388085 L29.1310638,35.6362553 C29.1310638,36.7409362 28.1293617,37.6396596 26.8987234,37.6396596 L26.8987234,37.6396596 Z M13.6961702,1.75455319 C14.3880851,1.75455319 15.5285106,1.7426383 16.7293617,1.7307234 C18.0612766,1.71625532 19.4689362,1.70178723 20.4212766,1.70178723 C21.5489362,1.70178723 21.9531915,2.41753191 22.2697872,3.32391489 L12.2995745,3.32391489 C12.667234,2.56391489 13.2451064,1.75455319 13.6961702,1.75455319 L13.6961702,1.75455319 Z M32.6204255,3.32391489 L24.0502128,3.32391489 C24.0434043,3.29582979 24.0485106,3.26689362 24.0382979,3.23965957 L23.9685106,3.03114894 C23.6987234,2.20221277 22.9804255,-0.000340425532 20.4212766,-0.000340425532 C19.4646809,-0.000340425532 18.0502128,0.0149787234 16.7123404,0.0285957447 C15.5174468,0.0405106383 14.3838298,0.0524255319 13.6961702,0.0524255319 C11.6987234,0.0524255319 10.5974468,2.92391489 10.4791489,3.25157447 C10.4697872,3.27540426 10.4740426,3.29923404 10.4680851,3.32391489 L0.85106383,3.32391489 C0.381276596,3.32391489 0,3.70434043 0,4.17497872 C0,4.64476596 0.381276596,5.02604255 0.85106383,5.02604255 L2.85446809,5.02604255 L2.85446809,35.6362553 C2.85446809,37.6796596 4.6187234,39.3417872 6.78808511,39.3417872 L26.8987234,39.3417872 C29.0680851,39.3417872 30.8331915,37.6796596 30.8331915,35.6362553 L30.8331915,5.02604255 L32.6204255,5.02604255 C33.0902128,5.02604255 33.4714894,4.64476596 33.4714894,4.17497872 C33.4714894,3.70434043 33.0902128,3.32391489 32.6204255,3.32391489 L32.6204255,3.32391489 Z" id="Fill-1"></path>
            <path d="M10.372766,15.7588085 C9.90297872,15.7588085 9.52170213,16.139234 9.52170213,16.6098723 L9.52170213,30.5843404 C9.52170213,31.0549787 9.90297872,31.4354043 10.372766,31.4354043 C10.8425532,31.4354043 11.2238298,31.0549787 11.2238298,30.5843404 L11.2238298,16.6098723 C11.2238298,16.139234 10.8425532,15.7588085 10.372766,15.7588085" id="Fill-3"></path>
            <path d="M16.4914043,15.7588085 C16.021617,15.7588085 15.6403404,16.139234 15.6403404,16.6098723 L15.6403404,30.5843404 C15.6403404,31.0549787 16.021617,31.4354043 16.4914043,31.4354043 C16.9611915,31.4354043 17.3424681,31.0549787 17.3424681,30.5843404 L17.3424681,16.6098723 C17.3424681,16.139234 16.9611915,15.7588085 16.4914043,15.7588085" id="Fill-4"></path>
            <path d="M23.0281702,15.7588085 C22.558383,15.7588085 22.1771064,16.139234 22.1771064,16.6098723 L22.1771064,30.5843404 C22.1771064,31.0549787 22.558383,31.4354043 23.0281702,31.4354043 C23.4979574,31.4354043 23.879234,31.0549787 23.879234,30.5843404 L23.879234,16.6098723 C23.879234,16.139234 23.4979574,15.7588085 23.0281702,15.7588085" id="Fill-5"></path>
        </g>
    </g>
</svg>