<?xml version="1.0" encoding="UTF-8"?>
<svg width="45px" height="45px" viewBox="0 0 45 45" version="1.1" xmlns="http://www.w3.org/2000/svg" xmlns:xlink="http://www.w3.org/1999/xlink">
    <!-- Generator: Sketch 40.2 (33826) - http://www.bohemiancoding.com/sketch -->
    <title>ic_roadtax</title>
    <desc>Created with Sketch.</desc>
    <defs></defs>
    <g id="Page-1" stroke="none" stroke-width="1" fill="none" fill-rule="evenodd">
        <g id="ic_roadtax" transform="translate(1.000000, 0.000000)" fill="#969696">
            <path d="M21.6723833,8.60273333 C22.1783833,8.60273333 22.58905,8.19298333 22.58905,7.68606667 L22.58905,5.85273333 C22.58905,5.34581667 22.1783833,4.93606667 21.6723833,4.93606667 C21.1663833,4.93606667 20.7557167,5.34581667 20.7557167,5.85273333 L20.7557167,7.68606667 C20.7557167,8.19298333 21.1663833,8.60273333 21.6723833,8.60273333" id="Fill-1"></path>
            <path d="M21.6723833,14.1027333 C22.1783833,14.1027333 22.58905,13.6929833 22.58905,13.1860667 L22.58905,11.3527333 C22.58905,10.8458167 22.1783833,10.4360667 21.6723833,10.4360667 C21.1663833,10.4360667 20.7557167,10.8458167 20.7557167,11.3527333 L20.7557167,13.1860667 C20.7557167,13.6929833 21.1663833,14.1027333 21.6723833,14.1027333" id="Fill-3"></path>
            <path d="M22,26.5833333 C21.494,26.5833333 21.0833333,26.9930833 21.0833333,27.5 L21.0833333,29.3333333 C21.0833333,29.84025 21.494,30.25 22,30.25 C22.506,30.25 22.9166667,29.84025 22.9166667,29.3333333 L22.9166667,27.5 C22.9166667,26.9930833 22.506,26.5833333 22,26.5833333" id="Fill-5"></path>
            <path d="M22,31.1666667 C21.494,31.1666667 21.0833333,31.5764167 21.0833333,32.0833333 L21.0833333,33.9166667 C21.0833333,34.4235833 21.494,34.8333333 22,34.8333333 C22.506,34.8333333 22.9166667,34.4235833 22.9166667,33.9166667 L22.9166667,32.0833333 C22.9166667,31.5764167 22.506,31.1666667 22,31.1666667" id="Fill-7"></path>
            <path d="M22,35.75 C21.494,35.75 21.0833333,36.15975 21.0833333,36.6666667 L21.0833333,38.5 C21.0833333,39.0069167 21.494,39.4166667 22,39.4166667 C22.506,39.4166667 22.9166667,39.0069167 22.9166667,38.5 L22.9166667,36.6666667 C22.9166667,36.15975 22.506,35.75 22,35.75" id="Fill-9"></path>
            <g id="Group-13" transform="translate(-0.000000, 0.000000)">
                <path d="M31.628575,42.1666667 L11.7149083,42.1666667 L14.1064917,23.8333333 L21.0832417,23.8333333 L21.0832417,24.75 C21.0832417,25.2569167 21.4939083,25.6666667 21.9999083,25.6666667 C22.5059083,25.6666667 22.916575,25.2569167 22.916575,24.75 L22.916575,23.8333333 L29.2369917,23.8333333 L31.628575,42.1666667 Z M14.5849917,20.1666667 L28.7594083,20.1666667 L28.9977417,22 L14.3457417,22 L14.5849917,20.1666667 Z M16.976575,1.83333333 L20.7559917,1.83333333 L20.7559917,2.18625 C20.7559917,2.69225 21.1657417,3.10291667 21.6726583,3.10291667 C22.1786583,3.10291667 22.589325,2.69225 22.589325,2.18625 L22.589325,1.83333333 L26.367825,1.83333333 L28.5192417,18.3333333 L22.377575,18.3333333 C22.5031583,18.1765833 22.589325,17.9859167 22.589325,17.7695833 L22.589325,16.8529167 C22.589325,16.346 22.1786583,15.93625 21.6726583,15.93625 C21.1657417,15.93625 20.7559917,16.346 20.7559917,16.8529167 L20.7559917,17.7695833 C20.7559917,17.9859167 20.8412417,18.1765833 20.9677417,18.3333333 L14.8242417,18.3333333 L16.976575,1.83333333 Z M41.2499083,22 L30.8466583,22 L30.6074083,20.1666667 L41.2499083,20.1666667 C41.7559083,20.1666667 42.166575,19.7569167 42.166575,19.25 C42.166575,18.7430833 41.7559083,18.3333333 41.2499083,18.3333333 L30.3681583,18.3333333 L28.081075,0.798416667 C28.0214917,0.341916667 27.632825,0 27.1726583,0 L16.1717417,0 C15.7106583,0 15.3219917,0.341916667 15.2624083,0.798416667 L12.975325,18.3333333 L0.916575,18.3333333 C0.410575,18.3333333 -9.16666665e-05,18.7430833 -9.16666665e-05,19.25 C-9.16666665e-05,19.7569167 0.410575,20.1666667 0.916575,20.1666667 L12.736075,20.1666667 L12.496825,22 L0.916575,22 C0.410575,22 -9.16666665e-05,22.40975 -9.16666665e-05,22.9166667 C-9.16666665e-05,23.4235833 0.410575,23.8333333 0.916575,23.8333333 L8.48640833,23.8333333 L6.936325,28.479 C6.77590833,28.9593333 7.035325,29.4781667 7.51565833,29.6385833 C7.61190833,29.6706667 7.70999167,29.68625 7.80624167,29.68625 C8.190325,29.68625 8.547825,29.4433333 8.67524167,29.05925 L10.4187417,23.8333333 L12.257575,23.8333333 L9.76240833,42.9650833 C9.72849167,43.2263333 9.80824167,43.4894167 9.98240833,43.6883333 C10.156575,43.8863333 10.4077417,44 10.6717417,44 L32.6726583,44 C32.9357417,44 33.1869083,43.8863333 33.361075,43.6883333 C33.5352417,43.4894167 33.6149917,43.2263333 33.581075,42.9650833 L31.0859083,23.8333333 L32.753325,23.8333333 L34.4949917,29.05925 C34.623325,29.4433333 34.980825,29.68625 35.3649083,29.68625 C35.4611583,29.68625 35.5592417,29.6706667 35.6554917,29.6385833 C36.135825,29.4790833 36.3952417,28.96025 36.234825,28.479 L34.6856583,23.8333333 L41.2499083,23.8333333 C41.7559083,23.8333333 42.166575,23.4235833 42.166575,22.9166667 C42.166575,22.40975 41.7559083,22 41.2499083,22 L41.2499083,22 Z" id="Fill-11"></path>
            </g>
        </g>
    </g>
</svg>