<?xml version="1.0" encoding="UTF-8"?>
<svg width="17px" height="12px" viewBox="0 0 17 12" version="1.1" xmlns="http://www.w3.org/2000/svg" xmlns:xlink="http://www.w3.org/1999/xlink">
    <!-- Generator: sketchtool 52.2 (67145) - http://www.bohemiancoding.com/sketch -->
    <title>DEBF0EC1-0673-4FA3-9F63-C164D1B6A84D</title>
    <desc>Created with sketchtool.</desc>
    <g id="Buy_Used-Cars" stroke="none" stroke-width="1" fill="none" fill-rule="evenodd">
        <g id="Desktop_Buy_UsedCars_ListingDetail_popUpPhotos_v6" transform="translate(-189.000000, -778.000000)" fill="#969696">
            <g id="details" transform="translate(158.000000, 618.000000)">
                <g id="ic_OMV" transform="translate(31.000000, 155.000000)">
                    <g id="ic_paper_value_orange" transform="translate(0.000000, 5.000000)">
                        <path d="M0.708333333,11.25 L16.2916667,11.25 L16.2916667,0.75 L0.708333333,0.75 L0.708333333,11.25 Z M16.6458333,12 L0.354166667,12 C0.1583125,12 0,11.832 0,11.625 L0,0.375 C0,0.168 0.1583125,0 0.354166667,0 L16.6458333,0 C16.8416875,0 17,0.168 17,0.375 L17,11.625 C17,11.832 16.8416875,12 16.6458333,12 L16.6458333,12 Z" id="Fill-1"></path>
                        <path d="M10.6428571,4 L6.35714286,4 C6.15964286,4 6,3.776 6,3.5 C6,3.224 6.15964286,3 6.35714286,3 L10.6428571,3 C10.8403571,3 11,3.224 11,3.5 C11,3.776 10.8403571,4 10.6428571,4" id="Fill-3"></path>
                        <path d="M12.6538462,9 L4.34615385,9 C4.15473077,9 4,8.776 4,8.5 C4,8.224 4.15473077,8 4.34615385,8 L12.6538462,8 C12.8452692,8 13,8.224 13,8.5 C13,8.776 12.8452692,9 12.6538462,9" id="Fill-5"></path>
                        <path d="M13.6764706,6 L3.32352941,6 C3.14461765,6 3,5.776 3,5.5 C3,5.224 3.14461765,5 3.32352941,5 L13.6764706,5 C13.8553824,5 14,5.224 14,5.5 C14,5.776 13.8553824,6 13.6764706,6" id="Fill-6"></path>
                        <path d="M1.5,10 L15.3125,10 L15.3125,1.5 L1.5,1.5 L1.5,10 Z M1.375,11 C1.167625,11 1,10.8133333 1,10.5833333 L1,1.41666667 C1,1.18666667 1.167625,1 1.375,1 L15.625,1 C15.832375,1 16,1.18666667 16,1.41666667 L16,10.5833333 C16,10.8133333 15.832375,11 15.625,11 L1.375,11 Z" id="Fill-7"></path>
                    </g>
                </g>
            </g>
        </g>
    </g>
</svg>