<?xml version="1.0" encoding="UTF-8"?>
<svg width="45px" height="45px" viewBox="0 0 45 45" version="1.1" xmlns="http://www.w3.org/2000/svg" xmlns:xlink="http://www.w3.org/1999/xlink">
    <!-- Generator: Sketch 40.2 (33826) - http://www.bohemiancoding.com/sketch -->
    <title>ic_depre</title>
    <desc>Created with Sketch.</desc>
    <defs></defs>
    <g id="Page-1" stroke="none" stroke-width="1" fill="none" fill-rule="evenodd">
        <g id="ic_depre" transform="translate(1.000000, 4.000000)" fill="#969696">
            <g id="Group-3" transform="translate(0.000000, 15.506792)">
                <path d="M42.1666667,15.229775 L39.7879167,15.229775 C39.2333333,13.3221917 37.4898333,11.916025 35.40625,11.916025 C33.3226667,11.916025 31.5791667,13.3221917 31.0245833,15.229775 L14.1194167,15.229775 C13.5648333,13.3221917 11.8213333,11.916025 9.73775,11.916025 C7.65416667,11.916025 5.91066667,13.3221917 5.35608333,15.229775 L1.83333333,15.229775 L1.83333333,9.729775 L6.41666667,9.729775 L6.98683333,9.729775 L32.6553333,9.729775 L33.9166667,9.729775 L39.0729167,9.729775 C41.5011667,9.729775 42.1666667,10.7903583 42.1666667,14.666025 L42.1666667,15.229775 Z M35.40625,19.250275 C33.8900833,19.250275 32.65625,18.0164417 32.65625,16.500275 C32.65625,14.9831917 33.8900833,13.7493583 35.40625,13.7493583 C36.9224167,13.7493583 38.15625,14.9831917 38.15625,16.500275 C38.15625,18.0164417 36.9224167,19.250275 35.40625,19.250275 L35.40625,19.250275 Z M9.73775,19.250275 C8.22158333,19.250275 6.98775,18.0164417 6.98775,16.500275 C6.98775,14.9831917 8.22158333,13.7493583 9.73775,13.7493583 C11.2539167,13.7493583 12.48775,14.9831917 12.48775,16.500275 C12.48775,18.0164417 11.2539167,19.250275 9.73775,19.250275 L9.73775,19.250275 Z M12.3960833,3.129775 C12.7398333,2.670525 13.2889167,2.39644167 13.86275,2.39644167 L18.3333333,2.39644167 L18.3333333,7.89644167 L8.82016667,7.89644167 L12.3960833,3.129775 Z M27.247,3.129775 L30.822,7.89644167 L20.1666667,7.89644167 L20.1666667,2.39644167 L25.7794167,2.39644167 C26.3541667,2.39644167 26.9023333,2.670525 27.247,3.129775 L27.247,3.129775 Z M39.0729167,7.89644167 L33.9166667,7.89644167 L33.1136667,7.89644167 L28.7136667,2.03069167 C28.02525,1.11219167 26.928,0.563108333 25.7794167,0.563108333 L13.86275,0.563108333 C12.7141667,0.563108333 11.6169167,1.11219167 10.9294167,2.03069167 L6.5285,7.89644167 L6.41666667,7.89644167 L0.916666667,7.89644167 C0.410666667,7.89644167 0,8.30619167 0,8.81310833 L0,16.1464417 C0,16.6533583 0.410666667,17.0631083 0.916666667,17.0631083 L5.21125,17.0631083 C5.49266667,19.3226917 7.40391667,21.0836083 9.73775,21.0836083 C12.0715833,21.0836083 13.9828333,19.3226917 14.26425,17.0631083 L30.87975,17.0631083 C31.1611667,19.3226917 33.0724167,21.0836083 35.40625,21.0836083 C37.7400833,21.0836083 39.6513333,19.3226917 39.93275,17.0631083 L43.0833333,17.0631083 C43.5893333,17.0631083 44,16.6533583 44,16.1464417 L44,14.666025 C44,12.1341917 44,7.89644167 39.0729167,7.89644167 L39.0729167,7.89644167 Z" id="Fill-1"></path>
            </g>
            <g id="Group-6" transform="translate(2.750000, 0.840125)">
                <path d="M1.347225,1.88081667 L28.737225,8.90615 L27.5501417,12.6250667 C27.4740583,12.8634 27.499725,13.12465 27.620725,13.3455667 C27.741725,13.5655667 27.9488917,13.7269 28.1918083,13.79015 L34.0676417,15.3283167 L32.4900583,16.2779833 C32.056475,16.5392333 31.9171417,17.1020667 32.1783917,17.53565 C32.3498083,17.82165 32.653225,17.9793167 32.963975,17.9793167 C33.1253083,17.9793167 33.288475,17.9380667 33.4360583,17.8482333 L37.2365583,15.5593167 C37.6701417,15.2980667 37.8103917,14.7343167 37.5491417,14.30165 L35.328975,10.6157333 C35.0686417,10.1830667 34.5048917,10.0409833 34.0713083,10.30315 C33.637725,10.5653167 33.497475,11.12815 33.758725,11.5617333 L35.0383917,13.6865667 L29.5915583,12.26115 L30.7795583,8.53856667 C30.8556417,8.2984 30.8308917,8.03715 30.7080583,7.81623333 C30.5861417,7.59531667 30.3780583,7.4349 30.134225,7.37165 L1.80280833,0.105233333 C1.311475,-0.0185166667 0.812808333,0.274816667 0.687225,0.765233333 C0.561641667,1.25473333 0.856808333,1.75431667 1.347225,1.88081667" id="Fill-4"></path>
            </g>
        </g>
    </g>
</svg>