<?xml version="1.0" encoding="UTF-8"?>
<svg width="45px" height="45px" viewBox="0 0 45 45" version="1.1" xmlns="http://www.w3.org/2000/svg" xmlns:xlink="http://www.w3.org/1999/xlink">
    <!-- Generator: Sketch 40.2 (33826) - http://www.bohemiancoding.com/sketch -->
    <title>ic_downpay</title>
    <desc>Created with Sketch.</desc>
    <defs></defs>
    <g id="Page-1" stroke="none" stroke-width="1" fill="none" fill-rule="evenodd">
        <g id="ic_downpay" transform="translate(1.000000, 7.000000)" fill="#969696">
            <g id="Group-3" transform="translate(0.000000, 0.455548)">
                <path d="M36.0674653,26.387705 C29.3393149,25.6256092 23.9550696,26.1173591 18.7409686,26.5943488 C13.5637192,27.068231 8.21710948,27.5560967 1.56815066,26.7854554 L1.56815066,9.70161234 C3.09788164,9.87485126 4.54998915,9.97661941 5.95505215,10.0348836 L5.95505215,19.6756681 L3.88274105,17.9393947 C3.55186126,17.6628339 3.05632565,17.7032304 2.77719483,18.0310637 C2.49806401,18.358897 2.53962,18.8483164 2.87049979,19.125654 L6.23261482,21.9433112 C6.27025043,21.9743854 6.31415865,21.9899225 6.35571464,22.0140051 C6.38864581,22.0326496 6.41765659,22.0559553 6.45372406,22.0699387 C6.54546087,22.1056741 6.64190214,22.1266492 6.73912748,22.1266492 C6.83792097,22.1266492 6.93671446,22.1056741 7.03001943,22.068385 C7.07000727,22.0528479 7.10058621,22.0256579 7.13743775,22.0031291 C7.18056189,21.9782697 7.22682234,21.960402 7.26524203,21.9254435 L10.4038956,19.1085632 C10.7245824,18.8203495 10.7488887,18.3285996 10.4579968,18.0108655 C10.1671048,17.6931313 9.67156922,17.6690488 9.35088241,17.9564855 L7.52320281,19.5979825 L7.52320281,10.0776107 C11.6427346,10.1467509 15.3145594,9.82202504 18.8938633,9.49496861 C24.0703286,9.02264009 29.4185065,8.53399759 36.0674653,9.30541572 L36.0674653,26.387705 Z M36.9511182,7.84725677 C29.8105441,6.93755825 24.1879399,7.45183701 18.7495934,7.94824807 C15.2102774,8.27142022 11.5823608,8.5922618 7.52320281,8.5231216 L7.52320281,1.09793076 C7.52320281,0.66910618 7.17193706,0.321074636 6.73912748,0.321074636 C6.30553382,0.321074636 5.95505215,0.66910618 5.95505215,1.09793076 L5.95505215,8.48350194 C4.34377734,8.41436174 2.66115168,8.28074249 0.884436975,8.0539005 C0.657839204,8.02593368 0.435161809,8.09352016 0.266585613,8.24112283 C0.0972253412,8.38872549 0,8.60080721 0,8.82454178 L0,27.4729731 C0,27.8637317 0.293244174,28.1938955 0.684497765,28.2436143 C3.54480458,28.6079599 6.16204804,28.7439097 8.62090828,28.7439097 C12.3005738,28.7439097 15.6258373,28.4393821 18.8852385,28.1418462 C24.240473,27.65165 29.7791811,27.1466935 36.751179,28.0354169 C36.9746404,28.0626069 37.2004541,27.9957972 37.3690303,27.8481946 C37.5383906,27.7005919 37.6356159,27.4885102 37.6356159,27.2647756 L37.6356159,8.61789805 C37.6356159,8.22713942 37.3423718,7.89697557 36.9511182,7.84725677 L36.9511182,7.84725677 Z" id="Fill-1"></path>
            </g>
            <path d="M40.0877331,5.54760727 C32.956568,4.63946246 27.4006102,5.27337706 22.0289101,5.8870934 C17.9728884,6.35009965 13.7796535,6.82631245 8.91525016,6.63909013 C8.48322465,6.61034645 8.11784555,6.95604743 8.10137996,7.38487201 C8.08413031,7.81369659 8.42049862,8.17493469 8.85409228,8.19124867 C13.8361069,8.3854627 18.093636,7.89992762 22.2076793,7.43070652 C27.5472323,6.82087446 32.5998137,6.24444722 39.2040802,7.00498936 L39.2040802,25.9299814 C39.2040802,26.358806 39.5545619,26.7068375 39.9881556,26.7068375 C40.4209652,26.7068375 40.7722309,26.358806 40.7722309,25.9299814 L40.7722309,6.31824855 C40.7722309,5.92748992 40.4789867,5.59732606 40.0877331,5.54760727" id="Fill-4"></path>
            <g id="Group-8" transform="translate(9.408904, 2.009261)">
                <path d="M33.8151305,0.45593686 C26.6839653,-0.45220795 21.1287916,0.178599223 15.7555234,0.788431281 C11.2227839,1.30271004 6.53558152,1.83407962 0.887102831,1.437883 C0.464486227,1.40991618 0.0810733894,1.7299809 0.0497103761,2.15802863 C0.0191314381,2.58607635 0.344522701,2.95741358 0.776548209,2.98771097 C6.56772861,3.39400672 11.3294181,2.85486857 15.9335085,2.3320444 C21.2730615,1.72531977 26.3272111,1.1527768 32.9314776,1.91331895 L32.9314776,20.8134516 C32.9314776,21.2422762 33.2819593,21.5903077 33.7155529,21.5903077 C34.1483625,21.5903077 34.4996282,21.2422762 34.4996282,20.8134516 L34.4996282,1.22657814 C34.4996282,0.835819505 34.2063841,0.505655652 33.8151305,0.45593686" id="Fill-6"></path>
            </g>
            <path d="M18.8989598,17.3426915 L18.328937,17.0630233 C17.2602423,16.540976 17.2602423,16.4858192 17.2602423,16.1269117 C17.2602423,15.5015425 17.892207,15.4083197 18.2685632,15.4083197 C18.7170543,15.4083197 19.2525777,15.5326167 19.2525777,16.1269117 C19.2525777,16.5557362 19.6030594,16.9037678 20.0366531,16.9037678 C20.4694627,16.9037678 20.8207284,16.5557362 20.8207284,16.1269117 C20.8207284,15.0393131 20.1197651,14.2282753 19.0526385,13.9594831 L19.0526385,13.5003611 C19.0526385,13.0707597 18.7021569,12.723505 18.2685632,12.723505 C17.8357536,12.723505 17.4844879,13.0707597 17.4844879,13.5003611 L17.4844879,13.9571525 C16.4024639,14.2236142 15.6920917,15.0362057 15.6920917,16.1269117 C15.6920917,17.507385 16.5929942,17.9470856 17.6358144,18.4567032 L18.2058372,18.7363714 C19.2776682,19.2591956 19.2776682,19.3151292 19.2776682,19.6755904 C19.2776682,20.2885299 18.6449194,20.3801989 18.2685632,20.3801989 C17.892207,20.3801989 17.2602423,20.2885299 17.2602423,19.6755904 C17.2602423,19.2467659 16.9089766,18.8987343 16.476167,18.8987343 C16.0433574,18.8987343 15.6920917,19.2467659 15.6920917,19.6755904 C15.6920917,20.7593047 16.4024639,21.5672351 17.4844879,21.832143 L17.4844879,22.4994625 C17.4844879,22.928287 17.8357536,23.2763186 18.2685632,23.2763186 C18.7021569,23.2763186 19.0526385,22.928287 19.0526385,22.4994625 L19.0526385,21.832143 C20.1354466,21.5664583 20.8458188,20.7593047 20.8458188,19.6755904 C20.8458188,18.2927865 19.9441322,17.8523091 18.8989598,17.3426915" id="Fill-9"></path>
        </g>
    </g>
</svg>