<?xml version="1.0" encoding="UTF-8"?>
<svg width="17px" height="16px" viewBox="0 0 17 16" version="1.1" xmlns="http://www.w3.org/2000/svg" xmlns:xlink="http://www.w3.org/1999/xlink">
    <!-- Generator: sketchtool 52.2 (67145) - http://www.bohemiancoding.com/sketch -->
    <title>B6D80D50-4177-492E-9FB9-312E44AA0F6B</title>
    <desc>Created with sketchtool.</desc>
    <g id="Buy_Used-Cars" stroke="none" stroke-width="1" fill="none" fill-rule="evenodd">
        <g id="Desktop_Buy_UsedCars_ListingDetail_v6" transform="translate(-519.000000, -778.000000)" fill="#969696">
            <g id="details" transform="translate(158.000000, 618.000000)">
                <g id="noun_car-engine_893191" transform="translate(361.000000, 160.000000)">
                    <path d="M16.6857143,15.4571429 L15.5,15.4571429 C15.5571429,15.3571429 15.5857143,15.2428571 15.5857143,15.1142857 L15.5857143,14.3714286 L15.9571429,11.4714286 C15.9571429,11.4571429 15.9571429,11.4571429 15.9571429,11.4428571 C15.9571429,11.1142857 15.8285714,10.7857143 15.6,10.5428571 L15.4428571,10.3857143 L15.8857143,10.3857143 C15.9714286,10.3857143 16.0428571,10.3428571 16.0857143,10.2571429 L16.5142857,9.3 C16.5428571,9.22857143 16.5428571,9.15714286 16.5,9.1 C16.4571429,9.04285714 16.3857143,9 16.3142857,9 L14.1428571,9 L13.0857143,7.87142857 C12.8428571,7.6 12.4857143,7.45714286 12.1142857,7.45714286 L5.3,7.45714286 C4.92857143,7.45714286 4.58571429,7.61428571 4.32857143,7.87142857 L3.27142857,9 L1.11428571,9 C1.04285714,9 0.971428571,9.04285714 0.928571429,9.1 C0.885714286,9.15714286 0.885714286,9.24285714 0.914285714,9.3 L1.34285714,10.2571429 C1.37142857,10.3285714 1.45714286,10.3857143 1.54285714,10.3857143 L1.95714286,10.3857143 L1.8,10.5428571 C1.57142857,10.7857143 1.44285714,11.1 1.44285714,11.4428571 C1.44285714,11.4571429 1.44285714,11.4571429 1.44285714,11.4714286 L1.81428571,14.3714286 L1.81428571,15.1142857 C1.81428571,15.2428571 1.84285714,15.3571429 1.9,15.4571429 L0.728571429,15.4571429 C0.614285714,15.4571429 0.514285714,15.5571429 0.514285714,15.6714286 C0.514285714,15.7857143 0.614285714,15.8857143 0.728571429,15.8857143 L2.57142857,15.8857143 L4.14285714,15.8857143 L13.2142857,15.8857143 L14.7857143,15.8857143 L16.6571429,15.8857143 C16.7714286,15.8857143 16.8714286,15.7857143 16.8714286,15.6714286 C16.8714286,15.5571429 16.8142857,15.4571429 16.6857143,15.4571429 Z M2.24285714,15.1142857 L2.24285714,14.5714286 L4.5,14.5714286 L4.5,15.1142857 C4.5,15.3 4.34285714,15.4571429 4.15714286,15.4571429 L2.58571429,15.4571429 C2.4,15.4571429 2.24285714,15.3 2.24285714,15.1142857 Z M2.11428571,10.8428571 L4.62857143,8.15714286 C4.8,7.97142857 5.04285714,7.87142857 5.28571429,7.87142857 L12.1,7.87142857 C12.3428571,7.87142857 12.5857143,7.97142857 12.7571429,8.15714286 L15.2857143,10.8428571 C15.4428571,11 15.5285714,11.2142857 15.5285714,11.4285714 L15.1857143,14.1428571 L12.6857143,14.1428571 L4.71428571,14.1428571 L2.22857143,14.1428571 L1.88571429,11.4285714 C1.88571429,11.2142857 1.97142857,11 2.11428571,10.8428571 Z M4.92857143,15.1142857 L4.92857143,14.5714286 L12.4571429,14.5714286 L12.4571429,15.1142857 C12.4571429,15.2428571 12.4857143,15.3571429 12.5428571,15.4571429 L4.85714286,15.4571429 C4.9,15.3428571 4.92857143,15.2285714 4.92857143,15.1142857 Z M12.9,15.1142857 L12.9,14.5714286 L15.1571429,14.5714286 L15.1571429,15.1142857 C15.1571429,15.3 15,15.4571429 14.8142857,15.4571429 L13.2428571,15.4571429 C13.0428571,15.4571429 12.9,15.3 12.9,15.1142857 Z M15.9857143,9.41428571 L15.7428571,9.94285714 L15.0285714,9.94285714 L14.5285714,9.41428571 L15.9857143,9.41428571 Z M1.68571429,9.95714286 L1.44285714,9.42857143 L2.85714286,9.42857143 L2.35714286,9.95714286 L1.68571429,9.95714286 Z" id="Shape" fill-rule="nonzero"></path>
                    <path d="M3.34285714,12.4285714 L6.3,12.4285714 C6.37142857,12.4285714 6.42857143,12.4 6.47142857,12.3428571 C6.51428571,12.2857143 6.52857143,12.2142857 6.5,12.1571429 L6.31428571,11.5857143 C6.28571429,11.5142857 6.21428571,11.4571429 6.14285714,11.4428571 L3.37142857,11.0714286 C3.31428571,11.0571429 3.24285714,11.0857143 3.2,11.1285714 C3.15714286,11.1714286 3.12857143,11.2285714 3.12857143,11.2857143 L3.12857143,12.2142857 C3.12857143,12.3285714 3.22857143,12.4285714 3.34285714,12.4285714 Z M3.55714286,11.5142857 L5.95714286,11.8285714 L6.01428571,11.9857143 L3.55714286,11.9857143 L3.55714286,11.5142857 Z" id="Shape" fill-rule="nonzero"></path>
                    <path d="M11.1,11.5714286 L10.9142857,12.1428571 C10.8857143,12.2142857 10.9,12.2857143 10.9428571,12.3285714 C10.9857143,12.3714286 11.0428571,12.4142857 11.1142857,12.4142857 L14.0714286,12.4142857 C14.1857143,12.4142857 14.2857143,12.3142857 14.2857143,12.2 L14.2857143,11.2714286 C14.2857143,11.2142857 14.2571429,11.1571429 14.2142857,11.1142857 C14.1714286,11.0714286 14.1,11.0571429 14.0428571,11.0571429 L11.2857143,11.4285714 C11.2,11.4428571 11.1285714,11.5 11.1,11.5714286 Z M11.4714286,11.8428571 L13.8714286,11.5285714 L13.8714286,12 L11.4142857,12 L11.4714286,11.8428571 Z" id="Shape" fill-rule="nonzero"></path>
                    <path d="M4.02857143,10.1571429 L13.3857143,10.1571429 C13.4714286,10.1571429 13.5428571,10.1 13.5857143,10.0285714 C13.6142857,9.94285714 13.6,9.85714286 13.5428571,9.8 L12.9857143,9.22857143 C12.9,9.14285714 12.7714286,9.14285714 12.6857143,9.22857143 C12.6,9.31428571 12.6,9.44285714 12.6857143,9.52857143 L12.8857143,9.74285714 L4.52857143,9.74285714 L4.72857143,9.52857143 C4.81428571,9.44285714 4.81428571,9.31428571 4.72857143,9.22857143 C4.64285714,9.14285714 4.51428571,9.14285714 4.42857143,9.22857143 L3.87142857,9.8 C3.81428571,9.85714286 3.8,9.95714286 3.82857143,10.0285714 C3.85714286,10.1 3.94285714,10.1571429 4.02857143,10.1571429 Z" id="Path"></path>
                    <path d="M3.35714286,4.88571429 C3.47142857,4.88571429 3.57142857,4.78571429 3.57142857,4.67142857 L3.57142857,3.57142857 L3.95714286,3.57142857 L3.95714286,4.67142857 C3.95714286,4.78571429 4.05714286,4.88571429 4.17142857,4.88571429 L4.81428571,4.88571429 L5.42857143,6.17142857 C5.45714286,6.24285714 5.54285714,6.3 5.62857143,6.3 L12.3714286,6.3 C12.4857143,6.3 12.5857143,6.2 12.5857143,6.08571429 L12.5857143,5.77142857 L12.8714286,5.7 L12.8714286,5.92857143 C12.8714286,5.98571429 12.9,6.05714286 12.9428571,6.08571429 C12.9857143,6.12857143 13.0571429,6.14285714 13.1142857,6.12857143 L14.0714286,5.97142857 C14.1714286,5.95714286 14.2428571,5.87142857 14.2428571,5.75714286 L14.2428571,2.8 C14.2428571,2.7 14.1714286,2.6 14.0714286,2.58571429 L13.1142857,2.42857143 C13.0571429,2.41428571 12.9857143,2.42857143 12.9428571,2.47142857 C12.9,2.51428571 12.8714286,2.57142857 12.8714286,2.62857143 L12.8714286,2.85714286 L12.5857143,2.78571429 L12.5857143,2.47142857 C12.5857143,2.35714286 12.4857143,2.25714286 12.3714286,2.25714286 L11.6857143,2.25714286 L10.5857143,1 C10.5428571,0.957142857 10.4857143,0.928571429 10.4285714,0.928571429 L8.28571429,0.928571429 L8.28571429,0.542857143 L9.38571429,0.542857143 C9.5,0.542857143 9.6,0.442857143 9.6,0.328571429 C9.6,0.214285714 9.5,0.114285714 9.38571429,0.114285714 L6.75714286,0.114285714 C6.64285714,0.114285714 6.54285714,0.214285714 6.54285714,0.328571429 C6.54285714,0.442857143 6.64285714,0.542857143 6.75714286,0.542857143 L7.85714286,0.542857143 L7.85714286,0.928571429 L5.62857143,0.928571429 C5.55714286,0.928571429 5.5,0.957142857 5.45714286,1.01428571 L4.85714286,1.82857143 L4.18571429,1.82857143 C4.07142857,1.82857143 3.97142857,1.92857143 3.97142857,2.04285714 L3.97142857,3.14285714 L3.57142857,3.14285714 L3.57142857,2.04285714 C3.57142857,1.92857143 3.47142857,1.82857143 3.35714286,1.82857143 C3.24285714,1.82857143 3.14285714,1.92857143 3.14285714,2.04285714 L3.14285714,4.67142857 C3.14285714,4.78571429 3.24285714,4.88571429 3.35714286,4.88571429 Z M4.4,2.25714286 L4.95714286,2.25714286 C5.02857143,2.25714286 5.08571429,2.22857143 5.12857143,2.17142857 L5.72857143,1.37142857 L10.3285714,1.37142857 L11.4285714,2.62857143 C11.4714286,2.67142857 11.5285714,2.7 11.5857143,2.7 L12.1571429,2.7 L12.1571429,2.97142857 C12.1571429,3.07142857 12.2285714,3.15714286 12.3285714,3.18571429 L13.0428571,3.34285714 C13.1,3.35714286 13.1714286,3.34285714 13.2285714,3.3 C13.2857143,3.25714286 13.3142857,3.2 13.3142857,3.12857143 L13.3142857,2.88571429 L13.8428571,2.97142857 L13.8428571,5.57142857 L13.3142857,5.65714286 L13.3142857,5.42857143 C13.3142857,5.35714286 13.2857143,5.3 13.2285714,5.25714286 C13.1714286,5.21428571 13.1142857,5.2 13.0428571,5.21428571 L12.3285714,5.37142857 C12.2285714,5.4 12.1571429,5.48571429 12.1571429,5.58571429 L12.1571429,5.85714286 L5.75714286,5.85714286 L5.14285714,4.57142857 C5.11428571,4.5 5.02857143,4.44285714 4.94285714,4.44285714 L4.38571429,4.44285714 L4.38571429,2.25714286 L4.4,2.25714286 Z" id="Shape" fill-rule="nonzero"></path>
                </g>
            </g>
        </g>
    </g>
</svg>