<?xml version="1.0" encoding="UTF-8"?>
<svg width="45px" height="45px" viewBox="0 0 45 45" version="1.1" xmlns="http://www.w3.org/2000/svg" xmlns:xlink="http://www.w3.org/1999/xlink">
    <!-- Generator: Sketch 40.2 (33826) - http://www.bohemiancoding.com/sketch -->
    <title>ic_enginecc</title>
    <desc>Created with Sketch.</desc>
    <defs></defs>
    <g id="Page-1" stroke="none" stroke-width="1" fill="none" fill-rule="evenodd">
        <g id="ic_enginecc" transform="translate(1.000000, 7.000000)" fill="#969696">
            <g id="Group-3" transform="translate(0.000000, 6.247647)">
                <path d="M3.32532444,17.5091092 C2.54799111,17.2510762 2.55483556,15.7324245 2.55581333,15.6841664 L2.55581333,9.08758446 C2.55581333,8.91227966 2.50985778,8.73894457 2.41990222,8.58629151 C2.23999111,8.28000053 2.09332444,7.92643634 2.00141333,7.68120658 C1.97110222,7.59946333 1.95545778,7.51772008 1.95545778,7.43203739 L1.95545778,3.49358841 C3.16985778,2.38168321 3.56096889,2.09016511 3.58736889,2.07046794 C4.02443556,1.75629809 4.12808,1.14568585 3.81910222,0.702499539 C3.50816889,0.258328374 2.89901333,0.149009085 2.45705778,0.462194075 C2.40621333,0.499618697 1.91341333,0.858107176 0.316702222,2.33244029 C0.11528,2.51857854 -9.77777782e-05,2.78252061 -9.77777782e-05,3.05828097 L-9.77777782e-05,7.43203739 C-9.77777782e-05,7.75704068 0.0585688889,8.07613483 0.172968889,8.38045609 C0.269768889,8.63651929 0.415457778,8.99106833 0.600257778,9.34364766 L0.601235556,15.6467418 C0.559191111,16.7596319 0.958124444,18.7982889 2.71323556,19.3803402 C2.81492444,19.4148103 2.91759111,19.4295831 3.01928,19.4295831 C3.42994667,19.4295831 3.81323556,19.1676108 3.94816889,18.7529854 C4.11732444,18.2359347 3.83768,17.6794897 3.32532444,17.5091092" id="Fill-1"></path>
            </g>
            <path d="M40.7630667,26.3295015 L38.6021778,26.3295015 L38.6021778,24.0475845 C38.6021778,23.5029577 38.1641333,23.062726 37.6244,23.062726 L34.5610222,23.062726 C34.2334667,23.0134831 33.8130222,23.0617411 33.4561333,23.3325772 C33.1745333,23.5453066 32.8391556,23.9658412 32.8391556,24.7576674 L32.8391556,27.6167115 C32.8391556,27.6955002 32.8469778,27.8008801 32.8645778,27.8905022 C32.8059111,27.9033053 32.7159556,27.9141388 32.5839556,27.9141388 L17.7129333,27.9141388 L12.5297333,22.8234054 C12.3390667,22.6362823 12.0760444,22.5161296 11.8159556,22.5446905 C10.2671556,22.5909788 8.44751111,22.5909788 7.51862222,22.5230236 L7.51862222,9.13584253 C7.51862222,9.10531192 7.51373333,9.04917498 7.5108,9.01864437 C7.50297778,8.92902225 7.52546667,8.79606636 7.5548,8.76356603 C7.56457778,8.75273259 7.64768889,8.70939882 7.85106667,8.70939882 L11.2058222,8.70939882 C11.7455556,8.70939882 12.1836,8.26916708 12.1836,7.72454036 L12.1836,6.48952785 C13.4400444,6.40187544 17.1829778,6.32505648 28.3003111,6.6589235 C28.3619111,7.36211244 28.4010222,8.56363976 28.4010222,9.55046794 C28.4010222,9.81834944 28.5310667,10.1216858 28.7227111,10.3068392 C29.1558667,10.7263889 29.766,10.7017675 31.0987111,10.6505548 C31.4673333,10.6367668 32.0491111,10.6131302 32.4715111,10.6249485 L32.4715111,13.0437609 C32.4715111,13.4623257 32.7120444,13.8336174 33.1148889,14.0394528 C33.946,14.4619571 37.3897333,14.5604429 38.2267111,13.9419518 C38.5669778,13.6908129 38.7361333,13.2850512 38.6696444,12.883229 L38.6696444,12.8822441 C38.6148889,12.5464074 38.5415556,11.0691197 38.5562222,10.2093382 C39.1194222,10.2122928 39.9691111,10.2231263 40.8051111,10.2516872 C41.1805778,11.4876845 41.9530222,14.4954423 41.9530222,18.2920716 C41.9530222,21.9951394 41.1532,25.0550947 40.7630667,26.3295015 M42.4350667,8.94576485 C42.2962222,8.57841264 41.954,8.32825859 41.5638667,8.31053114 C37.6752444,8.13325662 37.4425333,8.29083397 37.1775556,8.46515392 C36.4344444,8.94576485 36.5283111,11.1508629 36.6446667,12.3760269 C36.0091111,12.4311789 35.0332889,12.4233001 34.4270667,12.3563297 L34.4270667,9.94047189 C34.4270667,9.62925662 34.3019111,9.3357688 34.0750667,9.1151605 C33.55,8.60894325 32.6670667,8.61682212 31.0224444,8.68280764 C30.8229778,8.6906865 30.5775556,8.70053509 30.3526667,8.70447452 C30.3194222,5.40913812 30.0593333,4.71185833 29.0708,4.71185833 C29.0219111,4.71087347 28.7960444,4.70397946 28.4313333,4.69314602 C25.2750667,4.59761475 22.6937333,4.53162923 20.5719556,4.49125003 L20.5719556,1.97001238 L26.2127556,1.97001238 C26.7524889,1.97001238 27.1905333,1.52879579 27.1905333,0.985153917 C27.1905333,0.440527189 26.7524889,0.000295457538 26.2127556,0.000295457538 L13.7636889,0.000295457538 C13.2229778,0.000295457538 12.7859111,0.440527189 12.7859111,0.985153917 C12.7859111,1.52879579 13.2229778,1.97001238 13.7636889,1.97001238 L18.6164,1.97001238 L18.6164,4.4587497 C11.1598667,4.35632442 10.8636,4.64193338 10.5389778,4.96102752 C10.3492889,5.14519605 10.2280444,5.42982014 10.2280444,5.69671679 L10.2280444,6.7396819 L7.85106667,6.7396819 C6.90848889,6.7396819 6.3668,7.13854957 6.07933333,7.47241659 C5.52688889,8.11158973 5.53666667,8.89849164 5.56306667,9.18902488 L5.56306667,13.6996766 L3.52048889,13.6996766 C2.98075556,13.6996766 2.54271111,14.1399084 2.54271111,14.6845351 C2.54271111,15.2291618 2.98075556,15.6693935 3.52048889,15.6693935 L5.56306667,15.6693935 L5.56306667,23.2813646 C5.56306667,23.5482612 5.69115556,23.8466733 5.88182222,24.0328116 C6.15462222,24.2997082 6.52715556,24.6581967 11.4610222,24.5252408 L16.6324889,29.6041559 C16.8153333,29.784385 17.0607556,29.8838557 17.3159556,29.8838557 L32.5839556,29.8838557 C33.6741778,29.8838557 34.2256444,29.43673 34.4964889,29.0614989 C34.8592444,28.5582362 34.8895556,27.9397451 34.7947111,27.4936042 L34.7986222,25.0324429 L36.6466222,25.0324429 L36.6466222,27.31436 C36.6466222,27.8589867 37.0846667,28.2992184 37.6244,28.2992184 L41.4680444,28.2992184 C41.8738222,28.2992184 42.2375556,28.0461098 42.3822667,27.6629999 C42.4448444,27.4985285 43.9085778,23.5453066 43.9085778,18.2920716 C43.9085778,12.9255779 42.4947111,9.10531192 42.4350667,8.94576485" id="Fill-4"></path>
        </g>
    </g>
</svg>