<?xml version="1.0" encoding="UTF-8"?>
<svg width="128px" height="128px" viewBox="0 0 128 128" version="1.1" xmlns="http://www.w3.org/2000/svg" xmlns:xlink="http://www.w3.org/1999/xlink">
    <!-- Generator: Sketch 46.2 (44496) - http://www.bohemiancoding.com/sketch -->
    <title>Page 1</title>
    <desc>Created with Sketch.</desc>
    <defs>
        <polygon id="path-1" points="0 0 0 128 128 128 128 0"></polygon>
    </defs>
    <g id="Page-1" stroke="none" stroke-width="1" fill="none" fill-rule="evenodd">
        <g>
            <mask id="mask-2" fill="white">
                <use xlink:href="#path-1"></use>
            </mask>
            <g id="Clip-2"></g>
            <path d="M93.891939,51.993043 C93.6501736,52.6384463 93.1470852,53.1623424 92.5129192,53.4307403 L85.871237,56.2403878 C84.658665,56.7522163 83.2476041,56.2437167 82.6600434,55.0831559 C79.1067997,48.0669434 71.7252571,43.9440188 63.8606,44.5852609 C54.1483726,45.3733936 46.3819196,53.6346395 46.1801017,63.3930878 C46.0723268,68.6137391 48.0280881,73.546851 51.6882745,77.2827833 C55.3497094,81.0207963 60.2391126,83.0797619 65.4555858,83.0797619 C72.1954721,83.0797619 78.3315692,79.6563363 81.8690004,73.9221919 C82.5422816,72.8311232 83.9508459,72.4428825 85.0764489,73.0383514 L91.5774827,76.4742607 C92.1712852,76.7875996 92.6169491,77.3389596 92.7987933,77.9860274 C92.9802213,78.6297663 92.888675,79.3271847 92.5482894,79.8997669 C86.8986359,89.4052139 76.5172885,95.3099677 65.4555858,95.3099677 C57.0225095,95.3099677 49.094186,92.0092977 43.1299463,86.015494 C37.1665388,80.0229387 33.9045786,72.0779446 33.9457744,63.6435926 C34.0256694,47.2929588 46.8425638,33.5576441 63.1249008,32.3746127 C76.101169,31.4266896 88.1374234,38.3596779 93.8024733,50.0239595 C94.1041599,50.6443955 94.1362011,51.3438946 93.891939,51.993043 M116.449773,42.2766228 C113.389215,34.8971369 114.816088,24.3064469 109.254652,18.7449927 C103.693632,13.1835385 93.1029766,14.6100006 85.7230985,11.5498483 C78.6045435,8.59788754 72.1863175,0 64,0 C55.8136825,0 49.3954565,8.59788754 42.2769015,11.5498483 C34.8974396,14.6100006 24.3063679,13.1835385 18.7453479,18.7449927 C13.1839118,24.3064469 14.6103692,34.8967208 11.5502269,42.2762067 C8.59827571,49.395201 0,55.8134479 0,63.9997919 C0,72.186136 8.59827571,78.6043829 11.5502269,85.7233772 C14.6103692,93.102447 13.1839118,103.693137 18.7453479,109.254591 C24.3063679,114.816045 34.8974396,113.389167 42.2769015,116.449736 C49.3954565,119.401696 55.8136825,128 64,128 C72.1863175,128 78.6045435,119.401696 85.7230985,116.449736 C93.1029766,113.389167 103.693216,114.816045 109.254652,109.254591 C114.815672,103.693553 113.389215,93.102447 116.449773,85.7233772 C119.401724,78.6043829 128,72.186136 128,63.9997919 C128,55.8134479 119.401724,49.395201 116.449773,42.2766228" id="Fill-1" fill="#FF5722" mask="url(#mask-2)"></path>
        </g>
    </g>
</svg>