<svg width="41" height="42" viewBox="0 0 41 42" fill="none" xmlns="http://www.w3.org/2000/svg">
<path fill-rule="evenodd" clip-rule="evenodd" d="M30.0026 17.0596C29.9256 17.2714 29.7657 17.4433 29.5641 17.5313L27.4531 18.4533C27.0676 18.6213 26.6192 18.4544 26.4324 18.0737C25.3031 15.7712 22.9571 14.4185 20.4572 14.629C17.3704 14.8875 14.9019 17.5981 14.8377 20.8003C14.8033 22.5133 15.4252 24.132 16.5884 25.3579C17.7522 26.5843 19.3063 27.2598 20.9643 27.2598C23.1066 27.2598 25.0569 26.1365 26.1812 24.2552C26.3949 23.8971 26.843 23.7697 27.2006 23.965L29.267 25.0924C29.4556 25.1953 29.5974 25.3763 29.6552 25.5886C29.7127 25.7999 29.6837 26.0287 29.5755 26.2166C27.7798 29.3357 24.4801 31.2731 20.9643 31.2731C18.284 31.2731 15.7638 30.19 13.8682 28.2234C11.9728 26.257 10.9361 23.6498 10.9492 20.8822C10.9745 15.5174 15.0482 11.0104 20.2236 10.6223C24.3479 10.3112 28.1736 12.5862 29.9741 16.4135C30.07 16.6173 30.0801 16.8467 30.0026 17.0596ZM37.171 13.8722C36.1982 11.4506 36.6517 7.97565 34.8839 6.15069C33.1165 4.326 29.7504 4.79386 27.4047 3.78965C25.142 2.8212 23.1019 0 20.5 0C17.898 0 15.8582 2.8212 13.5954 3.78965C11.2501 4.79386 7.88373 4.326 6.11624 6.15069C4.34848 7.97565 4.80194 11.4506 3.82948 13.8722C2.89111 16.2079 0.158081 18.314 0.158081 21.0001C0.158081 23.6863 2.89111 25.7923 3.82921 28.1281C4.80194 30.5496 4.34848 34.0246 6.11624 35.8493C7.88373 37.6743 11.2501 37.2064 13.5954 38.2104C15.8582 39.1791 17.898 42 20.5 42C23.1019 42 25.142 39.1791 27.4047 38.2104C29.7504 37.2064 33.1162 37.6743 34.8839 35.8496C36.6514 34.0246 36.1982 30.5496 37.171 28.1281C38.1091 25.7923 40.8418 23.6863 40.8418 21.0001C40.8418 18.314 38.1091 16.2079 37.171 13.8722Z" fill="#5E81F4"/>
</svg>
