<svg width="262" height="150" viewBox="0 0 262 150" fill="none" xmlns="http://www.w3.org/2000/svg">
<g clip-path="url(#clip0_4184_43625)">
<path d="M97.6287 21.0472C96.9301 21.6282 97.6575 22.802 98.5505 22.2931L98.6297 22.2355C99.0161 21.9114 99.4074 21.6017 99.8107 21.2993C100.596 20.6968 99.7771 19.5013 98.9273 20.0246C98.488 20.3295 98.0416 20.7016 97.6287 21.0472ZM186.155 70.5735C186.871 71.2313 187.924 70.2111 187.24 69.4669C186.866 69.0997 186.455 68.7444 186.071 68.3843C185.43 67.7962 184.453 68.5164 184.854 69.3157C184.9 69.3901 184.936 69.4501 185.003 69.5125C185.385 69.8702 185.769 70.2231 186.155 70.5735ZM181.683 66.1711C182.322 66.8672 183.445 65.9983 182.886 65.1917L182.823 65.1149C182.475 64.7404 182.132 64.3612 181.791 63.9795C181.179 63.3122 180.104 64.0203 180.529 64.8677C180.56 64.9181 180.586 64.9637 180.629 65.0093C180.975 65.4006 181.328 65.7894 181.683 66.1711ZM177.622 61.375C178.195 62.1215 179.41 61.3894 178.891 60.482C178.589 60.0547 178.248 59.6322 177.936 59.205C177.305 58.3864 176.097 59.277 176.678 60.1171C176.988 60.542 177.302 60.9597 177.622 61.375ZM174.038 56.2116C174.585 57.0614 175.879 56.3028 175.358 55.393C175.089 54.9609 174.827 54.5217 174.566 54.0848C174.115 53.2926 172.857 53.8207 173.162 54.7353C173.181 54.7809 173.198 54.8193 173.222 54.8649C173.49 55.3162 173.762 55.7651 174.038 56.2116ZM170.994 50.7073C171.376 51.5235 172.696 51.1106 172.437 50.1408C172.245 49.6511 171.964 49.1302 171.74 48.6429C171.325 47.7548 169.988 48.2805 170.3 49.2215C170.499 49.7111 170.764 50.2296 170.994 50.7073ZM168.555 44.9006C168.85 45.7864 170.24 45.4575 170.046 44.4781L170.019 44.3869C169.849 43.9068 169.683 43.4243 169.527 42.9394C169.21 41.9889 167.775 42.3921 168.044 43.4003C168.205 43.902 168.377 44.4037 168.555 44.9006ZM166.786 38.8563C167.014 39.7684 168.32 39.5932 168.32 38.6738C168.315 38.6162 168.313 38.5682 168.301 38.513C168.185 38.0161 168.08 37.5168 167.979 37.0175C167.806 36.0909 166.38 36.2302 166.443 37.2311L166.455 37.3152C166.558 37.8313 166.668 38.345 166.786 38.8563ZM165.754 32.6367C165.881 33.6473 167.364 33.5176 167.3 32.4878C167.237 31.9933 167.206 31.4604 167.172 30.9611C167.11 29.9818 165.619 30.0034 165.619 31.0284C165.643 31.5589 165.703 32.1086 165.754 32.6367ZM165.545 26.3259C165.49 27.2068 166.824 27.4829 167.076 26.5371C167.088 26.4819 167.093 26.4435 167.098 26.3859C167.112 25.8794 167.146 25.3681 167.182 24.864C167.244 23.8582 165.761 23.7142 165.636 24.7223C165.591 25.2456 165.559 25.8002 165.545 26.3259ZM166.27 20.0366C166.087 21.016 167.523 21.3617 167.787 20.3679C167.895 19.8638 167.996 19.3669 168.123 18.8652C168.363 17.905 166.944 17.4946 166.632 18.4307C166.486 18.9372 166.373 19.5181 166.27 20.0366ZM168.099 13.9491C167.749 14.83 168.968 15.4854 169.496 14.626C169.724 14.1531 169.911 13.6586 170.151 13.1809C170.595 12.2976 169.282 11.5774 168.778 12.4584C168.536 12.9241 168.298 13.4642 168.099 13.9491ZM171.311 8.40401C170.797 9.07134 171.522 9.95471 172.283 9.57544C172.377 9.51543 172.451 9.46742 172.523 9.3738C172.833 8.98492 173.154 8.61045 173.495 8.24798C174.136 7.54945 173.229 6.50525 172.429 7.11977C172.048 7.48224 171.64 7.98633 171.311 8.40401ZM176.057 4.08799C175.257 4.64009 176.011 5.89793 176.901 5.38903C177.334 5.10578 177.749 4.80812 178.195 4.54167C178.978 4.09519 178.44 2.82054 177.521 3.1494C177.475 3.16621 177.442 3.18541 177.398 3.20942C176.947 3.47587 176.486 3.78553 176.057 4.08799ZM181.724 1.11861C181.354 1.24104 181.129 1.66112 181.23 2.03799C181.342 2.48928 181.806 2.72932 182.243 2.5829C182.711 2.41246 183.181 2.27084 183.659 2.13641C183.942 2.0668 184.168 1.82675 184.225 1.5459C184.338 0.974587 183.832 0.492095 183.27 0.633722C182.751 0.775349 182.231 0.933779 181.724 1.11861ZM188.088 0C187.161 0 186.986 1.29145 187.891 1.53149C187.944 1.5435 187.994 1.5531 188.052 1.5531C188.551 1.5603 189.033 1.5867 189.528 1.63951C190.486 1.75954 190.776 0.295257 189.73 0.100819C189.189 0.0336064 188.63 0.00720138 188.088 0V0ZM194.42 1.43308C193.553 1.0298 192.857 2.22763 193.652 2.77973C194.115 3.04138 194.552 3.24542 195.008 3.54068C195.86 4.08799 196.717 2.83494 195.863 2.24203C195.409 1.94677 194.91 1.66352 194.42 1.43308ZM199.391 5.7059C199.209 5.42504 198.861 5.29302 198.544 5.37703C198.028 5.51386 197.802 6.10677 198.088 6.55086C198.35 6.94453 198.585 7.37182 198.779 7.7991C199.096 8.58165 200.378 8.3176 200.258 7.36941C200.244 7.2926 200.232 7.24939 200.203 7.17498C199.977 6.67328 199.696 6.16438 199.391 5.7059ZM200.203 7.17498L198.779 7.7967L200.203 7.17498ZM201.096 12.0863C201.158 11.0733 199.675 10.9317 199.547 11.9447C199.507 12.432 199.449 12.8905 199.336 13.3706C199.099 14.3187 200.527 14.7652 200.839 13.7642C200.976 13.2361 201.055 12.6312 201.096 12.0863ZM198.731 18.2051C199.315 17.4489 198.218 16.4744 197.526 17.2281C197.197 17.6338 196.912 18.0203 196.556 18.4139C196.352 18.6348 196.29 18.9612 196.41 19.2397C196.631 19.7582 197.313 19.8854 197.697 19.4653C198.064 19.0645 198.41 18.6444 198.731 18.2051ZM194.012 22.5979C194.862 22.0098 194.012 20.752 193.155 21.3017C192.735 21.5825 192.312 21.849 191.878 22.1058C191.136 22.5283 191.544 23.7142 192.44 23.5341C192.524 23.5125 192.581 23.4909 192.661 23.4477C193.119 23.1764 193.568 22.8956 194.012 22.5979ZM188.376 25.5433C189.223 25.2024 188.889 23.8822 187.915 24.0646C187.874 24.0742 187.838 24.0838 187.797 24.1006C187.324 24.2927 186.851 24.4751 186.374 24.6479C185.411 25.0344 185.932 26.4339 186.902 26.1098C187.396 25.9274 187.888 25.7401 188.376 25.5433ZM182.387 27.5093C183.292 27.2836 183.08 25.865 182.067 25.9922C181.554 26.1002 181.021 26.261 180.505 26.3859C179.532 26.6283 179.83 28.0902 180.848 27.9006C181.362 27.7805 181.875 27.6437 182.387 27.5093ZM176.227 28.8103C177.072 28.7047 177.151 27.3965 176.186 27.2692C176.117 27.2644 176.066 27.2644 175.999 27.274C175.497 27.3485 174.991 27.4181 174.487 27.4781C173.582 27.5909 173.562 28.8991 174.489 29.0216C174.549 29.0264 174.602 29.0288 174.662 29.0216C175.185 28.9568 175.706 28.8895 176.227 28.8103ZM169.931 29.324C170.867 29.324 171.011 27.9078 170 27.7733C169.477 27.7517 168.932 27.7685 168.401 27.7517C167.564 27.7013 167.218 28.9616 168.171 29.2784C168.229 29.2928 168.281 29.3 168.344 29.3048C168.872 29.324 169.402 29.3288 169.931 29.324ZM163.615 28.8607C164.64 28.988 164.868 27.5141 163.857 27.3244C163.37 27.2548 162.844 27.1636 162.364 27.058C161.378 26.8732 161.042 28.311 162.028 28.5751C162.542 28.6855 163.096 28.7839 163.615 28.8607ZM157.463 27.3845C157.789 27.4925 158.173 27.3605 158.358 27.0604C158.624 26.6283 158.43 26.069 157.94 25.9058C157.455 25.7497 156.973 25.5865 156.49 25.4161C155.557 25.104 155.004 26.4315 155.929 26.8636C156.421 27.0532 156.958 27.2212 157.463 27.3845ZM151.593 25.1256C152.561 25.5121 153.139 24.1342 152.22 23.7046C151.749 23.4981 151.281 23.2869 150.813 23.0732C150.055 22.718 149.303 23.6925 149.966 24.3527C150.036 24.4103 150.084 24.4463 150.165 24.4847C150.638 24.7031 151.116 24.9168 151.593 25.1256ZM145.943 22.4803C146.766 22.8644 147.489 21.777 146.757 21.1673C146.709 21.1337 146.67 21.1049 146.617 21.0808C146.149 20.86 145.686 20.6296 145.218 20.4063C144.342 19.9958 143.622 21.2417 144.505 21.7842C144.973 22.0242 145.467 22.2547 145.943 22.4803ZM140.345 19.8374C141.135 20.2047 141.867 19.1221 141.149 18.5244C141.089 18.4787 141.046 18.4499 140.979 18.4187C140.503 18.2075 140.026 17.9939 139.546 17.7898C138.65 17.4297 138.014 18.6588 138.859 19.1797C139.332 19.4125 139.86 19.6214 140.345 19.8374ZM134.646 17.5138C135.614 17.8354 136.142 16.4408 135.174 16.0519C134.68 15.8766 134.185 15.7062 133.688 15.5382C132.829 15.2525 132.241 16.448 133.05 16.9473C133.103 16.9737 133.141 16.9929 133.199 17.0121C133.684 17.1753 134.164 17.3433 134.646 17.5138ZM128.787 15.735C129.66 15.9535 130.155 14.7052 129.303 14.2803C129.25 14.2563 129.207 14.2395 129.152 14.2251C128.635 14.1003 128.124 13.9875 127.608 13.8699C126.653 13.6922 126.293 15.0653 127.222 15.3726C127.735 15.5046 128.268 15.6078 128.787 15.735ZM122.798 14.8444C123.702 14.8997 123.94 13.5578 123.03 13.3154C122.975 13.3058 122.934 13.2962 122.872 13.2914C122.344 13.2673 121.813 13.2505 121.285 13.2481C120.303 13.2481 120.207 14.7364 121.268 14.8012C121.777 14.8012 122.289 14.8204 122.798 14.8444ZM116.72 15.0485C117.116 15.0005 117.408 14.6764 117.408 14.2731C117.408 13.8195 117 13.4498 116.544 13.5074C116.021 13.5626 115.495 13.6346 114.974 13.7138C114.593 13.7618 114.293 14.1339 114.317 14.5204C114.348 14.9885 114.739 15.3077 115.21 15.2477C115.709 15.1709 116.218 15.1037 116.72 15.0485ZM110.738 16.1863C111.599 15.9703 111.465 14.5972 110.447 14.6644C109.933 14.7628 109.317 14.9717 108.81 15.1301C107.857 15.447 108.26 16.868 109.252 16.6208C109.749 16.472 110.236 16.3231 110.738 16.1863ZM105.022 18.2435C105.922 17.8234 105.341 16.4432 104.396 16.8224C103.908 17.0385 103.414 17.2857 102.941 17.533C102.029 18.0539 102.758 19.3597 103.661 18.9084C104.108 18.6756 104.564 18.4547 105.022 18.2435Z" fill="#CFDEED"/>
<path fill-rule="evenodd" clip-rule="evenodd" d="M238.764 54.8914C240.672 57.4238 242.581 59.9563 244.491 62.4888C241.692 65.5446 238.598 68.3531 236.095 71.6514C233.584 74.9544 234.858 75.1104 238.277 74.2247C242.449 73.1421 244.683 68.3579 247.057 64.0899C248.027 65.6046 249.54 67.7338 250.339 69.2701C246.438 74.988 241.124 77.3165 237.496 79.4913C233.934 81.6253 234.947 83.8817 238.327 83.104C245.048 81.5581 249.561 77.7413 253.661 71.8026C255.185 74.8848 256.71 77.967 258.236 81.0492C252.187 87.4272 245.041 90.1157 238.092 89.8469C233.572 89.6692 233.896 93.2891 237.225 94.895C245.281 98.7814 252.951 95.7112 260.387 91.8849C261.045 95.8288 261.311 99.72 260.923 103.51C260.529 107.368 249.979 104.723 240.439 103.004C235.17 102.056 237.729 106.309 238.908 106.941C245.339 110.383 248.891 114.413 260.15 112.217C258.729 118.816 255.752 122.051 252.014 125.871C249.636 128.3 242.158 117.57 236.553 114.14C232.427 111.614 229.736 115.789 232.902 118.532C237.943 122.899 242.11 130.146 250.202 128.583C248.085 132.15 245.886 135.456 239.03 138.003C234.69 139.616 229.868 130.859 228.617 122.894C227.983 118.849 225.072 120.311 225.453 123.667C226.217 130.395 227.556 136.783 231.469 141.894C229.037 142.751 227.407 142.753 225.919 138.168C224.952 135.189 222.484 134.675 220.715 133.593C214.318 129.683 212.524 123.669 214.366 118.854C215.787 115.143 214.327 114.716 212.923 118.362C206.531 134.964 190.087 134.834 187.43 122.376C192.668 125.09 197.627 124.034 202.419 119.55C203.744 118.307 203.143 116.989 200.808 117.817C177.137 126.226 181.799 107.029 180.38 96.4889C185.02 103.616 190.344 112.867 200.786 111.281C206.768 110.373 201.905 107.737 200.587 107.697C193.681 107.481 188.289 102.017 182.944 97.634C181.53 96.4745 181.45 94.1197 181.652 92.3049C182.027 88.9227 184.115 85.4492 185.505 83.4664C186.868 86.6302 195.419 92.7946 202.282 98.5797C204.207 100.2 207.642 101.842 204.519 96.0425C200.906 89.3284 192.413 85.5284 191.583 77.9502C191.112 73.6414 198.467 71.3009 201.847 68.5908C202.2 71.0825 203.6 75.1008 205.993 77.206C210.621 81.2772 211.432 86.3278 213.581 90.5214C214.634 92.5738 219.251 96.4817 215.602 88.0657C212.529 80.9844 207.637 79.3473 204.396 67.4986C207.997 64.4308 211.463 64.1955 214.003 61.7879C216.288 71.3441 218.202 79.28 219.851 83.02C221.517 86.7959 223.098 84.7027 221.569 81.2964C218.336 74.1022 215.803 68.3819 215.739 61.8983C218.475 60.5756 221.409 59.7859 224.628 59.7811C224.039 64.486 221.555 69.3373 222.863 73.8958C224.337 79.0352 227.904 77.7269 227.165 72.626C226.505 68.0651 227.451 63.413 227.595 58.8065C231.361 57.8295 235.096 56.6197 238.764 54.8914ZM212.752 113.871C211.557 114.248 210.357 115.393 209.164 115.004C207.601 114.497 208.23 112.978 209.781 113.127C210.799 113.223 211.764 113.621 212.752 113.871ZM211.156 109.915C209.915 110.092 208.544 111.024 207.431 110.445C205.971 109.691 206.843 108.294 208.348 108.693C209.334 108.957 210.22 109.509 211.156 109.915ZM214.442 106.007C212.649 105.33 210.124 105.565 209.061 103.971C207.664 101.883 209.86 100.654 211.581 102.3C212.709 103.381 213.489 104.773 214.442 106.007ZM218.235 98.9494C217.729 97.8908 217.745 96.3377 216.718 95.7688C215.374 95.0223 214.735 96.4241 215.827 97.3915C216.543 98.0252 217.431 98.4309 218.235 98.9494ZM220.859 110.748C222.573 111.401 225.091 111.588 226.001 112.709C227.191 114.176 224.906 114.641 223.353 113.403C222.335 112.591 221.689 111.631 220.859 110.748ZM223.199 102.977C222.486 101.023 229.102 100.013 231.774 101.187C235.271 102.723 233.584 105.733 230.029 105.03C227.698 104.569 225.434 103.782 223.199 102.977ZM224.863 96.1481C226.207 94.6238 226.92 92.0361 228.898 91.5776C231.49 90.9799 231.884 93.6132 229.609 94.703C228.115 95.4159 226.445 95.6656 224.863 96.1481Z" fill="#CEDEEC"/>
<path fill-rule="evenodd" clip-rule="evenodd" d="M22.6359 11.3493C26.9495 11.7141 31.2631 12.0766 35.5768 12.4391C36.1337 18.0658 36.1769 23.7645 37.2499 29.3143C38.3253 34.8714 39.6455 33.7168 41.8516 29.4368C44.5473 24.2109 41.7172 17.5833 39.5399 11.2869C41.9596 11.6781 45.5003 12.079 47.7903 12.6647C50.0564 21.8321 47.5887 29.3551 46.4965 35.0226C45.4259 40.5845 48.6425 41.6095 50.9301 37.4639C55.4718 29.2231 55.6974 21.1624 53.3906 11.5893C57.9107 12.8448 62.4331 14.0978 66.9532 15.3508C67.9374 27.3051 64.1663 37.0174 57.5674 43.8395C53.2778 48.2732 57.2529 51.2377 61.9146 49.315C73.1992 44.6581 77.0543 34.0672 79.9277 23.0227C84.5366 25.9441 88.735 29.2111 92.2372 33.0542C95.7995 36.9694 83.5116 45.287 73.0864 53.4222C67.3253 57.9182 73.9793 59.1881 75.6933 58.5639C85.0455 55.1553 92.3765 55.2105 100.384 41.7655C105.805 49.2141 106.386 55.1865 106.868 62.4599C107.173 67.0904 89.4599 64.93 80.8711 67.5081C74.5483 69.4044 76.3438 75.9385 82.0161 75.2159C91.0418 74.0637 102.204 76.421 107.975 66.7711C109.677 72.1698 111.035 77.4124 107.389 86.7021C105.082 92.5809 91.7884 89.5155 82.5514 83.5407C77.8609 80.509 76.6991 84.7962 80.4582 87.4631C87.9932 92.8089 95.7083 97.2594 104.463 97.9291C103.123 101.182 101.645 102.843 95.6291 100.183C91.7187 98.4572 88.951 100.498 86.2409 101.314C76.4446 104.259 68.6959 100.61 65.4769 94.3572C62.9948 89.5347 61.2329 90.6293 63.6622 95.375C74.7283 116.982 59.6366 133.583 44.5497 124.949C52.0751 122.092 55.515 116.091 55.3134 107.14C55.2557 104.66 53.369 104.069 52.0847 107.2C39.0982 138.919 23.8217 116.71 11.8146 108.563C23.2816 110.332 37.5331 113.333 45.4211 101.275C49.9411 94.3668 42.8334 96.9137 41.5947 98.2148C35.0919 105.044 24.6283 105.553 15.3097 107C12.8444 107.382 10.3767 105.323 8.71322 103.465C5.61662 100.006 3.98431 94.7221 3.23537 91.5031C7.69302 92.9962 21.7405 89.914 33.8652 88.1952C37.2667 87.7127 42.0604 85.7156 33.3227 83.6128C23.2072 81.1787 11.6154 86.3565 3.15615 80.3025C-1.65437 76.8627 2.65925 67.256 2.97612 61.3509C5.83506 63.2592 11.1905 65.4941 15.5089 64.9756C23.8601 63.9746 29.7341 67.7457 35.9536 69.3756C38.9998 70.1726 47.171 69.0347 35.2935 65.0884C25.3004 61.7662 19.184 65.2516 4.18595 57.767C4.34198 51.3145 7.25854 47.577 7.12171 42.8025C18.9152 49.1733 28.7283 54.4496 34.0309 56.1731C39.3863 57.9158 38.6974 54.4039 33.8412 52.8604C23.5865 49.5982 15.4633 46.9721 8.81164 41.1366C9.95666 37.1518 11.8242 33.4527 14.748 30.1713C18.9968 35.0514 21.6709 41.9912 27.4944 44.8093C34.0621 47.9875 35.9752 43.1698 30.1181 39.281C24.8803 35.8028 21.0108 30.6082 16.4547 26.2705C18.8912 21.5512 21.0588 16.6495 22.6359 11.3493ZM58.9405 91.4623C58.2371 93.0226 58.3091 95.2838 56.828 96.1456C54.8933 97.2714 53.9211 95.2478 55.4814 93.8051C56.504 92.8617 57.7882 92.2448 58.9405 91.4623ZM53.4674 89.4867C52.5168 90.9102 52.2168 93.1522 50.6157 93.7595C48.5225 94.5541 47.8935 92.3984 49.6699 91.2318C50.8341 90.4685 52.2024 90.0676 53.4674 89.4867ZM52.4856 82.5902C50.162 83.7976 48.1072 86.5797 45.5147 86.2101C42.1228 85.73 42.8718 82.3789 46.1124 82.1269C48.2344 81.9612 50.3612 82.4365 52.4856 82.5902ZM48.7577 72.3138C47.219 71.8625 45.6563 70.4342 44.1416 70.9599C42.1612 71.6488 43.0062 73.574 44.9842 73.3436C46.278 73.1924 47.4999 72.657 48.7577 72.3138ZM63.1413 80.3769C65.3641 79.2319 67.8462 76.841 69.8145 76.9347C72.3878 77.0595 70.7843 79.8056 68.1102 80.2569C66.3579 80.5546 64.7976 80.3385 63.1413 80.3769ZM57.3706 70.9287C54.7348 69.8749 59.7254 62.2294 63.3525 60.5803C68.0982 58.4223 69.6225 62.8776 65.6713 65.8541C63.0837 67.8033 60.2223 69.3876 57.3706 70.9287ZM51.9407 63.024C51.6166 60.2707 49.6291 57.1909 50.9661 54.7616C52.7137 51.581 55.7526 53.5782 54.7877 56.8836C54.1563 59.0488 52.8889 60.9764 51.9407 63.024Z" fill="#CFDEED"/>
<path d="M83.7877 112.49C84.7839 113.141 85.9698 113.29 87.0716 113.028C88.1734 112.764 89.1888 112.09 89.8393 111.093C89.9785 110.892 90.0962 110.688 90.1946 110.479C90.9867 110.287 90.8571 106.3 89.6545 106.362C89.5344 106.201 89.4024 106.048 89.2608 105.901C90.6675 105.647 91.9685 104.838 92.8135 103.549C93.3464 102.733 93.4376 101.792 93.6848 100.915C93.7544 100.666 93.7449 100.349 93.6752 99.9936C94.561 99.5063 91.7741 95.1783 90.6819 95.4952C90.329 95.2503 89.9713 95.0847 89.6305 95.0271C90.8931 94.7078 92.0429 93.9301 92.8135 92.7538C94.441 90.2646 93.7449 86.9255 91.2532 85.2956L70.722 71.8458C69.2746 70.8976 67.5414 70.7368 66.0243 71.2577V71.2553L46.1533 78.0702C45.0035 78.4663 42.1998 79.8778 41.4796 81.8485C33.2772 104.307 28.5243 97.2499 29.5133 125.391C29.1437 128.614 25.2165 138.027 21.635 149.225H54.3245C55.2247 143.524 55.8896 138.787 55.9328 137.328C62.5941 135.729 67.2726 126.646 68.5256 116.986C70.8925 115.311 72.4384 112.049 72.4384 109.43C72.4384 106.811 71.7278 105.366 70.5348 103.808L83.7877 112.49Z" fill="#DEAB71"/>
<path fill-rule="evenodd" clip-rule="evenodd" d="M48.477 77.2731C50.4861 76.5194 52.2121 76.0825 54.2237 75.0479C64.2432 69.8989 76.7304 98.0443 74.7116 105.577C72.2967 114.588 63.031 119.939 54.022 117.526C46.7678 115.582 41.8901 109.199 41.5204 102.084C41.0787 102.624 40.6227 103.145 40.2218 103.63C39.5688 104.422 39.4584 104.302 39.9985 103.426C45.7572 94.0572 47.3992 88.5625 46.2829 85.4803C46.1749 85.1803 46.631 85.0146 46.739 85.3147C49.4635 86.6541 50.7598 77.4604 48.477 77.2731Z" fill="#BA7243"/>
<path d="M56.1895 136.368C62.3755 134.238 67.2724 126.634 68.5254 116.986C70.8923 115.311 72.4382 112.55 72.4382 109.43C72.4382 107.315 71.7276 105.366 70.5346 103.808L79.0346 109.377L71.6172 90.3364L54.9316 97.2498L43.527 121.864C38.6445 132.405 44.8569 140.268 56.1895 136.368Z" fill="#BA7243"/>
<path d="M96.2123 112.49C98.2047 113.794 100.876 113.234 102.18 111.242C102.218 111.184 102.254 111.127 102.288 111.067C96.1715 114.005 96.3323 104.067 101.688 105.901C103.092 105.647 104.395 104.84 105.238 103.549C100.828 106.047 98.8504 101.575 100 97.9868C100.55 96.2752 100.903 95.4807 102.17 95.1038L102.055 95.027C103.205 94.7365 104.263 94.0644 105.024 93.0586C104.16 93.6371 103.512 93.4283 102.751 93.1738C101.09 92.6241 101.868 87.0839 104.076 85.5812C103.949 85.4828 103.817 85.3867 103.68 85.2955L99.4289 82.511C94.4312 84.3185 89.8871 89.6764 87.9859 96.7697C87.0642 100.217 86.8841 103.621 87.3402 106.676L96.2123 112.49Z" fill="#BA7243"/>
<path fill-rule="evenodd" clip-rule="evenodd" d="M58.5371 23.1477H123.573C127.378 23.1477 130.486 26.2563 130.486 30.061V125.179C130.486 128.984 127.378 132.093 123.573 132.093H58.5371C54.7348 132.093 51.6238 128.984 51.6238 125.179V30.061C51.6238 26.2563 54.7348 23.1477 58.5371 23.1477Z" fill="white"/>
<path d="M128.933 30.061C128.933 29.6313 129.281 29.2832 129.711 29.2832C130.138 29.2832 130.486 29.6313 130.486 30.061V36.2733C130.486 36.703 130.138 37.0511 129.711 37.0511C129.281 37.0511 128.933 36.703 128.933 36.2733V30.061Z" fill="#57607D"/>
<path d="M128.933 39.3796C128.933 38.9523 129.281 38.6042 129.711 38.6042C130.138 38.6042 130.486 38.9523 130.486 39.3796V45.592C130.486 46.0217 130.138 46.3697 129.711 46.3697C129.281 46.3697 128.933 46.0217 128.933 45.592V39.3796Z" fill="#57607D"/>
<path d="M116.165 24.7008C115.735 24.7008 115.387 24.3527 115.387 23.9231C115.387 23.4958 115.735 23.1477 116.165 23.1477H122.377C122.807 23.1477 123.155 23.4958 123.155 23.9231C123.155 24.3527 122.807 24.7008 122.377 24.7008H116.165Z" fill="#57607D"/>
<path fill-rule="evenodd" clip-rule="evenodd" d="M58.5372 23.9231H123.573C126.948 23.9231 129.711 26.686 129.711 30.0611V125.179C129.711 128.554 126.948 131.317 123.573 131.317H58.5372C55.1621 131.317 52.4016 128.554 52.4016 125.179V30.0611C52.4016 26.686 55.1621 23.9231 58.5372 23.9231Z" fill="#212744"/>
<path fill-rule="evenodd" clip-rule="evenodd" d="M58.5372 27.9629H123.573C124.728 27.9629 125.673 28.9063 125.673 30.0609V125.179C125.673 126.334 124.728 127.28 123.573 127.28H58.5372C57.385 127.28 56.4392 126.334 56.4392 125.179V30.0609C56.4392 28.9063 57.385 27.9629 58.5372 27.9629Z" fill="white"/>
<path fill-rule="evenodd" clip-rule="evenodd" d="M98.4471 74.5247H111.623C114.185 74.5247 116.283 76.6203 116.283 79.184C116.283 81.7452 114.185 83.8432 111.623 83.8432H98.4471C95.8834 83.8432 93.7878 81.7452 93.7878 79.184C93.7878 76.6203 95.8834 74.5247 98.4471 74.5247Z" fill="#CFDEED"/>
<path d="M70.489 74.2126H83.6651C85.031 74.2126 86.2744 74.772 87.177 75.6721C88.0771 76.5747 88.6365 77.8157 88.6365 79.184C88.6365 80.5499 88.0771 81.7933 87.177 82.6935C86.2744 83.5936 85.031 84.153 83.6651 84.153H70.489C69.1231 84.153 67.8797 83.5936 66.9795 82.6935C66.0793 81.7933 65.52 80.5499 65.52 79.184C65.52 77.8181 66.0793 76.5747 66.9795 75.6745C67.8821 74.772 69.1231 74.2126 70.489 74.2126ZM83.6651 74.8344H70.489C69.2935 74.8344 68.2061 75.3241 67.4188 76.1114C66.629 76.8988 66.1417 77.9862 66.1417 79.184C66.1417 80.3794 66.629 81.4668 67.4188 82.2542C68.2061 83.0415 69.2935 83.5312 70.489 83.5312H83.6651C84.8605 83.5312 85.9479 83.0415 86.7377 82.2542C87.525 81.4668 88.0147 80.3794 88.0147 79.184C88.0147 77.9862 87.525 76.8988 86.7377 76.1114C85.9479 75.3241 84.8605 74.8344 83.6651 74.8344Z" fill="#CFDEED"/>
<path fill-rule="evenodd" clip-rule="evenodd" d="M58.5372 27.9629H123.573C124.728 27.9629 125.673 28.9063 125.673 30.0609V66.6967H56.4392V30.0609C56.4392 28.9063 57.385 27.9629 58.5372 27.9629Z" fill="#33CC99"/>
<path fill-rule="evenodd" clip-rule="evenodd" d="M138.098 110.052V125.179C138.098 126.334 137.152 127.28 136 127.28H108.217C108.219 126.627 108.176 125.899 108.073 125.102C107.24 118.573 105.771 112.159 105.572 105.515C105.401 99.8881 104.76 95.4592 103.651 90.4855C103.38 89.2756 103.335 88.0034 103.176 86.7623C102.866 84.4531 104.54 82.1246 106.911 81.5629C109.194 81.0228 111.292 82.3143 111.722 84.4699C111.981 85.7397 112.365 86.9784 112.495 88.2794C113.076 94.0429 114.17 98.4262 115.344 102.301C115.887 104.086 116.093 105.99 116.47 107.834C116.856 107.049 117.358 106.405 117.927 105.904C118.234 105.618 118.606 105.361 119.058 105.135C121.705 103.794 125.075 104.903 126.033 108.523C126.341 108.22 126.641 107.961 126.936 107.74L126.945 107.733L126.953 107.728C127.005 107.69 127.061 107.651 127.113 107.613L127.125 107.606L127.135 107.598C127.183 107.565 127.234 107.531 127.282 107.5L127.322 107.474L127.454 107.392L127.507 107.361L127.63 107.291L127.67 107.267L127.704 107.25L127.771 107.214L127.805 107.197L127.836 107.181L127.87 107.164L127.937 107.133L127.97 107.116L128.038 107.085L128.069 107.07L128.102 107.056L128.136 107.044L128.201 107.015L128.234 107.003C131.149 105.863 133.46 108.443 135.04 110.808L135.102 110.767L135.129 110.75L135.138 110.743L135.155 110.733L135.181 110.717L135.208 110.7L135.261 110.669L135.287 110.654L135.313 110.637L135.34 110.623L135.366 110.609L135.393 110.594L135.421 110.58L135.448 110.565L135.474 110.551L135.501 110.537L135.529 110.522L135.556 110.51L135.582 110.496L135.609 110.481L135.638 110.469L135.664 110.457L135.693 110.443L135.719 110.431L135.724 110.428L135.774 110.407L135.801 110.395L135.83 110.383L135.856 110.371L135.885 110.361L135.911 110.349L135.94 110.337L135.957 110.332L135.966 110.328L135.995 110.318L136.022 110.306L136.05 110.296L136.077 110.287L136.106 110.277L136.134 110.268L136.161 110.258L136.187 110.248H136.19L136.216 110.239L136.245 110.232L136.274 110.222L136.302 110.212L136.329 110.205L136.358 110.198L136.379 110.191L136.384 110.188L136.413 110.181L136.442 110.174L136.47 110.167L136.485 110.162L136.497 110.16L136.526 110.152L136.554 110.145L136.581 110.138L136.61 110.133L136.639 110.126L136.667 110.121L136.694 110.114H136.699L136.723 110.109L136.751 110.102L136.778 110.097L136.804 110.092H136.807L136.835 110.088L136.864 110.083C137.279 110.013 137.695 110.004 138.098 110.052ZM102.857 127.28H92.8541L92.8397 127.186C92.8229 127.025 92.7437 126.752 92.8301 126.624C92.6909 126.495 92.5997 126.221 92.7053 126.046C92.6237 125.863 92.206 124.697 92.3644 124.243C92.6885 122.28 93.3558 121.37 93.7039 119.483C93.7567 119.193 94.148 118.962 94.1888 118.736C94.436 117.378 94.9617 115.049 95.4994 113.343C95.7202 112.647 96.1475 111.994 96.6612 112.01C97.3238 111.468 98.1855 111.434 99.393 112.318C100.85 113.381 103.932 121.648 101.167 124.987C101.673 125.117 102.326 126.163 102.857 127.28Z" fill="#90B2CF"/>
<path fill-rule="evenodd" clip-rule="evenodd" d="M56.4392 110.959C59.0917 109.84 61.0337 109.202 61.6434 108.657L72.7455 98.7333C74.9636 96.7505 75.1532 93.3442 73.1704 91.1262C71.2765 89.009 68.0862 88.7402 65.8706 90.4469L56.4392 96.6017V110.959Z" fill="#CEDEEC"/>
<path d="M71.6173 90.3366C71.2381 89.1868 70.8444 88.3082 70.3211 87.7297C71.0436 85.5837 62.6684 88.1522 62.2915 88.2458C61.725 88.385 60.6256 88.0946 59.8479 88.2266C58.0283 88.5338 57.9179 88.493 54.8069 89.1628C52.1952 89.7269 51.2374 90.7087 48.4745 93.6876L34.0861 111.086C32.245 113.424 32.6435 116.814 34.9815 118.655C35.3032 118.909 35.6464 119.121 36.0017 119.291C35.8481 121.269 36.801 123.259 38.623 124.339C39.6144 124.927 40.7162 125.16 41.7844 125.076C40.4546 131.341 41.7172 135.924 44.8138 135.528C48.1312 135.103 52.5937 128.012 54.13 122.162C55.6663 116.312 56.0263 111.768 55.131 108.962C58.5084 104.475 59.8383 99.5496 59.3438 98.8726C62.3131 100.123 73.2376 95.2743 71.6173 90.3366Z" fill="#DEAB71"/>
<path d="M71.6148 90.3364C70.885 94.2804 66.3554 94.9813 63.278 96.2968C60.071 97.6674 57.1448 96.9329 55.4597 93.9707C55.3517 93.6683 54.8956 93.8339 55.0036 94.134C55.7429 96.1815 56.9144 96.6592 56.0934 97.8499C50.3251 106.223 44.9169 110.796 39.6887 116.069C27.7152 128.141 37.1178 130.787 34.5757 137.94C33.8267 140.048 32.4705 144.402 30.9966 149.225H51.7942C53.0736 142.765 54.0554 137.083 53.9858 134.983C50.9084 135.179 47.8286 135.376 44.7512 135.573C44.7464 135.52 44.7392 135.465 44.7344 135.41C47.9414 134.229 51.9574 127.952 53.9954 120.76C55.2484 116.338 55.5077 112.068 54.874 109.334C53.2945 111.292 52.6343 111.535 54.6675 108.899C58.165 104.36 59.286 99.1989 58.974 98.5052C62.2626 99.391 72.2125 95.7831 71.6148 90.3364Z" fill="#BA7243"/>
<path fill-rule="evenodd" clip-rule="evenodd" d="M54.0675 137.647C54.1971 137.393 54.3267 137.138 54.4564 136.884C52.6656 137.294 50.4236 137.484 49.0073 137.27C50.1715 137.702 52.2119 137.806 54.0675 137.647Z" fill="#DEAB71"/>
<path fill-rule="evenodd" clip-rule="evenodd" d="M137.433 107.793C139.387 106.403 142.152 106.907 143.501 108.94L149.63 118.146C151.788 121.386 153.242 125.486 152.899 129.466L151.824 141.884C151.615 144.304 151.572 146.848 152.1 149.225H113.832L104.631 140.785C102.482 138.814 102.626 138.787 101.57 136.063L97.5038 125.561C97.3285 125.107 97.1413 124.663 97.0309 124.171C96.9925 124.01 96.8845 123.739 96.9565 123.612C96.8028 123.482 96.6828 123.206 96.7692 123.033C96.6684 122.851 96.1211 121.684 96.2291 121.228C96.3396 119.267 96.9061 118.357 97.0501 116.47C97.0717 116.18 97.4366 115.947 97.4534 115.724C97.5518 114.363 97.8206 112.034 98.1711 110.33C98.3151 109.631 98.6728 108.978 99.1865 108.998C99.789 108.455 100.651 108.422 101.954 109.305C103.527 110.368 107.514 118.633 105.113 121.975C106.169 122.236 108.229 126.257 108.335 126.989C108.38 127.354 108.193 127.644 108.471 127.685C108.812 127.733 109.201 128.209 109.446 128.357C111.546 129.627 113.342 127.594 112.034 122.087C110.485 115.558 108.313 109.147 107.386 102.5C106.602 96.8754 105.473 92.4465 103.819 87.4704C103.419 86.2605 103.231 84.9907 102.936 83.7496C102.374 81.4404 103.793 79.1119 106.105 78.5502C108.327 78.0101 110.565 79.3016 111.232 81.4572C111.628 82.727 112.149 83.9633 112.423 85.2643C113.635 91.0302 115.21 95.4135 116.808 99.2854C117.545 101.074 117.961 102.975 118.539 104.821C120.275 100.296 126.293 100.474 128.179 105.507C131.713 101.597 135.153 104.862 137.433 107.793Z" fill="#DEAB71"/>
<path fill-rule="evenodd" clip-rule="evenodd" d="M121.012 102.031C119.437 105.022 119.946 108.042 120.913 112.562C119.797 108.928 116.847 104.036 121.012 102.031ZM150.852 124.022C151.413 125.902 151.677 127.875 151.507 129.841L150.614 140.153C150.271 144.138 149.714 146.951 148.312 149.225H115.243L105.243 140.475C103.303 138.778 103.118 138.142 102.23 135.777C92.8229 116.141 100.804 124.869 103.819 131.699C106.124 136.92 111.94 141.281 112.447 137.998C113.157 133.384 114.341 142.727 114.535 139.299C114.691 136.562 113.272 134.279 113.57 125.75C113.712 121.703 112.92 112.077 120.327 116.247C124.127 118.386 123.554 116.727 126.103 116.045C127.728 115.609 129.442 115.94 130.599 116.991C132.836 119.024 133.544 118.232 136.242 117.075C140.172 115.392 142.04 120.258 144.908 118.897C147.904 117.476 150.052 121.362 150.852 124.022ZM137.493 107.752C138.012 107.394 138.588 107.168 139.178 107.07C139.008 109.389 139.793 111.813 140.919 114.96L137.493 107.752ZM128.179 105.507C128.863 104.751 129.543 104.264 130.212 103.99C129.61 107.008 130.438 110.15 131.725 114.447C130.544 111.468 129.36 108.486 128.179 105.507Z" fill="#BA7243"/>
<path fill-rule="evenodd" clip-rule="evenodd" d="M80.631 50.9835C81.5408 54.2529 81.764 51.1419 81.0223 56.627C80.9911 56.8502 80.6814 58.4705 80.8278 58.6265C80.9166 58.7202 81.0007 58.6986 81.1831 58.665C81.3463 58.6338 81.4832 58.6025 81.6416 58.5713L86.0488 57.7144C86.5361 57.6232 87.1386 58.012 87.6283 58.1777C92.1916 59.7212 96.9997 57.9808 99.7339 54.4233C100.843 52.9807 101.957 50.5442 101.945 48.1941L101.942 47.3972L101.93 47.1355C101.755 46.3242 101.755 45.568 101.481 44.6871C100.934 42.9203 100.02 41.4152 98.7617 40.155C96.5653 37.9562 93.0294 36.4319 89.095 37.1376C84.4645 37.9682 81.1567 41.6169 80.3645 45.8057C79.9733 47.8845 80.2205 49.0655 80.631 50.9835Z" fill="white"/>
<path fill-rule="evenodd" clip-rule="evenodd" d="M93.7446 49.212C94.1695 49.1688 95.0217 49.7449 95.3841 49.9393C96.4115 50.4914 96.6012 50.4914 96.4979 51.1396C96.3755 51.9053 96.1115 52.2774 95.6314 52.6158C94.0015 53.7609 91.9347 52.7431 90.4416 51.9197C89.8079 51.5716 89.5774 51.3172 89.0949 50.9091L87.9523 49.7545C87.381 49.0416 86.5576 47.9109 86.116 46.9364C84.9829 44.4423 86.296 42.3611 87.6402 42.3947C88.6052 42.4187 88.5548 42.7043 88.8261 43.4989C88.9245 43.7821 89.4166 45.0664 89.407 45.2896C89.3902 45.6905 88.6508 46.4275 88.4204 46.5907C88.394 47.1188 89.0421 47.9614 89.347 48.3598C89.8991 49.0776 91.8291 50.7099 92.4436 50.5226C92.7124 50.441 93.471 49.3656 93.7446 49.212ZM82.9762 56.375C84.138 56.2501 86.3296 55.5228 86.8601 55.8037C89.7455 57.3255 93.2213 57.1575 95.9626 55.3716L96.6372 54.8939C97.2013 54.4666 97.6862 53.9721 98.1183 53.4104C99.3377 51.8237 100.036 50.0377 100.046 47.8917C100.063 44.7447 98.5863 42.5915 96.9876 41.084C95.4153 39.6029 92.7364 38.7268 90.4776 38.8804C89.1069 38.9716 87.8947 39.3509 86.8529 39.9102C86.0151 40.3591 84.8629 41.2209 84.2844 41.9338C81.896 44.884 81.2046 48.7727 83.3074 52.4022C83.5115 52.7551 83.449 52.8511 83.3866 53.3144L82.9762 56.375Z" fill="#33CC99"/>
<path d="M173.884 106.585V106.581C173.253 106.237 174.184 103.035 175.19 102.987C174.381 102.397 173.742 101.554 173.404 100.527C173.337 100.325 173.296 100.123 173.27 99.9217C173.243 99.8569 173.219 99.7897 173.198 99.7225C172.914 98.8607 173.061 97.9917 173.051 97.1444C173.046 96.9019 173.13 96.6211 173.279 96.3186C172.602 95.6657 176.148 92.4467 177.055 92.994C177.12 92.9724 177.187 92.9484 177.254 92.9316C176.688 92.3867 176.244 91.7001 175.982 90.9032C175.874 90.5767 175.804 90.2454 175.766 89.9142C174.972 87.3145 176.4 84.5443 178.997 83.6898L200.695 76.546C202.224 76.0419 203.82 76.3156 205.059 77.1485L205.061 77.1461L221.281 88.0586C222.22 88.6899 224.402 90.6343 224.572 92.5787C226.471 113.986 232.105 109.869 225.578 132.141H225.508C225.235 133.084 224.94 134.075 224.62 135.122C224.308 137.215 224.841 142.487 225.367 149.225H196.936C197.449 144.481 197.93 140.662 198.215 139.452C194.269 137.311 192.116 132.042 191.626 125.976C191.376 123.468 191.415 120.808 191.732 118.163C190.651 116.79 190.044 114.92 189.938 113.153C189.787 112.013 189.838 110.885 190.097 109.915C190.507 108.381 191.071 107.366 191.816 106.537L179.314 110.654C178.272 110.997 177.178 110.846 176.258 110.349C175.339 109.852 174.595 109.007 174.254 107.963C174.177 107.752 174.122 107.541 174.083 107.332C173.92 107.241 173.862 106.957 173.884 106.585Z" fill="#DEAB71"/>
<path d="M179.158 109.931C177.055 110.625 174.787 109.478 174.095 107.375C174.074 107.313 174.057 107.25 174.04 107.188C178.829 111.305 181.078 102.334 175.824 102.692C174.621 102.125 173.646 101.083 173.198 99.7223C176.561 103.03 179.417 99.487 179.247 95.9848C179.163 94.3141 179.038 93.5147 177.991 92.869L178.111 92.8282C177.149 92.2881 176.359 91.4335 175.917 90.3461C176.556 91.0734 177.187 91.0398 177.934 90.9966C179.559 90.9006 180.192 85.7348 178.57 83.8529C178.709 83.7928 178.851 83.7376 178.997 83.6896L183.488 82.2109C187.547 85.0411 190.339 90.951 190.339 97.7827C190.339 101.105 189.679 104.206 188.536 106.844L179.158 109.931Z" fill="#BA7243"/>
<path fill-rule="evenodd" clip-rule="evenodd" d="M204.703 90.1807C196.023 90.1807 188.98 97.2212 188.98 105.904C188.98 114.586 196.021 121.627 204.703 121.627C211.691 121.627 217.616 117.066 219.663 110.76C219.927 111.35 220.213 111.931 220.455 112.462C220.854 113.331 220.981 113.249 220.707 112.335C217.786 102.524 217.632 97.19 219.38 94.6863C219.55 94.4439 219.181 94.1846 219.01 94.4295C217.006 96.4603 216.807 95.6249 215.131 94.1366C212.356 91.6762 208.705 90.1807 204.703 90.1807Z" fill="#BA7243"/>
<path d="M198.215 138.535C193.208 135.158 190.659 127.21 191.847 118.309C190.138 116.25 189.418 113.419 190.164 110.637C190.668 108.753 191.768 107.183 193.205 106.081L184.297 109.015L195.457 93.8125L208.681 103.962L212.968 128.629C214.805 139.193 207.385 144.721 198.215 138.535Z" fill="#BA7243"/>
<path fill-rule="evenodd" clip-rule="evenodd" d="M185.106 55.4363H211.204C213.852 55.4363 216.019 57.6015 216.017 60.2492V119.697C216.019 122.344 213.852 124.51 211.204 124.512H185.106C182.458 124.51 180.293 122.344 180.293 119.697V60.2492C180.293 57.6015 182.458 55.4363 185.106 55.4363Z" fill="white"/>
<path d="M215.074 74.9952C215.074 74.8224 215.213 74.6856 215.383 74.6856C215.554 74.6856 215.693 74.8224 215.693 74.9952V78.0606C215.693 78.2334 215.554 78.3703 215.383 78.3703C215.213 78.3703 215.074 78.2334 215.074 78.0606V74.9952ZM180.617 81.5773C180.617 81.4069 180.757 81.27 180.927 81.27C181.1 81.27 181.237 81.4069 181.237 81.5773V84.6451C181.237 84.8155 181.1 84.9547 180.927 84.9547C180.757 84.9547 180.617 84.8155 180.617 84.6451V81.5773ZM180.617 68.2691C180.617 68.0963 180.757 67.9595 180.927 67.9595C181.1 67.9595 181.237 68.0963 181.237 68.2691V78.4831C181.237 78.6559 181.1 78.7928 180.927 78.7928C180.757 78.7928 180.617 78.6559 180.617 78.4831V68.2691Z" fill="#57607D"/>
<path fill-rule="evenodd" clip-rule="evenodd" d="M185.245 56.1035H211.065C213.441 56.1035 215.383 58.0479 215.383 60.4219V119.596C215.383 121.97 213.441 123.914 211.065 123.914H185.245C182.871 123.914 180.927 121.97 180.927 119.596V60.4219C180.927 58.0479 182.871 56.1035 185.245 56.1035Z" fill="#212744"/>
<path fill-rule="evenodd" clip-rule="evenodd" d="M195.145 120.743C194.449 120.743 193.885 120.177 193.885 119.483C193.885 118.787 194.449 118.223 195.145 118.223H201.168C201.864 118.223 202.428 118.787 202.428 119.483C202.428 120.177 201.864 120.743 201.168 120.743H195.145Z" fill="#57607D"/>
<path fill-rule="evenodd" clip-rule="evenodd" d="M183.174 61.8574H213.136V115.64H183.174V61.8574Z" fill="white"/>
<path fill-rule="evenodd" clip-rule="evenodd" d="M213.136 104.327V116.9L207.896 116.271C205.102 113.957 202.867 112.591 202.363 111.821L194.773 100.227C193.256 97.9101 193.906 94.8039 196.223 93.2868C198.436 91.8393 201.369 92.3674 202.949 94.4342L210.304 102.639L213.136 104.327Z" fill="#90B2CF"/>
<path fill-rule="evenodd" clip-rule="evenodd" d="M193.035 60.4484C192.591 60.4484 192.233 60.0908 192.233 59.6467C192.233 59.2026 192.591 58.8425 193.035 58.8425H203.275C203.719 58.8425 204.079 59.2026 204.079 59.6467C204.079 60.0908 203.719 60.4484 203.275 60.4484H193.035Z" fill="#57607D"/>
<path fill-rule="evenodd" clip-rule="evenodd" d="M191.093 79.729C191.698 81.9062 191.847 79.8346 191.352 83.4881C191.333 83.6369 191.127 84.7147 191.225 84.8203C191.285 84.8827 191.34 84.8659 191.46 84.8443C191.568 84.8251 191.659 84.8035 191.765 84.7819L194.701 84.213C195.025 84.153 195.428 84.4122 195.752 84.5203C198.791 85.5477 201.993 84.3906 203.815 82.0214C204.552 81.0588 205.294 79.4385 205.287 77.8734L205.285 77.3429L205.277 77.1677C205.16 76.6276 205.16 76.1235 204.977 75.5353C204.615 74.3615 204.005 73.3581 203.167 72.518C201.703 71.0561 199.348 70.0407 196.729 70.5088C193.645 71.0609 191.443 73.4926 190.915 76.2819C190.654 77.667 190.819 78.4519 191.093 79.729Z" fill="#CFDEED"/>
<path fill-rule="evenodd" clip-rule="evenodd" d="M191.419 78.5144C192.024 80.6916 192.173 78.62 191.679 82.2735C191.659 82.4199 191.453 83.5001 191.549 83.6034C191.609 83.6682 191.664 83.6514 191.787 83.6298C191.895 83.6082 191.986 83.589 192.092 83.5673L195.025 82.9984C195.351 82.936 195.752 83.1953 196.079 83.3057C199.118 84.3331 202.32 83.1737 204.139 80.8044C204.879 79.8442 205.621 78.2215 205.611 76.6588V76.1259L205.604 75.9531C205.486 75.413 205.486 74.9089 205.304 74.3208C204.939 73.1445 204.331 72.1412 203.491 71.3034C202.029 69.8391 199.675 68.8237 197.053 69.2942C193.971 69.8463 191.767 72.278 191.242 75.0673C190.98 76.4524 191.146 77.2373 191.419 78.5144Z" fill="white"/>
<path fill-rule="evenodd" clip-rule="evenodd" d="M200.152 77.3358C200.433 77.307 201.002 77.6886 201.245 77.8183C201.926 78.1879 202.053 78.1855 201.986 78.6176C201.905 79.1289 201.727 79.3762 201.408 79.6018C200.323 80.3651 198.947 79.6858 197.951 79.1385C197.529 78.9057 197.377 78.7376 197.053 78.4664L196.295 77.6958C195.915 77.2229 195.366 76.4668 195.071 75.8211C194.317 74.1599 195.191 72.7725 196.086 72.7941C196.727 72.8109 196.696 73.0005 196.876 73.531C196.94 73.7183 197.269 74.5752 197.262 74.7217C197.253 74.9905 196.76 75.4802 196.607 75.5906C196.588 75.9411 197.02 76.5028 197.224 76.7668C197.591 77.2445 198.875 78.3344 199.286 78.2071C199.466 78.1543 199.97 77.4366 200.152 77.3358ZM192.98 82.1055C193.755 82.0215 195.212 81.5366 195.567 81.7238C197.488 82.7368 199.802 82.6264 201.629 81.4358L202.077 81.1189C202.454 80.8356 202.776 80.5068 203.064 80.1323C203.875 79.0737 204.341 77.8855 204.348 76.4548C204.358 74.3592 203.376 72.9261 202.31 71.9227C201.264 70.9361 199.48 70.3528 197.977 70.4536C197.063 70.5161 196.256 70.7681 195.563 71.1402C195.006 71.4402 194.238 72.0139 193.851 72.4892C192.262 74.4528 191.801 77.0429 193.201 79.4602C193.337 79.6954 193.297 79.7578 193.253 80.0675L192.98 82.1055Z" fill="#33CC99"/>
<path fill-rule="evenodd" clip-rule="evenodd" d="M202.92 70.8186C203.885 70.8186 204.668 71.6012 204.668 72.5661C204.668 73.5311 203.885 74.3161 202.92 74.3161C201.953 74.3161 201.17 73.5311 201.17 72.5661C201.17 71.6012 201.953 70.8186 202.92 70.8186Z" fill="#FF5722"/>
<path d="M195.457 93.8125C196.069 92.8788 196.631 92.1874 197.236 91.7962C197.104 89.7102 203.957 94.0022 204.272 94.175C204.742 94.4343 205.791 94.4391 206.454 94.7415C208.002 95.4497 208.112 95.4401 210.724 96.7819C212.918 97.9077 213.537 99.0119 215.29 102.327L223.96 121.276C225.043 123.802 223.879 126.725 221.353 127.81C221.005 127.962 220.65 128.067 220.292 128.134C219.956 129.935 218.634 131.478 216.749 132.006C215.727 132.294 214.687 132.239 213.756 131.908C213.444 137.811 211.223 141.599 208.559 140.504C205.702 139.332 203.417 131.944 203.446 126.363C203.472 120.779 204.238 116.643 205.705 114.356C203.765 109.548 203.755 104.84 204.36 104.353C201.413 104.759 192.831 97.8261 195.457 93.8125Z" fill="#DEAB71"/>
<path d="M195.457 93.8125C195.167 97.502 199.038 99.2087 201.468 101.117C204 103.105 206.785 103.15 208.993 100.911C209.161 100.668 209.531 100.925 209.36 101.168C208.211 102.814 207.054 102.961 207.502 104.219C210.642 113.059 214.373 118.432 217.776 124.38C225.566 138.003 216.552 138.115 217.109 145.101C217.186 146.063 217.265 147.496 217.342 149.225H199.187C199.564 143.941 200.003 139.493 200.51 137.827C203.208 138.737 205.906 139.649 208.602 140.561C208.621 140.513 208.638 140.465 208.655 140.417C206.079 138.598 203.998 132.045 203.899 125.146C203.839 120.904 204.629 117.035 205.846 114.749C206.785 116.871 207.315 117.246 206.134 114.411C204.099 109.526 204.334 104.658 204.778 104.113C201.633 104.12 193.625 98.527 195.457 93.8125Z" fill="#BA7243"/>
<path fill-rule="evenodd" clip-rule="evenodd" d="M199.799 140.182C199.747 139.925 199.691 139.666 199.636 139.409C201.137 140.201 203.088 140.907 204.404 141.056C203.261 141.162 201.417 140.768 199.799 140.182Z" fill="#DEAB71"/>
<path d="M10.7392 150C10.3119 150 9.96387 149.652 9.96387 149.225C9.96387 148.795 10.3119 148.447 10.7392 148.447H249.544C249.972 148.447 250.32 148.795 250.32 149.225C250.32 149.652 249.972 150 249.544 150H10.7392Z" fill="#202945"/>
<path d="M179.789 35.3755H182.375C183.025 35.3755 183.616 35.6395 184.043 36.0668C184.333 36.3621 184.552 36.7293 184.66 37.1422H185.646C185.754 36.7293 185.97 36.3597 186.263 36.0668C186.691 35.6395 187.281 35.3755 187.932 35.3755H190.517C191.167 35.3755 191.758 35.6395 192.185 36.0668C192.613 36.4989 192.879 37.087 192.879 37.7351C192.879 38.3833 192.613 38.9738 192.185 39.4011C191.758 39.8307 191.167 40.0972 190.517 40.0972H187.932C187.286 40.0972 186.693 39.8307 186.266 39.4035C185.973 39.1106 185.754 38.7409 185.646 38.3305H184.66C184.552 38.7409 184.333 39.1106 184.043 39.4011C183.616 39.8307 183.023 40.0972 182.375 40.0972H179.789C179.139 40.0972 178.548 39.8307 178.121 39.4035C177.694 38.9762 177.427 38.3881 177.427 37.7375C177.427 37.0894 177.691 36.4989 178.121 36.0692C178.548 35.6419 179.139 35.3755 179.789 35.3755ZM182.094 38.3305C181.765 38.3305 181.498 38.064 181.498 37.7351C181.498 37.4087 181.765 37.1422 182.094 37.1422H183.385C183.335 37.0558 183.272 36.9766 183.203 36.907C182.989 36.6957 182.696 36.5637 182.375 36.5637H179.789C179.465 36.5637 179.172 36.6957 178.961 36.9046C178.748 37.1182 178.615 37.4135 178.615 37.7375C178.615 38.0592 178.75 38.3521 178.961 38.5633C179.172 38.7769 179.468 38.909 179.789 38.909H182.375C182.699 38.909 182.992 38.7769 183.203 38.5657C183.272 38.4961 183.335 38.4169 183.385 38.3305H182.094ZM186.921 37.1422H188.213C188.541 37.1422 188.808 37.4087 188.808 37.7351C188.808 38.064 188.541 38.3305 188.213 38.3305H186.921C186.971 38.4169 187.032 38.4937 187.101 38.5633C187.315 38.7769 187.608 38.909 187.932 38.909H190.517C190.841 38.909 191.134 38.7769 191.345 38.5657C191.559 38.3545 191.691 38.0592 191.691 37.7351C191.691 37.4135 191.559 37.1182 191.345 36.907C191.134 36.6957 190.839 36.5637 190.517 36.5637H187.932C187.61 36.5637 187.315 36.6957 187.104 36.907C187.034 36.9766 186.974 37.0558 186.921 37.1422Z" fill="#CFDEED"/>
<path fill-rule="evenodd" clip-rule="evenodd" d="M151.209 16.3975C152.635 16.8344 153.622 17.785 154.042 19.23C154.416 17.9242 155.314 16.9208 156.875 16.3975C155.305 16.059 154.335 15.0892 154.042 13.5649C153.752 15.0916 152.731 16.0158 151.209 16.3975Z" fill="#CFDEED"/>
<path fill-rule="evenodd" clip-rule="evenodd" d="M144.908 11.6782C145.996 12.0119 146.749 12.7392 147.071 13.8411C147.357 12.8449 148.041 12.0791 149.231 11.6782C148.034 11.4214 147.294 10.682 147.071 9.51782C146.848 10.682 146.07 11.3878 144.908 11.6782Z" fill="#CFDEED"/>
</g>
<defs>
<clipPath id="clip0_4184_43625">
<rect width="260.263" height="150" fill="white" transform="translate(0.868408)"/>
</clipPath>
</defs>
</svg>
