<svg width="140" height="80" viewBox="0 0 140 80" fill="none" xmlns="http://www.w3.org/2000/svg">
<g clip-path="url(#clip0_4184_44325)">
<path d="M52.202 11.2252C51.8295 11.535 52.2174 12.1611 52.6936 11.8896L52.7359 11.8589C52.942 11.6861 53.1507 11.5209 53.3658 11.3596C53.7844 11.0383 53.3478 10.4007 52.8946 10.6798C52.6604 10.8424 52.4222 11.0408 52.202 11.2252V11.2252ZM99.4162 37.6392C99.7977 37.99 100.36 37.4459 99.9949 37.049C99.7952 36.8532 99.5762 36.6637 99.3714 36.4716C99.0296 36.158 98.5085 36.5421 98.7223 36.9684C98.7466 37.0081 98.7658 37.0401 98.8017 37.0734C99.0053 37.2641 99.2101 37.4523 99.4162 37.6392V37.6392ZM97.0311 35.2913C97.3717 35.6625 97.9708 35.1991 97.6725 34.7689L97.6392 34.7279C97.4536 34.5282 97.2705 34.3259 97.0887 34.1224C96.7623 33.7665 96.1887 34.1442 96.4153 34.5961C96.432 34.623 96.446 34.6473 96.4691 34.6716C96.6534 34.8803 96.8416 35.0877 97.0311 35.2913V35.2913ZM94.8649 32.7333C95.1709 33.1315 95.8187 32.741 95.5422 32.2571C95.3809 32.0292 95.1991 31.8039 95.0327 31.576C94.696 31.1394 94.052 31.6144 94.3618 32.0625C94.527 32.2891 94.6947 32.5118 94.8649 32.7333V32.7333ZM92.9535 29.9795C93.2454 30.4327 93.9355 30.0282 93.6577 29.543C93.5143 29.3125 93.3747 29.0782 93.2352 28.8452C92.9945 28.4227 92.3237 28.7044 92.4862 29.1922C92.4965 29.2165 92.5055 29.237 92.5183 29.2613C92.6616 29.502 92.8063 29.7414 92.9535 29.9795V29.9795ZM91.3302 27.0439C91.5337 27.4792 92.2379 27.259 92.0996 26.7418C91.9972 26.4806 91.8474 26.2028 91.7283 25.9429C91.5069 25.4692 90.7938 25.7496 90.9602 26.2514C91.0664 26.5126 91.2073 26.7891 91.3302 27.0439V27.0439ZM90.0295 23.947C90.1869 24.4194 90.9282 24.244 90.8245 23.7217L90.8104 23.673C90.7195 23.417 90.6312 23.1596 90.548 22.901C90.379 22.3941 89.6134 22.6091 89.7568 23.1468C89.8425 23.4144 89.9347 23.682 90.0295 23.947V23.947ZM89.0859 20.7233C89.2075 21.2098 89.904 21.1164 89.904 20.626C89.9014 20.5953 89.9002 20.5697 89.8938 20.5403C89.8323 20.2753 89.776 20.009 89.7222 19.7427C89.63 19.2485 88.8696 19.3228 88.9028 19.8566L88.9092 19.9014C88.9643 20.1767 89.0232 20.4506 89.0859 20.7233V20.7233ZM88.5354 17.4062C88.6033 17.9452 89.3944 17.8761 89.3599 17.3268C89.3266 17.0631 89.31 16.7789 89.292 16.5126C89.2587 15.9903 88.4637 16.0018 88.4637 16.5485C88.4765 16.8314 88.5085 17.1246 88.5354 17.4062V17.4062ZM88.424 14.0405C88.3946 14.5103 89.1064 14.6575 89.2408 14.1531C89.2472 14.1237 89.2498 14.1032 89.2523 14.0725C89.26 13.8023 89.2779 13.5296 89.2972 13.2608C89.3304 12.7244 88.5392 12.6475 88.4727 13.1853C88.4483 13.4643 88.4317 13.7601 88.424 14.0405ZM88.8107 10.6862C88.7134 11.2086 89.4789 11.3929 89.6198 10.8629C89.6774 10.594 89.7312 10.329 89.799 10.0615C89.927 9.54935 89.1704 9.33043 89.004 9.82973C88.9259 10.0999 88.8657 10.4097 88.8107 10.6862V10.6862ZM89.7862 7.43951C89.5993 7.90936 90.2497 8.25887 90.5313 7.80054C90.6529 7.54833 90.7528 7.2846 90.8808 7.02983C91.1177 6.5587 90.4174 6.17463 90.1485 6.64448C90.0192 6.89284 89.8925 7.1809 89.7862 7.43951ZM91.4992 4.48214C91.2252 4.83805 91.6118 5.30918 92.0177 5.1069C92.0676 5.07489 92.1073 5.04929 92.1457 4.99936C92.3109 4.79196 92.4824 4.59224 92.6642 4.39892C93.006 4.02637 92.5221 3.46947 92.0958 3.79721C91.8922 3.99053 91.6746 4.25938 91.4992 4.48214V4.48214ZM94.0302 2.18026C93.6039 2.47472 94.0059 3.14556 94.4809 2.87415C94.7113 2.72308 94.9328 2.56433 95.1709 2.42223C95.5883 2.1841 95.3015 1.50429 94.8112 1.67968C94.7868 1.68864 94.7689 1.69889 94.7459 1.71169C94.5052 1.8538 94.2594 2.01895 94.0302 2.18026V2.18026ZM97.0529 0.596595C96.8557 0.661887 96.7354 0.88593 96.7892 1.08693C96.8493 1.32761 97.0964 1.45564 97.3294 1.37754C97.5791 1.28665 97.83 1.21111 98.0848 1.13942C98.2358 1.10229 98.3562 0.974267 98.3869 0.824478C98.4471 0.51978 98.1769 0.26245 97.8774 0.337985C97.6008 0.413519 97.323 0.498016 97.0529 0.596595ZM100.447 0C99.9526 0 99.8592 0.688772 100.342 0.816797C100.37 0.823198 100.397 0.828319 100.428 0.828319C100.694 0.83216 100.951 0.846242 101.215 0.874408C101.726 0.93842 101.881 0.15747 101.323 0.0537703C101.034 0.0179234 100.736 0.00384074 100.447 0V0ZM103.824 0.764307C103.362 0.549225 102.991 1.18807 103.414 1.48252C103.662 1.62207 103.895 1.73089 104.138 1.88836C104.592 2.18026 105.049 1.51197 104.594 1.19575C104.352 1.03828 104.085 0.88721 103.824 0.764307V0.764307ZM106.475 3.04314C106.378 2.89336 106.193 2.82294 106.024 2.86775C105.748 2.94072 105.628 3.25695 105.78 3.49379C105.92 3.70375 106.045 3.93164 106.149 4.15952C106.318 4.57688 107.002 4.43605 106.938 3.93035C106.93 3.88939 106.924 3.86634 106.908 3.82665C106.788 3.55908 106.638 3.28767 106.475 3.04314V3.04314ZM106.908 3.82665L106.149 4.15824L106.908 3.82665V3.82665ZM107.384 6.44604C107.418 5.90577 106.627 5.83024 106.559 6.3705C106.537 6.63039 106.506 6.87492 106.446 7.13097C106.319 7.63667 107.081 7.87479 107.247 7.34093C107.32 7.05928 107.363 6.73665 107.384 6.44604V6.44604ZM106.123 9.70938C106.435 9.30611 105.849 8.78633 105.481 9.18832C105.305 9.40469 105.153 9.6108 104.964 9.82077C104.855 9.93855 104.821 10.1127 104.885 10.2612C105.003 10.5377 105.367 10.6056 105.572 10.3815C105.768 10.1677 105.952 9.94367 106.123 9.70938V9.70938ZM103.606 12.0522C104.06 11.7386 103.606 11.0677 103.149 11.3609C102.925 11.5107 102.7 11.6528 102.468 11.7898C102.073 12.0151 102.29 12.6475 102.768 12.5515C102.813 12.54 102.843 12.5285 102.886 12.5054C103.13 12.3608 103.37 12.211 103.606 12.0522V12.0522ZM100.6 13.6231C101.052 13.4413 100.874 12.7372 100.355 12.8345C100.333 12.8396 100.314 12.8447 100.292 12.8537C100.04 12.9561 99.7875 13.0534 99.5327 13.1456C99.0193 13.3517 99.2972 14.0981 99.8144 13.9252C100.078 13.8279 100.341 13.7281 100.6 13.6231V13.6231ZM97.4062 14.6716C97.8889 14.5513 97.7762 13.7946 97.236 13.8625C96.962 13.9201 96.6778 14.0059 96.4025 14.0725C95.884 14.2018 96.0428 14.9814 96.5856 14.8803C96.8596 14.8163 97.1335 14.7433 97.4062 14.6716V14.6716ZM94.1211 15.3655C94.5718 15.3092 94.614 14.6114 94.0994 14.5436C94.0622 14.541 94.0353 14.541 93.9995 14.5462C93.7319 14.5858 93.4618 14.623 93.1929 14.655C92.7103 14.7151 92.7 15.4129 93.1942 15.4782C93.2262 15.4807 93.2544 15.482 93.2864 15.4782C93.5655 15.4436 93.8433 15.4078 94.1211 15.3655V15.3655ZM90.763 15.6395C91.2623 15.6395 91.3391 14.8841 90.8002 14.8124C90.5211 14.8009 90.2305 14.8099 89.9475 14.8009C89.5007 14.774 89.3164 15.4462 89.8246 15.6152C89.8553 15.6228 89.8835 15.6267 89.9168 15.6292C90.1984 15.6395 90.4814 15.642 90.763 15.6395ZM87.3947 15.3924C87.9414 15.4602 88.063 14.6742 87.524 14.573C87.2641 14.5359 86.9837 14.4873 86.7277 14.4309C86.2015 14.3324 86.0223 15.0992 86.5485 15.24C86.8224 15.2989 87.1182 15.3514 87.3947 15.3924V15.3924ZM84.1134 14.605C84.2876 14.6627 84.4924 14.5922 84.591 14.4322C84.7331 14.2018 84.6294 13.9035 84.3682 13.8164C84.1096 13.7332 83.8523 13.6461 83.5949 13.5552C83.0969 13.3888 82.8025 14.0968 83.2954 14.3272C83.5578 14.4284 83.8446 14.518 84.1134 14.605ZM80.9832 13.4003C81.4992 13.6065 81.8077 12.8716 81.3174 12.6424C81.0665 12.5323 80.8168 12.4197 80.5672 12.3057C80.1626 12.1162 79.7619 12.636 80.1152 12.9881C80.1524 13.0188 80.178 13.038 80.2215 13.0585C80.4737 13.175 80.7285 13.289 80.9832 13.4003V13.4003ZM77.9695 11.9895C78.4087 12.1943 78.794 11.6144 78.4035 11.2892C78.3779 11.2713 78.3575 11.2559 78.3293 11.2431C78.0796 11.1253 77.8325 11.0024 77.5829 10.8834C77.1156 10.6644 76.7315 11.3289 77.2027 11.6182C77.4523 11.7463 77.716 11.8692 77.9695 11.9895V11.9895ZM74.984 10.58C75.4052 10.7758 75.7957 10.1984 75.4129 9.87966C75.3809 9.85533 75.3578 9.83997 75.322 9.82333C75.0685 9.71066 74.8137 9.59672 74.5577 9.4879C74.0801 9.29586 73.7409 9.95135 74.1915 10.2292C74.4437 10.3533 74.7254 10.4647 74.984 10.58ZM71.9447 9.34067C72.4606 9.51223 72.7423 8.7684 72.2264 8.561C71.9626 8.46755 71.6989 8.37665 71.4339 8.28703C70.9756 8.13468 70.6619 8.77224 71.0933 9.03854C71.1215 9.05262 71.142 9.06286 71.1727 9.0731C71.4313 9.16016 71.6874 9.24978 71.9447 9.34067ZM68.8196 8.39201C69.2856 8.50851 69.5494 7.84279 69.0949 7.61618C69.0667 7.60338 69.0437 7.59442 69.0142 7.58674C68.739 7.52016 68.4663 7.45999 68.191 7.39726C67.6815 7.30252 67.4894 8.03482 67.9849 8.19869C68.2589 8.26911 68.5431 8.32416 68.8196 8.39201V8.39201ZM65.6254 7.91704C66.1081 7.94649 66.2348 7.23083 65.7496 7.10152C65.7201 7.0964 65.6984 7.09128 65.6651 7.08872C65.3834 7.07592 65.1005 7.06696 64.8189 7.06568C64.2952 7.06568 64.244 7.85943 64.8099 7.894C65.0813 7.894 65.354 7.90424 65.6254 7.91704ZM62.3838 8.02586C62.5951 8.00026 62.7513 7.82742 62.7513 7.61234C62.7513 7.37037 62.5336 7.17322 62.2904 7.20394C62.0113 7.23339 61.7309 7.2718 61.4531 7.31404C61.2495 7.33965 61.0895 7.53809 61.1023 7.74421C61.1189 7.99385 61.3276 8.16413 61.5785 8.13212C61.8448 8.09115 62.1163 8.05531 62.3838 8.02586V8.02586ZM59.1934 8.6327C59.6531 8.51748 59.5814 7.78517 59.0385 7.82102C58.7646 7.87351 58.4355 7.98489 58.1654 8.06939C57.6572 8.23838 57.8722 8.99629 58.401 8.86442C58.666 8.78505 58.9259 8.70567 59.1934 8.6327V8.6327ZM56.1452 9.72987C56.6253 9.50582 56.3155 8.76968 55.811 8.97196C55.5512 9.08718 55.2874 9.21905 55.0352 9.35092C54.5487 9.62873 54.9379 10.3252 55.4193 10.0845C55.6574 9.96031 55.9007 9.84253 56.1452 9.72987Z" fill="#CFDEED"/>
<path fill-rule="evenodd" clip-rule="evenodd" d="M127.474 29.2754C128.492 30.626 129.51 31.9767 130.529 33.3274C129.036 34.9571 127.386 36.455 126.05 38.2141C124.711 39.9757 125.391 40.0589 127.214 39.5865C129.439 39.0091 130.631 36.4576 131.897 34.1813C132.415 34.9891 133.221 36.1247 133.647 36.9441C131.567 39.9936 128.733 41.2354 126.798 42.3953C124.898 43.5335 125.438 44.7369 127.241 44.3221C130.826 43.4976 133.233 41.462 135.419 38.2947C136.232 39.9386 137.045 41.5824 137.859 43.2262C134.633 46.6278 130.822 48.0617 127.116 47.9183C124.705 47.8236 124.878 49.7542 126.653 50.6107C130.95 52.6834 135.04 51.046 139.007 49.0053C139.357 51.1087 139.499 53.184 139.292 55.2055C139.082 57.2628 133.455 55.852 128.368 54.9354C125.558 54.4297 126.922 56.6983 127.551 57.035C130.981 58.8708 132.875 61.0204 138.88 59.8489C138.122 63.3683 136.534 65.0941 134.541 67.131C133.272 68.4266 129.284 62.7039 126.295 60.8744C124.094 59.5276 122.659 61.7539 124.348 63.2173C127.036 65.546 129.259 69.4111 133.574 68.5777C132.445 70.4801 131.273 72.243 127.616 73.6013C125.301 74.4617 122.729 69.7913 122.062 65.5435C121.724 63.3863 120.172 64.1659 120.375 65.9557C120.782 69.5442 121.497 72.951 123.583 75.6766C122.287 76.1337 121.417 76.135 120.623 73.6897C120.108 72.1009 118.791 71.8269 117.848 71.2495C114.436 69.164 113.48 65.957 114.462 63.3888C115.22 61.4096 114.441 61.1817 113.692 63.1264C110.283 71.9805 101.513 71.9114 100.096 65.2669C102.89 66.7149 105.535 66.1516 108.09 63.7601C108.797 63.0969 108.477 62.3941 107.231 62.8358C94.6063 67.3205 97.0926 57.0823 96.3359 51.4608C98.8107 55.2618 101.65 60.1959 107.219 59.3496C110.41 58.8657 107.816 57.46 107.113 57.4382C103.43 57.323 100.554 54.4092 97.7032 52.0714C96.9492 51.4531 96.9069 50.1972 97.0145 49.2293C97.2142 47.4254 98.328 45.5729 99.0693 44.5154C99.7964 46.2028 104.357 49.4905 108.017 52.5759C109.044 53.44 110.876 54.3157 109.21 51.2226C107.283 47.6418 102.754 45.6152 102.311 41.5734C102.06 39.2754 105.983 38.0271 107.785 36.5818C107.973 37.9106 108.72 40.0538 109.996 41.1766C112.464 43.3479 112.897 46.0415 114.043 48.2781C114.605 49.3727 117.067 51.4569 115.121 46.9684C113.482 43.1917 110.873 42.3185 109.145 35.9992C111.065 34.3631 112.914 34.2376 114.268 32.9535C115.487 38.0502 116.507 42.2827 117.387 44.2773C118.276 46.2911 119.119 45.1748 118.304 43.3581C116.579 39.5212 115.229 36.4704 115.194 33.0124C116.653 32.307 118.218 31.8858 119.935 31.8833C119.621 34.3925 118.296 36.9799 118.994 39.4111C119.78 42.1521 121.682 41.4544 121.288 38.7338C120.936 36.3014 121.44 33.8203 121.517 31.3635C123.526 30.8424 125.518 30.1972 127.474 29.2754V29.2754ZM113.601 60.731C112.964 60.932 112.324 61.5427 111.687 61.3353C110.854 61.0652 111.189 60.2548 112.016 60.3342C112.559 60.3854 113.074 60.5979 113.601 60.731V60.731ZM112.75 58.6212C112.088 58.7159 111.357 59.2127 110.763 58.9041C109.985 58.5021 110.449 57.757 111.252 57.9695C111.778 58.1104 112.251 58.4048 112.75 58.6212V58.6212ZM114.503 56.5369C113.546 56.1759 112.199 56.3014 111.632 55.4513C110.887 54.3375 112.059 53.682 112.977 54.5602C113.578 55.1364 113.994 55.8789 114.503 56.5369ZM116.525 52.773C116.255 52.2084 116.264 51.3801 115.716 51.0767C114.999 50.6785 114.659 51.4262 115.241 51.9421C115.623 52.2801 116.097 52.4965 116.525 52.773V52.773ZM117.925 59.0654C118.839 59.4137 120.182 59.5135 120.667 60.1114C121.302 60.8936 120.083 61.142 119.255 60.4814C118.712 60.0487 118.368 59.5366 117.925 59.0654ZM119.173 54.9213C118.793 53.8792 122.321 53.3402 123.746 53.9662C125.611 54.7856 124.711 56.391 122.815 56.0159C121.572 55.7701 120.365 55.3502 119.173 54.9213ZM120.06 51.279C120.777 50.466 121.157 49.0859 122.212 48.8414C123.595 48.5226 123.805 49.927 122.591 50.5083C121.795 50.8885 120.904 51.0216 120.06 51.279V51.279Z" fill="#CEDEEC"/>
<path fill-rule="evenodd" clip-rule="evenodd" d="M12.2059 6.05306C14.5065 6.24766 16.8071 6.44098 19.1077 6.63429C19.4047 9.63519 19.4277 12.6745 20 15.6344C20.5735 18.5982 21.2777 17.9824 22.4542 15.6997C23.8919 12.9126 22.3825 9.37786 21.2214 6.01978C22.5118 6.22846 24.4002 6.44226 25.6216 6.75464C26.8301 11.6439 25.514 15.6562 24.9315 18.6788C24.3605 21.6452 26.076 22.1918 27.2961 19.9809C29.7183 15.5858 29.8387 11.2867 28.6084 6.18109C31.0191 6.85065 33.4311 7.51894 35.8418 8.18723C36.3667 14.5629 34.3554 19.7427 30.836 23.3812C28.5482 25.7458 30.6683 27.3269 33.1545 26.3014C39.173 23.8178 41.229 18.1693 42.7615 12.2789C45.2196 13.837 47.4587 15.5794 49.3266 17.629C51.2265 19.7171 44.6729 24.1532 39.1128 28.4919C36.0402 30.8898 39.589 31.5671 40.5031 31.2342C45.491 29.4163 49.4008 29.4457 53.6717 22.2751C56.5625 26.2477 56.8724 29.4329 57.1297 33.3121C57.2923 35.7817 47.8453 34.6294 43.2646 36.0044C39.8925 37.0158 40.8501 40.5006 43.8753 40.1153C48.689 39.5008 54.6422 40.758 57.7199 35.6114C58.6276 38.4906 59.3522 41.2867 57.4075 46.2413C56.1772 49.3766 49.0872 47.7417 44.1608 44.5552C41.6592 42.9382 41.0396 45.2247 43.0444 46.6471C47.0631 49.4982 51.1778 51.8718 55.8469 52.229C55.1325 53.9637 54.3439 54.8496 51.1356 53.4311C49.0501 52.5106 47.5739 53.5988 46.1285 54.0341C40.9039 55.605 36.7712 53.659 35.0544 50.324C33.7306 47.7519 32.7909 48.3357 34.0865 50.8668C39.9885 62.3903 31.9396 71.2445 23.8932 66.6394C27.9068 65.1159 29.7414 61.9153 29.6338 57.1413C29.6031 55.8188 28.5968 55.5038 27.9119 57.1733C20.9858 74.0904 12.8383 62.2456 6.43452 57.9005C12.5502 58.844 20.1511 60.4443 24.358 54.0136C26.7687 50.3291 22.9779 51.6874 22.3172 52.3813C18.8491 56.0236 13.2685 56.295 8.29855 57.067C6.98374 57.2706 5.66765 56.1721 4.78044 55.1812C3.12892 53.3364 2.25835 50.5186 1.85892 48.8018C4.23633 49.5981 11.7283 47.9542 18.1949 47.0376C20.009 46.7802 22.5656 45.7151 17.9055 44.5936C12.5106 43.2954 6.32825 46.0569 1.81667 42.8281C-0.748944 40.9935 1.55166 35.87 1.72065 32.7206C3.24542 33.7384 6.10165 34.9303 8.40481 34.6538C12.8588 34.1199 15.9915 36.1312 19.3087 37.0004C20.9333 37.4255 25.2913 36.8186 18.9566 34.7139C13.6269 32.9421 10.3649 34.801 2.36589 30.8092C2.44911 27.3679 4.00461 25.3745 3.93163 22.8281C10.2215 26.2259 15.4551 29.0399 18.2832 29.9591C21.1394 30.8885 20.772 29.0156 18.182 28.1924C12.7128 26.4525 8.38049 25.0519 4.83293 21.9396C5.4436 19.8144 6.43964 17.8416 7.99898 16.0915C10.265 18.6942 11.6912 22.3954 14.7971 23.8984C18.2998 25.5935 19.3202 23.024 16.1964 20.95C13.4029 19.0949 11.3391 16.3245 8.90923 14.0111C10.2087 11.4941 11.3647 8.87984 12.2059 6.05306V6.05306ZM31.5683 48.78C31.1932 49.6121 31.2316 50.8181 30.4417 51.2777C29.4098 51.8782 28.8913 50.7989 29.7235 50.0295C30.2688 49.5264 30.9538 49.1973 31.5683 48.78V48.78ZM28.6493 47.7263C28.1424 48.4855 27.9823 49.6813 27.1284 50.0052C26.012 50.4289 25.6766 49.2793 26.624 48.6571C27.2449 48.25 27.9746 48.0362 28.6493 47.7263V47.7263ZM28.1257 44.0482C26.8864 44.6922 25.7906 46.176 24.4079 45.9788C22.5989 45.7228 22.9983 43.9355 24.7267 43.8011C25.8584 43.7128 26.9927 43.9663 28.1257 44.0482V44.0482ZM26.1375 38.5675C25.3169 38.3268 24.4834 37.565 23.6756 37.8454C22.6194 38.2128 23.07 39.2396 24.1249 39.1167C24.815 39.036 25.4666 38.7505 26.1375 38.5675ZM33.8087 42.8678C34.9942 42.2571 36.318 40.982 37.3678 41.0319C38.7402 41.0985 37.885 42.5631 36.4588 42.8038C35.5243 42.9625 34.6921 42.8473 33.8087 42.8678ZM30.731 37.8288C29.3253 37.2667 31.9869 33.1892 33.9214 32.3096C36.4524 31.1587 37.2654 33.5348 35.1581 35.1223C33.778 36.1619 32.252 37.0068 30.731 37.8288V37.8288ZM27.8351 33.6129C27.6623 32.1445 26.6022 30.5019 27.3153 29.2063C28.2473 27.51 29.8681 28.5751 29.3535 30.338C29.0168 31.4928 28.3408 32.5209 27.8351 33.6129V33.6129Z" fill="#CFDEED"/>
<path d="M44.8201 59.9949C45.3514 60.3418 45.9839 60.4212 46.5715 60.2817C47.1591 60.1408 47.7007 59.7811 48.0476 59.2498C48.1219 59.1422 48.1846 59.0334 48.2371 58.922C48.6596 58.8196 48.5904 56.6931 47.949 56.7264C47.885 56.6406 47.8146 56.5587 47.7391 56.4806C48.4893 56.3449 49.1832 55.9135 49.6338 55.226C49.9181 54.7907 49.9667 54.2888 50.0986 53.8215C50.1357 53.6884 50.1306 53.5194 50.0935 53.3299C50.5659 53.07 49.0795 50.7617 48.497 50.9307C48.3088 50.8002 48.118 50.7118 47.9362 50.6811C48.6096 50.5108 49.2229 50.096 49.6338 49.4687C50.5019 48.1411 50.1306 46.3603 48.8017 45.491L37.8517 38.3178C37.0798 37.8121 36.1554 37.7263 35.3463 38.0041V38.0028L24.7484 41.6374C24.1352 41.8487 22.6399 42.6015 22.2558 43.6525C17.8812 55.6305 15.3463 51.8666 15.8738 66.8749C15.6766 68.5943 13.5821 73.6141 11.672 79.5865H29.1064C29.5865 76.5459 29.9411 74.02 29.9641 73.2416C33.5168 72.3889 36.012 67.5445 36.6803 62.3928C37.9426 61.4992 38.7671 59.7593 38.7671 58.3626C38.7671 56.9658 38.3882 56.1951 37.7519 55.3642L44.8201 59.9949V59.9949Z" fill="#DEAB71"/>
<path fill-rule="evenodd" clip-rule="evenodd" d="M25.9877 41.2124C27.0593 40.8104 27.9798 40.5774 29.0526 40.0256C34.3964 37.2795 41.0562 52.2904 39.9795 56.3078C38.6916 61.1138 33.7498 63.9675 28.9451 62.6809C25.0762 61.6439 22.4747 58.2397 22.2776 54.445C22.042 54.7331 21.7988 55.0109 21.5849 55.2695C21.2367 55.692 21.1778 55.628 21.4659 55.1607C24.5372 50.1639 25.4129 47.2334 24.8176 45.5896C24.76 45.4295 25.0032 45.3412 25.0608 45.5012C26.5139 46.2156 27.2052 41.3123 25.9877 41.2124V41.2124Z" fill="#BA7243"/>
<path d="M30.1011 72.7294C33.4003 71.5939 36.012 67.538 36.6803 62.3927C37.9426 61.4991 38.7671 60.0268 38.7671 58.3625C38.7671 57.2346 38.3882 56.1951 37.7519 55.3642L42.2852 58.3344L38.3293 48.1794L29.4303 51.8666L23.3478 64.9942C20.7438 70.6158 24.0571 74.8098 30.1011 72.7294V72.7294Z" fill="#BA7243"/>
<path d="M51.4467 59.9948C52.5093 60.69 53.9342 60.3917 54.6294 59.3291C54.6499 59.2984 54.6691 59.2677 54.687 59.2357C51.4249 60.8027 51.5107 55.5025 54.3669 56.4806C55.1159 56.3449 55.811 55.9147 56.2604 55.2259C53.9086 56.5587 52.8537 54.1736 53.4669 52.2596C53.7601 51.3468 53.9483 50.923 54.6243 50.722L54.5628 50.6811C55.176 50.5261 55.7406 50.1677 56.1465 49.6313C55.6856 49.9398 55.3399 49.8284 54.9341 49.6927C54.0481 49.3995 54.4629 46.4447 55.6408 45.6433C55.5729 45.5908 55.5025 45.5396 55.4295 45.4909L53.1622 44.0059C50.4967 44.9699 48.0732 47.8274 47.0593 51.6105C46.5677 53.449 46.4716 55.2643 46.7149 56.8941L51.4467 59.9948Z" fill="#BA7243"/>
<path fill-rule="evenodd" clip-rule="evenodd" d="M31.3532 12.3455H66.0389C68.0681 12.3455 69.726 14.0034 69.726 16.0326V66.7623C69.726 68.7915 68.0681 70.4494 66.0389 70.4494H31.3532C29.3253 70.4494 27.6661 68.7915 27.6661 66.7623V16.0326C27.6661 14.0034 29.3253 12.3455 31.3532 12.3455V12.3455Z" fill="white"/>
<path d="M68.8977 16.0325C68.8977 15.8033 69.0833 15.6177 69.3125 15.6177C69.5404 15.6177 69.726 15.8033 69.726 16.0325V19.3458C69.726 19.5749 69.5404 19.7606 69.3125 19.7606C69.0833 19.7606 68.8977 19.5749 68.8977 19.3458V16.0325V16.0325Z" fill="#57607D"/>
<path d="M68.8977 21.0024C68.8977 20.7745 69.0833 20.5889 69.3125 20.5889C69.5404 20.5889 69.726 20.7745 69.726 21.0024V24.3157C69.726 24.5448 69.5404 24.7305 69.3125 24.7305C69.0833 24.7305 68.8977 24.5448 68.8977 24.3157V21.0024Z" fill="#57607D"/>
<path d="M62.0881 13.1738C61.8589 13.1738 61.6733 12.9881 61.6733 12.759C61.6733 12.5311 61.8589 12.3455 62.0881 12.3455H65.4014C65.6305 12.3455 65.8162 12.5311 65.8162 12.759C65.8162 12.9881 65.6305 13.1738 65.4014 13.1738H62.0881Z" fill="#57607D"/>
<path fill-rule="evenodd" clip-rule="evenodd" d="M31.3532 12.759H66.0389C67.8389 12.759 69.3125 14.2326 69.3125 16.0326V66.7624C69.3125 68.5624 67.8389 70.0359 66.0389 70.0359H31.3532C29.5532 70.0359 28.0809 68.5624 28.0809 66.7624V16.0326C28.0809 14.2326 29.5532 12.759 31.3532 12.759V12.759Z" fill="#212744"/>
<path fill-rule="evenodd" clip-rule="evenodd" d="M31.3532 14.9136H66.0389C66.6547 14.9136 67.1591 15.4167 67.1591 16.0325V66.7622C67.1591 67.378 66.6547 67.8825 66.0389 67.8825H31.3532C30.7387 67.8825 30.2343 67.378 30.2343 66.7622V16.0325C30.2343 15.4167 30.7387 14.9136 31.3532 14.9136V14.9136Z" fill="white"/>
<path fill-rule="evenodd" clip-rule="evenodd" d="M52.6386 39.7466H59.6659C61.0319 39.7466 62.1508 40.8642 62.1508 42.2315C62.1508 43.5976 61.0319 44.7165 59.6659 44.7165H52.6386C51.2713 44.7165 50.1536 43.5976 50.1536 42.2315C50.1536 40.8642 51.2713 39.7466 52.6386 39.7466Z" fill="#CFDEED"/>
<path d="M37.7276 39.5801H44.7548C45.4833 39.5801 46.1465 39.8784 46.6278 40.3585C47.1079 40.8398 47.4062 41.5017 47.4062 42.2315C47.4062 42.9599 47.1079 43.6231 46.6278 44.1032C46.1465 44.5833 45.4833 44.8816 44.7548 44.8816H37.7276C36.9991 44.8816 36.3359 44.5833 35.8558 44.1032C35.3757 43.6231 35.0775 42.9599 35.0775 42.2315C35.0775 41.503 35.3757 40.8398 35.8558 40.3597C36.3372 39.8784 36.9991 39.5801 37.7276 39.5801ZM44.7548 39.9117H37.7276C37.09 39.9117 36.51 40.1728 36.0901 40.5928C35.6689 41.0127 35.409 41.5926 35.409 42.2315C35.409 42.869 35.6689 43.449 36.0901 43.8689C36.51 44.2888 37.09 44.55 37.7276 44.55H44.7548C45.3924 44.55 45.9723 44.2888 46.3935 43.8689C46.8135 43.449 47.0746 42.869 47.0746 42.2315C47.0746 41.5926 46.8135 41.0127 46.3935 40.5928C45.9723 40.1728 45.3924 39.9117 44.7548 39.9117Z" fill="#CFDEED"/>
<path fill-rule="evenodd" clip-rule="evenodd" d="M31.3532 14.9136H66.0389C66.6547 14.9136 67.1591 15.4167 67.1591 16.0325V35.5716H30.2343V16.0325C30.2343 15.4167 30.7387 14.9136 31.3532 14.9136V14.9136Z" fill="#33CC99"/>
<path fill-rule="evenodd" clip-rule="evenodd" d="M73.7857 58.6942V66.7623C73.7857 67.3781 73.2813 67.8826 72.6668 67.8826H57.8492C57.8505 67.5343 57.8274 67.1464 57.7724 66.7214C57.3281 63.2391 56.5446 59.8183 56.4384 56.2746C56.3475 53.2737 56.0056 50.9116 55.4142 48.259C55.2695 47.6137 55.2452 46.9352 55.1607 46.2733C54.9955 45.0417 55.8879 43.7999 57.1527 43.5003C58.3703 43.2122 59.4892 43.901 59.7184 45.0507C59.8566 45.7279 60.0615 46.3885 60.1306 47.0824C60.4404 50.1563 61.0242 52.494 61.6502 54.5603C61.9396 55.5128 62.0497 56.5281 62.2507 57.5113C62.4568 57.0927 62.7244 56.7495 63.0278 56.482C63.1917 56.3296 63.3901 56.1926 63.6308 56.0723C65.0429 55.3566 66.8404 55.9481 67.3512 57.8787C67.515 57.7174 67.6751 57.5791 67.8325 57.4614L67.8377 57.4575L67.8415 57.455C67.8697 57.4345 67.8991 57.414 67.9273 57.3935L67.9337 57.3897L67.9388 57.3858C67.9644 57.3679 67.9913 57.35 68.0169 57.3333L68.0387 57.3193L68.1091 57.2757L68.1372 57.2591L68.2025 57.222L68.2243 57.2092L68.2422 57.2002L68.2781 57.181L68.296 57.172L68.3126 57.1631L68.3306 57.1541L68.3664 57.1375L68.3843 57.1285L68.4202 57.1119L68.4368 57.1042L68.4547 57.0965L68.4727 57.0901L68.5072 57.0747L68.5252 57.0683C70.0794 56.4602 71.3123 57.8365 72.1547 59.0975L72.1879 59.0758L72.202 59.0668L72.2071 59.0629L72.2161 59.0578L72.2302 59.0489L72.2443 59.0399L72.2724 59.0233L72.2865 59.0156L72.3006 59.0066L72.3147 58.9989L72.3288 58.9913L72.3429 58.9836L72.3582 58.9759L72.3723 58.9682L72.3864 58.9605L72.4005 58.9528L72.4158 58.9452L72.4299 58.9388L72.444 58.9311L72.4581 58.9234L72.4734 58.917L72.4875 58.9106L72.5029 58.9029L72.517 58.8965L72.5195 58.8952L72.5464 58.8837L72.5605 58.8773L72.5759 58.8709L72.5899 58.8645L72.6053 58.8594L72.6194 58.853L72.6348 58.8466L72.6437 58.844L72.6488 58.8415L72.6642 58.8363L72.6783 58.8299L72.6936 58.8248L72.7077 58.8197L72.7231 58.8146L72.7385 58.8095L72.7525 58.8043L72.7666 58.7992H72.7679L72.782 58.7941L72.7973 58.7903L72.8127 58.7851L72.8281 58.78L72.8422 58.7762L72.8575 58.7723L72.869 58.7685L72.8716 58.7672L72.887 58.7634L72.9023 58.7595L72.9177 58.7557L72.9254 58.7531L72.9318 58.7518L72.9471 58.748L72.9625 58.7442L72.9766 58.7403L72.9919 58.7378L73.0073 58.7339L73.0227 58.7314L73.0367 58.7275H73.0393L73.0521 58.725L73.0675 58.7211L73.0816 58.7186L73.0956 58.716H73.0969L73.1123 58.7134L73.1276 58.7109C73.3491 58.6738 73.5706 58.6686 73.7857 58.6942V58.6942ZM54.9904 67.8826H49.6556L49.6479 67.8326C49.639 67.7469 49.5967 67.6009 49.6428 67.5331C49.5686 67.4639 49.5199 67.318 49.5762 67.2245C49.5327 67.1272 49.31 66.505 49.3944 66.2631C49.5673 65.2158 49.9232 64.7306 50.1088 63.7243C50.137 63.5694 50.3457 63.4465 50.3674 63.3262C50.4993 62.6016 50.7797 61.3597 51.0664 60.4495C51.1842 60.0782 51.4121 59.73 51.6861 59.7389C52.0394 59.4496 52.499 59.4317 53.143 59.9028C53.9201 60.4699 55.564 64.8791 54.0891 66.6599C54.3592 66.7291 54.7075 67.2872 54.9904 67.8826V67.8826Z" fill="#90B2CF"/>
<path fill-rule="evenodd" clip-rule="evenodd" d="M30.2343 59.1781C31.649 58.5815 32.6847 58.241 33.0099 57.9504L38.931 52.6578C40.1139 51.6004 40.2151 49.7837 39.1576 48.6007C38.1475 47.4716 36.446 47.3282 35.2644 48.2384L30.2343 51.521V59.1781V59.1781Z" fill="#CEDEEC"/>
<path d="M38.3293 48.1795C38.127 47.5663 37.9171 47.0977 37.638 46.7892C38.0233 45.6446 33.5565 47.0145 33.3555 47.0644C33.0534 47.1387 32.467 46.9837 32.0522 47.0542C31.0818 47.218 31.0229 47.1963 29.3637 47.5535C27.9708 47.8543 27.46 48.3779 25.9864 49.9667L18.3126 59.2459C17.3307 60.4929 17.5432 62.3006 18.7902 63.2826C18.9617 63.4183 19.1448 63.5309 19.3343 63.6218C19.2523 64.6767 19.7606 65.7381 20.7323 66.3142C21.2611 66.6278 21.8487 66.752 22.4184 66.7072C21.7091 70.0487 22.3825 72.4926 24.0341 72.2814C25.8034 72.0548 28.1833 68.273 29.0027 65.153C29.8221 62.033 30.0141 59.6095 29.5366 58.1129C31.3379 55.7201 32.0471 53.0931 31.7834 52.7321C33.3671 53.3991 39.1935 50.813 38.3293 48.1795V48.1795Z" fill="#DEAB71"/>
<path d="M38.328 48.1794C37.9388 50.2829 35.523 50.6567 33.8817 51.3583C32.1713 52.0893 30.6107 51.6976 29.7119 50.1177C29.6543 49.9564 29.4111 50.0448 29.4687 50.2048C29.863 51.2968 30.4878 51.5516 30.0499 52.1866C26.9735 56.6521 24.0891 59.091 21.3007 61.9037C14.9149 68.342 19.9296 69.7529 18.5738 73.568C18.1744 74.6921 17.451 77.0144 16.6649 79.5864H27.757C28.4394 76.1413 28.963 73.111 28.9259 71.9907C27.2846 72.0957 25.642 72.2007 24.0008 72.3057C23.9982 72.2775 23.9944 72.2481 23.9918 72.2186C25.7022 71.5887 27.8441 68.2409 28.931 64.4053C29.5993 62.0471 29.7375 59.7695 29.3996 58.3113C28.5572 59.356 28.2051 59.4853 29.2895 58.0796C31.1548 55.6586 31.7526 52.9061 31.5862 52.5361C33.3402 53.0085 38.6468 51.0843 38.328 48.1794V48.1794Z" fill="#BA7243"/>
<path fill-rule="evenodd" clip-rule="evenodd" d="M28.9694 73.4118C29.0385 73.276 29.1077 73.1403 29.1768 73.0046C28.2217 73.2236 27.026 73.3247 26.2706 73.2108C26.8915 73.4412 27.9798 73.4963 28.9694 73.4118V73.4118Z" fill="#DEAB71"/>
<path fill-rule="evenodd" clip-rule="evenodd" d="M73.4311 57.4895C74.4732 56.7483 75.948 57.0171 76.6675 58.1015L79.936 63.0112C81.0869 64.7396 81.8628 66.9262 81.6797 69.0489L81.1061 75.6716C80.9948 76.9621 80.9717 78.3191 81.2534 79.5866H60.8437L55.9365 75.0852C54.7907 74.0342 54.8675 74.0201 54.3042 72.567L52.1355 66.9659C52.042 66.724 51.9421 66.4871 51.8832 66.2247C51.8628 66.1389 51.8051 65.9942 51.8436 65.9264C51.7616 65.8572 51.6976 65.71 51.7437 65.6178C51.6899 65.5205 51.398 64.8983 51.4556 64.6551C51.5145 63.6091 51.8167 63.1239 51.8935 62.1176C51.905 61.9627 52.0996 61.8385 52.1086 61.7195C52.1611 60.9936 52.3044 59.7517 52.4914 58.8428C52.5682 58.4702 52.7589 58.122 53.0329 58.1322C53.3542 57.8429 53.8139 57.825 54.509 58.2961C55.3476 58.8632 57.4741 63.2711 56.1938 65.0532C56.7571 65.1928 57.8556 67.3372 57.9119 67.7277C57.9362 67.9223 57.8364 68.0772 57.9849 68.0989C58.1667 68.1245 58.3741 68.378 58.5047 68.4574C59.6249 69.1347 60.5825 68.0503 59.8848 65.1134C59.059 61.6311 57.9004 58.2116 57.4062 54.6666C56.9876 51.667 56.3859 49.3049 55.5038 46.651C55.29 46.0057 55.1901 45.3285 55.0326 44.6666C54.7331 43.435 55.4897 42.1932 56.7226 41.8936C57.9081 41.6055 59.1013 42.2943 59.4572 43.444C59.6684 44.1212 59.9462 44.7805 60.0922 45.4744C60.7387 48.5496 61.5785 50.8873 62.4312 52.9524C62.8242 53.9061 63.0457 54.9201 63.3542 55.9046C64.2799 53.4913 67.4894 53.5861 68.4957 56.2707C70.3802 54.1852 72.2148 55.9264 73.4311 57.4895V57.4895Z" fill="#DEAB71"/>
<path fill-rule="evenodd" clip-rule="evenodd" d="M64.6729 54.417C63.8331 56.0122 64.1045 57.6227 64.6204 60.0334C64.0251 58.0951 62.4517 55.486 64.6729 54.417ZM80.5876 66.1453C80.8872 67.1478 81.028 68.2001 80.9372 69.2486L80.4609 74.7486C80.2778 76.8738 79.9808 78.3742 79.2331 79.5866H61.5965L56.263 74.9201C55.2285 74.015 55.13 73.6757 54.6563 72.4147C49.639 61.9423 53.8958 66.5973 55.5038 70.2396C56.7328 73.0241 59.8349 75.3503 60.105 73.5989C60.4839 71.1383 61.1151 76.121 61.2188 74.2928C61.302 72.8333 60.5454 71.6158 60.7041 67.0671C60.7797 64.9086 60.3572 59.7748 64.308 61.9986C66.3347 63.1393 66.0287 62.2547 67.3883 61.8911C68.255 61.6581 69.1691 61.8347 69.7862 62.3955C70.9794 63.4799 71.3571 63.0574 72.7961 62.4403C74.8918 61.5428 75.8879 64.1379 77.4178 63.412C79.0155 62.6541 80.1613 64.7268 80.5876 66.1453V66.1453ZM73.4631 57.4678C73.7396 57.2771 74.0469 57.1567 74.3618 57.1042C74.2709 58.3409 74.6896 59.634 75.29 61.3124L73.4631 57.4678ZM68.4957 56.2708C68.8606 55.8675 69.2229 55.6076 69.5801 55.4617C69.2587 57.0709 69.7004 58.7468 70.3866 61.0384C69.7568 59.4496 69.1256 57.8596 68.4957 56.2708Z" fill="#BA7243"/>
<path fill-rule="evenodd" clip-rule="evenodd" d="M43.1366 27.1913C43.6218 28.935 43.7409 27.2758 43.3453 30.2011C43.3286 30.3202 43.1635 31.1843 43.2416 31.2676C43.2889 31.3175 43.3338 31.306 43.431 31.288C43.5181 31.2714 43.5911 31.2548 43.6756 31.2381L46.0261 30.7811C46.286 30.7324 46.6073 30.9398 46.8685 31.0282C49.3023 31.8514 51.8666 30.9232 53.3248 29.0258C53.9163 28.2564 54.5103 26.957 54.5039 25.7036L54.5026 25.2786L54.4962 25.139C54.4028 24.7063 54.4028 24.303 54.2568 23.8332C53.9649 22.8909 53.4771 22.0882 52.8063 21.4161C51.6349 20.2434 49.7491 19.4304 47.6507 19.8068C45.1811 20.2498 43.417 22.1957 42.9945 24.4298C42.7858 25.5385 42.9177 26.1683 43.1366 27.1913V27.1913Z" fill="white"/>
<path fill-rule="evenodd" clip-rule="evenodd" d="M50.1306 26.2465C50.3572 26.2234 50.8117 26.5307 51.005 26.6344C51.5529 26.9289 51.6541 26.9289 51.599 27.2745C51.5337 27.6829 51.3929 27.8814 51.1368 28.0619C50.2676 28.6726 49.1653 28.1297 48.369 27.6906C48.031 27.505 47.9081 27.3693 47.6507 27.1516L47.0413 26.5358C46.7366 26.1556 46.2975 25.5526 46.062 25.0328C45.4577 23.7026 46.158 22.5927 46.8749 22.6106C47.3896 22.6234 47.3627 22.7757 47.5074 23.1995C47.5598 23.3506 47.8223 24.0355 47.8172 24.1546C47.8082 24.3684 47.4139 24.7614 47.291 24.8485C47.2769 25.1301 47.6226 25.5795 47.7852 25.792C48.0796 26.1748 49.1089 27.0454 49.4367 26.9455C49.5801 26.902 49.9846 26.3284 50.1306 26.2465V26.2465ZM44.3874 30.0667C45.007 30.0002 46.1759 29.6123 46.4588 29.762C47.9977 30.5737 49.8515 30.4841 51.3135 29.5316L51.6733 29.2768C51.9741 29.049 52.2327 28.7852 52.4632 28.4856C53.1135 27.6394 53.4861 26.6869 53.4912 25.5424C53.5002 23.864 52.7128 22.7156 51.8602 21.9116C51.0216 21.1217 49.5929 20.6544 48.3882 20.7363C47.6571 20.785 47.0106 20.9872 46.455 21.2855C46.0082 21.5249 45.3937 21.9846 45.0851 22.3648C43.8113 23.9382 43.4426 26.0122 44.5641 27.9479C44.6729 28.1361 44.6396 28.1873 44.6063 28.4344L44.3874 30.0667V30.0667Z" fill="#33CC99"/>
<path d="M92.8716 56.8454V56.8428C92.5349 56.6598 93.0316 54.9519 93.5681 54.9263C93.1366 54.6114 92.7961 54.162 92.6156 53.6141C92.5797 53.5065 92.558 53.399 92.5439 53.2914C92.5298 53.2569 92.517 53.221 92.5055 53.1852C92.3544 52.7256 92.4325 52.2621 92.4274 51.8102C92.4248 51.6809 92.4696 51.5311 92.549 51.3698C92.188 51.0216 94.0789 49.3048 94.5628 49.5967C94.5974 49.5851 94.6332 49.5723 94.6691 49.5634C94.3669 49.2728 94.1301 48.9066 93.9905 48.4816C93.9329 48.3074 93.8958 48.1308 93.8753 47.9541C93.4516 46.5676 94.2133 45.0902 95.5985 44.6344L107.171 40.8244C107.986 40.5556 108.838 40.7015 109.498 41.1458L109.499 41.1445L118.15 46.9645C118.651 47.3012 119.814 48.3382 119.905 49.3752C120.918 60.7924 123.923 58.5968 120.442 70.4749H120.405C120.259 70.978 120.101 71.5068 119.931 72.065C119.764 73.1813 120.049 75.9928 120.329 79.5864H105.166C105.44 77.0566 105.696 75.0198 105.848 74.3745C103.743 73.2326 102.595 70.4224 102.334 67.1872C102.201 65.8494 102.221 64.4309 102.39 63.02C101.814 62.2877 101.49 61.2904 101.434 60.3482C101.353 59.74 101.38 59.1383 101.518 58.6211C101.737 57.803 102.038 57.2615 102.435 56.8198L95.7675 59.0154C95.2119 59.1985 94.6281 59.1178 94.1378 58.8528C93.6474 58.5878 93.2506 58.1372 93.0688 57.5803C93.0278 57.4676 92.9984 57.3549 92.9779 57.2436C92.8908 57.1949 92.8601 57.0438 92.8716 56.8454V56.8454Z" fill="#DEAB71"/>
<path d="M95.6843 58.63C94.5628 59 93.353 58.388 92.9843 57.2665C92.9727 57.2332 92.9638 57.1999 92.9548 57.1667C95.5089 59.3623 96.7085 54.578 93.906 54.7688C93.2646 54.4666 92.7448 53.911 92.5054 53.1851C94.2991 54.9493 95.8226 53.0596 95.7317 51.1918C95.6868 50.3007 95.6203 49.8744 95.0621 49.53L95.1261 49.5082C94.6127 49.2202 94.1915 48.7644 93.956 48.1845C94.2965 48.5724 94.6332 48.5544 95.0314 48.5314C95.8981 48.4802 96.2361 45.7251 95.3706 44.7214C95.4449 44.6894 95.5204 44.6599 95.5985 44.6343L97.9938 43.8457C100.159 45.3551 101.648 48.5071 101.648 52.1507C101.648 53.9225 101.296 55.5766 100.686 56.9836L95.6843 58.63V58.63Z" fill="#BA7243"/>
<path fill-rule="evenodd" clip-rule="evenodd" d="M109.309 48.0962C104.679 48.0962 100.923 51.8512 100.923 56.4818C100.923 61.1125 104.678 64.8674 109.309 64.8674C113.036 64.8674 116.195 62.4349 117.287 59.0717C117.428 59.3867 117.58 59.6965 117.71 59.9794C117.922 60.4429 117.99 60.3994 117.844 59.9116C116.286 54.6792 116.204 51.8345 117.136 50.4992C117.227 50.3699 117.03 50.2316 116.939 50.3622C115.87 51.4453 115.764 50.9998 114.87 50.206C113.39 48.8938 111.443 48.0962 109.309 48.0962Z" fill="#BA7243"/>
<path d="M105.848 73.8855C103.178 72.0842 101.818 67.8453 102.452 63.0981C101.54 61.9997 101.156 60.4903 101.554 59.0064C101.823 58.0015 102.409 57.1642 103.176 56.5765L98.4253 58.141L104.377 50.0332L111.43 55.4461L113.717 68.6019C114.696 74.2362 110.739 77.1847 105.848 73.8855Z" fill="#BA7243"/>
<path fill-rule="evenodd" clip-rule="evenodd" d="M98.8568 29.5659H112.776C114.188 29.5659 115.344 30.7207 115.342 32.1328V63.8381C115.344 65.2502 114.188 66.405 112.776 66.4063H98.8568C97.4446 66.405 96.2899 65.2502 96.2899 63.8381V32.1328C96.2899 30.7207 97.4446 29.5659 98.8568 29.5659V29.5659Z" fill="white"/>
<path d="M114.839 39.9973C114.839 39.9051 114.914 39.8321 115.005 39.8321C115.095 39.8321 115.17 39.9051 115.17 39.9973V41.6321C115.17 41.7243 115.095 41.7973 115.005 41.7973C114.914 41.7973 114.839 41.7243 114.839 41.6321V39.9973ZM96.4627 43.5077C96.4627 43.4168 96.537 43.3438 96.6279 43.3438C96.72 43.3438 96.793 43.4168 96.793 43.5077V45.1439C96.793 45.2348 96.72 45.309 96.6279 45.309C96.537 45.309 96.4627 45.2348 96.4627 45.1439V43.5077ZM96.4627 36.41C96.4627 36.3178 96.537 36.2449 96.6279 36.2449C96.72 36.2449 96.793 36.3178 96.793 36.41V41.8575C96.793 41.9497 96.72 42.0226 96.6279 42.0226C96.537 42.0226 96.4627 41.9497 96.4627 41.8575V36.41Z" fill="#57607D"/>
<path fill-rule="evenodd" clip-rule="evenodd" d="M98.931 29.9219H112.701C113.969 29.9219 115.005 30.9589 115.005 32.225V63.7844C115.005 65.0505 113.969 66.0875 112.701 66.0875H98.931C97.6649 66.0875 96.6279 65.0505 96.6279 63.7844V32.225C96.6279 30.9589 97.6649 29.9219 98.931 29.9219V29.9219Z" fill="#212744"/>
<path fill-rule="evenodd" clip-rule="evenodd" d="M104.211 64.3963C103.839 64.3963 103.539 64.0941 103.539 63.7241C103.539 63.3529 103.839 63.052 104.211 63.052H107.423C107.794 63.052 108.095 63.3529 108.095 63.7241C108.095 64.0941 107.794 64.3963 107.423 64.3963H104.211Z" fill="#57607D"/>
<path fill-rule="evenodd" clip-rule="evenodd" d="M97.8262 32.9905H113.806V61.6744H97.8262V32.9905Z" fill="white"/>
<path fill-rule="evenodd" clip-rule="evenodd" d="M113.806 55.6407V62.3466L111.011 62.0112C109.521 60.777 108.329 60.0486 108.06 59.6376L104.012 53.454C103.203 52.2186 103.55 50.562 104.786 49.7528C105.966 48.9809 107.53 49.2625 108.373 50.3648L112.296 54.7407L113.806 55.6407V55.6407Z" fill="#90B2CF"/>
<path fill-rule="evenodd" clip-rule="evenodd" d="M103.085 32.2391C102.849 32.2391 102.658 32.0483 102.658 31.8114C102.658 31.5746 102.849 31.3826 103.085 31.3826H108.547C108.784 31.3826 108.976 31.5746 108.976 31.8114C108.976 32.0483 108.784 32.2391 108.547 32.2391H103.085Z" fill="#57607D"/>
<path fill-rule="evenodd" clip-rule="evenodd" d="M102.05 42.5221C102.372 43.6833 102.452 42.5784 102.188 44.527C102.178 44.6063 102.068 45.1812 102.12 45.2375C102.152 45.2708 102.182 45.2618 102.246 45.2503C102.303 45.2401 102.352 45.2285 102.408 45.217L103.974 44.9136C104.147 44.8816 104.362 45.0198 104.535 45.0775C106.155 45.6254 107.863 45.0083 108.835 43.7447C109.228 43.2313 109.624 42.3672 109.62 41.5325L109.619 41.2495L109.615 41.1561C109.552 40.868 109.552 40.5992 109.455 40.2855C109.261 39.6595 108.936 39.1243 108.489 38.6762C107.708 37.8966 106.452 37.355 105.056 37.6047C103.411 37.8991 102.237 39.196 101.955 40.6837C101.815 41.4224 101.904 41.841 102.05 42.5221V42.5221Z" fill="#CFDEED"/>
<path fill-rule="evenodd" clip-rule="evenodd" d="M102.224 41.8742C102.546 43.0354 102.626 41.9305 102.362 43.8791C102.352 43.9571 102.242 44.5333 102.293 44.5883C102.325 44.6229 102.354 44.6139 102.42 44.6024C102.477 44.5909 102.526 44.5806 102.582 44.5691L104.147 44.2657C104.321 44.2324 104.535 44.3707 104.709 44.4296C106.33 44.9775 108.037 44.3591 109.008 43.0955C109.402 42.5834 109.798 41.718 109.793 40.8846V40.6003L109.789 40.5082C109.726 40.2201 109.726 39.9513 109.629 39.6376C109.434 39.0103 109.11 38.4751 108.662 38.0283C107.883 37.2474 106.627 36.7058 105.229 36.9568C103.585 37.2512 102.409 38.5481 102.129 40.0358C101.99 40.7745 102.078 41.1931 102.224 41.8742V41.8742Z" fill="white"/>
<path fill-rule="evenodd" clip-rule="evenodd" d="M106.881 41.2456C107.031 41.2302 107.335 41.4338 107.464 41.5029C107.827 41.7 107.895 41.6988 107.859 41.9292C107.816 42.2019 107.721 42.3338 107.551 42.4541C106.972 42.8612 106.239 42.4989 105.707 42.207C105.482 42.0828 105.401 41.9932 105.229 41.8486L104.824 41.4376C104.622 41.1854 104.329 40.7821 104.171 40.4377C103.769 39.5518 104.235 38.8118 104.713 38.8233C105.054 38.8323 105.038 38.9334 105.134 39.2164C105.168 39.3162 105.344 39.7733 105.34 39.8514C105.335 39.9948 105.072 40.2559 104.99 40.3148C104.98 40.5017 105.211 40.8013 105.319 40.9421C105.515 41.1969 106.2 41.7781 106.419 41.7103C106.515 41.6821 106.784 41.2993 106.881 41.2456V41.2456ZM103.056 43.7894C103.47 43.7446 104.247 43.486 104.436 43.5859C105.46 44.1261 106.694 44.0672 107.669 43.4322L107.908 43.2632C108.109 43.1122 108.281 42.9368 108.434 42.737C108.867 42.1725 109.115 41.5387 109.119 40.7757C109.124 39.6581 108.601 38.8937 108.032 38.3586C107.474 37.8324 106.523 37.5213 105.721 37.5751C105.234 37.6084 104.804 37.7428 104.434 37.9412C104.137 38.1013 103.727 38.4073 103.521 38.6607C102.673 39.708 102.427 41.0894 103.174 42.3786C103.247 42.504 103.225 42.5373 103.202 42.7025L103.056 43.7894V43.7894Z" fill="#33CC99"/>
<path fill-rule="evenodd" clip-rule="evenodd" d="M108.357 37.7698C108.872 37.7698 109.29 38.1871 109.29 38.7018C109.29 39.2165 108.872 39.6351 108.357 39.6351C107.842 39.6351 107.424 39.2165 107.424 38.7018C107.424 38.1871 107.842 37.7698 108.357 37.7698Z" fill="#FF5722"/>
<path d="M104.377 50.0333C104.704 49.5353 105.003 49.1666 105.326 48.9579C105.255 47.8453 108.911 50.1344 109.078 50.2266C109.329 50.3649 109.889 50.3674 110.242 50.5287C111.068 50.9064 111.127 50.9013 112.52 51.6169C113.69 52.2174 114.02 52.8063 114.955 54.5743L119.579 64.6806C120.156 66.0274 119.535 67.5867 118.188 68.1654C118.003 68.2461 117.813 68.3024 117.623 68.3382C117.443 69.2984 116.738 70.1216 115.733 70.4033C115.188 70.5569 114.633 70.5275 114.136 70.3508C113.97 73.4989 112.786 75.5191 111.365 74.9353C109.841 74.3106 108.622 70.37 108.638 67.3934C108.652 64.4156 109.06 62.2097 109.843 60.9896C108.808 58.4253 108.803 55.9147 109.126 55.6548C107.553 55.8712 102.977 52.1738 104.377 50.0333V50.0333Z" fill="#DEAB71"/>
<path d="M104.377 50.0332C104.222 52.0009 106.287 52.9112 107.583 53.929C108.934 54.989 110.419 55.0134 111.596 53.8189C111.686 53.6896 111.883 53.8266 111.792 53.9559C111.179 54.8341 110.562 54.9122 110.801 55.5831C112.476 60.2982 114.466 63.1634 116.281 66.3359C120.435 73.6013 115.628 73.6614 115.925 77.3869C115.966 77.9003 116.008 78.6646 116.049 79.5864H106.367C106.568 76.7686 106.802 74.3963 107.072 73.5078C108.511 73.993 109.95 74.4795 111.388 74.966C111.398 74.9404 111.407 74.9148 111.416 74.8892C110.042 73.9188 108.932 70.4237 108.88 66.7443C108.848 64.4821 109.269 62.4183 109.918 61.1995C110.419 62.3312 110.702 62.531 110.072 61.019C108.986 58.4137 109.112 55.8174 109.348 55.5267C107.671 55.5306 103.4 52.5476 104.377 50.0332V50.0332Z" fill="#BA7243"/>
<path fill-rule="evenodd" clip-rule="evenodd" d="M106.693 74.7638C106.665 74.6268 106.636 74.4885 106.606 74.3516C107.406 74.774 108.447 75.1504 109.149 75.2298C108.539 75.2861 107.556 75.0762 106.693 74.7638V74.7638Z" fill="#DEAB71"/>
<path d="M5.86097 80C5.63308 80 5.44745 79.8143 5.44745 79.5864C5.44745 79.3573 5.63308 79.1716 5.86097 79.1716H133.224C133.452 79.1716 133.637 79.3573 133.637 79.5864C133.637 79.8143 133.452 80 133.224 80H5.86097V80Z" fill="#202945"/>
<path d="M96.021 18.8669H97.3998C97.7468 18.8669 98.0617 19.0078 98.2896 19.2357C98.4445 19.3931 98.561 19.589 98.6186 19.8092H99.1448C99.2024 19.589 99.3176 19.3918 99.4738 19.2357C99.7017 19.0078 100.017 18.8669 100.364 18.8669H101.742C102.089 18.8669 102.404 19.0078 102.632 19.2357C102.86 19.4661 103.002 19.7798 103.002 20.1254C103.002 20.4711 102.86 20.786 102.632 21.0139C102.404 21.2431 102.089 21.3852 101.742 21.3852H100.364C100.019 21.3852 99.703 21.2431 99.4751 21.0152C99.3189 20.859 99.2024 20.6618 99.1448 20.4429H98.6186C98.561 20.6618 98.4445 20.859 98.2896 21.0139C98.0617 21.2431 97.7455 21.3852 97.3998 21.3852H96.021C95.674 21.3852 95.3591 21.2431 95.1312 21.0152C94.9033 20.7873 94.7612 20.4737 94.7612 20.1267C94.7612 19.781 94.9021 19.4661 95.1312 19.2369C95.3591 19.0091 95.674 18.8669 96.021 18.8669V18.8669ZM97.25 20.4429C97.0746 20.4429 96.9325 20.3008 96.9325 20.1254C96.9325 19.9513 97.0746 19.8092 97.25 19.8092H97.9388C97.9119 19.7631 97.8786 19.7209 97.8415 19.6837C97.7276 19.5711 97.5714 19.5007 97.3998 19.5007H96.021C95.8482 19.5007 95.692 19.5711 95.5793 19.6825C95.4654 19.7964 95.395 19.9539 95.395 20.1267C95.395 20.2983 95.4666 20.4544 95.5793 20.5671C95.692 20.6811 95.8494 20.7515 96.021 20.7515H97.3998C97.5727 20.7515 97.7288 20.6811 97.8415 20.5684C97.8786 20.5313 97.9119 20.489 97.9388 20.4429H97.25ZM99.8246 19.8092H100.513C100.689 19.8092 100.831 19.9513 100.831 20.1254C100.831 20.3008 100.689 20.4429 100.513 20.4429H99.8246C99.8515 20.489 99.8835 20.53 99.9206 20.5671C100.035 20.6811 100.191 20.7515 100.364 20.7515H101.742C101.915 20.7515 102.071 20.6811 102.184 20.5684C102.298 20.4557 102.368 20.2983 102.368 20.1254C102.368 19.9539 102.298 19.7964 102.184 19.6837C102.071 19.5711 101.914 19.5007 101.742 19.5007H100.364C100.192 19.5007 100.035 19.5711 99.9219 19.6837C99.8848 19.7209 99.8528 19.7631 99.8246 19.8092V19.8092Z" fill="#CFDEED"/>
<path fill-rule="evenodd" clip-rule="evenodd" d="M80.7784 8.74531C81.5388 8.97831 82.065 9.48529 82.2891 10.256C82.4888 9.55955 82.9676 9.0244 83.7998 8.74531C82.9625 8.56479 82.4453 8.04758 82.2891 7.23462C82.1342 8.04886 81.5901 8.54175 80.7784 8.74531Z" fill="#CFDEED"/>
<path fill-rule="evenodd" clip-rule="evenodd" d="M77.4178 6.22839C77.9977 6.40635 78.3997 6.79426 78.5713 7.38189C78.7236 6.85059 79.0885 6.44219 79.7235 6.22839C79.0846 6.09141 78.6903 5.69709 78.5713 5.07617C78.4522 5.69709 78.0374 6.07348 77.4178 6.22839Z" fill="#CFDEED"/>
</g>
<defs>
<clipPath id="clip0_4184_44325">
<rect width="138.807" height="80" fill="white" transform="translate(0.596497)"/>
</clipPath>
</defs>
</svg>
