<svg width="92" height="80" viewBox="0 0 92 80" fill="none" xmlns="http://www.w3.org/2000/svg">
<g clip-path="url(#clip0_4184_44182)">
<path d="M52.8859 28.4678C56.6003 28.4678 59.9629 29.9726 62.396 32.4067C64.8302 34.8399 66.335 38.2024 66.335 41.9158C66.335 45.6303 64.8302 48.9928 62.396 51.4259C59.9629 53.8601 56.6003 55.3649 52.8859 55.3649C49.1725 55.3649 45.81 53.8601 43.3768 51.4259C40.9427 48.9928 39.4379 45.6303 39.4379 41.9158C39.4379 38.2024 40.9427 34.8399 43.3768 32.4067C45.81 29.9726 49.1725 28.4678 52.8859 28.4678V28.4678ZM61.9543 32.8485C59.6339 30.5271 56.428 29.0922 52.8859 29.0922C49.3448 29.0922 46.1389 30.5271 43.8186 32.8485C41.4972 35.1688 40.0623 38.3747 40.0623 41.9158C40.0623 45.4579 41.4972 48.6638 43.8186 50.9842C46.1389 53.3056 49.3448 54.7404 52.8859 54.7404C56.428 54.7404 59.6339 53.3056 61.9543 50.9842C64.2757 48.6638 65.7105 45.4579 65.7105 41.9158C65.7105 38.3747 64.2757 35.1688 61.9543 32.8485Z" fill="#CFDEED"/>
<path d="M52.8859 22.0664C58.3672 22.0664 63.3306 24.2886 66.9218 27.8809C70.5141 31.4721 72.7353 36.4344 72.7353 41.9158C72.7353 47.3971 70.5141 52.3595 66.9218 55.9517C63.3306 59.544 58.3672 61.7651 52.8859 61.7651C47.4056 61.7651 42.4422 59.544 38.851 55.9517C35.2587 52.3595 33.0365 47.3971 33.0365 41.9158C33.0365 36.4344 35.2587 31.4721 38.851 27.8809C42.4422 24.2886 47.4056 22.0664 52.8859 22.0664ZM66.7015 28.1012C63.1656 24.5664 58.2816 22.3786 52.8859 22.3786C47.4912 22.3786 42.6072 24.5664 39.0713 28.1012C35.5365 31.6371 33.3498 36.5211 33.3498 41.9158C33.3498 47.3115 35.5365 52.1955 39.0713 55.7314C42.6072 59.2662 47.4912 61.4529 52.8859 61.4529C58.2816 61.4529 63.1656 59.2662 66.7015 55.7314C70.2363 52.1955 72.423 47.3115 72.423 41.9158C72.423 36.5211 70.2363 31.6371 66.7015 28.1012Z" fill="#CFDEED"/>
<path fill-rule="evenodd" clip-rule="evenodd" d="M34.841 14.1843H42.1112V9.48828H34.841V14.1843ZM43.3601 15.4333H50.6313V34.6007H43.3601V15.4333ZM85.9588 15.4333H90.0293C91.1362 23.1138 92.0197 27.3003 89.2304 34.6007H85.9588V15.4333ZM77.4397 15.4333H84.7098V34.6007H77.4397V15.4333ZM68.9195 15.4333H76.1897V34.6007H68.9195V15.4333ZM60.4004 15.4333H67.6706V34.6007H60.4004V15.4333ZM51.8803 15.4333H59.1504V34.6007H51.8803V15.4333ZM3.75746 15.4333H8.03267V34.6007H4.02061C2.166 29.7334 2.39052 22.2899 3.75746 15.4333V15.4333ZM9.28161 15.4333H16.5528V34.6007H9.28161V15.4333ZM17.8018 15.4333H25.0719V34.6007H17.8018V15.4333ZM26.3209 15.4333H33.5921V34.6007H26.3209V15.4333ZM34.841 15.4333H42.1112V34.6007H34.841V15.4333ZM43.3601 14.1843H50.6313V9.48828H43.3601V14.1843ZM85.9588 14.1843H89.8194C89.4685 12.3704 89.008 11.0046 88.6289 9.48828H85.9588V14.1843ZM77.4397 14.1843H84.7098V9.48828H77.4397V14.1843ZM68.9195 14.1843H76.1897V9.48828H68.9195V14.1843ZM60.4004 14.1843H67.6706V9.48828H60.4004V14.1843ZM51.8803 14.1843H59.1504V9.48828H51.8803V14.1843ZM3.80132 14.1843H8.03267V9.48828H4.49888C4.26915 11.2552 4.50619 12.5459 3.80132 14.1843V14.1843ZM9.28161 14.1843H16.5528V9.48828H9.28161V14.1843ZM17.8018 14.1843H25.0719V9.48828H17.8018V14.1843ZM26.3209 14.1843H33.5921V9.48828H26.3209V14.1843Z" fill="#CFDEED"/>
<path fill-rule="evenodd" clip-rule="evenodd" d="M69.2954 38.5272L67.7019 38.5534C67.185 39.6081 66.2149 40.4288 64.9764 40.409C64.3759 40.3996 63.7744 40.3892 63.174 40.3798C61.9971 40.361 61.0353 39.6206 60.4766 38.6369L57.2916 38.5878C56.7873 39.5569 55.8965 40.3401 54.7468 40.3213C54.1735 40.3119 53.6002 40.3025 53.0258 40.2941C51.8656 40.2753 50.9477 39.464 50.4214 38.4823L49.6079 38.4698C49.2362 38.4635 48.8811 38.356 48.6712 38.0229C48.4321 37.6428 48.5501 37.2741 48.6316 36.8773L48.6462 36.7969L48.6618 36.7071L48.6744 36.6048L48.6796 36.5421L48.6827 36.4826L48.6785 36.4272L48.6723 36.3667L48.6608 36.281L48.641 36.1442L48.6096 35.9437L48.5887 35.8216L48.5491 35.5897C48.5198 35.4206 48.4895 35.2514 48.4634 35.0812L48.4311 34.8567L48.4123 34.6948L48.4008 34.5632L48.3935 34.4348L48.3903 34.3335L48.3893 34.2113L48.3945 34.087L48.4039 33.9743L48.407 33.9388L48.4091 33.9304L48.4102 33.9147C48.4143 33.8834 48.4185 33.8531 48.4227 33.8343L48.4342 33.7654L48.4478 33.7017C48.4561 33.6631 48.4655 33.6244 48.476 33.5868L48.4854 33.5566C48.5334 33.3957 48.5992 33.2422 48.6859 33.0971L48.7161 33.0459L48.7548 33.001C48.7683 32.9843 48.7819 32.9686 48.7965 32.9519C49.1265 32.4684 49.6163 32.0727 50.1165 31.7709L50.1248 31.7615L50.199 31.7113C51.7685 30.6462 53.6847 29.9319 55.5268 29.5006C55.7336 29.3868 55.9414 29.2751 56.1492 29.1633C57.4357 28.4668 58.7526 27.8465 60.1247 27.3735C61.0426 27.0372 61.9835 26.7511 62.9401 26.5454C63.3807 26.4253 63.8245 26.3146 64.2704 26.2185C68.4517 25.3152 74.8206 25.2379 78.9256 26.5433C80.7333 27.1187 81.9968 28.3091 83.9329 28.59L84.0572 28.6078L84.1689 28.6684C84.3589 28.7707 84.5031 28.9096 84.6273 29.0704C85.2601 29.3461 85.7687 30.4384 85.6288 31.185C85.6674 31.2707 85.7102 31.3532 85.7541 31.4377C86.0841 32.0789 86.1875 32.5655 86.1833 33.2934C86.1833 33.4751 86.1749 33.6568 86.1624 33.8166L86.1603 33.8448L86.153 33.9419L86.1478 33.9993L86.1415 34.1131L86.1352 34.2374L86.1269 34.3596L86.1185 34.4776L86.1081 34.5935L86.0966 34.7052L86.0851 34.8159L86.0715 34.9214L86.0569 35.0269L86.0423 35.1271L86.0246 35.2274L86.0068 35.3234L85.988 35.4164L85.9671 35.5114L85.9452 35.6002L85.9212 35.6889L85.8961 35.7756L85.87 35.8581L85.8418 35.9427L85.8115 36.0231L85.7802 36.1025L85.751 36.1703C85.728 36.2215 85.705 36.2706 85.6747 36.3291L85.6361 36.4011L85.5964 36.47L85.5599 36.5296L85.5108 36.6048L85.4711 36.6611L85.4178 36.7322L85.3708 36.7917L85.3218 36.8502L85.2716 36.9066L85.2194 36.9619L85.1672 37.0141L85.1139 37.0642L85.0586 37.1144L85.0053 37.1603L84.9563 37.201C84.9187 37.2313 84.8811 37.2606 84.8435 37.2898C84.7861 37.3326 84.7276 37.3744 84.6681 37.4141L84.6179 37.4475C84.5762 37.4757 84.5333 37.5028 84.4916 37.53L84.4414 37.5603C84.0227 38.8719 83.0327 40.0759 81.5415 40.0519C80.9693 40.0425 80.3981 40.0331 79.8258 40.0237C78.7178 40.0059 77.8104 39.3178 77.2757 38.3967L75.6665 38.4239C75.184 39.4462 74.3382 40.3516 73.1279 40.3328C72.6287 40.3244 72.1296 40.3161 71.6304 40.3088C70.5966 40.2921 69.7915 39.4096 69.2954 38.5272V38.5272Z" fill="white"/>
<path fill-rule="evenodd" clip-rule="evenodd" d="M75.4691 36.237C75.4691 34.6028 74.3977 33.2609 73.0757 33.24C71.7547 33.2191 70.6833 34.5265 70.6833 36.1608C70.6833 36.6965 70.7219 37.5538 70.5151 37.6739L69.6682 37.6771C70.041 38.5595 70.7856 39.5849 71.6419 39.5996C72.0481 39.6058 72.7332 39.6163 73.1394 39.6225C74.6379 39.6476 75.4691 37.5361 75.4691 36.237Z" fill="#8FB3D0"/>
<path fill-rule="evenodd" clip-rule="evenodd" d="M54.7582 39.6122C56.027 39.6321 57.0608 38.2035 57.0932 36.4951C57.0932 36.468 57.0942 36.4408 57.0942 36.4137C57.0942 36.3865 57.0932 36.3594 57.0932 36.3322C57.0608 34.6228 56.027 33.2339 54.7582 33.213C52.5141 33.1775 52.0442 35.8665 52.6248 37.6323C52.3533 37.6699 52.0724 37.7179 51.7831 37.7816L50.8777 37.7869C51.2861 38.7988 52.1006 39.5694 53.0373 39.584C53.6106 39.5934 54.1839 39.6028 54.7582 39.6122Z" fill="#8FB3D0"/>
<path fill-rule="evenodd" clip-rule="evenodd" d="M49.6194 37.7607C48.9521 37.7503 49.3594 37.3315 49.3917 36.5107C49.4011 36.2716 49.2435 35.4738 49.1641 34.9715C49.0524 34.2582 49.0764 33.8301 49.2957 33.4594C49.7343 32.9425 50.1457 32.8161 50.5968 32.2992C52.1444 31.2487 54.0565 30.5647 55.7816 30.1699C58.1312 28.9116 61.5125 27.5394 64.4208 26.9118C67.9076 26.1589 74.3632 25.8362 78.7105 27.2199C80.6278 27.8297 81.6146 28.9701 83.8305 29.2917C83.9997 29.3836 84.1135 29.559 84.2064 29.7157C84.4654 30.0342 84.6137 30.3955 84.8758 31.2059C85.1285 31.988 85.6078 32.1196 85.4397 33.9512C85.3249 36.5974 84.6294 36.5681 83.0233 37.5863C82.3466 37.8275 80.5536 37.6416 77.9325 37.6772L67.4554 37.8474L61.5355 37.9434C45.5488 37.698 67.4074 38.0332 49.6194 37.7607V37.7607Z" fill="white"/>
<path fill-rule="evenodd" clip-rule="evenodd" d="M49.6194 37.7607C48.9521 37.7503 49.3594 37.3315 49.3918 36.5107C49.4012 36.2716 49.2435 35.4738 49.1641 34.9715C49.0754 34.4065 49.0722 34.0202 49.184 33.7006C49.7207 34.0651 52.6332 33.9617 55.6333 33.9053C59.8636 33.8249 59.4522 33.9439 59.9388 34.1559C60.9539 34.5966 61.3778 35.1177 61.6901 34.6175C62.5328 32.2783 64.9534 31.6455 66.5647 33.0615C66.9688 33.4166 67.3782 32.6114 67.8314 32.5812C71.6513 32.3253 74.5899 32.3692 77.9043 32.342C78.5027 32.3378 78.322 33.9471 78.7387 33.4897C79.7997 32.3222 81.6407 31.7593 83.3188 33.3967C83.6196 33.7455 83.7491 33.1733 84.3871 33.1806C84.619 33.1827 85.3301 33.3591 85.445 32.8934C85.4826 33.1075 85.4878 33.4312 85.4397 33.9512C85.3249 36.5974 84.6294 36.5682 83.0233 37.5863C82.3466 37.8275 80.5536 37.6417 77.9315 37.6772C74.4395 37.7336 70.9475 37.791 67.4554 37.8474C65.7157 37.6093 64.095 37.6438 61.8843 37.9487C45.8987 37.7043 67.4074 38.0333 49.6194 37.7607V37.7607Z" fill="#CFDEED"/>
<path fill-rule="evenodd" clip-rule="evenodd" d="M83.9621 36.1389C83.9621 34.3783 82.8072 32.9309 81.3828 32.9079C81.0852 32.9038 80.8001 32.9612 80.5349 33.0719C79.2525 33.6034 78.793 35.0006 78.8045 36.2872C78.8097 36.8532 78.8243 37.5591 78.6291 37.6719L77.7091 37.6802C78.1122 38.6315 78.9131 39.2999 79.8373 39.3145C80.4085 39.3239 80.9808 39.3333 81.553 39.3416C83.1205 39.3667 83.9621 37.486 83.9621 36.1389V36.1389Z" fill="#8FB3D0"/>
<path fill-rule="evenodd" clip-rule="evenodd" d="M49.326 37.0192C49.3563 36.8719 49.3845 36.7017 49.3918 36.5106C49.3991 36.3414 49.3218 35.8945 49.2487 35.4695L49.6654 35.4757C49.8648 35.4799 49.6414 37.0244 49.4597 37.0213L49.326 37.0192Z" fill="#8FB3D0"/>
<path fill-rule="evenodd" clip-rule="evenodd" d="M50.8976 34.2916C51.993 34.3093 52.8472 34.3229 53.9427 34.3406C54.5786 34.35 54.5369 34.3302 54.8282 34.7416C55.2971 35.4016 55.6615 35.929 56.1304 36.5889C56.4145 36.9889 56.5022 37.132 55.8464 37.1215C54.0857 37.0933 52.4964 37.0672 50.7357 37.039C49.9776 37.0275 50.0288 37.0944 50.0726 36.5482C50.1228 35.9216 50.1739 35.294 50.2241 34.6675C50.2533 34.3062 50.3891 34.2832 50.8976 34.2916Z" fill="#8FB3D0"/>
<path fill-rule="evenodd" clip-rule="evenodd" d="M67.4555 37.8474C67.5745 37.5269 67.5494 36.8648 67.5494 36.2936C67.5494 34.4212 66.3214 32.883 64.8062 32.858C64.4156 32.8517 64.0438 32.9478 63.7065 33.1253C62.4816 33.7686 62.0535 35.147 62.065 36.4513C62.0702 37.0528 62.0785 37.8193 61.8707 37.9404L60.9194 37.9341C61.3486 38.945 62.2028 39.6551 63.1855 39.6707C63.7859 39.6801 64.3864 39.6895 64.9879 39.7C65.9956 39.7156 66.8623 38.9418 67.2372 37.8224C67.2863 37.8506 67.398 37.8485 67.4555 37.8474Z" fill="#8FB3D0"/>
<path fill-rule="evenodd" clip-rule="evenodd" d="M68.6637 36.8846L76.9415 36.6747C77.6495 36.657 77.2465 35.879 76.6074 35.8414C74.1053 35.6921 72.1515 35.7192 69.4761 36.0377C68.7618 36.1233 68.1342 36.8575 68.6637 36.8846Z" fill="white"/>
<path fill-rule="evenodd" clip-rule="evenodd" d="M61.7955 31.8251C62.1642 31.963 62.0128 32.2366 61.8613 32.3368L60.7106 33.095C60.4777 33.2485 60.1842 33.331 59.9002 33.3529L58.0038 33.496C57.6895 33.5189 57.3512 33.4866 57.0723 33.3518C56.7987 33.2182 56.5189 33.096 56.2516 32.9529C56.0396 32.8381 56.2829 32.5206 56.4594 32.4924L61.2243 31.7155C61.4165 31.6842 61.6159 31.7573 61.7955 31.8251V31.8251Z" fill="#8FB3D0"/>
<path fill-rule="evenodd" clip-rule="evenodd" d="M59.0021 37.1737C58.6147 37.1685 58.3129 37.1633 57.9255 37.157C57.5621 37.1508 56.5627 35.5865 56.9627 35.5938C57.5851 35.6032 58.1469 35.6126 58.7692 35.622C59.1535 35.6282 59.472 37.1821 59.0021 37.1737V37.1737Z" fill="#8FB3D0"/>
<path fill-rule="evenodd" clip-rule="evenodd" d="M55.8224 30.148C59.1912 29.6332 62.6717 29.651 65.9674 30.0572C66.6117 30.1532 67.8993 30.3861 69.3184 30.3799L80.5474 30.3078C80.9567 30.3047 81.0466 29.6812 81.1155 29.3345C81.1854 28.9837 80.5192 28.5346 79.8248 28.165C79.3319 27.9029 78.7586 27.6585 78.2239 27.5227C76.7995 27.1625 75.2415 26.8878 74.5585 26.8241C71.8518 26.5683 67.7531 26.4545 63.8413 27.0956C61.1199 27.5426 58.2012 28.8239 55.8224 30.148V30.148Z" fill="#8FB3D0"/>
<path fill-rule="evenodd" clip-rule="evenodd" d="M75.844 30.1188C75.6289 29.1111 75.4806 28.1253 74.9846 27.0811C76.128 27.245 77.5472 27.4789 78.3565 27.7327C78.4119 27.7494 78.4672 27.7671 78.5225 27.7859C78.699 28.1473 79.2849 30.1366 79.241 30.1355C78.3576 30.1147 77.2966 30.1094 75.844 30.1188ZM56.1356 29.9799C59.2903 29.5351 61.5063 29.4714 64.6829 29.7669C65.346 29.8285 65.8504 29.3952 66.1449 29.1612C67.1359 28.377 68.4057 27.5938 69.6066 26.9077C70.3167 26.5015 65.0912 26.9119 63.6115 27.1928C60.9716 27.693 58.8789 28.4564 56.1356 29.9799ZM74.2411 26.9787C74.6713 28.1264 74.783 29.1936 74.7956 30.123C73.0464 30.1324 71.0488 30.1251 69.0291 30.1345L67.6925 29.0808C68.6908 28.0909 69.215 27.7087 70.2948 27.0978C70.843 26.7876 72.7269 26.8054 74.2411 26.9787V26.9787ZM78.7408 27.8611C80.0127 28.3686 80.5296 28.6214 80.3114 29.6009C80.2143 30.0395 80.1338 30.122 79.7579 30.1251C79.641 30.1345 79.5397 30.1314 79.4613 30.1094C79.3308 29.3972 79.0415 28.5169 78.7408 27.8611V27.8611Z" fill="#CFDEED"/>
<path fill-rule="evenodd" clip-rule="evenodd" d="M68.6417 30.148C69.4145 30.1376 69.8228 30.1418 69.8781 29.4807C69.9314 28.851 69.4865 28.6892 68.8026 28.7466C67.7426 28.8354 66.5334 30.1793 68.6417 30.148V30.148Z" fill="white"/>
<path fill-rule="evenodd" clip-rule="evenodd" d="M84.8633 31.1766C85.1348 31.0753 84.7098 29.7783 84.3266 29.7146L84.3276 29.7167C84.0154 29.7741 83.2886 29.8483 83.064 29.8629C82.6442 29.89 82.781 30.1678 83.158 30.3641C83.4828 30.5333 84.2775 30.7108 84.7484 31.0272C84.8215 31.0763 84.8424 31.1191 84.8633 31.1766Z" fill="#8FB3D0"/>
<path fill-rule="evenodd" clip-rule="evenodd" d="M50.6094 32.3044C50.0204 32.6386 49.563 33.0406 49.3176 33.4542C49.6758 33.3529 51.2589 32.5937 50.6094 32.3044Z" fill="#8FB3D0"/>
<path fill-rule="evenodd" clip-rule="evenodd" d="M40.5302 43.7078C40.2315 43.6765 39.9673 43.5919 39.7658 43.3904H38.5555C38.1022 44.1516 37.4893 44.7406 36.6194 45.0518C35.5417 45.4361 34.3199 45.2993 33.1963 45.2993C32.057 45.2993 31.0618 44.7218 30.3684 43.854C29.9988 43.8029 29.6729 43.665 29.4766 43.3904H27.2106C25.8906 45.3014 24.1885 45.0288 22.031 45.0288C20.8019 45.0288 19.7514 44.3605 19.058 43.3904H17.1105C16.6572 44.1516 16.0453 44.7406 15.1744 45.0518C14.0967 45.4361 12.876 45.2993 11.7513 45.2993C10.613 45.2993 9.61995 44.7229 8.92656 43.8572C7.88856 43.7245 7.81755 43.005 7.82591 42.1289C6.97692 41.9764 6.29502 41.73 5.91699 40.7359C5.69248 40.1448 5.57134 39.4274 5.52331 38.7883C5.42932 38.4019 5.48676 37.837 5.54001 37.4934C5.60058 37.0914 5.71232 36.5713 5.99009 36.2278C6.0611 35.903 6.10496 35.5313 6.14673 35.1856C5.73529 34.4922 5.99009 33.1618 6.66886 32.6741C6.76285 32.4528 6.88816 32.2523 7.09388 32.0988C7.37165 31.892 7.72984 31.8408 8.0546 31.7406C8.66445 31.5505 9.26073 31.2446 9.81314 30.9281C10.7498 30.3914 11.6584 29.8672 12.6337 29.4307L12.6295 29.4181L13.2394 29.1727C16.9956 27.6554 22.9343 27.7901 26.9714 28.0063C29.5382 28.1431 32.4402 28.589 34.8943 29.3544C36.5077 29.8578 38.0647 30.5355 39.5204 31.3949C39.9694 31.6602 40.4059 31.9421 40.8351 32.2376C40.9969 32.3494 41.2006 32.5102 41.3739 32.6136C41.6183 32.6658 41.8867 32.7034 42.131 32.7483C42.7283 32.859 43.3225 32.9812 43.9146 33.1169C45.5875 33.5002 47.2709 33.9931 48.8529 34.6624C50.5687 35.3871 51.2172 36.8825 51.0866 38.6651L51.0824 38.7152L51.072 38.7632C51.002 39.0849 50.9279 39.4044 50.859 39.7271C50.8099 39.96 50.7316 40.2712 50.7055 40.5134L50.9248 42.1425L50.9206 42.2083C50.8454 43.5773 49.4753 43.4447 48.4425 43.3998C47.7638 44.2926 46.6756 45.1468 45.5572 45.1468C43.5032 45.1468 41.8752 45.4288 40.5302 43.7078V43.7078Z" fill="white"/>
<path fill-rule="evenodd" clip-rule="evenodd" d="M45.5573 44.4452C44.2791 44.4452 44.1339 44.4452 43.3549 44.4452C42.3702 44.4452 41.4888 43.8928 40.8988 43.024H40.6127C40.3443 43.024 40.125 42.8047 40.125 42.5363V40.3643C40.125 40.3214 40.1302 40.2786 40.1417 40.2389C40.2221 38.1118 42.2992 36.419 43.3549 36.419C44.4107 36.419 44.112 36.5036 44.4566 36.6603C44.8002 36.5036 44.4754 36.419 45.5573 36.419C46.6391 36.419 48.7746 38.2152 48.7746 40.4321C48.7746 42.6491 46.8354 44.4452 45.5573 44.4452V44.4452ZM22.031 44.3283C20.2537 44.3283 18.8137 42.5311 18.8137 40.3141C18.8137 38.0982 20.9492 36.301 22.031 36.301C23.1119 36.301 22.7881 36.3867 23.1317 36.5423C23.4753 36.3867 23.1515 36.301 24.2334 36.301C25.3152 36.301 27.4497 38.0982 27.4497 40.3141C27.4497 42.5311 26.0097 44.3283 24.2334 44.3283C23.4533 44.3283 22.8101 44.3283 22.031 44.3283ZM12.853 36.8138C13.1966 36.6571 13.5673 36.5715 13.9537 36.5715C15.731 36.5715 17.171 38.3687 17.171 40.5856C17.171 42.8016 15.731 44.5987 13.9537 44.5987C13.1746 44.5987 12.5303 44.5987 11.7513 44.5987C10.7666 44.5987 9.88521 44.0463 9.2952 43.1765H9.0216C8.75427 43.1765 8.53497 42.9582 8.53497 42.6898V40.6138V40.5856C8.53497 38.3687 9.97501 36.5715 11.7513 36.5715C12.1387 36.5715 12.5094 36.6571 12.853 36.8138ZM33.1963 44.5987C32.2116 44.5987 31.3302 44.0463 30.7402 43.1765H30.4666C30.1982 43.1765 29.9789 42.9582 29.9789 42.6898V40.5178C29.9789 40.5073 29.98 40.4958 29.98 40.4854C30.0228 38.3154 31.4461 36.5715 33.1963 36.5715C33.5827 36.5715 33.9544 36.6571 34.298 36.8138C34.6416 36.6571 34.3168 36.5715 35.3987 36.5715C36.4805 36.5715 38.616 38.3687 38.616 40.5856C38.616 42.8016 37.175 44.5987 35.3987 44.5987C34.6196 44.5987 33.9753 44.5987 33.1963 44.5987V44.5987Z" fill="#90B2CF"/>
<path fill-rule="evenodd" clip-rule="evenodd" d="M7.68703 32.5615C6.88295 32.6617 6.86937 36.4889 6.50597 36.8617C6.0089 37.3713 6.18538 39.4661 6.5728 40.4874C6.90592 41.3657 7.58052 41.3845 8.53497 41.5327V40.6347V40.6326V40.6305L8.53393 40.5856C8.53393 38.3686 9.97501 36.5714 11.7513 36.5714C13.5098 36.5714 14.9384 38.3321 14.9676 40.5177H14.9687V40.5856V41.8648C14.9687 42.2595 15.425 42.6898 15.8198 42.6898H29.9789V40.5177C29.9789 40.5041 29.98 40.4906 29.981 40.477C30.027 38.3101 31.4482 36.5714 33.1963 36.5714C34.9726 36.5714 36.4126 38.3686 36.4126 40.5856V41.9713C36.4126 42.3274 36.8481 42.6898 37.2042 42.6898H49.7771C50.7504 42.6229 49.7897 40.7986 50.0434 40.1982C50.6522 38.424 50.6794 36.2039 48.5992 35.3162C46.9806 34.626 44.8712 33.9002 41.1244 33.2747C38.3017 31.3835 36.255 30.4938 33.8594 29.8203C29.8181 28.6831 26.5913 28.6517 23.4314 28.6162C19.6073 28.5734 16.086 28.6611 12.9846 30.0417C12.2275 30.379 11.4119 30.804 10.4961 31.3428C9.46854 31.9464 8.51931 32.4591 7.68703 32.5615V32.5615Z" fill="#CEDEEC"/>
<path fill-rule="evenodd" clip-rule="evenodd" d="M33.9565 29.8485L33.8594 29.8203C30.1972 28.7896 27.2043 28.6674 24.3232 28.6277L20.9283 28.6194C18.2466 28.6716 15.7216 28.9264 13.5015 29.8224L13.5203 29.8172L10.1713 31.5308C8.84615 32.2868 8.01283 32.5354 7.70373 32.5625C7.34241 32.5918 7.19413 33.2977 7.09283 33.6914C8.18409 33.941 9.66068 33.9242 10.3833 34.3064C11.1059 34.6886 10.9211 35.3591 10.6506 35.6671C10.3802 35.9762 9.71289 36.2822 9.32651 36.7981C8.97042 37.2763 8.94222 37.198 8.33237 37.1395C7.35286 37.0455 6.61769 36.8983 6.62396 36.5913C6.35141 36.7344 6.08825 37.8235 6.21774 38.6642C6.66364 38.8981 8.50572 39.0975 8.7553 38.5013C10.1076 35.2755 13.3929 35.5502 14.8663 37.8757C15.7498 39.2688 15.849 38.048 15.3383 37.3327C14.221 35.7726 13.0712 34.6093 16.1633 34.8756C20.9366 35.1523 25.71 35.0635 30.2734 35.428C32.575 35.6118 29.0339 37.9833 30.5272 37.1479C31.8931 36.3835 32.4308 36.0848 33.3801 36.0848C35.3715 36.0848 36.987 38.0992 36.987 40.5856C36.987 41.4628 37.3587 42.1698 38.5513 42.1698H50.2209C50.246 41.7155 50.035 41.0555 50.0037 40.5856C48.6107 41.3239 49.4189 39.462 48.6305 39.462H43.8645C42.7701 39.462 43.4718 40.9375 41.7801 40.8717C40.5709 40.8247 37.8642 40.7704 37.7911 39.9215C37.7284 39.1884 37.1373 38.6381 40.2733 38.6182C42.5404 38.6046 42.2678 38.8542 43.0855 37.7107C43.9606 36.4127 43.7705 36.4263 45.0675 36.4263H48.7976C49.4398 36.4263 49.7124 38.6161 50.387 38.614C50.5029 37.126 49.9703 35.901 48.6002 35.3162C44.7542 33.6768 41.4334 33.3979 41.1243 33.2747C38.3403 31.4097 36.3113 30.5189 33.9565 29.8485V29.8485ZM28.4543 40.9469H17.7443C16.439 40.9469 16.3095 41.9588 17.2024 41.9588H28.6955C29.3189 41.9588 30.4791 40.9135 28.4543 40.9469Z" fill="white"/>
<path fill-rule="evenodd" clip-rule="evenodd" d="M7.22545 33.1902C6.72211 33.1453 6.40988 34.884 6.8871 34.9185L7.83216 34.8318C8.05042 34.8318 8.21541 34.7503 8.29268 34.6261L8.66653 34.1311C8.91298 33.8053 8.47439 33.3897 7.97105 33.3051L7.22545 33.1902V33.1902ZM41.1243 33.2748C39.3982 32.124 37.8255 31.0046 34.6854 30.024C31.8972 29.1541 28.1295 29.1635 26.1757 29.3306C25.1951 29.4142 25.4092 29.4507 26.0159 29.741C27.692 30.5461 29.5654 32.0039 31.0399 33.1265C31.7604 33.6737 31.7218 33.6486 32.5196 33.4481C35.3663 32.736 39.5412 32.9062 41.1243 33.2748ZM41.6893 41.4858C42.1112 41.465 42.1112 40.1492 41.6893 40.1701H40.1386C39.6645 40.1701 39.1308 41.4858 39.6049 41.4858H41.6893V41.4858ZM50.153 41.4858C50.0622 40.9898 49.9285 40.4698 50.0434 40.1983L50.0528 40.1701H49.9724C49.5557 40.1492 49.1641 41.465 49.5797 41.4858H50.153V41.4858ZM50.3682 37.8967C50.3765 37.8967 50.3922 37.8998 50.3911 37.8779C50.3421 37.2294 50.1363 36.6655 49.7855 36.2123L49.5547 36.371C49.4294 36.4556 49.4294 36.8712 49.6069 37.1971L49.8774 37.692C49.94 37.8173 50.0152 37.8978 50.081 37.8978L50.3682 37.8967V37.8967ZM49.0284 38.6183C49.6299 38.5891 49.3124 36.7157 48.7109 36.7459H44.3125C43.6379 36.7459 42.8777 38.6183 43.5523 38.6183H49.0284ZM41.9681 36.371L38.1722 35.7267C37.954 35.6902 37.7639 35.7309 37.6438 35.8238L36.9494 36.2645C36.6225 36.4713 36.8126 36.9255 37.2721 37.1093L39.3867 37.8226C39.512 37.8727 39.6384 37.8967 39.7564 37.8967L41.8303 37.8978C42.0475 37.8978 42.2135 37.8173 42.2897 37.692L42.6636 37.1971C42.91 36.8712 42.4714 36.4556 41.9681 36.371V36.371ZM20.1305 29.3661C19.1833 29.3891 18.208 29.3912 17.2754 29.5614C15.9116 29.8089 14.4956 30.377 13.5662 30.9879C12.1178 31.9413 11.8536 33.0012 14.8214 33.1213C19.8297 33.3239 24.8296 33.4137 29.839 33.7019C26.6582 30.4083 24.7325 29.3097 20.1305 29.3661V29.3661Z" fill="#90B2CF"/>
<path d="M25.7852 31.6989L26.7281 31.6446C27.3317 31.6091 27.8486 31.8911 28.0742 32.3025C28.3415 32.7902 28.5243 33.4209 27.8068 33.328L25.427 33.2194C24.9309 33.1912 24.9226 31.749 25.7852 31.6989Z" fill="white"/>
<path d="M52.8859 27.8423C56.6003 27.8423 59.9629 29.3481 62.396 31.7823C64.8302 34.2154 66.335 37.578 66.335 41.2914C66.335 45.0058 64.8302 48.3683 62.396 50.8015C59.9629 53.2356 56.6003 54.7404 52.8859 54.7404C49.1725 54.7404 45.81 53.2356 43.3768 50.8015C40.9427 48.3683 39.4379 45.0058 39.4379 41.2914C39.4379 37.578 40.9427 34.2154 43.3768 31.7823C45.81 29.3481 49.1725 27.8423 52.8859 27.8423V27.8423ZM61.9543 32.224C59.6339 29.9026 56.428 28.4678 52.8859 28.4678C49.3448 28.4678 46.1389 29.9026 43.8186 32.224C41.4972 34.5444 40.0623 37.7503 40.0623 41.2914C40.0623 44.8335 41.4972 48.0394 43.8186 50.3597C46.1389 52.6811 49.3448 54.116 52.8859 54.116C56.428 54.116 59.6339 52.6811 61.9543 50.3597C64.2757 48.0394 65.7105 44.8335 65.7105 41.2914C65.7105 37.7503 64.2757 34.5444 61.9543 32.224Z" fill="white"/>
<path d="M52.8859 21.4419C58.3672 21.4419 63.3306 23.6641 66.9218 27.2564C70.5141 30.8476 72.7353 35.8099 72.7353 41.2913C72.7353 46.7726 70.5141 51.7349 66.9218 55.3272C63.3306 58.9195 58.3672 61.1406 52.8859 61.1406C47.4056 61.1406 42.4422 58.9195 38.851 55.3272C35.2587 51.7349 33.0365 46.7726 33.0365 41.2913C33.0365 35.8099 35.2587 30.8476 38.851 27.2564C42.4422 23.6641 47.4056 21.4419 52.8859 21.4419V21.4419ZM66.7015 27.4767C63.1656 23.9419 58.2816 21.7541 52.8859 21.7541C47.4912 21.7541 42.6072 23.9419 39.0713 27.4767C35.5365 31.0126 33.3498 35.8966 33.3498 41.2913C33.3498 46.687 35.5365 51.571 39.0713 55.1069C42.6072 58.6417 47.4912 60.8284 52.8859 60.8284C58.2816 60.8284 63.1656 58.6417 66.7015 55.1069C70.2363 51.571 72.423 46.687 72.423 41.2913C72.423 35.8966 70.2363 31.0126 66.7015 27.4767Z" fill="white"/>
<path fill-rule="evenodd" clip-rule="evenodd" d="M30.358 40.3701C31.1809 44.1576 26.6206 52.2027 27.0706 57.897C27.4883 63.1946 32.8569 66.3681 35.0833 64.526C38.1837 60.9933 41.589 60.3396 37.5175 45.6979C36.5787 42.3229 35.4582 40.5654 36.1516 39.4793C36.8805 38.4132 37.1781 37.3031 37.1029 35.1624C36.9859 31.8134 36.3364 32.0254 35.6315 30.3775C34.8546 28.5605 35.03 26.6151 32.1186 29.1349C31.4607 29.705 30.1063 31.0135 29.8202 33.2702C29.5852 35.1101 29.5174 34.9765 29.1498 35.6824C28.2559 37.3981 30.075 39.0679 30.358 40.3701V40.3701Z" fill="white"/>
<path fill-rule="evenodd" clip-rule="evenodd" d="M30.17 40.1853C30.9459 43.9049 26.6446 51.8069 27.0685 57.4C27.4633 62.6035 32.5269 65.7207 34.6259 63.9109C37.5498 60.4409 40.762 59.7986 36.9222 45.4181C36.0367 42.1036 34.9799 40.3774 35.6336 39.3102C36.3207 38.2628 36.6016 37.1736 36.5317 35.0715C36.421 31.781 35.808 31.9888 35.1438 30.3702C34.4108 28.5856 34.5758 26.6756 31.8304 29.1505C31.2101 29.7103 29.933 30.9958 29.6615 33.2127C29.4411 35.0193 29.3764 34.8877 29.0297 35.5822C28.187 37.2666 29.9027 38.9061 30.17 40.1853V40.1853Z" fill="#BA7243"/>
<path fill-rule="evenodd" clip-rule="evenodd" d="M38.1534 59.2401C39.0118 56.8748 39.0024 53.1092 36.9222 45.4182C36.2194 42.8222 35.4874 43.5824 35.9657 45.9247C36.5035 48.5583 35.9782 51.4749 35.713 52.8753C35.4529 54.2516 36.4439 60.5955 38.1534 59.2401V59.2401Z" fill="#DEAB71"/>
<path fill-rule="evenodd" clip-rule="evenodd" d="M35.6336 39.3101C36.3207 38.2627 36.6016 37.1736 36.5317 35.0715C36.445 32.5026 36.0273 31.8363 35.479 31.0688C34.9371 30.3117 34.8264 29.4627 34.5643 29.7311C34.2948 30.0068 34.1267 30.6594 34.5789 31.8624C35.3934 34.0303 33.12 36.5146 34.0171 38.2659C34.3189 38.8538 35.0572 40.251 35.6336 39.3101V39.3101Z" fill="#DEAB71"/>
<path fill-rule="evenodd" clip-rule="evenodd" d="M17.7548 32.2604C16.3784 32.4056 16.5058 33.2984 15.8083 33.6482C12.7976 35.1603 8.4368 38.148 7.7716 40.037C6.52893 43.5687 6.90173 47.1767 7.74654 50.8003C8.44411 53.79 8.83675 63.8212 8.70309 66.7086C8.44307 72.3142 7.82904 76.6771 7.7361 78.6832C7.60974 81.4264 32.1719 79.3985 32.198 77.0217C32.2136 75.6235 31.3532 70.6496 31.5484 66.4423C31.7301 62.5033 34.3137 52.6685 34.2437 48.718C34.1894 45.6479 32.8141 40.5957 30.8237 38.5761C28.3937 36.1096 27.7619 33.9333 23.2967 32.6165C21.605 32.1184 19.4882 32.0787 17.7548 32.2604V32.2604Z" fill="#CFDEED"/>
<path fill-rule="evenodd" clip-rule="evenodd" d="M17.7548 32.2604C14.9238 32.6363 18.3072 42.8868 25.9084 45.4014C27.2283 45.8379 28.3739 45.1226 29.1383 43.8799C30.57 41.5512 31.4513 41.4875 32.2815 44.4C33.3038 47.9891 33.5211 51.2618 33.1493 56.7515C33.7477 53.5926 34.2761 50.534 34.2437 48.718C34.1894 45.6479 32.8141 40.5957 30.8237 38.5761C29.6124 37.346 29.8442 37.3877 28.896 36.2234C27.8747 35.2303 26.5945 33.124 24.4537 32.4933C22.762 31.9941 19.483 32.0317 17.7548 32.2604V32.2604Z" fill="#90B2CF"/>
<path fill-rule="evenodd" clip-rule="evenodd" d="M17.4947 24.0975C18.1098 26.5724 17.8247 29.6405 17.2295 32.1905C16.652 34.6634 26.1924 38.6921 27.0508 36.117C27.7839 33.9157 27.9092 31.6047 29.5403 27.0601C30.547 24.2531 25.286 22.4288 23.1254 21.3156C19.1175 19.25 18.9797 22.3024 17.4947 24.0975V24.0975Z" fill="#DEAB71"/>
<path fill-rule="evenodd" clip-rule="evenodd" d="M18.2717 24.5924C18.8512 27.0683 17.9876 30.5489 17.4268 33.099C18.3218 35.1259 24.7597 37.865 26.5746 36.662C27.2649 34.4607 27.6471 31.6046 29.1832 27.06C30.1314 24.253 25.1774 22.4287 23.1431 21.3155C19.3692 19.2499 19.6699 22.7983 18.2717 24.5924V24.5924Z" fill="#BA7243"/>
<path fill-rule="evenodd" clip-rule="evenodd" d="M26.7386 6.59773C41.54 4.53218 37.7117 18.3123 34.9454 18.2726C34.652 17.7223 34.3732 17.4006 33.8187 17.5301C34.3826 15.4489 24.555 11.8493 22.3819 10.2777C20.6693 9.03818 29.3012 7.07809 32.3337 8.10043C31.2007 7.05408 29.3398 6.77526 26.7386 6.59773V6.59773Z" fill="white"/>
<path fill-rule="evenodd" clip-rule="evenodd" d="M27.009 11.3625C32.8381 11.7666 34.7867 15.3599 35.3381 19.3469C35.4268 19.9892 34.5215 20.3567 34.9298 21.6109C35.3057 22.7659 37.058 23.9626 36.894 25.0789C36.7677 25.931 34.9225 25.9906 34.9517 26.5701C35.0582 28.5897 33.3059 28.9427 33.7842 30.4161C34.3105 32.041 32.01 33.0049 30.4259 32.8138C27.4904 32.4598 22.9855 30.271 22.031 24.0399C17.1178 21.2851 18.4576 10.7694 27.009 11.3625V11.3625Z" fill="white"/>
<path fill-rule="evenodd" clip-rule="evenodd" d="M25.8718 11.3573C32.0998 11.8325 34.2238 15.4352 34.8608 19.4128C34.9632 20.054 34.0923 20.7275 34.5423 21.9806C34.9579 23.1366 36.7081 24.0128 36.5912 25.128C36.5317 25.7003 34.4974 26.0125 34.5371 26.59C34.5904 27.3669 34.771 28.0384 34.0808 28.1637C34.3272 28.7391 33.0939 29.6236 33.4187 30.5279C34.0004 32.1528 31.4753 32.9746 29.7815 32.7647C26.6435 32.3752 22.8716 30.1823 21.7773 23.9647C14.9812 23.0761 16.7366 10.6608 25.8718 11.3573Z" fill="#DEAB71"/>
<path fill-rule="evenodd" clip-rule="evenodd" d="M32.4204 14.0285C33.2892 14.9255 34.0881 16.5212 34.4964 17.6761C33.0793 16.9002 28.3948 16.9148 28.1441 19.7156C28.0449 20.8319 25.9804 20.2231 25.6974 22.8859C24.0266 22.9204 23.1077 24.0492 21.9673 24.0503C20.5607 21.9231 23.1557 16.0042 25.8551 14.5652C26.4827 14.2311 29.6959 13.9063 32.4204 14.0285V14.0285Z" fill="#BA7243"/>
<path d="M33.9325 28.2368C34.1006 28.24 34.6614 27.8859 34.4296 27.911C33.567 27.8296 31.9004 27.8901 30.9563 27.3795C30.8561 27.2657 30.7172 27.369 30.8185 27.4829C31.6466 28.0332 32.9467 28.1251 33.9325 28.2368V28.2368Z" fill="#BA7243"/>
<path d="M32.4998 28.7548C33.4124 28.9062 34.0964 28.7026 33.6829 29.1882C33.6829 29.1882 32.9206 29.4012 32.4026 29.1715C31.6623 28.8415 31.5234 28.5919 32.4998 28.7548V28.7548Z" fill="#BA7243"/>
<path d="M29.9027 27.6541C29.8661 27.7334 29.5268 28.2994 29.7325 27.6603C29.9131 27.0964 30.1136 26.2923 31.0294 26.4709C31.1287 26.4907 31.3845 26.6202 31.0524 26.6067C30.381 26.5795 30.1126 27.2102 29.9027 27.6541V27.6541Z" fill="#BA7243"/>
<path fill-rule="evenodd" clip-rule="evenodd" d="M34.5423 21.9807C34.9579 23.1367 37.0642 24.2144 36.5651 25.219C36.4492 25.4529 35.172 24.3533 34.9579 23.9638C34.7188 23.5294 34.5559 23.5294 34.3189 22.4966C34.0411 21.2832 34.3617 21.4774 34.5423 21.9807V21.9807ZM33.4187 30.528C33.9189 31.9263 32.1186 32.7304 30.5261 32.793C32.1531 31.4282 31.2445 29.7991 33.4187 30.528Z" fill="#E7C298"/>
<path fill-rule="evenodd" clip-rule="evenodd" d="M34.6635 25.4623C36.0847 25.3109 37.2971 25.1908 35.3015 25.9562C35.029 26.0607 34.9392 26.3113 34.039 25.904C33.5169 25.668 33.6067 25.5751 34.6635 25.4623V25.4623Z" fill="#BA7243"/>
<path fill-rule="evenodd" clip-rule="evenodd" d="M29.6896 20.3799C29.6249 18.4814 33.5284 18.1107 34.1372 18.9659C35.1041 20.3277 33.6892 20.0175 32.5812 19.6917C31.4931 19.3701 30.3538 19.6029 29.6896 20.3799V20.3799Z" fill="#202945"/>
<path fill-rule="evenodd" clip-rule="evenodd" d="M32.9791 21.9589C32.2773 21.585 32.5927 21.4931 32.5885 21.1569C32.5844 20.8206 32.0633 20.0667 32.623 20.3967C33.8803 21.1391 33.6808 22.3317 32.9791 21.9589Z" fill="#E7C298"/>
<path fill-rule="evenodd" clip-rule="evenodd" d="M25.9825 23.2944C22.5124 22.6835 18.0889 31.6485 17.1877 26.4647C16.1539 20.5166 16.5236 17.9613 16.4995 16.6142C12.7757 9.08089 27.5395 12.4518 23.0053 10.9637C22.4853 10.7935 20.0438 9.86827 23.0774 9.08194C24.5748 8.69451 30.3527 7.68053 31.6727 8.30918C30.9595 7.16571 27.2941 6.5945 25.616 6.45144C40.6252 5.04377 36.6559 17.3515 34.5194 17.8454C33.638 16.2372 28.707 15.9354 26.8482 16.3187C27.1824 18.9429 24.838 20.361 25.9825 23.2944V23.2944Z" fill="#202945"/>
<path fill-rule="evenodd" clip-rule="evenodd" d="M30.6921 9.56433C33.6046 10.8498 33.0522 13.5597 30.1074 14.0181C32.5081 11.6163 30.7464 9.50376 27.4205 9.04116C23.7603 8.53155 28.8762 8.76234 30.6921 9.56433V9.56433Z" fill="#57607D"/>
<path fill-rule="evenodd" clip-rule="evenodd" d="M19.1259 9.99878C16.2447 10.6901 15.7811 12.2064 16.0108 13.5921C16.2019 14.7491 16.7575 15.8801 17.9156 15.7568C16.9454 14.3481 16.3366 13.0125 16.9413 11.6529C17.2566 11.0859 17.6597 10.642 19.1259 9.99878V9.99878Z" fill="#202945"/>
<path fill-rule="evenodd" clip-rule="evenodd" d="M21.2123 20.5188C22.5114 20.5188 23.801 21.6382 24.0945 23.0198C24.3879 24.4003 23.6945 26.0158 22.3955 26.0158C21.0964 26.0158 20.5534 24.3011 20.2599 22.9206C19.9675 21.539 19.9122 20.5188 21.2123 20.5188Z" fill="#DEAB71"/>
<path fill-rule="evenodd" clip-rule="evenodd" d="M21.276 20.9867C21.9819 21.0869 22.8717 21.7949 23.0523 22.7911C23.234 23.7874 22.8946 22.7692 22.0937 22.7786C20.9231 22.7932 20.5691 20.8874 21.276 20.9867V20.9867Z" fill="#BA7243"/>
<path d="M24.0538 10.7182C22.0571 10.2588 22.9542 10.4144 24.5049 10.5731C27.4267 10.8728 30.664 12.1729 27.5489 13.3017C27.7693 12.7775 28.0972 11.6487 24.0538 10.7182Z" fill="#57607D"/>
<path fill-rule="evenodd" clip-rule="evenodd" d="M14.0121 71.27C16.1581 71.0267 16.6259 70.9306 17.4519 70.9191C18.1203 70.9097 21.7961 71.4339 21.7157 72.4667C21.6822 72.9137 22.2827 72.9857 22.148 73.5966C22.0885 73.8671 21.5319 73.9068 21.4222 74.4874C21.2656 75.3217 20.473 75.0262 20.3696 75.3917C20.2746 75.7269 20.0302 76.0454 18.8721 76.1143C18.2257 76.154 17.4279 75.9149 16.0568 76.5623C9.70245 78.0295 7.6087 75.1651 7.81651 70.7103C7.8541 69.9218 9.99067 69.1272 10.4418 69.5115C11.2459 70.1975 11.0851 71.601 14.0121 71.27V71.27Z" fill="#90B2CF"/>
<path d="M33.2172 22.0298C32.6355 21.7781 31.6111 22.0475 31.1036 22.0329C30.1554 22.0068 30.3799 21.8794 30.9323 21.7645C31.7166 21.6027 33.1033 21.1348 33.4741 21.8376C33.6182 22.1123 33.3362 22.1206 33.2172 22.0298Z" fill="#202945"/>
<path d="M31.726 22.4349C32.1155 22.414 32.5468 22.4171 32.9112 22.3555C33.4051 22.272 33.2986 22.4495 32.9749 22.58C32.5582 22.7482 32.0904 22.7638 31.6758 22.6698C31.2258 22.5665 31.2101 22.462 31.726 22.4349V22.4349Z" fill="#BA7243"/>
<path fill-rule="evenodd" clip-rule="evenodd" d="M13.4555 38.1992C16.2291 38.1992 18.4283 42.8284 17.7569 48.9729C17.0864 55.1184 12.6389 61.3171 11.4338 70.4054C10.2298 79.4936 6.04753 60.158 8.20602 52.939C10.3645 45.72 10.6809 38.1992 13.4555 38.1992V38.1992Z" fill="#90B2CF"/>
<path fill-rule="evenodd" clip-rule="evenodd" d="M14.0121 70.4471C16.1581 70.3562 16.6259 70.2936 17.4519 70.3406C18.1202 70.3782 21.7961 71.1624 21.7156 72.1889C21.6822 72.6338 22.2827 72.7487 22.148 73.3491C22.0885 73.6164 21.5319 73.6164 21.4222 74.1897C21.2656 75.0126 20.473 74.6617 20.3696 75.0189C20.2746 75.3468 20.0302 75.6486 18.8721 75.636C18.2257 75.6298 17.4279 75.3353 16.0568 75.8846C12.6473 77.2515 10.0502 76.6594 9.65545 75.4272C9.62934 75.3489 9.90085 70.8168 9.44868 69.0708C9.24714 68.2917 9.99066 68.0202 10.4418 68.4379C11.2459 69.1804 11.085 70.5714 14.0121 70.4471V70.4471Z" fill="#DEAB71"/>
<path d="M8.25823 39.47C9.73377 37.4807 11.5957 36.5064 13.3803 37.6028C15.1639 38.7004 17.406 46.311 16.3617 48.4392C13.8429 53.5728 10.6183 59.7987 9.3192 61.9666C9.55207 62.4511 10.3447 67.4542 11.5665 70.1734C12.1847 71.5508 13.4482 72.2254 14.5374 72.7204C15.6662 73.2342 13.1704 75.8605 11.6072 75.9367C8.35012 76.0829 4.49366 67.6014 1.42874 64.0927C0.267522 62.7623 1.3003 60.0764 2.11274 57.33C4.19082 50.3011 3.84412 45.4212 8.25823 39.47Z" fill="#DEAB71"/>
<path d="M8.78766 74.3558C6.27098 71.7597 3.64257 66.6282 1.42873 64.0928C0.954634 63.5487 0.714453 61.5876 1.15409 62.1369C2.01352 63.2114 4.48216 63.5926 5.08887 64.2943C5.90131 65.2352 8.00655 69.5459 9.9092 72.6025C10.9837 74.3276 12.9992 75.5995 15.3832 75.0586C17.9803 74.4696 17.949 75.2309 20.3696 75.0189C20.2746 75.3468 20.0302 75.6486 18.8721 75.636C18.2257 75.6298 17.4279 75.3353 16.0568 75.8846C13.136 77.0552 10.8114 76.7889 9.95723 75.9138C9.62307 75.5724 9.4894 75.0805 8.78766 74.3558Z" fill="#BA7243"/>
<path d="M15.5086 50.1665C13.9766 53.4058 11.0422 59.3184 9.31921 61.9667C8.05461 57.776 14.2941 48.0957 5.01162 45.8464C4.74742 45.7827 6.22297 42.7355 6.39109 42.417C7.49697 42.8932 8.85347 43.4926 10.5013 44.0805C12.5408 44.8073 14.3828 47.2728 15.5086 50.1665Z" fill="#BA7243"/>
<path d="M8.48484 38.8633C10.0345 36.9304 12.3392 36.1765 14.1239 37.2729C15.9085 38.3694 19.7785 43.4362 17.4122 47.8774C16.4202 49.9002 15.4856 52.066 14.1782 53.8861C14.2701 54.1503 13.4012 55.8107 12.923 55.3836C12.7935 50.0986 7.89065 45.5289 4.92807 45.5184C4.714 45.5174 4.99491 44.0032 5.4878 43.9761C6.46836 42.1966 7.36225 40.2648 8.48484 38.8633Z" fill="#CFDEED"/>
<path d="M16.3482 33.833C16.32 33.7515 16.3638 33.6627 16.4453 33.6356C16.5267 33.6084 16.6155 33.6513 16.6426 33.7327C17.0958 35.0673 19.3734 36.688 21.748 37.6581C22.7704 38.0758 23.8094 38.3703 24.7263 38.4674C25.6233 38.5624 26.3992 38.4684 26.9161 38.1134C27.268 37.8722 27.504 37.5035 27.5782 36.9835C27.5897 36.8979 27.669 36.8383 27.7536 36.8509C27.8392 36.8634 27.8988 36.9417 27.8862 37.0274C27.7985 37.6414 27.5166 38.08 27.0926 38.3703C26.5088 38.7702 25.6619 38.8799 24.695 38.7775C23.7488 38.6773 22.6795 38.3745 21.6311 37.9463C19.1844 36.9469 16.8296 35.25 16.3482 33.833V33.833Z" fill="#CFDEED"/>
<path d="M21.4243 72.0793C21.5068 72.1044 21.5538 72.1921 21.5287 72.2746C21.5037 72.3571 21.4159 72.403 21.3345 72.379L20.6589 72.1702C19.8495 71.9185 19.0047 71.6564 18.562 71.5937C18.2664 71.552 17.6138 71.5227 16.9528 71.5133C16.3116 71.5039 15.6641 71.5133 15.3227 71.5478C15.237 71.5562 15.1608 71.4935 15.1525 71.4079C15.1441 71.3222 15.2068 71.246 15.2924 71.2377C15.6443 71.2021 16.3053 71.1928 16.9559 71.2021C17.6305 71.2115 18.2988 71.2418 18.6048 71.2846C19.0716 71.3515 19.9289 71.6178 20.7507 71.8726C20.9544 71.9363 21.157 71.9989 21.4243 72.0793V72.0793Z" fill="#BA7243"/>
<path d="M21.3314 73.0525C21.4128 73.0797 21.4577 73.1674 21.4306 73.2488C21.4034 73.3303 21.3157 73.3742 21.2343 73.348C20.5033 73.1058 19.4799 72.8666 18.8554 72.7215L18.5296 72.6442C18.2038 72.5659 17.053 72.568 16.2312 72.5701C15.7989 72.5701 15.4553 72.5711 15.353 72.5596C15.2673 72.5502 15.2057 72.473 15.2151 72.3873C15.2245 72.3017 15.3007 72.2401 15.3864 72.2495C15.4772 72.2599 15.8114 72.2589 16.2312 72.2589C17.0687 72.2568 18.2393 72.2547 18.6017 72.3414L18.9264 72.4176C19.5519 72.5628 20.5785 72.8029 21.3314 73.0525Z" fill="#BA7243"/>
<path d="M20.6369 74.2106C20.7184 74.2399 20.7601 74.3286 20.7309 74.4101C20.7017 74.4905 20.6119 74.5323 20.5315 74.503C20.0991 74.3453 19.5572 74.173 19.0716 74.0435C18.6601 73.9339 18.2936 73.8566 18.0753 73.8462C17.8707 73.8368 17.4227 73.8295 16.9507 73.8211C16.2771 73.8096 15.5524 73.7971 15.3916 73.7772C15.307 73.7668 15.2464 73.6895 15.2569 73.6039C15.2663 73.5193 15.3446 73.4587 15.4292 73.4692C15.5722 73.4869 16.2886 73.4995 16.9559 73.5099C17.4352 73.5183 17.8884 73.5256 18.0889 73.535C18.3312 73.5465 18.7217 73.6279 19.1509 73.7428C19.6459 73.8744 20.1973 74.0498 20.6369 74.2106V74.2106Z" fill="#BA7243"/>
<path d="M30.666 34.1734C30.6451 34.0899 30.6963 34.0053 30.7788 33.9844C30.8624 33.9635 30.948 34.0147 30.9689 34.0972C31.161 34.8679 30.9292 35.4464 30.688 36.0489C30.6055 36.2546 30.5209 36.4645 30.454 36.6859C30.4415 36.7287 30.5261 36.6713 30.6347 36.7235C31.0367 36.9146 31.821 37.2885 32.599 38.5562C32.6428 38.6293 32.6198 38.7254 32.5467 38.7703C32.4736 38.8152 32.3776 38.7912 32.3327 38.7181C31.6048 37.5307 30.8749 37.183 30.501 37.0055C30.2358 36.8781 30.0917 36.8102 30.1554 36.5972C30.2253 36.3653 30.3131 36.1471 30.3987 35.933C30.6211 35.3785 30.8342 34.847 30.666 34.1734V34.1734Z" fill="#DEAB71"/>
<path d="M31.1965 66.0299C31.2195 65.9463 31.3051 65.8983 31.3887 65.9213C31.4712 65.9442 31.5192 66.0299 31.4973 66.1124C31.0775 67.6151 30.5689 69.3151 30.0635 70.9076C29.5789 72.4322 29.0975 73.8577 28.6997 74.9165C28.6704 74.997 28.5806 75.0387 28.5002 75.0084C28.4198 74.9782 28.3791 74.8884 28.4083 74.8079C28.8051 73.7522 29.2845 72.332 29.7669 70.8136C30.2702 69.2284 30.7778 67.5326 31.1965 66.0299V66.0299Z" fill="#90B2CF"/>
<path d="M18.8993 46.9742C18.94 46.8979 19.034 46.8697 19.1102 46.9105C19.1854 46.9512 19.2146 47.0452 19.1739 47.1214C18.752 47.9046 18.2403 48.7285 17.7318 49.4491C17.2431 50.1425 16.7554 50.7419 16.3502 51.1199C16.2876 51.1784 16.1884 51.1752 16.1299 51.1115C16.0714 51.0489 16.0745 50.9507 16.1382 50.8923C16.5267 50.5288 16.9997 49.9461 17.477 49.2695C17.9782 48.5583 18.4836 47.7459 18.8993 46.9742V46.9742Z" fill="#90B2CF"/>
<path d="M18.0513 45.2332C18.0649 45.1476 18.1453 45.0912 18.2309 45.1048C18.3155 45.1194 18.373 45.1988 18.3583 45.2844C18.2101 46.1605 17.9887 47.1056 17.7381 47.9515C17.4968 48.7649 17.2274 49.4886 16.9653 49.9763C16.9246 50.0525 16.8295 50.0807 16.7533 50.04C16.6781 49.9993 16.6499 49.9042 16.6907 49.829C16.9423 49.3602 17.2044 48.6563 17.4394 47.8637C17.6869 47.0294 17.9041 46.0979 18.0513 45.2332V45.2332Z" fill="#90B2CF"/>
<path d="M6.27726 44.3645C6.19268 44.3446 6.14046 44.2611 6.1603 44.1765C6.18015 44.093 6.26369 44.0408 6.34723 44.0606C7.74654 44.3906 9.74422 45.5758 11.3952 47.4806C12.6598 48.9394 13.725 50.8222 14.1667 53.0674C14.1834 53.152 14.128 53.2345 14.0435 53.2501C13.9589 53.2668 13.8764 53.2115 13.8607 53.1269C13.4305 50.9402 12.3925 49.1054 11.1602 47.6842C9.55416 45.8317 7.62332 44.6819 6.27726 44.3645V44.3645Z" fill="#90B2CF"/>
<path d="M11.2845 69.9208C11.273 69.8351 11.3325 69.7568 11.4171 69.7453C11.5028 69.7338 11.5811 69.7933 11.5926 69.8779C11.6187 70.0649 11.673 70.3019 11.7335 70.5703C11.8682 71.1655 12.0364 71.908 12.027 72.6285C12.0259 72.7142 11.9549 72.7831 11.8693 72.782C11.7837 72.781 11.7147 72.71 11.7158 72.6244C11.7252 71.9414 11.5612 71.2188 11.4297 70.6382C11.368 70.3635 11.3127 70.1192 11.2845 69.9208V69.9208Z" fill="#BA7243"/>
<path fill-rule="evenodd" clip-rule="evenodd" d="M18.3448 28.0834C17.8039 28.1179 17.3997 27.6804 17.1877 26.4648C16.2698 21.1819 16.4578 18.5754 16.4954 17.1145C16.6447 19.8473 17.4269 24.9475 18.3448 28.0834Z" fill="#57607D"/>
<path d="M50.7504 6.49851C53.6709 6.49851 56.0385 6.16562 56.0385 5.75499C56.0385 5.34436 53.6709 5.01147 50.7504 5.01147C47.8298 5.01147 45.4622 5.34436 45.4622 5.75499C45.4622 6.16562 47.8298 6.49851 50.7504 6.49851Z" fill="#CFDEED"/>
<path d="M18.757 2.53287C23.7311 2.53287 28.1046 1.96592 28.5255 1.26656C28.9464 0.567191 25.2552 0.000244141 20.2811 0.000244141C15.307 0.000244141 10.9334 0.567191 10.5126 1.26656C10.0917 1.96592 13.7829 2.53287 18.757 2.53287Z" fill="#CFDEED"/>
<path d="M76.8773 3.78186C80.4268 3.78186 83.1045 3.37729 82.8581 2.87823C82.6118 2.37918 79.5346 1.97461 75.9852 1.97461C72.4357 1.97461 69.758 2.37918 70.0043 2.87823C70.2507 3.37729 73.3278 3.78186 76.8773 3.78186Z" fill="#CFDEED"/>
<path fill-rule="evenodd" clip-rule="evenodd" d="M66.878 30.3181C68.789 30.5917 69.0688 35.8914 67.8262 39.0388C66.9062 41.3717 66.713 41.5335 70.5517 40.4412C73.9915 39.4617 81.9728 33.6671 80.9515 32.5518C75.7292 26.8512 76.5165 23.4918 76.6857 20.2473C76.9562 15.052 75.8461 14.6918 69.8218 19.0714C67.4273 20.8122 64.5879 24.8754 66.878 30.3181Z" fill="white"/>
<path fill-rule="evenodd" clip-rule="evenodd" d="M73.3984 8.43145C60.7983 2.0771 50.3097 9.84852 58.3746 15.3497C61.193 17.2711 63.528 16.6258 67.0534 15.8541C68.1875 18.6423 68.6971 19.9246 70.1173 20.8645C73.3336 21.9129 73.9665 25.6754 76.6993 24.7982C77.0899 21.8022 77.5107 16.6153 76.9019 14.2292C78.9445 9.41619 74.9951 7.08957 73.3984 8.43145V8.43145Z" fill="white"/>
<path fill-rule="evenodd" clip-rule="evenodd" d="M68.6491 14.7963C65.8797 15.3602 62.9495 15.0772 60.7784 14.5447C59.1619 14.1489 58.9071 14.2554 58.762 15.2067C58.4372 17.3454 59.4961 19.1906 59.4575 20.074C59.4251 20.8155 59.3238 21.4431 58.5197 23.4C58.1929 24.1947 58.4101 24.9163 59.0836 25.121C59.4658 25.2369 60.0402 25.2703 60.4777 25.3027C60.6521 25.3162 60.7127 26.1621 61.2703 26.4023C61.2233 27.5729 62.7626 27.9875 62.8492 29.3043C62.9244 30.4269 64.495 31.5975 66.1052 31.1359C71.2921 29.6499 74.0197 25.2745 73.4391 23.2622C75.1235 22.6095 74.828 21.1924 75.2384 18.776C75.6602 16.2844 73.2094 16.3126 71.8236 17.9604C70.3878 18.021 69.096 17.4488 68.6491 14.7963Z" fill="white"/>
<path fill-rule="evenodd" clip-rule="evenodd" d="M67.2915 30.3181C69.2015 30.5917 69.4824 35.8914 68.2397 39.0388C67.3187 41.3717 67.1265 41.5335 70.9652 40.4412C74.404 39.4617 82.3863 33.6671 81.365 32.5518C76.1416 26.8512 76.929 23.4918 77.0982 20.2473C77.3686 15.052 76.2596 14.6918 70.2342 19.0714C67.8408 20.8122 65.0004 24.8754 67.2915 30.3181V30.3181Z" fill="#DEAB71"/>
<path fill-rule="evenodd" clip-rule="evenodd" d="M46.7759 41.1576L58.8069 37.934C59.3467 37.7899 59.9065 38.1126 60.0516 38.6535L64.7247 56.0927C64.8688 56.6326 64.5451 57.1934 64.0052 57.3375L51.9742 60.5611C51.4344 60.7063 50.8746 60.3825 50.7295 59.8427L46.0564 42.4034C45.9112 41.8625 46.235 41.3028 46.7759 41.1576V41.1576Z" fill="#212744"/>
<path fill-rule="evenodd" clip-rule="evenodd" d="M47.3502 40.4016L59.047 37.2677C59.7321 37.0839 60.4495 37.4985 60.6333 38.1835L65.1758 55.1382C65.3596 55.8243 64.9461 56.5407 64.26 56.7245L52.5632 59.8583C51.8782 60.0421 51.1618 59.6285 50.978 58.9425L46.4344 41.9878C46.2506 41.3017 46.6642 40.5854 47.3502 40.4016V40.4016Z" fill="white"/>
<path fill-rule="evenodd" clip-rule="evenodd" d="M47.1038 40.7618L59.0147 37.5705C59.5493 37.4275 60.1038 37.747 60.2469 38.2817L64.873 55.5475C65.0171 56.0822 64.6965 56.6367 64.1618 56.7798L52.251 59.9721C51.7163 60.1151 51.1618 59.7946 51.0177 59.2599L46.3916 41.994C46.2485 41.4594 46.5691 40.9049 47.1038 40.7618V40.7618Z" fill="#FF5722"/>
<path fill-rule="evenodd" clip-rule="evenodd" d="M47.5257 42.3365L59.4366 39.1452C59.682 39.0784 59.9378 39.2266 60.0036 39.4721L64.0668 54.6389C64.1337 54.8843 63.9854 55.1402 63.74 55.206L51.8291 58.3972C51.5837 58.463 51.3278 58.3158 51.2621 58.0693L47.1978 42.9035C47.132 42.6571 47.2792 42.4023 47.5257 42.3365V42.3365Z" fill="white"/>
<path d="M50.9456 47.2404L58.927 45.1028L59.0878 45.7053L51.1075 47.8429L50.9456 47.2404Z" fill="#57607D"/>
<path d="M52.3147 48.3608L58.3004 46.7568L58.3651 46.9981L52.3794 48.6021L52.3147 48.3608Z" fill="#57607D"/>
<path d="M51.0156 50.2154L60.3534 47.7134L60.5142 48.3159L51.1775 50.818L51.0156 50.2154Z" fill="#CFDEED"/>
<path d="M51.3393 51.4227L60.6761 48.9207L60.8379 49.5232L51.5001 52.0253L51.3393 51.4227Z" fill="#CFDEED"/>
<path d="M51.6631 52.6288L60.9998 50.1267L61.1606 50.7293L51.8239 53.2313L51.6631 52.6288Z" fill="#2956E2"/>
<path d="M48.1554 44.0617L49.3615 43.739L49.4262 43.9802L48.2191 44.3029L48.1554 44.0617Z" fill="#2956E2"/>
<path d="M51.6672 50.2353L54.0805 49.5879L54.1453 49.8291L51.732 50.4755L51.6672 50.2353Z" fill="#57607D"/>
<path d="M51.9909 51.4416L55.6104 50.4714L55.6751 50.7127L52.0557 51.6828L51.9909 51.4416Z" fill="#57607D"/>
<path d="M47.9444 43.2775C47.7784 43.3213 47.6071 43.2232 47.5622 43.0561C47.5184 42.89 47.6165 42.7188 47.7836 42.6749L59.3823 39.5672C59.5483 39.5223 59.7195 39.6215 59.7645 39.7875C59.8083 39.9536 59.7102 40.1248 59.5431 40.1697L47.9444 43.2775V43.2775Z" fill="#CFDEED"/>
<path d="M54.9044 53.2471L58.5009 52.2832L58.5656 52.5244L54.9692 53.4883L54.9044 53.2471Z" fill="#2956E2"/>
<path fill-rule="evenodd" clip-rule="evenodd" d="M67.7896 30.3181C69.5576 30.5917 69.8165 35.8914 68.6668 39.0388C67.8157 41.3717 67.6372 41.5335 71.1887 40.4412C74.3706 39.4617 81.7546 33.6671 80.8095 32.5518C75.9777 26.8512 76.7066 23.4918 76.8622 20.2473C77.1128 15.052 76.0863 14.6918 70.5131 19.0714C68.2982 20.8122 65.6708 24.8754 67.7896 30.3181Z" fill="#BA7243"/>
<path fill-rule="evenodd" clip-rule="evenodd" d="M61.7736 49.2162C61.0113 49.094 60.2646 48.5761 59.5514 48.2805C58.1197 47.6853 57.1204 48.7807 58.9729 49.9879C60.2344 50.8087 60.9455 51.2807 61.9198 52.255C64.1222 54.4573 66.0279 54.5075 68.1165 55.1466C67.6758 52.7228 67.869 50.1341 67.4283 47.7104C66.5135 46.5491 64.6234 46.1387 63.8454 45.3284C63.0278 44.4773 62.6048 44.1212 61.8927 44.4063L62.774 47.7104C62.939 48.3296 62.6873 49.3634 61.7736 49.2162V49.2162Z" fill="#BA7243"/>
<path fill-rule="evenodd" clip-rule="evenodd" d="M73.7973 8.90548C61.2306 3.08163 50.7702 10.2045 58.8142 15.2463C61.6243 17.0069 63.953 16.4158 67.4701 15.7089C68.601 18.2642 69.1096 19.439 70.5245 20.3005C73.7325 21.2612 74.3643 24.7094 77.0898 23.9063C77.4783 21.1599 77.8991 16.4064 77.2924 14.2197C79.3287 9.80773 75.3898 7.67639 73.7973 8.90548V8.90548Z" fill="#212744"/>
<path fill-rule="evenodd" clip-rule="evenodd" d="M77.0898 23.9065C77.4773 21.1705 77.896 16.4421 77.2987 14.2439C77.3373 16.5632 76.2325 21.6122 76.0811 22.15C75.7866 23.1964 75.9484 24.2427 77.0898 23.9065Z" fill="#57607D"/>
<path fill-rule="evenodd" clip-rule="evenodd" d="M67.5108 15.7131C64.7696 16.2655 63.3713 15.8739 61.2222 15.3528C59.6224 14.9654 59.3687 15.0698 59.2267 16.0003C58.904 18.093 59.9524 19.274 59.9148 20.1387C59.8825 20.8645 59.7822 21.4785 58.9854 23.3937C58.6617 24.1716 58.8779 24.8776 59.5441 25.0781C59.9232 25.1919 60.4913 25.2243 60.9236 25.2556C61.0969 25.2681 61.1575 26.0973 61.7089 26.3312C61.6901 26.8042 61.9376 27.1509 62.2415 27.4851C62.6748 27.9623 63.222 28.4145 63.2721 29.1716C63.3463 30.2701 64.6767 31.2538 66.2702 30.8017C71.4059 29.347 73.6761 24.7428 73.1008 22.7744C74.7695 22.1353 75.1308 21.2331 75.536 18.8689C75.9547 16.4316 73.5279 16.4587 72.1567 18.07C71.1428 18.093 68.7733 18.234 67.5108 15.7131V15.7131Z" fill="#DEAC70"/>
<path fill-rule="evenodd" clip-rule="evenodd" d="M67.5108 15.7131C64.7696 16.2656 63.3713 15.874 61.2223 15.3529C59.8866 15.0292 59.4898 15.049 59.3112 15.6056C59.9744 15.4792 64.6641 15.6902 65.7982 18.0356C66.5532 19.5947 68.5206 17.9719 68.9467 18.2956C71.2284 20.027 71.4195 19.2918 72.1567 18.0701C71.1428 18.093 68.7733 18.234 67.5108 15.7131V15.7131Z" fill="#BA7243"/>
<path d="M60.7095 19.0108C60.4276 19.2092 60.0569 18.5315 60.3388 18.3331C61.9209 16.4784 65.8128 19.0964 64.5472 19.3094C63.033 18.6735 61.4154 18.5095 60.7095 19.0108V19.0108Z" fill="#212744"/>
<path fill-rule="evenodd" clip-rule="evenodd" d="M74.0291 17.3682C73.3722 17.4517 72.6402 18.3268 72.4742 19.3627C72.3081 20.3997 72.6214 19.3439 73.366 19.3763C74.4551 19.4233 74.6859 17.2836 74.0291 17.3682Z" fill="#BA7242"/>
<path fill-rule="evenodd" clip-rule="evenodd" d="M57.2541 59.5012C58.7348 59.9231 67.6956 58.434 71.1396 59.4637C72.541 57.656 81.8882 60.1591 81.8517 61.8707C81.811 63.8172 80.9881 65.1716 80.7103 66.6398C80.3532 68.5216 79.1314 68.9591 77.0512 68.884C71.3903 68.6793 64.4449 66.5584 58.1573 64.2704C57.087 63.8809 56.0542 63.2512 54.8397 63.3755C51.6777 63.6146 50.6742 63.5154 49.3072 62.5724C49.0576 62.6654 48.5313 63.7389 47.6521 63.9467C47.2375 64.0448 46.4459 64.1033 46.0366 63.5519C45.8058 63.2428 45.2304 63.5927 45.456 62.0586C45.7484 61.406 46.0428 60.4014 46.4773 59.7299C46.1911 59.9179 45.6909 60.1236 45.433 60.2782C45.149 60.7439 44.8409 61.2358 44.701 61.3684C44.0117 62.0148 43.1252 61.3151 44.371 59.449C45.3484 57.9871 46.4961 57.1579 47.4902 56.4248C51.0699 55.5289 51.2433 55.5184 51.7758 55.8171C53.4498 57.3522 55.7858 59.0835 57.2541 59.5012V59.5012Z" fill="white"/>
<path fill-rule="evenodd" clip-rule="evenodd" d="M59.5901 7.35469C63.1333 6.10158 68.4757 6.49213 73.7733 8.87201C69.9523 11.0535 64.6934 12.0424 60.1018 11.491C54.9723 10.8749 56.4876 8.45221 59.5901 7.35469Z" fill="#57607D"/>
<path fill-rule="evenodd" clip-rule="evenodd" d="M68.6282 35.0569C66.1773 37.3585 65.1205 42.8075 66.6608 41.0333C63.0654 45.9152 65.6906 51.0154 65.6906 56.2357C65.6906 63.8306 67.7635 68.2384 64.9847 75.9628C63.9081 78.9557 85.8502 79.8632 87.9439 79.3358C92.2056 78.2634 89.6137 76.8682 88.9997 73.0441C87.876 66.0507 87.8666 60.3574 89.078 53.2532C92.1794 40.0026 84.951 32.6186 81.6543 31.9711C80.3928 30.6679 79.3663 28.5261 78.5936 29.2404C75.0483 32.5194 70.2311 33.5511 68.6282 35.0569V35.0569Z" fill="#212744"/>
<path fill-rule="evenodd" clip-rule="evenodd" d="M57.2645 59.7738C58.7693 60.1664 67.8679 58.5071 71.3652 59.4709C72.7885 57.6372 82.2809 59.9617 82.2433 61.6733C82.2026 63.6219 81.3671 64.9919 81.0842 66.4644C80.7218 68.3534 79.4812 68.815 77.3687 68.7795C71.62 68.6824 64.567 66.6931 58.1824 64.5252C57.0953 64.1555 56.0458 63.5456 54.8136 63.6929C51.6025 63.9915 50.0716 63.7138 48.6827 62.7969C48.429 62.8951 48.2421 63.9947 47.3492 64.2192C46.9284 64.3257 46.2893 64.5805 45.8737 64.0375C45.6397 63.7315 45.055 64.0928 45.2847 62.5546C45.5802 61.8967 45.8799 60.8859 46.3206 60.2071C46.0303 60.4003 45.5228 60.6154 45.2607 60.7742C44.9725 61.2462 44.6602 61.7443 44.5172 61.879C43.8175 62.539 42.9174 61.856 44.183 59.9659C45.1751 58.4862 46.3405 57.6341 47.3503 56.8822C50.9853 55.9183 51.1618 55.9048 51.7017 56.193C53.4018 57.6957 55.7743 59.3832 57.2645 59.7738V59.7738Z" fill="#DEAB71"/>
<path fill-rule="evenodd" clip-rule="evenodd" d="M45.6732 63.8182C45.4476 63.7201 45.1343 63.5572 45.2847 62.5547C45.5802 61.8968 45.8799 60.8859 46.3206 60.2072C46.0303 60.4003 45.5228 60.6155 45.2607 60.7742C44.9725 61.2462 44.6665 61.7516 44.5172 61.879C44.1005 62.2299 43.8175 62.1808 44.1632 61.9396C44.5516 61.6691 45.0163 60.5862 45.0852 60.4828C45.3662 60.0672 46.5775 59.7153 47.3043 58.6199C47.9403 58.7159 47.6907 59.9168 47.6145 60.2719C47.4359 61.1125 46.8542 62.0701 46.4647 62.8157C46.2245 63.2763 45.9551 63.6 45.6732 63.8182V63.8182Z" fill="#BA7243"/>
<path fill-rule="evenodd" clip-rule="evenodd" d="M81.0622 66.5739C80.6727 68.371 79.4394 68.8138 77.3687 68.7793C71.8769 68.6864 65.1946 66.8673 59.0418 64.8143C58.6116 64.8832 57.4232 64.5699 57.3919 64.337C57.3815 64.2974 57.371 64.2566 57.3616 64.2149C56.544 63.8922 55.7378 63.582 54.8136 63.6927C51.6025 63.9914 50.2366 63.8295 48.8488 62.9127C48.8049 62.9597 48.5177 63.3962 48.0854 63.7961C48.1564 63.8953 48.382 64.0353 48.5282 64.1282C49.0796 64.4791 49.0618 65.7405 47.8599 65.3072C47.4516 65.1599 46.5399 64.6723 45.7745 64.1856C45.4497 63.9799 45.055 64.0927 45.2847 62.5545C45.5802 61.8966 45.8497 60.8972 46.2903 60.2174C46.8166 59.8509 47.1853 58.3012 48.0008 57.9785C48.2859 57.8647 47.5173 58.6834 47.8317 59.0729C48.0875 59.3893 47.91 60.2091 48.2985 60.4754C49.0911 61.0173 48.6681 61.0048 49.3114 61.5071C50.2648 62.2517 52.4578 62.5806 53.7046 62.5326C55.884 62.4501 56.5043 63.4724 56.7559 61.3985C56.8155 60.9066 57.1423 60.4889 57.584 60.2738C57.6853 60.0378 57.8044 59.8707 57.9422 59.806C58.1469 59.6619 59.542 59.7579 59.9775 59.7371C59.943 59.7632 59.6799 60.2143 59.447 60.8074C59.5567 61.0194 59.6057 61.2638 59.5755 61.5238C59.5337 61.8841 59.3457 62.2036 59.0742 62.4344C59.0711 63.0693 59.3133 63.6123 60.0579 63.7836C61.4332 64.099 62.6936 64.3767 63.4633 64.4728C66.0374 64.7965 69.3059 65.7646 72.0252 66.177C75.5276 66.7086 76.7745 67.2401 80.4931 66.6282C80.5954 66.6115 80.8106 66.5885 81.0622 66.5739V66.5739Z" fill="#BA7243"/>
<path fill-rule="evenodd" clip-rule="evenodd" d="M71.3652 59.4709C72.7885 57.6372 82.2809 59.9617 82.2433 61.6733C82.237 62.0033 82.2067 62.3165 82.1608 62.6173C79.9887 60.8619 75.442 59.3279 71.3652 59.4709Z" fill="#BA7243"/>
<path d="M64.7905 25.736C64.1994 26.1307 63.5551 26.4033 62.6247 26.5672C62.2613 26.6319 61.8906 26.3959 62.2791 26.3333C63.1823 26.1871 64.0898 25.8675 64.6986 25.5188C65.5747 25.0186 65.4599 25.3204 64.7905 25.736Z" fill="#BA7242"/>
<path d="M63.2439 27.1467C63.0862 27.1999 62.7886 27.2657 62.6309 27.3127C62.3605 27.3942 62.7646 27.8839 63.4664 27.4913C64.378 26.9796 64.4939 26.7269 63.2439 27.1467V27.1467Z" fill="#BA7242"/>
<path d="M65.109 24.5256C65.037 24.4943 64.5169 24.2082 65.109 24.3763C65.6322 24.5246 66.3788 24.6854 66.1815 25.4864C66.1595 25.573 66.0301 25.7986 66.053 25.5083C66.1011 24.9235 65.5184 24.7 65.109 24.5256Z" fill="#BA7242"/>
<path fill-rule="evenodd" clip-rule="evenodd" d="M59.3384 24.983C59.5305 25.0947 60.3033 25.3098 60.8933 25.2012C61.9574 25.0059 61.9104 24.6927 61.2254 24.7344C60.0318 24.8086 58.5918 24.5506 59.3384 24.983V24.983Z" fill="#BA7242"/>
<path d="M71.3255 58.4654C71.3192 58.0832 71.3078 57.3898 71.3401 56.6995C71.4404 54.5692 71.9416 54.5473 73.7691 54.4282C74.876 54.3562 76.1208 54.2747 76.7954 54.4439C77.3248 54.5776 77.9942 54.6736 78.6928 54.7739C79.6055 54.9055 80.5683 55.0443 81.3567 55.2835C83.2823 55.8672 83.6468 55.4036 83.2426 58.3453C83.1727 58.8517 83.1152 59.1128 83.0703 59.3154C83.0098 59.589 82.9732 59.7529 82.9628 60.3398C82.9492 61.0374 82.637 61.0228 82.6505 60.3231C82.6631 59.7195 82.7017 59.543 82.7665 59.2486C82.8103 59.0522 82.8657 58.7995 82.9335 58.3035C83.298 55.6532 82.991 56.1043 81.2669 55.5811C80.5056 55.3503 79.5522 55.2125 78.6489 55.083C77.9409 54.9806 77.2621 54.8835 76.7191 54.7467C76.0915 54.589 74.8718 54.6684 73.7889 54.7394C72.0241 54.8532 71.7411 54.7801 71.6513 56.7131C71.6189 57.3992 71.6304 58.0832 71.6356 58.4601C71.6419 58.8256 71.3286 58.8194 71.3255 58.4654V58.4654Z" fill="#57607D"/>
<path d="M82.9241 55.2728C83.1664 55.3512 83.4692 55.3522 83.676 55.2781C83.7449 55.252 83.8013 55.2196 83.8337 55.1799C83.8577 55.1507 83.8681 55.1131 83.8598 55.0703C83.8431 54.9773 83.7564 54.8562 83.5737 54.7058C83.1789 54.38 83.1173 54.2411 83.2343 54.0991C83.275 54.0511 83.3314 54.0197 83.4003 53.9811C83.559 53.8944 83.8128 53.7534 83.9057 53.2898L83.9308 53.1645C84.1303 52.1766 84.2535 51.5699 83.6468 50.7115C83.0077 49.8061 83.4515 48.2982 83.6927 47.4785L83.7533 47.2707C83.7763 47.1892 83.8139 47.0827 83.8588 46.9532C84.1731 46.0583 84.8842 44.0293 83.8786 41.1158C83.3794 39.6695 83.6958 39.824 84.1125 41.0322C85.1484 44.0272 84.4164 46.1147 84.0937 47.0346C84.0509 47.1568 84.0154 47.2581 83.9935 47.3385L83.9318 47.5484C83.7021 48.3274 83.2802 49.7612 83.8514 50.5684C84.5187 51.5135 84.3882 52.1609 84.1752 53.2136L84.1501 53.3389C84.0342 53.9163 83.7178 54.0907 83.5204 54.1993C83.4734 54.2255 83.4358 54.2463 83.4264 54.2578C83.4254 54.2599 83.4901 54.3132 83.7324 54.5137C83.9642 54.7058 84.077 54.8771 84.1052 55.0243C84.1282 55.1475 84.0968 55.252 84.0258 55.3376C83.9632 55.4138 83.8702 55.4723 83.7606 55.512C83.5068 55.6039 83.1382 55.6039 82.8469 55.5099L82.9241 55.2728V55.2728Z" fill="#57607D"/>
<path d="M72.5212 54.8846C72.2288 54.9796 71.7933 55.0297 71.5009 54.9671C71.3798 54.941 71.2764 54.894 71.2085 54.823C71.1292 54.7394 71.0979 54.6308 71.1375 54.494C71.1824 54.3385 71.3339 54.139 71.6367 53.8894C71.8435 53.7182 71.7787 53.6482 71.6597 53.5197C71.5093 53.3558 71.3025 53.1334 71.219 52.7146C71.1417 52.3335 71.0258 52.0995 70.9349 51.9168C70.6916 51.427 70.5997 51.2432 71.5176 49.9442C71.5406 49.9118 71.5239 49.1182 71.4947 48.3224C71.4654 47.5612 71.4216 46.8135 71.3829 46.7341L71.2733 46.5054C70.6373 45.1803 70.7961 44.939 71.4968 46.3979L71.6075 46.6266C71.6607 46.7373 71.714 47.5246 71.7432 48.313C71.7745 49.1516 71.7745 50.01 71.7202 50.0873C70.889 51.2652 70.9621 51.4124 71.1584 51.8061C71.2555 52.0014 71.3788 52.2499 71.4623 52.6655C71.5333 53.0164 71.7119 53.2096 71.8424 53.3506C72.0763 53.6043 72.2048 53.7432 71.7954 54.0816C71.5344 54.2967 71.408 54.4533 71.3767 54.563C71.3652 54.6037 71.3714 54.6319 71.3892 54.6517C71.4205 54.6831 71.478 54.7071 71.5531 54.7227C71.8038 54.777 72.186 54.7321 72.4449 54.6475L72.5212 54.8846V54.8846Z" fill="#57607D"/>
<path d="M81.0132 32.3075C81.0539 32.2323 81.1489 32.203 81.2251 32.2438C81.3003 32.2845 81.3285 32.3795 81.2878 32.4547C80.727 33.4979 78.2751 34.397 76.3077 35.1176C75.4138 35.4455 74.6212 35.7358 74.1711 35.9781C72.5233 36.8646 71.2012 37.5904 70.0776 38.3182C68.9582 39.044 68.0319 39.7729 67.1693 40.6689C67.1098 40.7305 67.0106 40.7326 66.949 40.6731C66.8874 40.6135 66.8853 40.5143 66.9448 40.4527C67.8251 39.539 68.7692 38.7955 69.9084 38.0572C71.0446 37.321 72.3719 36.5921 74.0239 35.7034C74.4938 35.4507 75.2958 35.1562 76.2001 34.8252C78.1184 34.1224 80.5088 33.2452 81.0132 32.3075V32.3075Z" fill="#57607D"/>
<path fill-rule="evenodd" clip-rule="evenodd" d="M63.5708 28.2067C63.3484 28.0668 62.844 30.0551 64.3477 30.5762C66.2848 31.2466 64.5629 28.8323 63.5708 28.2067Z" fill="#E7C298"/>
<path fill-rule="evenodd" clip-rule="evenodd" d="M59.9399 20.5367C59.942 21.9652 58.3223 23.8177 59.1348 24.7994C59.3248 25.028 60.155 23.4032 60.225 22.8988C60.3023 22.337 60.4558 22.2869 60.3263 21.0504C60.1749 19.5979 59.9399 19.9143 59.9399 20.5367V20.5367Z" fill="#E7C298"/>
<path fill-rule="evenodd" clip-rule="evenodd" d="M61.6013 20.5845C62.3031 20.0018 61.9877 20.0718 61.9919 19.8212C61.9961 19.5706 62.5172 18.7853 61.9574 19.274C60.7001 20.3715 60.8985 21.1683 61.6013 20.5845Z" fill="#E7C298"/>
<path d="M63.5625 20.6326C63.6919 20.6357 64.6213 20.8863 63.7254 20.4843C62.892 20.1094 61.7653 19.604 61.1596 20.7349C61.1011 20.8446 60.9518 21.0983 61.2964 20.8582C61.9083 20.4342 62.8774 20.6138 63.5625 20.6326V20.6326Z" fill="#212744"/>
<path d="M62.8586 21.1672C62.4722 21.2152 62.0462 21.2894 61.6807 21.3008C61.1868 21.3186 61.3058 21.4376 61.6379 21.4846C62.0629 21.5462 62.5255 21.4815 62.9265 21.3395C63.363 21.186 63.3693 21.1035 62.8586 21.1672V21.1672Z" fill="#BA7242"/>
<path d="M56.7494 61.2019C56.9349 61.2019 57.1019 61.0582 57.1225 60.8809C57.1431 60.7036 57.0095 60.5598 56.824 60.5598C56.6386 60.5598 56.4715 60.7036 56.4509 60.8809C56.4303 61.0582 56.564 61.2019 56.7494 61.2019Z" fill="#212744"/>
<path fill-rule="evenodd" clip-rule="evenodd" d="M59.7791 59.7089C59.8187 59.4729 57.9046 59.4656 57.6822 59.6149C56.9564 59.9491 56.5032 62.8542 56.806 64.3183C56.8269 64.6148 58.6492 65.0378 58.6544 64.6973C58.1573 63.7857 59.3279 60.0358 59.7791 59.7089Z" fill="#212744"/>
<path d="M57.8438 62.533C58.6222 62.5675 59.3234 61.9952 59.4099 61.2547C59.4963 60.5143 58.9354 59.8861 58.1569 59.8517C57.3785 59.8172 56.6774 60.3895 56.5909 61.13C56.5044 61.8704 57.0654 62.4986 57.8438 62.533Z" fill="#57607D"/>
<path d="M57.8773 62.2465C58.5464 62.2761 59.1492 61.7842 59.2235 61.1477C59.2978 60.5112 58.8156 59.9712 58.1464 59.9416C57.4773 59.9119 56.8746 60.4039 56.8002 61.0404C56.7259 61.6769 57.2081 62.2169 57.8773 62.2465Z" fill="#CFDEED"/>
<path fill-rule="evenodd" clip-rule="evenodd" d="M58.1344 60.0474C58.5918 60.0673 58.9332 60.3346 58.8967 60.6427C58.8612 60.9518 58.5145 60.7262 58.0571 60.7064C57.5997 60.6865 57.205 60.8787 57.2405 60.5696C57.277 60.2605 57.677 60.0266 58.1344 60.0474V60.0474Z" fill="white"/>
<path d="M66.2598 56.004C66.2368 55.9215 66.2838 55.8349 66.3673 55.8119C66.4498 55.7879 66.5365 55.8359 66.5595 55.9184C66.6211 56.1314 67.3573 56.8447 68.1457 57.2571C68.4214 57.4012 68.7023 57.5057 68.9561 57.5318C69.1889 57.5548 69.3999 57.5119 69.5617 57.3689C69.7716 57.182 69.9137 56.8259 69.9419 56.2317C69.9492 56.0604 69.9168 54.7551 69.8876 53.6095C69.8667 52.7731 69.8479 52.0191 69.8479 51.8573C69.8479 51.7716 69.9178 51.7017 70.0035 51.7017C70.0901 51.7017 70.1601 51.7716 70.1601 51.8573C70.1601 52.0619 70.1789 52.7919 70.1987 53.6022C70.228 54.754 70.2604 56.0667 70.253 56.2442C70.2207 56.9334 70.039 57.3616 69.7675 57.6017C69.5336 57.8085 69.2412 57.8733 68.9237 57.8409C68.6282 57.8106 68.3107 57.6947 68.0016 57.5328C67.1464 57.0859 66.3339 56.262 66.2598 56.004Z" fill="#57607D"/>
</g>
<defs>
<clipPath id="clip0_4184_44182">
<rect width="90.2645" height="80" fill="white" transform="translate(0.867737)"/>
</clipPath>
</defs>
</svg>
