<svg width="112" height="80" viewBox="0 0 112 80" fill="none" xmlns="http://www.w3.org/2000/svg">
<g clip-path="url(#clip0_4184_44386)">
<path fill-rule="evenodd" clip-rule="evenodd" d="M53.7398 60.3479C66.2258 60.3479 76.348 66.645 76.348 74.4133C76.348 76.2403 75.7872 77.9856 74.7687 79.5875H32.7109C31.6924 77.9856 31.1329 76.2403 31.1329 74.4133C31.1329 66.645 41.2537 60.3479 53.7398 60.3479V60.3479Z" fill="#CFDEED"/>
<path fill-rule="evenodd" clip-rule="evenodd" d="M100.505 6.63647C98.0055 7.11806 95.5058 7.59839 93.0048 8.07872C92.5069 11.9352 92.3044 15.8168 91.511 19.6506C90.7163 23.4895 89.9908 22.7753 88.8516 19.9826C87.4609 16.5725 89.3005 11.91 90.7541 7.50912C89.3458 7.90646 87.2899 8.37044 85.9508 8.89226C84.3576 15.2522 85.5446 20.2366 85.9973 24.034C86.4399 27.7609 84.5525 28.6323 83.363 25.9352C81.0004 20.5748 81.1223 15.1013 82.7532 8.46349C80.1063 9.5612 77.4582 10.6589 74.8101 11.7566C73.8696 19.9436 75.7394 26.3476 79.333 30.6316C81.6693 33.4167 79.284 35.6486 76.6548 34.5911C70.2898 32.0348 68.3974 25.0361 67.0846 17.679C64.3334 19.9147 61.8086 22.3654 59.6684 25.1707C57.4894 28.025 64.3196 33.0194 70.0798 37.9912C73.2623 40.7386 69.3844 41.9621 68.415 41.6301C63.1251 39.8169 58.8939 40.2507 54.6941 31.5369C51.3344 36.8985 50.8125 40.9926 50.3071 45.9669C49.9852 49.1343 60.2733 46.7063 65.1482 47.9951C68.7369 48.9444 67.4945 53.4875 64.2467 53.3026C59.0737 53.0059 52.5603 55.2139 49.5325 48.9621C48.3807 52.7267 47.4326 56.3669 49.2458 62.4892C50.3938 66.3646 58.1596 63.5605 63.6758 58.9962C66.476 56.6775 67.013 59.5331 64.7609 61.5499C60.2456 65.5963 55.6548 69.0416 50.5824 69.9708C51.2539 72.1109 52.0561 73.1608 55.6095 71.027C57.9194 69.6401 59.4522 70.8787 60.9912 71.2873C66.5515 72.761 71.1347 69.8602 73.1881 65.4303C74.7712 62.0152 75.7545 62.6653 74.2028 66.0251C71.7735 71.2911 71.1498 75.9862 71.7421 79.6063H79.1771C78.6716 77.9252 78.5019 75.9133 78.6528 73.577C78.7634 71.8871 79.8712 71.3841 80.5125 73.445C81.3197 76.0365 82.1735 78.061 83.0638 79.6063H96.2691C98.8694 77.1556 101.407 74.1756 103.705 72.1939C97.0335 74.0171 88.7171 76.83 84.5437 69.0529C82.1521 64.5979 86.1733 65.9446 86.8473 66.7632C90.3856 71.0572 96.4061 70.8384 101.738 71.3187C103.147 71.4457 104.636 69.9104 105.654 68.5562C107.549 66.0351 108.657 62.3522 109.19 60.1228C106.571 61.3777 98.5626 60.0411 91.6204 59.528C89.6727 59.3847 86.9693 58.2845 92.0769 56.3808C97.9892 54.1778 104.515 57.0736 109.586 52.4979C112.469 49.8963 110.282 43.5929 110.283 39.5931C108.574 41.0454 105.413 42.8561 102.938 42.7379C98.1514 42.5078 94.6445 45.391 91.0055 46.837C89.2225 47.5437 84.5437 47.2105 91.5198 43.8834C97.3894 41.0831 100.81 43.1239 109.697 37.2204C109.809 32.8383 108.243 30.453 108.472 27.1963C101.467 32.1706 95.6416 36.2899 92.5283 37.7498C89.3835 39.2247 89.8902 36.7992 92.7408 35.4852C98.76 32.7126 103.528 30.4857 107.548 26.1552C107.012 23.5058 106.052 21.0904 104.467 19.0156C101.863 22.5653 100.103 27.4327 96.6538 29.6646C92.7659 32.182 91.8128 29.0083 95.3134 26.0458C98.4456 23.3952 100.841 19.6519 103.603 16.4543C102.346 13.3749 101.25 10.1572 100.505 6.63647V6.63647ZM77.0508 63.1079C77.4079 64.1314 77.2948 65.673 78.1222 66.1785C79.2048 66.8411 79.8284 65.4114 78.9734 64.5149C78.4126 63.9277 77.6909 63.5769 77.0508 63.1079V63.1079ZM80.2698 61.467C80.774 62.3849 80.8759 63.8938 81.7812 64.2207C82.9657 64.6469 83.3945 63.1469 82.4061 62.449C81.7586 61.9926 80.9828 61.7951 80.2698 61.467ZM81.0532 56.7215C82.3558 57.4169 83.4548 59.1986 84.9612 58.8075C86.9341 58.297 86.6071 56.0576 84.7449 56.0614C83.5252 56.0639 82.2829 56.5015 81.0532 56.7215ZM83.5252 49.5279C84.4268 49.1381 85.3736 48.0819 86.2299 48.3585C87.3515 48.7194 86.8045 50.0749 85.6704 50.0246C84.9285 49.9919 84.2407 49.6939 83.5252 49.5279ZM74.9749 55.7935C73.7263 55.1334 72.3695 53.6421 71.2316 53.8119C69.7428 54.0357 70.5827 55.8174 72.1105 55.9809C73.1126 56.0878 74.0205 55.8552 74.9749 55.7935ZM78.5987 49.0513C80.1529 48.1938 77.5123 43.261 75.4728 42.3355C72.8021 41.1234 71.7823 44.238 73.9689 46.0486C75.4011 47.2344 77.0018 48.1586 78.5987 49.0513V49.0513ZM81.9799 43.3792C82.254 41.488 83.495 39.2876 82.801 37.7057C81.8919 35.6373 80.0762 37.16 80.5288 39.3567C80.8256 40.7952 81.497 42.0388 81.9799 43.3792V43.3792Z" fill="#CFDEED"/>
<path fill-rule="evenodd" clip-rule="evenodd" d="M3.12159 30.8041C5.33211 30.2269 7.54264 29.651 9.75316 29.0739C11.0181 31.7748 12.0404 34.6052 13.5493 37.1779C15.0607 39.7543 15.5146 38.9483 15.8604 36.431C16.2841 33.3566 13.7115 30.5551 11.5223 27.8039C12.7961 27.5738 14.6281 27.1513 15.8704 27.0406C18.6078 31.2052 18.7009 35.3823 19.1535 38.3938C19.5974 41.3512 21.3779 41.2959 21.7878 38.8314C22.6026 33.9325 21.2987 29.8811 18.4695 25.523C20.939 25.352 23.4086 25.1822 25.8794 25.0125C28.4684 30.789 28.2974 36.2851 26.2114 40.8382C24.8559 43.7981 27.3531 44.5752 29.336 42.7997C34.1343 38.5007 34.1921 32.5531 33.6829 26.5528C36.4907 27.1966 39.1538 28.0843 41.5718 29.3832C44.0326 30.7047 39.3764 37.0031 35.6168 42.8827C33.5408 46.1319 37.0741 45.5949 37.8172 44.9826C41.8736 41.6442 45.5314 40.3842 47.156 32.2865C51.1608 35.0428 52.4987 37.9122 54.0151 41.448C54.9821 43.6975 45.7867 45.7333 41.9642 48.5247C39.1513 50.5793 41.1934 53.5166 43.888 52.1599C48.1783 50.0022 54.1472 49.2138 55.3254 43.3995C57.1197 45.7873 58.7166 48.1575 58.533 53.421C58.4173 56.7519 51.2627 57.5604 45.6169 56.21C42.75 55.5234 42.9248 57.8622 45.2636 58.5286C49.9537 59.8665 54.5747 60.7266 59.0485 59.522C58.953 61.3767 58.5079 62.4618 55.0475 62.1952C52.7992 62.023 51.7807 63.5243 50.5736 64.407C46.2154 67.5933 41.719 67.1368 39.0193 64.5906C36.937 62.6265 36.2518 63.4803 38.295 65.4155C43.4982 70.3445 44.352 75.9299 42.5149 79.6065H36.7069C37.362 77.5997 37.1785 75.3087 36.2052 72.7373C35.7412 71.5126 34.6976 71.5516 34.6096 73.3333C34.4813 75.945 34.1293 78.0008 33.6011 79.6065H21.5778C25.5537 78.3994 29.0946 76.2845 30.2527 71.5554C31.2888 67.3242 28.1981 69.839 27.8108 70.7041C25.7977 75.1893 20.7794 77.2854 16.4312 79.6065H13.4751C13.0828 79.4582 12.7068 79.2758 12.3686 79.091C10.2197 77.9128 8.4794 75.5703 7.54138 74.1016C10.0222 74.0601 16.4715 70.0591 22.2053 67.0752C23.8135 66.2378 25.848 64.402 21.1302 64.8899C15.6693 65.4544 10.8094 70.0666 5.53581 68.5401C2.53816 67.6738 2.99711 62.1349 2.11818 59.1397C3.87604 59.5886 6.93405 59.7596 8.99117 58.7437C12.9721 56.7783 16.557 57.6233 19.9394 57.3429C21.5942 57.2046 25.4619 55.2028 18.858 55.3248C13.3016 55.4266 10.8685 58.2357 2.09178 57.1442C1.03555 53.9051 1.83024 51.5337 0.923645 49.1811C7.91231 50.2813 13.7215 51.1829 16.6639 51.1099C19.6351 51.0357 18.6757 49.4099 15.9874 49.4942C10.3114 49.6727 5.80741 49.7909 1.47313 48.0557C1.34236 45.8716 1.62276 43.7025 2.50043 41.5562C5.47294 43.2386 8.02171 46.2236 11.4154 46.6021C15.2417 47.0296 15.3486 44.2973 11.7499 43.3907C8.53221 42.5784 5.69425 40.6735 2.66641 39.3142C3.04992 36.5391 3.26745 33.7187 3.12159 30.8041V30.8041ZM35.2571 64.2976C35.1817 65.1979 35.6143 66.3107 35.0283 66.9985C34.2625 67.9001 33.4238 67.0639 33.9469 66.0718C34.2902 65.4217 34.8208 64.8886 35.2571 64.2976ZM32.1866 64.2762C31.964 65.1514 32.2092 66.3195 31.5189 66.903C30.6148 67.6662 29.9245 66.703 30.6035 65.8103C31.0486 65.2256 31.6597 64.788 32.1866 64.2762ZM30.4865 61.0158C29.5422 62.0242 29.0078 63.7695 27.6536 64.0424C25.8807 64.3982 25.6656 62.5989 27.2336 61.9048C28.2609 61.4496 29.4027 61.3125 30.4865 61.0158ZM26.8275 56.5558C25.9825 56.6023 24.954 56.1647 24.2926 56.6928C23.4275 57.3844 24.1869 58.1929 25.13 57.7314C25.7474 57.4297 26.2617 56.9481 26.8275 56.5558V56.5558ZM35.4017 58.0433C36.3071 57.0826 37.1219 55.4568 38.1177 55.1588C39.4204 54.769 39.1048 56.4162 37.8537 57.1115C37.0339 57.5667 36.2191 57.7327 35.4017 58.0433ZM30.8713 54.354C29.3737 54.2937 30.5142 49.6111 32.0294 48.1538C34.0123 46.2475 35.5539 48.1965 34.1104 50.3718C33.1648 51.7965 32.0193 53.0866 30.8713 54.354V54.354ZM26.7797 51.374C26.1347 50.06 24.6056 48.878 24.8433 47.4333C25.1551 45.5447 27.0174 46.0049 27.118 47.818C27.1846 49.0075 26.8929 50.1883 26.7797 51.374V51.374Z" fill="#CEDEEC"/>
<path d="M35.1641 43.2221L35.1628 43.2196C34.675 43.1014 34.724 40.7727 35.3955 40.5589C34.7416 40.3049 34.1582 39.8535 33.7445 39.221C33.664 39.0978 33.5986 38.9695 33.5446 38.8375C33.5156 38.7973 33.488 38.757 33.4603 38.7155C33.1133 38.1849 33.0542 37.5726 32.8945 37.0029C32.8492 36.8407 32.8542 36.6345 32.9008 36.4032C32.3249 36.0863 34.1355 33.2735 34.846 33.4784C34.8875 33.4508 34.9277 33.4244 34.9692 33.3992C34.4901 33.1339 34.0664 32.7517 33.7457 32.2613C33.6137 32.0601 33.5056 31.8488 33.4201 31.6338C32.4142 30.0218 32.8769 27.8943 34.4738 26.8494L47.8237 18.1054C48.7642 17.4893 49.8909 17.3849 50.8779 17.7231V17.7219L63.7965 22.1517C64.5447 22.4082 66.3667 23.3249 66.8344 24.6074C71.9847 38.708 75.0428 34.9119 74.6655 51.1186L74.6178 51.1312C74.6039 51.8177 74.5851 52.5395 74.5574 53.304C74.795 55.3825 77.3275 61.4507 79.6373 68.6707H58.5607C57.981 64.9953 57.5522 61.9411 57.5246 61.0006C54.4741 60.2688 52.0687 57.1026 50.6415 53.099C50.0191 51.4506 49.5639 49.6499 49.2999 47.8078C48.3229 47.076 47.576 45.9242 47.1837 44.7511C46.8768 44.0092 46.7058 43.2384 46.7058 42.5381C46.7058 41.4278 46.902 40.6419 47.2553 39.9478L39.565 44.9862C38.9225 45.4062 38.1567 45.503 37.4476 45.332C36.7371 45.1623 36.082 44.7285 35.662 44.0859C35.5728 43.9564 35.4961 43.8231 35.4344 43.6886C35.3074 43.6584 35.2169 43.4773 35.1641 43.2221V43.2221Z" fill="#DEAB71"/>
<path d="M39.3286 44.5273C38.0335 45.3748 36.297 45.0114 35.4495 43.7163C35.4244 43.6786 35.4005 43.6396 35.3779 43.6006C39.3538 45.5119 39.2494 39.0526 35.7689 40.2446C34.856 40.0786 34.0086 39.553 33.4603 38.7156C36.3272 40.3389 37.6148 37.4318 36.8654 35.0993C36.5083 33.9865 36.2782 33.471 35.4546 33.2245L35.53 33.1755C34.7819 32.9856 34.0953 32.5505 33.5999 31.8967C34.162 32.2714 34.5819 32.1356 35.0786 31.9709C36.1575 31.6125 35.652 28.0125 34.216 27.0355C34.299 26.9702 34.3845 26.9085 34.4738 26.8494L37.2376 25.04C40.488 26.2145 43.4416 29.6975 44.6764 34.3084C45.2774 36.5491 45.3931 38.7609 45.0976 40.7476L39.3286 44.5273V44.5273Z" fill="#BA7243"/>
<path fill-rule="evenodd" clip-rule="evenodd" d="M52.9954 26.5804C47.1371 28.1509 43.6579 34.1752 45.2284 40.0334C46.7976 45.8917 52.8218 49.3697 58.6801 47.7992C63.3954 46.5367 66.5678 42.3873 66.808 37.7626C67.0934 38.1121 67.3914 38.4516 67.6517 38.7672C68.0767 39.2815 68.1471 39.2035 67.7976 38.6352C64.053 32.5443 62.9855 28.972 63.7122 26.9677C63.7827 26.7728 63.4859 26.6659 63.4142 26.8608C62.4297 28.5935 62.1455 28.0654 60.7448 27.3651C58.4274 26.207 55.6938 25.8574 52.9954 26.5804V26.5804Z" fill="#BA7243"/>
<path d="M57.3586 60.3807C53.3688 59.0076 50.2115 54.105 49.4042 47.8846C47.8778 46.8045 46.8819 45.0253 46.8819 43.0134C46.8819 41.6491 47.3396 40.393 48.1104 39.3883L42.6293 42.9782L47.4125 30.7021L58.1684 35.1609L65.5217 51.0294C68.6702 57.8257 64.6641 62.8968 57.3586 60.3807Z" fill="#BA7243"/>
<path fill-rule="evenodd" clip-rule="evenodd" d="M32.8693 4.83345L50.4806 0.114403C52.2661 -0.364669 54.1195 0.705384 54.5986 2.49216L65.3469 42.6047C65.8247 44.3915 64.7547 46.2436 62.9691 46.7227L45.3579 51.4417C43.5724 51.9196 41.719 50.8508 41.2411 49.064L30.4928 8.95146C30.0138 7.16468 31.0838 5.31127 32.8693 4.83345V4.83345Z" fill="white"/>
<path d="M56.6268 12.6117C56.5953 12.4973 56.6645 12.3779 56.7802 12.3477C56.8946 12.3162 57.014 12.3854 57.0442 12.4998L57.5987 14.5695C57.6302 14.6852 57.561 14.8034 57.4466 14.8348C57.3309 14.865 57.2127 14.7971 57.1813 14.6814L56.6268 12.6117V12.6117ZM34.5681 23.2846C34.5379 23.1689 34.6058 23.0507 34.7215 23.0193C34.8372 22.9891 34.9553 23.057 34.9855 23.1727L35.54 25.2424C35.5715 25.3568 35.5036 25.4763 35.3879 25.5064C35.2722 25.5379 35.154 25.4687 35.1226 25.3543L34.5681 23.2846V23.2846ZM32.1626 14.3029C32.1312 14.1885 32.1991 14.0691 32.3148 14.0389C32.4305 14.0075 32.5487 14.0766 32.5801 14.191L34.426 21.0841C34.4574 21.1998 34.3895 21.318 34.2738 21.3495C34.1582 21.3796 34.04 21.3117 34.0085 21.1961L32.1626 14.3029V14.3029Z" fill="#57607D"/>
<path fill-rule="evenodd" clip-rule="evenodd" d="M33.0843 5.25847L50.5069 0.590972C52.1089 0.160939 53.7712 1.1216 54.2012 2.72353L64.8992 42.6512C65.3293 44.2532 64.3686 45.9155 62.7667 46.3455L45.3453 51.013C43.7421 51.443 42.0798 50.4824 41.651 48.8804L30.9517 8.95273C30.523 7.35079 31.4824 5.6885 33.0843 5.25847V5.25847Z" fill="#212744"/>
<path fill-rule="evenodd" clip-rule="evenodd" d="M51.45 47.0836C50.981 47.2093 50.4982 46.9314 50.3724 46.4611C50.2467 45.9921 50.5258 45.5093 50.9948 45.3835L55.0588 44.2946C55.5291 44.1689 56.0106 44.4468 56.1364 44.9171C56.2634 45.3861 55.9842 45.8689 55.5152 45.9947L51.45 47.0836Z" fill="#57607D"/>
<path fill-rule="evenodd" clip-rule="evenodd" d="M32.7272 9.51481L52.9451 4.0979L62.6686 40.3879L42.4508 45.8061L32.7272 9.51481Z" fill="white"/>
<path fill-rule="evenodd" clip-rule="evenodd" d="M60.7159 34.5938L62.1732 40.0296L55.8359 41.7271C55.7013 41.6554 55.5945 41.5863 55.5203 41.5196L48.5379 35.2791C47.1434 34.0318 47.0227 31.8904 48.2713 30.4947C49.4621 29.1631 51.4702 28.9933 52.8621 30.0684L59.0989 34.1374L60.7159 34.5938V34.5938Z" fill="#90B2CF"/>
<path fill-rule="evenodd" clip-rule="evenodd" d="M39.1275 6.78256C38.8282 6.86303 38.5201 6.68448 38.4397 6.38522C38.3592 6.08721 38.5377 5.77915 38.837 5.69867L45.7452 3.84651C46.0445 3.7673 46.3538 3.94459 46.433 4.24385C46.5135 4.54312 46.3349 4.85118 46.0356 4.93166L39.1275 6.78256Z" fill="#57607D"/>
<path fill-rule="evenodd" clip-rule="evenodd" d="M36.429 19.1389L51.3557 15.1391L52.4547 14.8448L54.371 14.3306L52.8746 16.4116L55.8006 27.3309L39.775 31.6249L36.429 19.1389Z" fill="#CFDEED"/>
<path d="M38.4484 22.4812L50.7182 19.1931L50.9986 20.2418L38.7288 23.5287L38.4484 22.4812Z" fill="#90B2CF"/>
<path d="M52.0976 17.7005L44.5519 19.7224L44.2715 18.6737L51.8159 16.6531L52.0976 17.7005Z" fill="#90B2CF"/>
<path d="M39.0093 24.5773L47.3937 22.3303L47.6741 23.379L39.2909 25.6247L39.0093 24.5773Z" fill="#90B2CF"/>
<path d="M39.5713 26.6734L53.5008 22.9402L53.7825 23.9889L39.8517 27.7208L39.5713 26.6734Z" fill="#2956E2"/>
<path d="M40.1334 28.7695L48.5253 26.52L48.807 27.5687L40.4138 29.8169L40.1334 28.7695Z" fill="#2956E2"/>
<path d="M50.1637 26.085L50.7346 25.9328C50.8779 25.8938 51.0238 25.9177 51.1432 25.9869C51.2249 26.0347 51.2941 26.1026 51.3419 26.1868L51.5594 26.129C51.5594 26.0309 51.5846 25.9366 51.6323 25.8549C51.7015 25.7367 51.8159 25.6424 51.9593 25.6046L52.5289 25.4512C52.6722 25.4135 52.8181 25.4361 52.9375 25.5053C53.057 25.5757 53.1513 25.6889 53.189 25.8322C53.228 25.9756 53.2041 26.1214 53.1349 26.2409C53.0658 26.3603 52.9514 26.4546 52.808 26.4924L52.2384 26.6458C52.0951 26.6835 51.9492 26.6596 51.8298 26.5904C51.748 26.5439 51.6776 26.4748 51.6298 26.3905L51.4123 26.4484C51.4123 26.5464 51.3871 26.6395 51.3394 26.7212C51.2702 26.8419 51.1558 26.935 51.0137 26.974L50.4428 27.1261C50.2995 27.1651 50.1536 27.1412 50.0342 27.072C49.9147 27.0029 49.8217 26.8884 49.7827 26.7451C49.745 26.603 49.7689 26.4572 49.8368 26.3364C49.9059 26.217 50.0216 26.1239 50.1637 26.085V26.085ZM50.8465 26.6005C50.7748 26.6194 50.6993 26.5766 50.6805 26.5049C50.6616 26.432 50.7044 26.3578 50.776 26.339L51.0615 26.2623C51.0451 26.2459 51.0263 26.2321 51.0074 26.2208C50.9483 26.1868 50.8754 26.1755 50.805 26.1944L50.2341 26.3478C50.1624 26.3666 50.1058 26.4132 50.0719 26.471C50.0379 26.5313 50.0266 26.6043 50.0455 26.6747C50.0644 26.7464 50.1109 26.8029 50.17 26.8369C50.2291 26.8708 50.302 26.8834 50.3724 26.8646L50.9433 26.7112C51.0137 26.6923 51.0715 26.6458 51.1055 26.5867C51.1168 26.5678 51.1256 26.5464 51.1319 26.5238L50.8465 26.6005V26.6005ZM51.8411 26.0535L52.1252 25.9768C52.1982 25.958 52.2724 26.0007 52.2912 26.0724C52.3113 26.1453 52.2686 26.2195 52.1957 26.2396L51.9102 26.3151C51.9266 26.3314 51.9454 26.3453 51.9643 26.3566C52.0247 26.3905 52.0963 26.4018 52.168 26.383L52.7376 26.2308C52.8093 26.212 52.8659 26.1654 52.8998 26.1063C52.935 26.0472 52.9463 25.9743 52.9275 25.9026C52.9086 25.831 52.8621 25.7744 52.803 25.7404C52.7426 25.7065 52.671 25.6939 52.5993 25.714L52.0297 25.8662C51.958 25.885 51.9014 25.9316 51.8675 25.9907C51.8562 26.0108 51.8474 26.0309 51.8411 26.0535V26.0535Z" fill="#2956E2"/>
<path fill-rule="evenodd" clip-rule="evenodd" d="M38.9288 20.214C38.7779 20.0845 38.6345 20.0543 38.4346 20.1071C38.2812 20.1486 38.1517 20.2467 38.0725 20.3837C37.9895 20.5246 37.9694 20.6918 38.0134 20.8553C38.0964 21.1684 38.3868 21.3444 38.6873 21.2639C38.8747 21.2136 38.9967 21.1156 39.0746 20.9546C39.0771 20.9483 39.0784 20.9408 39.0759 20.9332C39.0721 20.9269 39.0671 20.9207 39.0608 20.9181L38.881 20.8427C38.8684 20.8364 38.8533 20.8427 38.847 20.8565C38.8055 20.9458 38.7339 21.0062 38.6333 21.0326C38.4736 21.0753 38.3214 20.9722 38.2724 20.7874C38.246 20.688 38.2523 20.5874 38.2913 20.5045C38.3302 20.4215 38.4006 20.3624 38.4899 20.3385C38.593 20.3108 38.681 20.3322 38.7603 20.4039C38.7666 20.4089 38.7728 20.4114 38.7804 20.4114C38.7867 20.4114 38.793 20.4076 38.798 20.4026L38.9313 20.253C38.9363 20.2467 38.9388 20.2404 38.9376 20.2329C38.9376 20.2253 38.9338 20.219 38.9288 20.214V20.214ZM39.487 20.6428L39.5725 20.1612L39.7536 20.5711L39.487 20.6428V20.6428ZM40.1799 20.7937L39.6002 19.7249C39.5964 19.7161 39.5851 19.7123 39.5763 19.7148L39.4481 19.7487C39.4405 19.7513 39.4342 19.7576 39.4317 19.7651L39.1224 21.0715C39.1211 21.0791 39.1224 21.0866 39.1274 21.0917C39.1325 21.0967 39.14 21.0979 39.1475 21.0967L39.3626 21.0389C39.3689 21.0376 39.3739 21.0313 39.3764 21.025L39.4179 20.8804L39.8618 20.7622L39.9246 20.8729C39.9297 20.8804 39.9385 20.8842 39.9473 20.8817L40.1673 20.8238C40.1723 20.8213 40.1774 20.8188 40.1799 20.8138C40.1837 20.8075 40.1837 20.7999 40.1799 20.7937V20.7937ZM42.6218 19.2307C42.7965 19.1842 42.9487 19.281 42.999 19.4721C43.0581 19.6934 42.9688 19.8707 42.7701 19.9235C42.5954 19.9713 42.4432 19.8745 42.3929 19.6834C42.3326 19.4621 42.4231 19.2848 42.6218 19.2307ZM42.9977 19.0509C42.8707 18.978 42.7173 18.9604 42.5664 19.0006C42.4067 19.0433 42.2735 19.1389 42.1917 19.2709C42.105 19.4118 42.0836 19.5765 42.1301 19.7487C42.1716 19.9034 42.2647 20.0304 42.3929 20.1033C42.5199 20.1775 42.6733 20.1951 42.8229 20.1549C42.9839 20.1121 43.1172 20.0166 43.1989 19.8845C43.2869 19.7437 43.3083 19.579 43.2618 19.4067C43.2203 19.2521 43.1272 19.1251 42.9977 19.0509V19.0509ZM41.7554 19.584C41.7994 19.7487 41.7265 19.8581 41.5366 19.9084L41.4599 19.9298C41.4599 19.9298 41.4599 19.9298 41.4587 19.9298C41.4587 19.9286 41.4587 19.9286 41.4587 19.9286L41.4184 19.4621C41.4184 19.4608 41.4197 19.4608 41.4197 19.4608L41.4486 19.4533C41.6209 19.4067 41.7189 19.4482 41.7554 19.584ZM41.8661 19.9902V19.9889C42.0169 19.8783 42.0748 19.7047 42.0232 19.5124C41.988 19.3816 41.9138 19.286 41.807 19.2357C41.7026 19.1854 41.5655 19.1817 41.4134 19.2219L41.1581 19.2898C41.1481 19.2936 41.1405 19.3036 41.1418 19.3137L41.2411 20.5082C41.2424 20.5145 41.2449 20.5208 41.2512 20.5246C41.2562 20.5283 41.2638 20.5296 41.27 20.5283L41.4863 20.4705C41.4964 20.4667 41.5039 20.4567 41.5027 20.4466L41.48 20.1637C41.48 20.1624 41.48 20.1624 41.48 20.1624L41.5932 20.1323C41.6095 20.1272 41.6246 20.1235 41.6397 20.1184C41.641 20.1184 41.641 20.1184 41.641 20.1184L41.8661 20.3561C41.8723 20.3624 41.8811 20.3649 41.8887 20.3624L42.1138 20.302C42.1226 20.2995 42.1276 20.2932 42.1301 20.2857C42.1326 20.2781 42.1314 20.2706 42.1251 20.2643L41.8661 19.9902ZM40.5231 20.1373C40.7231 20.0845 40.8136 19.9638 40.7608 19.7638C40.7143 19.5928 40.5948 19.5551 40.4163 19.6029L40.3848 19.6117C40.3798 19.6129 40.376 19.618 40.376 19.6255L40.4251 20.1473C40.4263 20.1561 40.4339 20.1612 40.4414 20.1599L40.5231 20.1373V20.1373ZM41.1393 20.5623L40.9004 20.6264C40.8953 20.6277 40.8903 20.6264 40.8865 20.6226L40.6439 20.3536C40.6401 20.3498 40.6338 20.3485 40.63 20.351C40.6137 20.3561 40.5973 20.3599 40.5797 20.3649L40.4603 20.3976C40.454 20.3988 40.4502 20.4051 40.4515 20.4114L40.4804 20.7283C40.4804 20.7346 40.4766 20.7408 40.4703 20.7421L40.2415 20.8037C40.2327 20.8062 40.2251 20.7999 40.2251 20.7924L40.1007 19.4545C40.1007 19.447 40.1044 19.4419 40.1107 19.4394L40.3811 19.3678C40.7067 19.2797 40.9444 19.3992 41.0223 19.6934C41.0726 19.8808 41.0374 20.082 40.8664 20.2115C40.8601 20.2152 40.8589 20.2253 40.8639 20.2303L41.1456 20.5409C41.1519 20.5485 41.1493 20.5598 41.1393 20.5623V20.5623Z" fill="#FF5722"/>
<path fill-rule="evenodd" clip-rule="evenodd" d="M32.7272 9.51481L52.9451 4.0979L54.3119 9.20046L34.094 14.6174L32.7272 9.51481Z" fill="#33CC99"/>
<path d="M40.83 16.0861C40.5408 16.1628 40.2428 15.9918 40.1648 15.7026C40.0881 15.4134 40.2591 15.1154 40.5483 15.0374L48.9327 12.7917C49.2219 12.7137 49.5199 12.886 49.5966 13.1752C49.6746 13.4644 49.5023 13.7612 49.2131 13.8391L40.83 16.0861V16.0861Z" fill="#CFDEED"/>
<path d="M47.4125 30.702C47.6552 29.9627 47.9092 29.3943 48.2462 29.0222C47.7809 27.6377 53.1815 29.295 53.4242 29.3541C53.7901 29.4446 54.498 29.2573 54.9997 29.3415C56.1729 29.5402 56.2445 29.5138 58.2501 29.9463C59.9338 30.3097 60.5511 30.9435 62.3329 32.8623L71.6088 44.0809C72.797 45.5885 72.5393 47.7726 71.0329 48.9609C70.8242 49.1256 70.6041 49.2614 70.374 49.3708C70.4733 50.647 69.8597 51.9283 68.6841 52.6249C68.0453 53.0047 67.3349 53.1543 66.6458 53.1002C67.5021 57.1403 66.6898 60.0952 64.693 59.8387C62.5542 59.5646 59.676 54.9939 58.6864 51.2217C57.6956 47.4507 57.4642 44.5209 58.0414 42.7115C55.8623 39.8182 55.0047 36.6433 55.3254 36.2057C53.4091 37.013 46.3663 33.8858 47.4125 30.702V30.702Z" fill="#DEAB71"/>
<path d="M47.4125 30.7021C47.8828 33.2459 50.8038 33.6973 52.7879 34.5448C54.8564 35.4287 56.7425 34.9572 57.8289 33.0447C57.898 32.8511 58.1935 32.9579 58.1231 33.1516C57.6453 34.4719 56.8909 34.7787 57.4202 35.5469C61.1384 40.945 64.6252 43.8949 67.9975 47.2936C75.718 55.077 69.6548 56.7833 71.2945 61.3955C71.7773 62.7547 72.6512 65.5612 73.6005 68.6708H60.1928C59.3679 64.5063 58.7342 60.8422 58.7795 59.488C60.7637 59.615 62.7479 59.742 64.7333 59.8702C64.7371 59.835 64.7408 59.7998 64.7434 59.7646C62.6762 59.0013 60.0872 54.9563 58.7732 50.319C57.9659 47.4672 57.7987 44.7134 58.2074 42.9518C59.2246 44.2142 59.6496 44.3714 58.3406 42.6714C56.0836 39.7442 55.3619 36.4171 55.563 35.9694C53.443 36.5415 47.0278 34.2153 47.4125 30.7021V30.7021Z" fill="#BA7243"/>
<path fill-rule="evenodd" clip-rule="evenodd" d="M45.5553 44.457L42.706 45.2215L41.1481 39.4097C41.1644 39.323 41.1808 39.2362 41.1959 39.1495C41.4008 37.9273 42.5664 37.1954 43.8691 37.501C45.2246 37.8191 46.2167 39.1394 46.0847 40.4496C46.0168 41.1538 46.0142 41.8743 45.8835 42.5595C45.7602 43.2046 45.6508 43.8333 45.5553 44.457V44.457Z" fill="#90B2CF"/>
<path fill-rule="evenodd" clip-rule="evenodd" d="M24.4158 54.3289C23.225 53.4814 21.5389 53.7894 20.7165 55.028L16.9808 60.6398C15.6655 62.6164 14.7778 65.1149 14.9878 67.5429L15.6429 75.1125C15.7699 76.5875 15.7975 78.1379 15.4744 79.5877H38.8043L44.4136 74.4423C45.7238 73.2403 45.6358 73.2252 46.2783 71.5629L48.758 65.1614C48.8648 64.8848 48.9793 64.6144 49.0472 64.3152C49.0698 64.2159 49.1364 64.0499 49.0912 63.9732C49.1855 63.894 49.2597 63.7267 49.2068 63.6198C49.2685 63.5092 49.6004 62.7975 49.535 62.5209C49.4684 61.3238 49.1226 60.7693 49.0358 59.6188C49.022 59.4415 48.7994 59.3006 48.7894 59.1648C48.729 58.335 48.5656 56.9153 48.3518 55.8755C48.2638 55.4505 48.0463 55.0519 47.7319 55.0644C47.3647 54.7337 46.8404 54.7124 46.0457 55.2505C45.0863 55.8994 42.6558 60.9378 44.1194 62.9748C43.4743 63.1345 42.2194 65.5864 42.1566 66.0315C42.1276 66.2554 42.2421 66.4314 42.0711 66.4566C41.8636 66.4867 41.6272 66.7759 41.4776 66.8665C40.1963 67.641 39.1036 66.4012 39.9008 63.0439C40.8451 59.0643 42.1679 55.155 42.7337 51.1024C43.2128 47.6734 43.8993 44.9738 44.9078 41.9396C45.153 41.2028 45.2674 40.4282 45.4472 39.6725C45.7892 38.263 44.9241 36.8434 43.5158 36.5013C42.1603 36.1719 40.796 36.9603 40.3886 38.2743C40.1472 39.0476 39.8304 39.802 39.6631 40.5955C38.925 44.1099 37.9644 46.7819 36.9899 49.1433C36.541 50.2322 36.287 51.3928 35.9349 52.5169C34.8762 49.7582 31.2071 49.8676 30.0578 52.9369C27.9039 50.5516 25.8065 52.5421 24.4158 54.3289V54.3289Z" fill="#DEAB71"/>
<path fill-rule="evenodd" clip-rule="evenodd" d="M34.4273 50.8169C35.3867 52.6401 35.0773 54.4822 34.4876 57.236C35.1679 55.0204 36.966 52.0391 34.4273 50.8169ZM16.2364 64.2234C15.8931 65.3689 15.7321 66.5722 15.8365 67.7705L16.3797 74.0575C16.5897 76.4869 16.9292 78.202 17.7842 79.5876H37.9442L44.0401 74.2524C45.2221 73.2189 45.3365 72.8316 45.8772 71.3893C51.6123 59.4176 46.7461 64.7389 44.9078 68.9022C43.5032 72.0859 39.9573 74.7453 39.6493 72.7423C39.2167 69.9295 38.495 75.6255 38.3755 73.5357C38.2812 71.8671 39.1451 70.4765 38.964 65.2771C38.8772 62.81 39.3613 56.9417 34.8447 59.4829C32.5286 60.7869 32.8781 59.7759 31.324 59.3597C30.3332 59.0944 29.287 59.2956 28.5828 59.9369C27.2186 61.1767 26.7873 60.6926 25.1426 59.9884C22.746 58.9624 21.6093 61.9273 19.8602 61.0987C18.0332 60.2324 16.723 62.6013 16.2364 64.2234V64.2234ZM24.3806 54.3049C24.0625 54.0862 23.7116 53.9491 23.352 53.8887C23.4564 55.3021 22.9786 56.7808 22.2908 58.6983L24.3806 54.3049ZM30.0578 52.9369C29.6403 52.4742 29.2266 52.1774 28.818 52.0102C29.1851 53.851 28.6809 55.766 27.8963 58.3852C28.6168 56.5695 29.3373 54.7526 30.0578 52.9369Z" fill="#BA7243"/>
<path fill-rule="evenodd" clip-rule="evenodd" d="M58.7254 61.2055C58.6424 61.0421 58.5594 60.8786 58.4752 60.7139C59.6307 60.9779 61.0755 61.1011 61.9884 60.9628C61.2377 61.2407 59.9224 61.3086 58.7254 61.2055Z" fill="#DEAB71"/>
<path fill-rule="evenodd" clip-rule="evenodd" d="M59.3654 79.5875C58.4588 74.9829 56.7513 69.9583 58.279 67.9213C58.9643 68.5902 76.1581 64.6683 77.9436 63.0413C80.2182 63.1947 82.4941 72.3913 86.3456 79.5875H59.3654V79.5875Z" fill="white"/>
<path d="M59.5766 68.8758C59.4622 68.8859 59.3629 68.8016 59.3528 68.6885C59.3427 68.5753 59.427 68.4747 59.5414 68.4659C62.573 68.2044 65.8549 67.5467 69.0084 66.7495C72.1658 65.9523 75.1974 65.0131 77.7235 64.1907C77.8317 64.1555 77.9486 64.2159 77.9838 64.324C78.0178 64.4309 77.9587 64.5478 77.8505 64.583C75.3168 65.4079 72.2777 66.3484 69.109 67.1494C65.9353 67.9516 62.6321 68.613 59.5766 68.8758V68.8758Z" fill="#CFDEED"/>
<path d="M60.9879 75.4525C61.5553 75.3624 61.8892 74.496 61.7338 73.5173C61.5784 72.5386 60.9925 71.8183 60.4251 71.9084C59.8578 71.9985 59.5238 72.8649 59.6792 73.8436C59.8347 74.8223 60.4206 75.5426 60.9879 75.4525Z" fill="#CFDEED"/>
<path d="M1.87801 79.9999C1.65042 79.9999 1.46558 79.8151 1.46558 79.5875C1.46558 79.3599 1.65042 79.175 1.87801 79.175H109.35C109.577 79.175 109.762 79.3599 109.762 79.5875C109.762 79.8151 109.577 79.9999 109.35 79.9999H1.87801V79.9999Z" fill="#202945"/>
<path d="M37.3268 12.8331C38.3275 12.8331 39.1387 12.0218 39.1387 11.0212C39.1387 10.0205 38.3275 9.20923 37.3268 9.20923C36.3261 9.20923 35.5149 10.0205 35.5149 11.0212C35.5149 12.0218 36.3261 12.8331 37.3268 12.8331Z" fill="white"/>
</g>
<defs>
<clipPath id="clip0_4184_44386">
<rect width="110.157" height="80" fill="white" transform="translate(0.921448)"/>
</clipPath>
</defs>
</svg>
