<svg width="33" height="32" viewBox="0 0 33 32" fill="none" xmlns="http://www.w3.org/2000/svg">
<path fill-rule="evenodd" clip-rule="evenodd" d="M16.5 32C25.3366 32 32.5 24.8366 32.5 16C32.5 7.16344 25.3366 0 16.5 0C7.66344 0 0.5 7.16344 0.5 16C0.5 24.8366 7.66344 32 16.5 32Z" fill="#FFEBEE"/>
<mask id="mask0_1190_4250" style="mask-type:alpha" maskUnits="userSpaceOnUse" x="0" y="0" width="33" height="32">
<path fill-rule="evenodd" clip-rule="evenodd" d="M16.5 32C25.3366 32 32.5 24.8366 32.5 16C32.5 7.16344 25.3366 0 16.5 0C7.66344 0 0.5 7.16344 0.5 16C0.5 24.8366 7.66344 32 16.5 32Z" fill="white"/>
</mask>
<g mask="url(#mask0_1190_4250)">
</g>
<path d="M18.6158 16.916C18.6158 17.404 18.5558 17.844 18.4358 18.236C18.3158 18.628 18.1358 18.962 17.8958 19.238C17.6598 19.514 17.3638 19.726 17.0078 19.874C16.6518 20.022 16.2378 20.096 15.7658 20.096C15.5498 20.096 15.3378 20.082 15.1298 20.054C14.9218 20.03 14.7038 19.99 14.4758 19.934C14.4878 19.774 14.5018 19.614 14.5178 19.454C14.5338 19.294 14.5478 19.134 14.5598 18.974C14.5718 18.886 14.6058 18.816 14.6618 18.764C14.7218 18.708 14.8058 18.68 14.9138 18.68C14.9818 18.68 15.0698 18.694 15.1778 18.722C15.2898 18.75 15.4298 18.764 15.5978 18.764C15.8258 18.764 16.0278 18.732 16.2038 18.668C16.3798 18.6 16.5258 18.494 16.6418 18.35C16.7618 18.206 16.8518 18.02 16.9118 17.792C16.9718 17.56 17.0018 17.28 17.0018 16.952V11.324H18.6158V16.916Z" fill="#1C1D21"/>
</svg>
