<svg width="86" height="88" viewBox="0 0 86 88" fill="none" xmlns="http://www.w3.org/2000/svg">
<path d="M19.6467 86.8963L47.783 68.4189C47.7893 68.4189 47.7893 68.4127 47.7957 68.4127C53.8957 64.4089 52.5556 58.0368 52.5367 57.9616V57.9553C52.2964 56.3325 51.658 54.8476 50.7983 53.607C50.2736 52.8551 49.6225 52.2035 48.8703 51.6772L38.1303 44.1647L32.7319 40.3865L18.8503 30.681C17.8831 30.0044 17.0803 29.0896 16.543 28.0495C15.9993 27.0094 15.7149 25.8377 15.7212 24.6598L15.8097 6.63354C15.8097 6.53956 15.835 6.45184 15.8855 6.36412C15.9298 6.28893 15.9993 6.22628 16.0815 6.18242C16.1637 6.13856 16.2522 6.11976 16.3407 6.12603C16.4355 6.13229 16.524 6.16362 16.5746 6.19495L49.7047 29.0708L68.6624 42.1659C69.0859 42.4542 69.4336 42.8489 69.6738 43.3C69.9077 43.7449 70.0341 44.2524 70.0341 44.7662C70.0341 45.0231 69.9962 45.28 69.933 45.5306C69.8698 45.775 69.7813 46.0068 69.6548 46.2323C69.4146 46.6772 69.0669 47.0657 68.6624 47.3351L56.9489 55.0356C56.9489 55.0418 56.9489 55.0418 56.9489 55.0481C57.8466 57.6483 57.9098 59.9979 57.5621 61.9716C57.5621 61.9779 57.5621 61.9779 57.5621 61.9841L72.0443 52.4729C73.3086 51.6333 74.3579 50.4867 75.0785 49.1584C75.7992 47.8238 76.1658 46.3138 76.1721 44.8038C76.1785 43.3063 75.8371 41.8025 75.1354 40.4742C74.4401 39.1459 73.416 37.993 72.177 37.1409L56.6076 26.3891L55.1916 25.4054L20.0703 1.15112C19.0715 0.474427 17.902 0.0796928 16.682 0.0107709C15.4747 -0.0581511 14.2673 0.205004 13.199 0.762645C12.1243 1.32655 11.2204 2.16615 10.5946 3.18745C9.96877 4.21501 9.63374 5.38668 9.62742 6.59595L9.53891 24.6284C9.52627 26.7838 10.0446 28.9329 11.0371 30.8439C12.0295 32.755 13.4961 34.4279 15.2724 35.6748L21.4104 39.9667L27.2387 44.0394L32.6371 47.8176L38.7309 52.0782L45.2987 56.6709C45.4631 56.7837 45.6021 56.9215 45.7033 57.0719C47.1193 59.127 46.6009 61.2135 44.1356 63.4628L16.2206 81.7898C16.1447 81.8399 16.0562 81.8713 15.9614 81.8713C15.8666 81.8775 15.7781 81.8587 15.7022 81.8149C15.62 81.771 15.5442 81.7021 15.4999 81.6332C15.4557 81.5517 15.4241 81.464 15.4241 81.37L15.5126 63.0806C15.5189 61.8964 15.8223 60.7185 16.3786 59.6721C16.9412 58.6258 17.763 57.7235 18.7428 57.0656L27.5611 51.1885L22.0299 47.5043L15.2913 51.9967C13.4708 53.2185 11.9663 54.8789 10.9296 56.8025C9.89924 58.7198 9.34928 60.8814 9.33664 63.0556L9.24814 81.345C9.24182 82.5417 9.5642 83.7196 10.1837 84.7597C10.8032 85.7873 11.6882 86.6331 12.7628 87.2096C13.8311 87.7735 15.0322 88.0492 16.2395 87.9928C17.4722 87.9427 18.6416 87.5605 19.6467 86.8963Z" fill="#5E81F4"/>
</svg>
