<svg width="16" height="16" viewBox="0 0 16 16" fill="none" xmlns="http://www.w3.org/2000/svg">
<path fill-rule="evenodd" clip-rule="evenodd" d="M15 12.3514H1V4H15V12.3514ZM14.2107 11.579V11.5791H1.78674L1.78643 4.76876H1.78647L1.78679 11.579H14.2107ZM2.07444 11.2914H13.923V5.05639H2.07416L2.07444 11.2914ZM14.7123 12.0638V4.28772H1.28767V4.28767H14.7123V12.0638H14.7123Z" fill="#1C1D21"/>
<path d="M12.7169 5.5H12.7332C13.0463 5.5 13.3 5.75735 13.3 6.07481V6.07556C13.3 6.39302 13.0463 6.65037 12.7332 6.65037H12.7169C12.4038 6.65037 12.15 6.39302 12.15 6.07556V6.07481C12.15 5.75735 12.4038 5.5 12.7169 5.5Z" fill="#1C1D21"/>
<path d="M3.57052 5.5H3.57951C3.8946 5.5 4.15002 5.75752 4.15002 6.07519C4.15002 6.39285 3.8946 6.65037 3.57951 6.65037H3.57052C3.25544 6.65037 3.00001 6.39285 3.00001 6.07519C3.00001 5.75752 3.25544 5.5 3.57052 5.5Z" fill="#1C1D21"/>
<path d="M12.7202 9.65039H12.7299C13.0448 9.65039 13.3 9.90791 13.3 10.2256C13.3 10.5432 13.0448 10.8008 12.7299 10.8008H12.7202C12.4053 10.8008 12.15 10.5432 12.15 10.2256C12.15 9.90791 12.4053 9.65039 12.7202 9.65039Z" fill="#1C1D21"/>
<path d="M3.5639 9.65039H3.58613C3.89756 9.65039 4.15002 9.90791 4.15002 10.2256C4.15002 10.5432 3.89756 10.8008 3.58613 10.8008H3.5639C3.25247 10.8008 3.00001 10.5432 3.00001 10.2256C3.00001 9.90791 3.25247 9.65039 3.5639 9.65039Z" fill="#1C1D21"/>
</svg>
