<svg width="12" height="14" viewBox="0 0 12 14" fill="none" xmlns="http://www.w3.org/2000/svg">
<path d="M5.99995 7.6C6.99406 7.6 7.79995 6.79411 7.79995 5.8C7.79995 4.80589 6.99406 4 5.99995 4C5.00584 4 4.19995 4.80589 4.19995 5.8C4.19995 6.79411 5.00584 7.6 5.99995 7.6Z" stroke="#1C1D21" stroke-linecap="round" stroke-linejoin="round"/>
<path d="M5.99995 1C4.72691 1 3.50601 1.50571 2.60584 2.40589C1.70566 3.30606 1.19995 4.52696 1.19995 5.8C1.19995 6.9352 1.44115 7.678 2.09995 8.5L5.99995 13L9.89995 8.5C10.5588 7.678 10.8 6.9352 10.8 5.8C10.8 4.52696 10.2942 3.30606 9.39406 2.40589C8.49389 1.50571 7.27299 1 5.99995 1V1Z" stroke="#1C1D21" stroke-linecap="round" stroke-linejoin="round"/>
</svg>
