<svg width="13" height="10" viewBox="0 0 13 10" fill="none" xmlns="http://www.w3.org/2000/svg">
<path d="M6.33334 0.5C2.84114 0.5 2.21015e-06 3.34113 2.21015e-06 6.83333C-0.000818853 7.8108 0.227138 8.7749 0.665636 9.6485C0.773302 9.86383 0.992436 10 1.23247 10H11.4336C11.6736 10 11.8934 9.86383 12.001 9.6485C12.4395 8.7749 12.6675 7.8108 12.6667 6.83333C12.6667 3.34113 9.82554 0.5 6.33334 0.5ZM11.0263 8.73333H1.64034C1.39285 8.13049 1.2659 7.485 1.26667 6.83333C1.26667 4.0397 3.5397 1.76667 6.33334 1.76667C9.12697 1.76667 11.4 4.0397 11.4 6.83333C11.4008 7.485 11.2738 8.13049 11.0263 8.73333Z" fill="#1C1D21"/>
<path d="M5.66143 6.16132C5.52671 6.24943 5.41605 6.36971 5.33947 6.5113C5.26288 6.65289 5.22278 6.81133 5.22278 6.97231C5.22278 7.13328 5.26288 7.29172 5.33947 7.43332C5.41605 7.57491 5.52671 7.69519 5.66143 7.78329C5.76789 7.85334 5.88711 7.9017 6.01228 7.9256C6.13745 7.94951 6.26611 7.94849 6.39089 7.9226C6.51566 7.89672 6.63411 7.84648 6.73944 7.77475C6.84477 7.70303 6.93492 7.61124 7.00473 7.50462L9.514 3.68056C9.51601 3.67721 9.51707 3.67338 9.51707 3.66947C9.51707 3.66557 9.51601 3.66174 9.514 3.65839C9.51101 3.65383 9.50636 3.65061 9.50104 3.64942C9.49571 3.64824 9.49013 3.64919 9.4855 3.65206L5.66143 6.16132Z" fill="#1C1D21"/>
</svg>
