<svg width="64" height="64" viewBox="0 0 64 64" fill="none" xmlns="http://www.w3.org/2000/svg">
<g clip-path="url(#clip0_1824_31955)">
<path d="M62.7 0.523199C62.2352 0.206437 61.691 0.0261105 61.129 0.00262755C60.567 -0.0208554 60.0096 0.113443 59.52 0.390324L1.51502 33.3875C0.523019 33.9625 -0.0629807 35.0374 0.00539428 36.1749C0.0737693 37.3156 0.784644 38.32 1.83789 38.7612L21.0004 46.8087V60.9962C21.0004 62.0938 21.6 63.1012 22.5629 63.6287C23.0125 63.875 23.5 64 23.8875 64C24.452 64 25.0173 63.8398 25.5113 63.5234L39.4113 54.591L51.7313 59.7659C52.0992 59.9205 52.4943 60.0001 52.8934 60.0003C53.4031 60.0003 53.911 59.8714 54.3659 59.6136C54.7643 59.3896 55.106 59.0773 55.365 58.7007C55.6239 58.3241 55.7931 57.8932 55.8596 57.4411L63.8596 3.44107C64.1375 2.30495 63.6375 1.17157 62.7 0.523199ZM46.1625 14.8999L22.775 41.0125L9.77877 35.5875L46.1625 14.8999ZM26.8875 55.5V49.33L32.6938 51.7687L26.8875 55.5ZM50.6 52.7374L28.525 43.4637L56.6 12.2762L50.6 52.7374Z" fill="#5E81F4"/>
</g>
<defs>
<clipPath id="clip0_1824_31955">
<rect width="64" height="64" fill="white"/>
</clipPath>
</defs>
</svg>
