<svg width="10" height="11" viewBox="0 0 10 11" fill="none" xmlns="http://www.w3.org/2000/svg">
<path d="M9.52791 9.78771C10.1918 9.35706 9.8721 8.36047 9.07416 8.36047H8.3661C8.19893 8.36047 8.0636 8.49056 8.0636 8.65089V10.2836C8.0636 10.6686 8.66859 10.6667 8.66859 10.2836V9.92093H8.84005L9.35898 10.4773C9.62305 10.7604 10.0803 10.38 9.80969 10.0899L9.52791 9.78771ZM8.66861 8.94128H9.07416C9.34862 8.94128 9.34874 9.3401 9.07416 9.3401H8.66861V8.94128Z" fill="#1C1D21"/>
<path d="M1.28867 9.60773C2.12309 9.46091 2.01143 8.26868 1.16273 8.26868H0.30774C-0.0919748 8.26868 -0.0923915 8.84948 0.30774 8.84948H1.16273C1.27897 8.84948 1.29407 9.0163 1.17964 9.03645C-0.184066 9.27632 -0.198472 10.4285 0.30774 10.4285H1.56108C1.96079 10.4285 1.96121 9.84774 1.56108 9.84774H0.707952C0.851932 9.65673 1.02996 9.65324 1.28867 9.60773Z" fill="#1C1D21"/>
<path d="M0.477784 1.54247H0.632063V2.83999C0.632063 3.22497 1.23705 3.22325 1.23705 2.83999V1.25208C1.23705 1.09159 1.10153 0.96167 0.934548 0.96167H0.477764C0.0765809 0.96167 0.0788628 1.54247 0.477784 1.54247Z" fill="#1C1D21"/>
<path d="M5.17029 2.54073H4.32814C3.92843 2.54073 3.92801 3.12153 4.32814 3.12153H5.17029C5.74815 3.12153 6.08592 2.49312 5.7531 2.04161C6.08534 1.59086 5.74899 0.96167 5.17029 0.96167H4.32814C3.92843 0.96167 3.92801 1.54247 4.32814 1.54247H5.17029C5.31393 1.54247 5.31401 1.7512 5.17029 1.7512H4.65727C4.25756 1.7512 4.25714 2.332 4.65727 2.332H5.17029C5.31395 2.33202 5.31401 2.54073 5.17029 2.54073Z" fill="#1C1D21"/>
<path d="M5.68398 9.17657H5.50902V8.61302C5.50902 8.22929 4.90403 8.22889 4.90403 8.61302V9.17657H4.51075V8.61302C4.51075 8.22929 3.90576 8.22889 3.90576 8.61302V9.46697C3.90576 9.62735 4.04119 9.75738 4.20827 9.75738H4.90405V10.1921C4.90405 10.5758 5.50904 10.5762 5.50904 10.1921V9.75738H5.684C6.08369 9.75737 6.08411 9.17657 5.68398 9.17657Z" fill="#1C1D21"/>
<path d="M9.11274 2.54073H8.424C8.02428 2.54073 8.02387 3.12153 8.424 3.12153H9.11274C10.0589 3.12153 10.0592 1.7512 9.11274 1.7512H8.76422L8.78984 1.54247H9.52629C9.926 1.54247 9.92642 0.96167 9.52629 0.96167H8.52089C8.36751 0.96167 8.23843 1.07185 8.22049 1.21808L8.12358 2.00761C8.10239 2.18008 8.24291 2.332 8.42398 2.332H9.11272C9.25954 2.33202 9.2595 2.54073 9.11274 2.54073Z" fill="#1C1D21"/>
<path d="M8.66407 7.67893C8.66407 8.06266 9.26906 8.06306 9.26906 7.67893V3.8558C9.26906 3.47207 8.66407 3.47167 8.66407 3.8558V5.47696H6.10737C5.99827 5.07465 5.66773 4.75734 5.24867 4.65259V3.85571C5.24867 3.47209 4.64368 3.47144 4.64368 3.85571V4.65259C4.22462 4.75732 3.89409 5.07463 3.78498 5.47696H1.22828V3.8558C1.22828 3.47207 0.623291 3.47167 0.623291 3.8558V7.67893C0.623291 8.06266 1.22828 8.06306 1.22828 7.67893V6.05778H3.78498C3.89407 6.46008 4.22462 6.77739 4.64368 6.88214V7.67902C4.64368 8.06264 5.24867 8.06329 5.24867 7.67902V6.88214C5.66773 6.77741 5.99825 6.46008 6.10737 6.05778H8.66407V7.67893ZM5.54109 5.76737C5.54109 6.08222 5.27423 6.33849 4.94618 6.33849C4.61822 6.33849 4.35127 6.08229 4.35127 5.76737C4.35127 5.45269 4.61796 5.19624 4.94618 5.19624C5.27397 5.19624 5.54109 5.45227 5.54109 5.76737Z" fill="#1C1D21"/>
</svg>
