<svg width="13" height="12" viewBox="0 0 13 12" fill="none" xmlns="http://www.w3.org/2000/svg">
    <path d="M4.81226 2.96905H5.96694V8.25499C5.96694 8.32374 6.02319 8.37999 6.09194 8.37999H7.02944C7.09819 8.37999 7.15444 8.32374 7.15444 8.25499V2.96905H8.31226C8.41694 2.96905 8.47476 2.84874 8.41069 2.76749L6.66069 0.551867C6.649 0.536927 6.63406 0.524844 6.61701 0.516534C6.59995 0.508225 6.58123 0.503906 6.56226 0.503906C6.54328 0.503906 6.52456 0.508225 6.50751 0.516534C6.49045 0.524844 6.47551 0.536927 6.46382 0.551867L4.71382 2.76593C4.64976 2.84874 4.70757 2.96905 4.81226 2.96905ZM12.281 7.78624H11.3435C11.2748 7.78624 11.2185 7.84249 11.2185 7.91124V10.3175H1.90601V7.91124C1.90601 7.84249 1.84976 7.78624 1.78101 7.78624H0.843506C0.774756 7.78624 0.718506 7.84249 0.718506 7.91124V11.005C0.718506 11.2816 0.941943 11.505 1.21851 11.505H11.906C12.1826 11.505 12.406 11.2816 12.406 11.005V7.91124C12.406 7.84249 12.3498 7.78624 12.281 7.78624Z" fill="black" fill-opacity="0.85"/>
</svg>
